<?xml version="1.0" encoding="UTF-8" standalone="no"?>
<!DOCTYPE svg PUBLIC "-//W3C//DTD SVG 1.0//EN"
 "http://www.w3.org/TR/2001/REC-SVG-20010904/DTD/svg10.dtd" [
 <!ATTLIST svg xmlns:xlink CDATA #FIXED "http://www.w3.org/1999/xlink">
]>
<!-- Generated by Graphviz version 2.20.2 (Mon Mar 30 10:09:11 UTC 2009)
     For user: (jccastrejon) jccastrejon,,, -->
<!-- Title: MvcAnalyzer Pages: 1 -->
<svg width="767pt" height="324pt"
 viewBox="0.00 0.00 767.00 324.00" xmlns="http://www.w3.org/2000/svg" xmlns:xlink="http://www.w3.org/1999/xlink">
<g id="graph0" class="graph" transform="scale(1 1) rotate(0) translate(4 320)">
<title>MvcAnalyzer</title>
<polygon style="fill:white;stroke:white;" points="-4,4 -4,-320 763,-320 763,4 -4,4"/>
<g id="cluster2" class="cluster"><title>cluster_mx.itesm.arch.dependencies</title>
<polygon style="fill:none;stroke:black;" points="158,-94 158,-308 550,-308 550,-94 158,-94"/>
<text text-anchor="middle" x="354" y="-296.8" style="font-family:Times New Roman;font-size:8.00;">mx.itesm.arch.dependencies</text>
</g>
<g id="cluster3" class="cluster"><title>cluster_junit.framework</title>
<polygon style="fill:none;stroke:black;" points="558,-166 558,-236 641,-236 641,-166 558,-166"/>
<text text-anchor="middle" x="599" y="-224.8" style="font-family:Times New Roman;font-size:8.00;">junit.framework</text>
</g>
<g id="cluster4" class="cluster"><title>cluster_org.objectweb.asm</title>
<polygon style="fill:none;stroke:black;" points="8,-16 8,-86 600,-86 600,-16 8,-16"/>
<text text-anchor="middle" x="304" y="-74.8" style="font-family:Times New Roman;font-size:8.00;">org.objectweb.asm</text>
</g>
<g id="cluster5" class="cluster"><title>cluster_org.objectweb.asm.commons</title>
<polygon style="fill:none;stroke:black;" points="608,-16 608,-86 751,-86 751,-16 608,-16"/>
<text text-anchor="middle" x="679" y="-74.8" style="font-family:Times New Roman;font-size:8.00;">org.objectweb.asm.commons</text>
</g>
<!-- DependencyAnalyzer -->
<g id="node1" class="node"><title>DependencyAnalyzer</title>
<polygon style="fill:none;stroke:black;" points="375,-210 273,-210 273,-174 375,-174 375,-210"/>
<text text-anchor="middle" x="324" y="-189.8" style="font-family:Times New Roman;font-size:8.00;">DependencyAnalyzer</text>
</g>
<!-- ClassDependencies -->
<g id="node3" class="node"><title>ClassDependencies</title>
<polygon style="fill:none;stroke:black;" points="521,-138 421,-138 421,-102 521,-102 521,-138"/>
<text text-anchor="middle" x="471" y="-117.8" style="font-family:Times New Roman;font-size:8.00;">ClassDependencies</text>
</g>
<!-- DependencyAnalyzer&#45;&gt;ClassDependencies -->
<g id="edge2" class="edge"><title>DependencyAnalyzer&#45;&gt;ClassDependencies</title>
<path style="fill:none;stroke:black;" d="M361,-174C381,-164 405,-153 426,-142"/>
<polygon style="fill:black;stroke:black;" points="427.283,-145.26 435,-138 424.44,-138.863 427.283,-145.26"/>
</g>
<!-- DependencyVisitor -->
<g id="node5" class="node"><title>DependencyVisitor</title>
<polygon style="fill:none;stroke:black;" points="403,-138 309,-138 309,-102 403,-102 403,-138"/>
<text text-anchor="middle" x="356" y="-117.8" style="font-family:Times New Roman;font-size:8.00;">DependencyVisitor</text>
</g>
<!-- DependencyAnalyzer&#45;&gt;DependencyVisitor -->
<g id="edge4" class="edge"><title>DependencyAnalyzer&#45;&gt;DependencyVisitor</title>
<path style="fill:none;stroke:black;" d="M332,-174C336,-166 340,-156 344,-147"/>
<polygon style="fill:black;stroke:black;" points="347.137,-148.56 348,-138 340.74,-145.717 347.137,-148.56"/>
</g>
<!-- ClassReader -->
<g id="node7" class="node"><title>ClassReader</title>
<polygon style="fill:none;stroke:black;" points="86,-60 16,-60 16,-24 86,-24 86,-60"/>
<text text-anchor="middle" x="51" y="-39.8" style="font-family:Times New Roman;font-size:8.00;">ClassReader</text>
</g>
<!-- DependencyAnalyzer&#45;&gt;ClassReader -->
<g id="edge6" class="edge"><title>DependencyAnalyzer&#45;&gt;ClassReader</title>
<path style="fill:none;stroke:black;" d="M273,-175C224,-158 150,-127 95,-86 88,-80 81,-74 74,-68"/>
<polygon style="fill:black;stroke:black;" points="76.2191,-65.221 67,-60 70.9511,-69.8306 76.2191,-65.221"/>
</g>
<!-- ClassVisitor -->
<g id="node9" class="node"><title>ClassVisitor</title>
<polygon style="fill:none;stroke:black;" points="170,-60 104,-60 104,-24 170,-24 170,-60"/>
<text text-anchor="middle" x="137" y="-39.8" style="font-family:Times New Roman;font-size:8.00;">ClassVisitor</text>
</g>
<!-- DependencyAnalyzer&#45;&gt;ClassVisitor -->
<g id="edge8" class="edge"><title>DependencyAnalyzer&#45;&gt;ClassVisitor</title>
<path style="fill:none;stroke:black;" d="M297,-174C267,-154 218,-119 179,-86 173,-80 166,-74 160,-68"/>
<polygon style="fill:black;stroke:black;" points="162.219,-65.221 153,-60 156.951,-69.8306 162.219,-65.221"/>
</g>
<!-- Type -->
<g id="node11" class="node"><title>Type</title>
<polygon style="fill:none;stroke:black;" points="428,-60 374,-60 374,-24 428,-24 428,-60"/>
<text text-anchor="middle" x="401" y="-39.8" style="font-family:Times New Roman;font-size:8.00;">Type</text>
</g>
<!-- DependencyVisitor&#45;&gt;Type -->
<g id="edge10" class="edge"><title>DependencyVisitor&#45;&gt;Type</title>
<path style="fill:none;stroke:black;" d="M366,-102C372,-92 379,-80 386,-69"/>
<polygon style="fill:black;stroke:black;" points="389.203,-70.4414 391,-60 383.084,-67.0418 389.203,-70.4414"/>
</g>
<!-- AnnotationVisitor -->
<g id="node13" class="node"><title>AnnotationVisitor</title>
<polygon style="fill:none;stroke:black;" points="356,-60 268,-60 268,-24 356,-24 356,-60"/>
<text text-anchor="middle" x="312" y="-39.8" style="font-family:Times New Roman;font-size:8.00;">AnnotationVisitor</text>
</g>
<!-- DependencyVisitor&#45;&gt;AnnotationVisitor -->
<g id="edge12" class="edge"><title>DependencyVisitor&#45;&gt;AnnotationVisitor</title>
<path style="fill:none;stroke:black;" d="M346,-102C341,-92 333,-80 327,-69"/>
<polygon style="fill:black;stroke:black;" points="329.916,-67.0418 322,-60 323.797,-70.4414 329.916,-67.0418"/>
</g>
<!-- FieldVisitor -->
<g id="node15" class="node"><title>FieldVisitor</title>
<polygon style="fill:none;stroke:black;" points="250,-60 188,-60 188,-24 250,-24 250,-60"/>
<text text-anchor="middle" x="219" y="-39.8" style="font-family:Times New Roman;font-size:8.00;">FieldVisitor</text>
</g>
<!-- DependencyVisitor&#45;&gt;FieldVisitor -->
<g id="edge14" class="edge"><title>DependencyVisitor&#45;&gt;FieldVisitor</title>
<path style="fill:none;stroke:black;" d="M309,-108C292,-103 274,-96 259,-86 252,-81 245,-74 239,-68"/>
<polygon style="fill:black;stroke:black;" points="241.219,-65.221 232,-60 235.951,-69.8306 241.219,-65.221"/>
</g>
<!-- MethodVisitor -->
<g id="node17" class="node"><title>MethodVisitor</title>
<polygon style="fill:none;stroke:black;" points="592,-60 518,-60 518,-24 592,-24 592,-60"/>
<text text-anchor="middle" x="555" y="-39.8" style="font-family:Times New Roman;font-size:8.00;">MethodVisitor</text>
</g>
<!-- DependencyVisitor&#45;&gt;MethodVisitor -->
<g id="edge16" class="edge"><title>DependencyVisitor&#45;&gt;MethodVisitor</title>
<path style="fill:none;stroke:black;" d="M390,-102C397,-99 405,-96 412,-94 453,-82 469,-103 509,-86 518,-82 526,-75 534,-67"/>
<polygon style="fill:black;stroke:black;" points="536.404,-69.546 541,-60 531.454,-64.5962 536.404,-69.546"/>
</g>
<!-- EmptyVisitor -->
<g id="node19" class="node"><title>EmptyVisitor</title>
<polygon style="fill:none;stroke:black;" points="684,-60 616,-60 616,-24 684,-24 684,-60"/>
<text text-anchor="middle" x="650" y="-39.8" style="font-family:Times New Roman;font-size:8.00;">EmptyVisitor</text>
</g>
<!-- DependencyVisitor&#45;&gt;EmptyVisitor -->
<g id="edge18" class="edge"><title>DependencyVisitor&#45;&gt;EmptyVisitor</title>
<path style="fill:none;stroke:black;" d="M389,-102C396,-99 404,-96 412,-94 453,-83 564,-102 604,-86 614,-82 622,-75 629,-68"/>
<polygon style="fill:black;stroke:black;" points="632.049,-69.8306 636,-60 626.781,-65.221 632.049,-69.8306"/>
</g>
<!-- Label -->
<g id="node21" class="node"><title>Label</title>
<polygon style="fill:none;stroke:black;" points="500,-60 446,-60 446,-24 500,-24 500,-60"/>
<text text-anchor="middle" x="473" y="-39.8" style="font-family:Times New Roman;font-size:8.00;">Label</text>
</g>
<!-- DependencyVisitor&#45;&gt;Label -->
<g id="edge20" class="edge"><title>DependencyVisitor&#45;&gt;Label</title>
<path style="fill:none;stroke:black;" d="M392,-102C399,-99 405,-96 412,-94 422,-89 427,-92 437,-86 443,-81 450,-75 455,-68"/>
<polygon style="fill:black;stroke:black;" points="457.8,-70.1 461,-60 452.2,-65.9 457.8,-70.1"/>
</g>
<!-- DependenciesUtil -->
<g id="node22" class="node"><title>DependenciesUtil</title>
<polygon style="fill:none;stroke:black;" points="483,-210 393,-210 393,-174 483,-174 483,-210"/>
<text text-anchor="middle" x="438" y="-189.8" style="font-family:Times New Roman;font-size:8.00;">DependenciesUtil</text>
</g>
<!-- DependenciesUtil&#45;&gt;ClassDependencies -->
<g id="edge22" class="edge"><title>DependenciesUtil&#45;&gt;ClassDependencies</title>
<path style="fill:none;stroke:black;" d="M446,-174C450,-166 454,-156 459,-147"/>
<polygon style="fill:black;stroke:black;" points="462.137,-148.56 463,-138 455.74,-145.717 462.137,-148.56"/>
</g>
<!-- DependenciesUtilTest -->
<g id="node24" class="node"><title>DependenciesUtilTest</title>
<polygon style="fill:none;stroke:black;" points="404,-282 298,-282 298,-246 404,-246 404,-282"/>
<text text-anchor="middle" x="351" y="-261.8" style="font-family:Times New Roman;font-size:8.00;">DependenciesUtilTest</text>
</g>
<!-- DependenciesUtilTest&#45;&gt;DependencyAnalyzer -->
<g id="edge26" class="edge"><title>DependenciesUtilTest&#45;&gt;DependencyAnalyzer</title>
<path style="fill:none;stroke:black;" d="M344,-246C341,-238 338,-228 334,-220"/>
<polygon style="fill:black;stroke:black;" points="337.226,-218.573 331,-210 330.521,-220.584 337.226,-218.573"/>
</g>
<!-- DependenciesUtilTest&#45;&gt;DependenciesUtil -->
<g id="edge24" class="edge"><title>DependenciesUtilTest&#45;&gt;DependenciesUtil</title>
<path style="fill:none;stroke:black;" d="M373,-246C384,-237 397,-226 408,-216"/>
<polygon style="fill:black;stroke:black;" points="410.1,-218.8 416,-210 405.9,-213.2 410.1,-218.8"/>
</g>
<!-- TestCase -->
<g id="node28" class="node"><title>TestCase</title>
<polygon style="fill:none;stroke:black;" points="620,-210 566,-210 566,-174 620,-174 620,-210"/>
<text text-anchor="middle" x="593" y="-189.8" style="font-family:Times New Roman;font-size:8.00;">TestCase</text>
</g>
<!-- DependenciesUtilTest&#45;&gt;TestCase -->
<g id="edge28" class="edge"><title>DependenciesUtilTest&#45;&gt;TestCase</title>
<path style="fill:none;stroke:black;" d="M404,-248C407,-247 410,-247 413,-246 443,-240 525,-249 554,-236 562,-232 569,-225 575,-218"/>
<polygon style="fill:black;stroke:black;" points="577.8,-220.1 581,-210 572.2,-215.9 577.8,-220.1"/>
</g>
<!-- DependencyAnalyzerTest -->
<g id="node29" class="node"><title>DependencyAnalyzerTest</title>
<polygon style="fill:none;stroke:black;" points="542,-282 422,-282 422,-246 542,-246 542,-282"/>
<text text-anchor="middle" x="482" y="-261.8" style="font-family:Times New Roman;font-size:8.00;">DependencyAnalyzerTest</text>
</g>
<!-- DependencyAnalyzerTest&#45;&gt;DependencyAnalyzer -->
<g id="edge32" class="edge"><title>DependencyAnalyzerTest&#45;&gt;DependencyAnalyzer</title>
<path style="fill:none;stroke:black;" d="M422,-247C404,-242 388,-238 384,-236 373,-231 362,-223 353,-216"/>
<polygon style="fill:black;stroke:black;" points="355.1,-213.2 345,-210 350.9,-218.8 355.1,-213.2"/>
</g>
<!-- DependencyAnalyzerTest&#45;&gt;ClassDependencies -->
<g id="edge30" class="edge"><title>DependencyAnalyzerTest&#45;&gt;ClassDependencies</title>
<path style="fill:none;stroke:black;" d="M489,-246C490,-243 491,-239 492,-236 497,-205 498,-196 492,-166 491,-159 489,-153 486,-147"/>
<polygon style="fill:black;stroke:black;" points="488.916,-145.042 481,-138 482.797,-148.441 488.916,-145.042"/>
</g>
<!-- DependencyAnalyzerTest&#45;&gt;TestCase -->
<g id="edge34" class="edge"><title>DependencyAnalyzerTest&#45;&gt;TestCase</title>
<path style="fill:none;stroke:black;" d="M536,-246C542,-243 548,-240 554,-236 561,-231 568,-224 574,-218"/>
<polygon style="fill:black;stroke:black;" points="576.8,-220.1 580,-210 571.2,-215.9 576.8,-220.1"/>
</g>
<!-- DependencyAnalyzer$1 -->
<g id="node34" class="node"><title>DependencyAnalyzer$1</title>
<polygon style="fill:none;stroke:black;" points="280,-282 166,-282 166,-246 280,-246 280,-282"/>
<text text-anchor="middle" x="223" y="-261.8" style="font-family:Times New Roman;font-size:8.00;">DependencyAnalyzer$1</text>
</g>
</g>
</svg>
