<?xml version="1.0" encoding="UTF-8" standalone="no"?>
<!DOCTYPE svg PUBLIC "-//W3C//DTD SVG 1.0//EN"
 "http://www.w3.org/TR/2001/REC-SVG-20010904/DTD/svg10.dtd" [
 <!ATTLIST svg xmlns:xlink CDATA #FIXED "http://www.w3.org/1999/xlink">
]>
<!-- Generated by Graphviz version 2.20.2 (Mon Mar 30 10:09:11 UTC 2009)
     For user: (jccastrejon) jccastrejon,,, -->
<!-- Title: MvcAnalyzer Pages: 1 -->
<svg width="1652pt" height="306pt"
 viewBox="0.00 0.00 1652.00 306.00" xmlns="http://www.w3.org/2000/svg" xmlns:xlink="http://www.w3.org/1999/xlink">
<g id="graph0" class="graph" transform="scale(1 1) rotate(0) translate(4 302)">
<title>MvcAnalyzer</title>
<polygon style="fill:white;stroke:white;" points="-4,4 -4,-302 1648,-302 1648,4 -4,4"/>
<g id="cluster2" class="cluster"><title>cluster_mx.itesm.arch.mvc</title>
<polygon style="fill:none;stroke:black;" points="90,-184 90,-290 314,-290 314,-184 90,-184"/>
<text text-anchor="middle" x="202" y="-278.8" style="font-family:Times New Roman;font-size:8.00;">mx.itesm.arch.mvc</text>
</g>
<g id="cluster3" class="cluster"><title>cluster_mx.itesm.arch.dependencies</title>
<polygon style="fill:none;stroke:black;" points="543,-16 543,-236 921,-236 921,-16 543,-16"/>
<text text-anchor="middle" x="732" y="-224.8" style="font-family:Times New Roman;font-size:8.00;">mx.itesm.arch.dependencies</text>
</g>
<g id="cluster4" class="cluster"><title>cluster_junit.framework</title>
<polygon style="fill:none;stroke:black;" points="929,-124 929,-176 1012,-176 1012,-124 929,-124"/>
<text text-anchor="middle" x="970" y="-164.8" style="font-family:Times New Roman;font-size:8.00;">junit.framework</text>
</g>
<g id="cluster5" class="cluster"><title>cluster_org.objectweb.asm</title>
<polygon style="fill:none;stroke:black;" points="1080,-16 1080,-68 1636,-68 1636,-16 1080,-16"/>
<text text-anchor="middle" x="1358" y="-56.8" style="font-family:Times New Roman;font-size:8.00;">org.objectweb.asm</text>
</g>
<g id="cluster6" class="cluster"><title>cluster_org.objectweb.asm.commons</title>
<polygon style="fill:none;stroke:black;" points="929,-16 929,-68 1072,-68 1072,-16 929,-16"/>
<text text-anchor="middle" x="1000" y="-56.8" style="font-family:Times New Roman;font-size:8.00;">org.objectweb.asm.commons</text>
</g>
<g id="cluster7" class="cluster"><title>cluster_weka.core</title>
<polygon style="fill:none;stroke:black;" points="8,-124 8,-176 412,-176 412,-124 8,-124"/>
<text text-anchor="middle" x="210" y="-164.8" style="font-family:Times New Roman;font-size:8.00;">weka.core</text>
</g>
<g id="cluster8" class="cluster"><title>cluster_weka.classifiers</title>
<polygon style="fill:none;stroke:black;" points="450,-124 450,-176 535,-176 535,-124 450,-124"/>
<text text-anchor="middle" x="493" y="-164.8" style="font-family:Times New Roman;font-size:8.00;">weka.classifiers</text>
</g>
<!-- MvcAnalyzerTest -->
<g id="node1" class="node"><title>MvcAnalyzerTest</title>
<polygon style="fill:none;stroke:black;" points="306,-264 222,-264 222,-246 306,-246 306,-264"/>
<text text-anchor="middle" x="264" y="-252.8" style="font-family:Times New Roman;font-size:8.00;">MvcAnalyzerTest</text>
</g>
<!-- MvcAnalyzer -->
<g id="node3" class="node"><title>MvcAnalyzer</title>
<polygon style="fill:none;stroke:black;" points="297,-210 231,-210 231,-192 297,-192 297,-210"/>
<text text-anchor="middle" x="264" y="-198.8" style="font-family:Times New Roman;font-size:8.00;">MvcAnalyzer</text>
</g>
<!-- MvcAnalyzerTest&#45;&gt;MvcAnalyzer -->
<g id="edge2" class="edge"><title>MvcAnalyzerTest&#45;&gt;MvcAnalyzer</title>
<path style="fill:none;stroke:black;" d="M264,-246C264,-239 264,-229 264,-220"/>
<polygon style="fill:black;stroke:black;" points="267.5,-220 264,-210 260.5,-220 267.5,-220"/>
</g>
<!-- TestCase -->
<g id="node5" class="node"><title>TestCase</title>
<polygon style="fill:none;stroke:black;" points="991,-150 937,-150 937,-132 991,-132 991,-150"/>
<text text-anchor="middle" x="964" y="-138.8" style="font-family:Times New Roman;font-size:8.00;">TestCase</text>
</g>
<!-- MvcAnalyzerTest&#45;&gt;TestCase -->
<g id="edge4" class="edge"><title>MvcAnalyzerTest&#45;&gt;TestCase</title>
<path style="fill:none;stroke:black;" d="M306,-254C450,-252 912,-244 925,-236 950,-219 959,-183 962,-160"/>
<polygon style="fill:black;stroke:black;" points="965.488,-160.299 963,-150 958.522,-159.602 965.488,-160.299"/>
</g>
<!-- FastVector -->
<g id="node9" class="node"><title>FastVector</title>
<polygon style="fill:none;stroke:black;" points="76,-150 16,-150 16,-132 76,-132 76,-150"/>
<text text-anchor="middle" x="46" y="-138.8" style="font-family:Times New Roman;font-size:8.00;">FastVector</text>
</g>
<!-- MvcAnalyzer&#45;&gt;FastVector -->
<g id="edge20" class="edge"><title>MvcAnalyzer&#45;&gt;FastVector</title>
<path style="fill:none;stroke:black;" d="M231,-198C186,-195 111,-187 85,-176 76,-172 67,-164 60,-157"/>
<polygon style="fill:black;stroke:black;" points="62.546,-154.596 53,-150 57.5962,-159.546 62.546,-154.596"/>
</g>
<!-- Attribute -->
<g id="node11" class="node"><title>Attribute</title>
<polygon style="fill:none;stroke:black;" points="146,-150 94,-150 94,-132 146,-132 146,-150"/>
<text text-anchor="middle" x="120" y="-138.8" style="font-family:Times New Roman;font-size:8.00;">Attribute</text>
</g>
<!-- MvcAnalyzer&#45;&gt;Attribute -->
<g id="edge18" class="edge"><title>MvcAnalyzer&#45;&gt;Attribute</title>
<path style="fill:none;stroke:black;" d="M231,-198C209,-195 179,-189 155,-176 147,-171 140,-164 134,-158"/>
<polygon style="fill:black;stroke:black;" points="136.219,-155.221 127,-150 130.951,-159.831 136.219,-155.221"/>
</g>
<!-- ClassDependencies -->
<g id="node13" class="node"><title>ClassDependencies</title>
<polygon style="fill:none;stroke:black;" points="754,-42 654,-42 654,-24 754,-24 754,-42"/>
<text text-anchor="middle" x="704" y="-30.8" style="font-family:Times New Roman;font-size:8.00;">ClassDependencies</text>
</g>
<!-- MvcAnalyzer&#45;&gt;ClassDependencies -->
<g id="edge12" class="edge"><title>MvcAnalyzer&#45;&gt;ClassDependencies</title>
<path style="fill:none;stroke:black;" d="M297,-199C336,-196 397,-189 416,-176 438,-160 426,-141 446,-124 504,-76 588,-53 644,-42"/>
<polygon style="fill:black;stroke:black;" points="644.881,-45.3933 654,-40 643.508,-38.5292 644.881,-45.3933"/>
</g>
<!-- DependencyAnalyzer -->
<g id="node15" class="node"><title>DependencyAnalyzer</title>
<polygon style="fill:none;stroke:black;" points="897,-150 795,-150 795,-132 897,-132 897,-150"/>
<text text-anchor="middle" x="846" y="-138.8" style="font-family:Times New Roman;font-size:8.00;">DependencyAnalyzer</text>
</g>
<!-- MvcAnalyzer&#45;&gt;DependencyAnalyzer -->
<g id="edge14" class="edge"><title>MvcAnalyzer&#45;&gt;DependencyAnalyzer</title>
<path style="fill:none;stroke:black;" d="M297,-198C349,-194 452,-185 539,-176 624,-167 723,-156 785,-148"/>
<polygon style="fill:black;stroke:black;" points="785.398,-151.478 795,-147 784.701,-144.512 785.398,-151.478"/>
</g>
<!-- Classifier -->
<g id="node17" class="node"><title>Classifier</title>
<polygon style="fill:none;stroke:black;" points="516,-150 460,-150 460,-132 516,-132 516,-150"/>
<text text-anchor="middle" x="488" y="-138.8" style="font-family:Times New Roman;font-size:8.00;">Classifier</text>
</g>
<!-- MvcAnalyzer&#45;&gt;Classifier -->
<g id="edge16" class="edge"><title>MvcAnalyzer&#45;&gt;Classifier</title>
<path style="fill:none;stroke:black;" d="M297,-199C342,-195 420,-187 446,-176 456,-172 466,-164 473,-157"/>
<polygon style="fill:black;stroke:black;" points="475.404,-159.546 480,-150 470.454,-154.596 475.404,-159.546"/>
</g>
<!-- Instance -->
<g id="node21" class="node"><title>Instance</title>
<polygon style="fill:none;stroke:black;" points="290,-150 238,-150 238,-132 290,-132 290,-150"/>
<text text-anchor="middle" x="264" y="-138.8" style="font-family:Times New Roman;font-size:8.00;">Instance</text>
</g>
<!-- MvcAnalyzer&#45;&gt;Instance -->
<g id="edge22" class="edge"><title>MvcAnalyzer&#45;&gt;Instance</title>
<path style="fill:none;stroke:black;" d="M264,-192C264,-184 264,-171 264,-160"/>
<polygon style="fill:black;stroke:black;" points="267.5,-160 264,-150 260.5,-160 267.5,-160"/>
</g>
<!-- Instances -->
<g id="node23" class="node"><title>Instances</title>
<polygon style="fill:none;stroke:black;" points="220,-150 164,-150 164,-132 220,-132 220,-150"/>
<text text-anchor="middle" x="192" y="-138.8" style="font-family:Times New Roman;font-size:8.00;">Instances</text>
</g>
<!-- MvcAnalyzer&#45;&gt;Instances -->
<g id="edge24" class="edge"><title>MvcAnalyzer&#45;&gt;Instances</title>
<path style="fill:none;stroke:black;" d="M250,-192C244,-187 236,-182 229,-176 222,-170 215,-163 209,-157"/>
<polygon style="fill:black;stroke:black;" points="210.831,-153.951 201,-150 206.221,-159.219 210.831,-153.951"/>
</g>
<!-- SerializationHelper -->
<g id="node25" class="node"><title>SerializationHelper</title>
<polygon style="fill:none;stroke:black;" points="404,-150 308,-150 308,-132 404,-132 404,-150"/>
<text text-anchor="middle" x="356" y="-138.8" style="font-family:Times New Roman;font-size:8.00;">SerializationHelper</text>
</g>
<!-- MvcAnalyzer&#45;&gt;SerializationHelper -->
<g id="edge26" class="edge"><title>MvcAnalyzer&#45;&gt;SerializationHelper</title>
<path style="fill:none;stroke:black;" d="M278,-192C292,-183 316,-167 333,-156"/>
<polygon style="fill:black;stroke:black;" points="335.621,-158.459 342,-150 331.738,-152.635 335.621,-158.459"/>
</g>
<!-- MvcAnalyzer$Variable -->
<g id="node6" class="node"><title>MvcAnalyzer$Variable</title>
<polygon style="fill:none;stroke:black;" points="204,-264 98,-264 98,-246 204,-246 204,-264"/>
<text text-anchor="middle" x="151" y="-252.8" style="font-family:Times New Roman;font-size:8.00;">MvcAnalyzer$Variable</text>
</g>
<!-- MvcAnalyzer$Variable&#45;&gt;MvcAnalyzer -->
<g id="edge6" class="edge"><title>MvcAnalyzer$Variable&#45;&gt;MvcAnalyzer</title>
<path style="fill:none;stroke:black;" d="M170,-246C188,-237 215,-224 236,-214"/>
<polygon style="fill:black;stroke:black;" points="237.283,-217.26 245,-210 234.44,-210.863 237.283,-217.26"/>
</g>
<!-- MvcAnalyzer$Variable&#45;&gt;FastVector -->
<g id="edge8" class="edge"><title>MvcAnalyzer$Variable&#45;&gt;FastVector</title>
<path style="fill:none;stroke:black;" d="M141,-246C137,-243 134,-239 130,-236 105,-209 77,-177 61,-158"/>
<polygon style="fill:black;stroke:black;" points="63.2191,-155.221 54,-150 57.9511,-159.831 63.2191,-155.221"/>
</g>
<!-- MvcAnalyzer$Variable&#45;&gt;Attribute -->
<g id="edge10" class="edge"><title>MvcAnalyzer$Variable&#45;&gt;Attribute</title>
<path style="fill:none;stroke:black;" d="M148,-246C143,-227 132,-185 125,-160"/>
<polygon style="fill:black;stroke:black;" points="128.226,-158.573 122,-150 121.521,-160.584 128.226,-158.573"/>
</g>
<!-- DependencyAnalyzer&#45;&gt;ClassDependencies -->
<g id="edge28" class="edge"><title>DependencyAnalyzer&#45;&gt;ClassDependencies</title>
<path style="fill:none;stroke:black;" d="M840,-132C830,-119 811,-94 790,-78 774,-65 754,-54 736,-46"/>
<polygon style="fill:black;stroke:black;" points="737.56,-42.8631 727,-42 734.717,-49.2598 737.56,-42.8631"/>
</g>
<!-- DependencyVisitor -->
<g id="node28" class="node"><title>DependencyVisitor</title>
<polygon style="fill:none;stroke:black;" points="913,-96 819,-96 819,-78 913,-78 913,-96"/>
<text text-anchor="middle" x="866" y="-84.8" style="font-family:Times New Roman;font-size:8.00;">DependencyVisitor</text>
</g>
<!-- DependencyAnalyzer&#45;&gt;DependencyVisitor -->
<g id="edge30" class="edge"><title>DependencyAnalyzer&#45;&gt;DependencyVisitor</title>
<path style="fill:none;stroke:black;" d="M849,-132C852,-125 856,-115 859,-106"/>
<polygon style="fill:black;stroke:black;" points="862.479,-106.584 862,-96 855.774,-104.573 862.479,-106.584"/>
</g>
<!-- DependenciesUtil -->
<g id="node30" class="node"><title>DependenciesUtil</title>
<polygon style="fill:none;stroke:black;" points="781,-96 691,-96 691,-78 781,-78 781,-96"/>
<text text-anchor="middle" x="736" y="-84.8" style="font-family:Times New Roman;font-size:8.00;">DependenciesUtil</text>
</g>
<!-- DependencyAnalyzer&#45;&gt;DependenciesUtil -->
<g id="edge32" class="edge"><title>DependencyAnalyzer&#45;&gt;DependenciesUtil</title>
<path style="fill:none;stroke:black;" d="M827,-132C810,-123 784,-110 764,-101"/>
<polygon style="fill:black;stroke:black;" points="765.441,-97.7969 755,-96 762.042,-103.916 765.441,-97.7969"/>
</g>
<!-- ClassReader -->
<g id="node32" class="node"><title>ClassReader</title>
<polygon style="fill:none;stroke:black;" points="1544,-42 1474,-42 1474,-24 1544,-24 1544,-42"/>
<text text-anchor="middle" x="1509" y="-30.8" style="font-family:Times New Roman;font-size:8.00;">ClassReader</text>
</g>
<!-- DependencyAnalyzer&#45;&gt;ClassReader -->
<g id="edge34" class="edge"><title>DependencyAnalyzer&#45;&gt;ClassReader</title>
<path style="fill:none;stroke:black;" d="M883,-132C896,-129 911,-126 925,-124 954,-119 1437,-79 1465,-68 1475,-64 1485,-56 1493,-49"/>
<polygon style="fill:black;stroke:black;" points="1495.78,-51.2191 1501,-42 1491.17,-45.9511 1495.78,-51.2191"/>
</g>
<!-- ClassVisitor -->
<g id="node34" class="node"><title>ClassVisitor</title>
<polygon style="fill:none;stroke:black;" points="1628,-42 1562,-42 1562,-24 1628,-24 1628,-42"/>
<text text-anchor="middle" x="1595" y="-30.8" style="font-family:Times New Roman;font-size:8.00;">ClassVisitor</text>
</g>
<!-- DependencyAnalyzer&#45;&gt;ClassVisitor -->
<g id="edge36" class="edge"><title>DependencyAnalyzer&#45;&gt;ClassVisitor</title>
<path style="fill:none;stroke:black;" d="M883,-132C896,-129 911,-126 925,-124 1093,-99 1137,-111 1307,-96 1416,-85 1451,-111 1553,-68 1563,-64 1572,-56 1580,-49"/>
<polygon style="fill:black;stroke:black;" points="1582.4,-51.546 1587,-42 1577.45,-46.5962 1582.4,-51.546"/>
</g>
<!-- Type -->
<g id="node36" class="node"><title>Type</title>
<polygon style="fill:none;stroke:black;" points="1122,-42 1088,-42 1088,-24 1122,-24 1122,-42"/>
<text text-anchor="middle" x="1105" y="-30.8" style="font-family:Times New Roman;font-size:8.00;">Type</text>
</g>
<!-- DependencyVisitor&#45;&gt;Type -->
<g id="edge38" class="edge"><title>DependencyVisitor&#45;&gt;Type</title>
<path style="fill:none;stroke:black;" d="M913,-84C971,-81 1062,-75 1076,-68 1083,-64 1089,-57 1094,-50"/>
<polygon style="fill:black;stroke:black;" points="1096.8,-52.1 1100,-42 1091.2,-47.9 1096.8,-52.1"/>
</g>
<!-- AnnotationVisitor -->
<g id="node38" class="node"><title>AnnotationVisitor</title>
<polygon style="fill:none;stroke:black;" points="1456,-42 1368,-42 1368,-24 1456,-24 1456,-42"/>
<text text-anchor="middle" x="1412" y="-30.8" style="font-family:Times New Roman;font-size:8.00;">AnnotationVisitor</text>
</g>
<!-- DependencyVisitor&#45;&gt;AnnotationVisitor -->
<g id="edge40" class="edge"><title>DependencyVisitor&#45;&gt;AnnotationVisitor</title>
<path style="fill:none;stroke:black;" d="M913,-86C1032,-83 1337,-74 1359,-68 1371,-63 1384,-55 1394,-48"/>
<polygon style="fill:black;stroke:black;" points="1396.1,-50.8 1402,-42 1391.9,-45.2 1396.1,-50.8"/>
</g>
<!-- FieldVisitor -->
<g id="node40" class="node"><title>FieldVisitor</title>
<polygon style="fill:none;stroke:black;" points="1350,-42 1288,-42 1288,-24 1350,-24 1350,-42"/>
<text text-anchor="middle" x="1319" y="-30.8" style="font-family:Times New Roman;font-size:8.00;">FieldVisitor</text>
</g>
<!-- DependencyVisitor&#45;&gt;FieldVisitor -->
<g id="edge42" class="edge"><title>DependencyVisitor&#45;&gt;FieldVisitor</title>
<path style="fill:none;stroke:black;" d="M913,-87C1015,-85 1246,-81 1279,-68 1289,-64 1298,-56 1305,-49"/>
<polygon style="fill:black;stroke:black;" points="1307.4,-51.546 1312,-42 1302.45,-46.5962 1307.4,-51.546"/>
</g>
<!-- MethodVisitor -->
<g id="node42" class="node"><title>MethodVisitor</title>
<polygon style="fill:none;stroke:black;" points="1270,-42 1196,-42 1196,-24 1270,-24 1270,-42"/>
<text text-anchor="middle" x="1233" y="-30.8" style="font-family:Times New Roman;font-size:8.00;">MethodVisitor</text>
</g>
<!-- DependencyVisitor&#45;&gt;MethodVisitor -->
<g id="edge44" class="edge"><title>DependencyVisitor&#45;&gt;MethodVisitor</title>
<path style="fill:none;stroke:black;" d="M913,-86C996,-83 1162,-77 1187,-68 1198,-64 1208,-56 1216,-49"/>
<polygon style="fill:black;stroke:black;" points="1218.78,-51.2191 1224,-42 1214.17,-45.9511 1218.78,-51.2191"/>
</g>
<!-- EmptyVisitor -->
<g id="node44" class="node"><title>EmptyVisitor</title>
<polygon style="fill:none;stroke:black;" points="1005,-42 937,-42 937,-24 1005,-24 1005,-42"/>
<text text-anchor="middle" x="971" y="-30.8" style="font-family:Times New Roman;font-size:8.00;">EmptyVisitor</text>
</g>
<!-- DependencyVisitor&#45;&gt;EmptyVisitor -->
<g id="edge46" class="edge"><title>DependencyVisitor&#45;&gt;EmptyVisitor</title>
<path style="fill:none;stroke:black;" d="M900,-78C908,-75 917,-72 925,-68 935,-63 945,-55 953,-49"/>
<polygon style="fill:black;stroke:black;" points="955.779,-51.2191 961,-42 951.169,-45.9511 955.779,-51.2191"/>
</g>
<!-- Label -->
<g id="node46" class="node"><title>Label</title>
<polygon style="fill:none;stroke:black;" points="1178,-42 1140,-42 1140,-24 1178,-24 1178,-42"/>
<text text-anchor="middle" x="1159" y="-30.8" style="font-family:Times New Roman;font-size:8.00;">Label</text>
</g>
<!-- DependencyVisitor&#45;&gt;Label -->
<g id="edge48" class="edge"><title>DependencyVisitor&#45;&gt;Label</title>
<path style="fill:none;stroke:black;" d="M913,-86C984,-83 1112,-77 1131,-68 1138,-64 1144,-57 1148,-50"/>
<polygon style="fill:black;stroke:black;" points="1150.8,-52.1 1154,-42 1145.2,-47.9 1150.8,-52.1"/>
</g>
<!-- DependenciesUtil&#45;&gt;ClassDependencies -->
<g id="edge50" class="edge"><title>DependenciesUtil&#45;&gt;ClassDependencies</title>
<path style="fill:none;stroke:black;" d="M730,-78C726,-71 719,-60 714,-51"/>
<polygon style="fill:black;stroke:black;" points="716.916,-49.0418 709,-42 710.797,-52.4414 716.916,-49.0418"/>
</g>
<!-- DependenciesUtilTest -->
<g id="node48" class="node"><title>DependenciesUtilTest</title>
<polygon style="fill:none;stroke:black;" points="913,-210 807,-210 807,-192 913,-192 913,-210"/>
<text text-anchor="middle" x="860" y="-198.8" style="font-family:Times New Roman;font-size:8.00;">DependenciesUtilTest</text>
</g>
<!-- DependenciesUtilTest&#45;&gt;TestCase -->
<g id="edge56" class="edge"><title>DependenciesUtilTest&#45;&gt;TestCase</title>
<path style="fill:none;stroke:black;" d="M890,-192C902,-188 914,-183 925,-176 933,-170 941,-164 948,-158"/>
<polygon style="fill:black;stroke:black;" points="951.049,-159.831 955,-150 945.781,-155.221 951.049,-159.831"/>
</g>
<!-- DependenciesUtilTest&#45;&gt;DependencyAnalyzer -->
<g id="edge54" class="edge"><title>DependenciesUtilTest&#45;&gt;DependencyAnalyzer</title>
<path style="fill:none;stroke:black;" d="M858,-192C856,-184 853,-171 850,-160"/>
<polygon style="fill:black;stroke:black;" points="853.393,-159.119 848,-150 846.529,-160.492 853.393,-159.119"/>
</g>
<!-- DependenciesUtilTest&#45;&gt;DependenciesUtil -->
<g id="edge52" class="edge"><title>DependenciesUtilTest&#45;&gt;DependenciesUtil</title>
<path style="fill:none;stroke:black;" d="M826,-192C810,-187 793,-181 786,-176 764,-157 750,-126 742,-106"/>
<polygon style="fill:black;stroke:black;" points="745.226,-104.573 739,-96 738.521,-106.584 745.226,-104.573"/>
</g>
<!-- DependencyAnalyzerTest -->
<g id="node52" class="node"><title>DependencyAnalyzerTest</title>
<polygon style="fill:none;stroke:black;" points="789,-210 669,-210 669,-192 789,-192 789,-210"/>
<text text-anchor="middle" x="729" y="-198.8" style="font-family:Times New Roman;font-size:8.00;">DependencyAnalyzerTest</text>
</g>
<!-- DependencyAnalyzerTest&#45;&gt;TestCase -->
<g id="edge62" class="edge"><title>DependencyAnalyzerTest&#45;&gt;TestCase</title>
<path style="fill:none;stroke:black;" d="M759,-192C771,-189 785,-186 798,-184 826,-179 899,-186 925,-176 934,-172 943,-164 950,-157"/>
<polygon style="fill:black;stroke:black;" points="952.404,-159.546 957,-150 947.454,-154.596 952.404,-159.546"/>
</g>
<!-- DependencyAnalyzerTest&#45;&gt;ClassDependencies -->
<g id="edge58" class="edge"><title>DependencyAnalyzerTest&#45;&gt;ClassDependencies</title>
<path style="fill:none;stroke:black;" d="M723,-192C713,-174 690,-134 682,-96 679,-80 685,-63 692,-51"/>
<polygon style="fill:black;stroke:black;" points="695.203,-52.4414 697,-42 689.084,-49.0418 695.203,-52.4414"/>
</g>
<!-- DependencyAnalyzerTest&#45;&gt;DependencyAnalyzer -->
<g id="edge60" class="edge"><title>DependencyAnalyzerTest&#45;&gt;DependencyAnalyzer</title>
<path style="fill:none;stroke:black;" d="M747,-192C766,-182 797,-166 819,-155"/>
<polygon style="fill:black;stroke:black;" points="820.958,-157.916 828,-150 817.559,-151.797 820.958,-157.916"/>
</g>
<!-- DependenciesUtil$1 -->
<g id="node58" class="node"><title>DependenciesUtil$1</title>
<polygon style="fill:none;stroke:black;" points="651,-210 551,-210 551,-192 651,-192 651,-210"/>
<text text-anchor="middle" x="601" y="-198.8" style="font-family:Times New Roman;font-size:8.00;">DependenciesUtil$1</text>
</g>
</g>
</svg>
