<?xml version="1.0" encoding="UTF-8" standalone="no"?>
<!DOCTYPE svg PUBLIC "-//W3C//DTD SVG 1.0//EN"
 "http://www.w3.org/TR/2001/REC-SVG-20010904/DTD/svg10.dtd" [
 <!ATTLIST svg xmlns:xlink CDATA #FIXED "http://www.w3.org/1999/xlink">
]>
<!-- Generated by Graphviz version 2.20.2 (Mon Mar 30 10:09:11 UTC 2009)
     For user: (jccastrejon) jccastrejon,,, -->
<!-- Title: MvcAnalyzer Pages: 1 -->
<svg width="1692pt" height="396pt"
 viewBox="0.00 0.00 1692.00 396.00" xmlns="http://www.w3.org/2000/svg" xmlns:xlink="http://www.w3.org/1999/xlink">
<g id="graph0" class="graph" transform="scale(1 1) rotate(0) translate(4 392)">
<title>MvcAnalyzer</title>
<polygon style="fill:white;stroke:white;" points="-4,4 -4,-392 1688,-392 1688,4 -4,4"/>
<g id="cluster2" class="cluster"><title>cluster_mx.itesm.arch.mvc</title>
<polygon style="fill:none;stroke:black;" points="93,-238 93,-380 317,-380 317,-238 93,-238"/>
<text text-anchor="middle" x="205" y="-368.8" style="font-family:Times New Roman;font-size:8.00;">mx.itesm.arch.mvc</text>
</g>
<g id="cluster3" class="cluster"><title>cluster_mx.itesm.arch.dependencies</title>
<polygon style="fill:none;stroke:black;" points="547,-16 547,-308 925,-308 925,-16 547,-16"/>
<text text-anchor="middle" x="736" y="-296.8" style="font-family:Times New Roman;font-size:8.00;">mx.itesm.arch.dependencies</text>
</g>
<g id="cluster4" class="cluster"><title>cluster_junit.framework</title>
<polygon style="fill:none;stroke:black;" points="933,-160 933,-230 1016,-230 1016,-160 933,-160"/>
<text text-anchor="middle" x="974" y="-218.8" style="font-family:Times New Roman;font-size:8.00;">junit.framework</text>
</g>
<g id="cluster5" class="cluster"><title>cluster_org.objectweb.asm</title>
<polygon style="fill:none;stroke:black;" points="1084,-16 1084,-86 1676,-86 1676,-16 1084,-16"/>
<text text-anchor="middle" x="1380" y="-74.8" style="font-family:Times New Roman;font-size:8.00;">org.objectweb.asm</text>
</g>
<g id="cluster6" class="cluster"><title>cluster_org.objectweb.asm.commons</title>
<polygon style="fill:none;stroke:black;" points="933,-16 933,-86 1076,-86 1076,-16 933,-16"/>
<text text-anchor="middle" x="1004" y="-74.8" style="font-family:Times New Roman;font-size:8.00;">org.objectweb.asm.commons</text>
</g>
<g id="cluster7" class="cluster"><title>cluster_weka.core</title>
<polygon style="fill:none;stroke:black;" points="8,-160 8,-230 416,-230 416,-160 8,-160"/>
<text text-anchor="middle" x="212" y="-218.8" style="font-family:Times New Roman;font-size:8.00;">weka.core</text>
</g>
<g id="cluster8" class="cluster"><title>cluster_weka.classifiers</title>
<polygon style="fill:none;stroke:black;" points="454,-160 454,-230 539,-230 539,-160 454,-160"/>
<text text-anchor="middle" x="497" y="-218.8" style="font-family:Times New Roman;font-size:8.00;">weka.classifiers</text>
</g>
<!-- MvcAnalyzerTest -->
<g id="node1" class="node"><title>MvcAnalyzerTest</title>
<polygon style="fill:none;stroke:black;" points="309,-354 225,-354 225,-318 309,-318 309,-354"/>
<text text-anchor="middle" x="267" y="-333.8" style="font-family:Times New Roman;font-size:8.00;">MvcAnalyzerTest</text>
</g>
<!-- MvcAnalyzer -->
<g id="node3" class="node"><title>MvcAnalyzer</title>
<polygon style="fill:none;stroke:black;" points="300,-282 234,-282 234,-246 300,-246 300,-282"/>
<text text-anchor="middle" x="267" y="-261.8" style="font-family:Times New Roman;font-size:8.00;">MvcAnalyzer</text>
</g>
<!-- MvcAnalyzerTest&#45;&gt;MvcAnalyzer -->
<g id="edge2" class="edge"><title>MvcAnalyzerTest&#45;&gt;MvcAnalyzer</title>
<path style="fill:none;stroke:black;" d="M267,-318C267,-310 267,-301 267,-292"/>
<polygon style="fill:black;stroke:black;" points="270.5,-292 267,-282 263.5,-292 270.5,-292"/>
</g>
<!-- TestCase -->
<g id="node5" class="node"><title>TestCase</title>
<polygon style="fill:none;stroke:black;" points="995,-204 941,-204 941,-168 995,-168 995,-204"/>
<text text-anchor="middle" x="968" y="-183.8" style="font-family:Times New Roman;font-size:8.00;">TestCase</text>
</g>
<!-- MvcAnalyzerTest&#45;&gt;TestCase -->
<g id="edge4" class="edge"><title>MvcAnalyzerTest&#45;&gt;TestCase</title>
<path style="fill:none;stroke:black;" d="M309,-336C451,-334 905,-327 929,-308 957,-286 965,-243 967,-214"/>
<polygon style="fill:black;stroke:black;" points="970.488,-214.299 968,-204 963.522,-213.602 970.488,-214.299"/>
</g>
<!-- FastVector -->
<g id="node9" class="node"><title>FastVector</title>
<polygon style="fill:none;stroke:black;" points="76,-204 16,-204 16,-168 76,-168 76,-204"/>
<text text-anchor="middle" x="46" y="-183.8" style="font-family:Times New Roman;font-size:8.00;">FastVector</text>
</g>
<!-- MvcAnalyzer&#45;&gt;FastVector -->
<g id="edge20" class="edge"><title>MvcAnalyzer&#45;&gt;FastVector</title>
<path style="fill:none;stroke:black;" d="M234,-260C189,-255 110,-244 85,-230 77,-226 70,-219 64,-212"/>
<polygon style="fill:black;stroke:black;" points="66.8,-209.9 58,-204 61.2,-214.1 66.8,-209.9"/>
</g>
<!-- Attribute -->
<g id="node11" class="node"><title>Attribute</title>
<polygon style="fill:none;stroke:black;" points="148,-204 94,-204 94,-168 148,-168 148,-204"/>
<text text-anchor="middle" x="121" y="-183.8" style="font-family:Times New Roman;font-size:8.00;">Attribute</text>
</g>
<!-- MvcAnalyzer&#45;&gt;Attribute -->
<g id="edge18" class="edge"><title>MvcAnalyzer&#45;&gt;Attribute</title>
<path style="fill:none;stroke:black;" d="M234,-259C211,-254 180,-245 157,-230 151,-225 144,-219 139,-212"/>
<polygon style="fill:black;stroke:black;" points="141.8,-209.9 133,-204 136.2,-214.1 141.8,-209.9"/>
</g>
<!-- ClassDependencies -->
<g id="node13" class="node"><title>ClassDependencies</title>
<polygon style="fill:none;stroke:black;" points="758,-60 658,-60 658,-24 758,-24 758,-60"/>
<text text-anchor="middle" x="708" y="-39.8" style="font-family:Times New Roman;font-size:8.00;">ClassDependencies</text>
</g>
<!-- MvcAnalyzer&#45;&gt;ClassDependencies -->
<g id="edge12" class="edge"><title>MvcAnalyzer&#45;&gt;ClassDependencies</title>
<path style="fill:none;stroke:black;" d="M300,-260C340,-255 403,-245 420,-230 447,-208 427,-184 450,-160 505,-103 591,-72 648,-56"/>
<polygon style="fill:black;stroke:black;" points="649.427,-59.2259 658,-53 647.416,-52.5212 649.427,-59.2259"/>
</g>
<!-- DependencyAnalyzer -->
<g id="node15" class="node"><title>DependencyAnalyzer</title>
<polygon style="fill:none;stroke:black;" points="901,-204 799,-204 799,-168 901,-168 901,-204"/>
<text text-anchor="middle" x="850" y="-183.8" style="font-family:Times New Roman;font-size:8.00;">DependencyAnalyzer</text>
</g>
<!-- MvcAnalyzer&#45;&gt;DependencyAnalyzer -->
<g id="edge14" class="edge"><title>MvcAnalyzer&#45;&gt;DependencyAnalyzer</title>
<path style="fill:none;stroke:black;" d="M300,-260C352,-254 456,-241 543,-230 628,-218 727,-204 789,-194"/>
<polygon style="fill:black;stroke:black;" points="789.398,-197.478 799,-193 788.701,-190.512 789.398,-197.478"/>
</g>
<!-- Classifier -->
<g id="node17" class="node"><title>Classifier</title>
<polygon style="fill:none;stroke:black;" points="520,-204 464,-204 464,-168 520,-168 520,-204"/>
<text text-anchor="middle" x="492" y="-183.8" style="font-family:Times New Roman;font-size:8.00;">Classifier</text>
</g>
<!-- MvcAnalyzer&#45;&gt;Classifier -->
<g id="edge16" class="edge"><title>MvcAnalyzer&#45;&gt;Classifier</title>
<path style="fill:none;stroke:black;" d="M300,-260C346,-255 425,-243 450,-230 459,-226 466,-219 472,-212"/>
<polygon style="fill:black;stroke:black;" points="475.049,-213.831 479,-204 469.781,-209.221 475.049,-213.831"/>
</g>
<!-- Instance -->
<g id="node21" class="node"><title>Instance</title>
<polygon style="fill:none;stroke:black;" points="294,-204 240,-204 240,-168 294,-168 294,-204"/>
<text text-anchor="middle" x="267" y="-183.8" style="font-family:Times New Roman;font-size:8.00;">Instance</text>
</g>
<!-- MvcAnalyzer&#45;&gt;Instance -->
<g id="edge22" class="edge"><title>MvcAnalyzer&#45;&gt;Instance</title>
<path style="fill:none;stroke:black;" d="M267,-246C267,-236 267,-225 267,-214"/>
<polygon style="fill:black;stroke:black;" points="270.5,-214 267,-204 263.5,-214 270.5,-214"/>
</g>
<!-- Instances -->
<g id="node23" class="node"><title>Instances</title>
<polygon style="fill:none;stroke:black;" points="222,-204 166,-204 166,-168 222,-168 222,-204"/>
<text text-anchor="middle" x="194" y="-183.8" style="font-family:Times New Roman;font-size:8.00;">Instances</text>
</g>
<!-- MvcAnalyzer&#45;&gt;Instances -->
<g id="edge24" class="edge"><title>MvcAnalyzer&#45;&gt;Instances</title>
<path style="fill:none;stroke:black;" d="M247,-246C242,-241 236,-235 231,-230 226,-225 221,-218 216,-212"/>
<polygon style="fill:black;stroke:black;" points="218.219,-209.221 209,-204 212.951,-213.831 218.219,-209.221"/>
</g>
<!-- SerializationHelper -->
<g id="node25" class="node"><title>SerializationHelper</title>
<polygon style="fill:none;stroke:black;" points="408,-204 312,-204 312,-168 408,-168 408,-204"/>
<text text-anchor="middle" x="360" y="-183.8" style="font-family:Times New Roman;font-size:8.00;">SerializationHelper</text>
</g>
<!-- MvcAnalyzer&#45;&gt;SerializationHelper -->
<g id="edge26" class="edge"><title>MvcAnalyzer&#45;&gt;SerializationHelper</title>
<path style="fill:none;stroke:black;" d="M289,-246C302,-235 318,-222 331,-211"/>
<polygon style="fill:black;stroke:black;" points="333.779,-213.219 339,-204 329.169,-207.951 333.779,-213.219"/>
</g>
<!-- MvcAnalyzer$Variable -->
<g id="node6" class="node"><title>MvcAnalyzer$Variable</title>
<polygon style="fill:none;stroke:black;" points="207,-354 101,-354 101,-318 207,-318 207,-354"/>
<text text-anchor="middle" x="154" y="-333.8" style="font-family:Times New Roman;font-size:8.00;">MvcAnalyzer$Variable</text>
</g>
<!-- MvcAnalyzer$Variable&#45;&gt;MvcAnalyzer -->
<g id="edge6" class="edge"><title>MvcAnalyzer$Variable&#45;&gt;MvcAnalyzer</title>
<path style="fill:none;stroke:black;" d="M183,-318C197,-309 215,-298 230,-288"/>
<polygon style="fill:black;stroke:black;" points="232.621,-290.459 239,-282 228.738,-284.635 232.621,-290.459"/>
</g>
<!-- MvcAnalyzer$Variable&#45;&gt;FastVector -->
<g id="edge8" class="edge"><title>MvcAnalyzer$Variable&#45;&gt;FastVector</title>
<path style="fill:none;stroke:black;" d="M138,-318C135,-314 133,-311 130,-308 106,-276 80,-238 63,-213"/>
<polygon style="fill:black;stroke:black;" points="65.916,-211.042 58,-204 59.7969,-214.441 65.916,-211.042"/>
</g>
<!-- MvcAnalyzer$Variable&#45;&gt;Attribute -->
<g id="edge10" class="edge"><title>MvcAnalyzer$Variable&#45;&gt;Attribute</title>
<path style="fill:none;stroke:black;" d="M150,-318C144,-292 133,-245 127,-214"/>
<polygon style="fill:black;stroke:black;" points="130.393,-213.119 125,-204 123.529,-214.492 130.393,-213.119"/>
</g>
<!-- DependencyAnalyzer&#45;&gt;ClassDependencies -->
<g id="edge28" class="edge"><title>DependencyAnalyzer&#45;&gt;ClassDependencies</title>
<path style="fill:none;stroke:black;" d="M838,-168C831,-158 822,-144 814,-132 805,-116 807,-109 794,-96 783,-84 768,-73 755,-65"/>
<polygon style="fill:black;stroke:black;" points="756.441,-61.7969 746,-60 753.042,-67.916 756.441,-61.7969"/>
</g>
<!-- DependenciesUtil -->
<g id="node28" class="node"><title>DependenciesUtil</title>
<polygon style="fill:none;stroke:black;" points="785,-132 695,-132 695,-96 785,-96 785,-132"/>
<text text-anchor="middle" x="740" y="-111.8" style="font-family:Times New Roman;font-size:8.00;">DependenciesUtil</text>
</g>
<!-- DependencyAnalyzer&#45;&gt;DependenciesUtil -->
<g id="edge30" class="edge"><title>DependencyAnalyzer&#45;&gt;DependenciesUtil</title>
<path style="fill:none;stroke:black;" d="M822,-168C808,-159 791,-148 776,-138"/>
<polygon style="fill:black;stroke:black;" points="777.262,-134.635 767,-132 773.379,-140.459 777.262,-134.635"/>
</g>
<!-- DependencyVisitor -->
<g id="node30" class="node"><title>DependencyVisitor</title>
<polygon style="fill:none;stroke:black;" points="917,-132 823,-132 823,-96 917,-96 917,-132"/>
<text text-anchor="middle" x="870" y="-111.8" style="font-family:Times New Roman;font-size:8.00;">DependencyVisitor</text>
</g>
<!-- DependencyAnalyzer&#45;&gt;DependencyVisitor -->
<g id="edge32" class="edge"><title>DependencyAnalyzer&#45;&gt;DependencyVisitor</title>
<path style="fill:none;stroke:black;" d="M855,-168C857,-160 860,-151 862,-142"/>
<polygon style="fill:black;stroke:black;" points="865.479,-142.584 865,-132 858.774,-140.573 865.479,-142.584"/>
</g>
<!-- ClassReader -->
<g id="node32" class="node"><title>ClassReader</title>
<polygon style="fill:none;stroke:black;" points="1584,-60 1514,-60 1514,-24 1584,-24 1584,-60"/>
<text text-anchor="middle" x="1549" y="-39.8" style="font-family:Times New Roman;font-size:8.00;">ClassReader</text>
</g>
<!-- DependencyAnalyzer&#45;&gt;ClassReader -->
<g id="edge34" class="edge"><title>DependencyAnalyzer&#45;&gt;ClassReader</title>
<path style="fill:none;stroke:black;" d="M900,-168C909,-165 919,-162 929,-160 944,-156 1490,-93 1505,-86 1514,-82 1522,-74 1528,-67"/>
<polygon style="fill:black;stroke:black;" points="1530.4,-69.546 1535,-60 1525.45,-64.5962 1530.4,-69.546"/>
</g>
<!-- ClassVisitor -->
<g id="node34" class="node"><title>ClassVisitor</title>
<polygon style="fill:none;stroke:black;" points="1668,-60 1602,-60 1602,-24 1668,-24 1668,-60"/>
<text text-anchor="middle" x="1635" y="-39.8" style="font-family:Times New Roman;font-size:8.00;">ClassVisitor</text>
</g>
<!-- DependencyAnalyzer&#45;&gt;ClassVisitor -->
<g id="edge36" class="edge"><title>DependencyAnalyzer&#45;&gt;ClassVisitor</title>
<path style="fill:none;stroke:black;" d="M898,-168C908,-165 919,-162 929,-160 1220,-102 1329,-223 1593,-86 1601,-82 1609,-74 1615,-67"/>
<polygon style="fill:black;stroke:black;" points="1617.4,-69.546 1622,-60 1612.45,-64.5962 1617.4,-69.546"/>
</g>
<!-- DependenciesUtil&#45;&gt;ClassDependencies -->
<g id="edge50" class="edge"><title>DependenciesUtil&#45;&gt;ClassDependencies</title>
<path style="fill:none;stroke:black;" d="M732,-96C728,-88 724,-78 720,-69"/>
<polygon style="fill:black;stroke:black;" points="723.26,-67.7166 716,-60 716.863,-70.5596 723.26,-67.7166"/>
</g>
<!-- Type -->
<g id="node36" class="node"><title>Type</title>
<polygon style="fill:none;stroke:black;" points="1146,-60 1092,-60 1092,-24 1146,-24 1146,-60"/>
<text text-anchor="middle" x="1119" y="-39.8" style="font-family:Times New Roman;font-size:8.00;">Type</text>
</g>
<!-- DependencyVisitor&#45;&gt;Type -->
<g id="edge38" class="edge"><title>DependencyVisitor&#45;&gt;Type</title>
<path style="fill:none;stroke:black;" d="M917,-111C970,-108 1052,-100 1080,-86 1088,-82 1095,-75 1101,-68"/>
<polygon style="fill:black;stroke:black;" points="1103.8,-70.1 1107,-60 1098.2,-65.9 1103.8,-70.1"/>
</g>
<!-- AnnotationVisitor -->
<g id="node38" class="node"><title>AnnotationVisitor</title>
<polygon style="fill:none;stroke:black;" points="1496,-60 1408,-60 1408,-24 1496,-24 1496,-60"/>
<text text-anchor="middle" x="1452" y="-39.8" style="font-family:Times New Roman;font-size:8.00;">AnnotationVisitor</text>
</g>
<!-- DependencyVisitor&#45;&gt;AnnotationVisitor -->
<g id="edge40" class="edge"><title>DependencyVisitor&#45;&gt;AnnotationVisitor</title>
<path style="fill:none;stroke:black;" d="M917,-112C1046,-105 1393,-88 1399,-86 1410,-81 1419,-74 1428,-67"/>
<polygon style="fill:black;stroke:black;" points="1430.4,-69.546 1435,-60 1425.45,-64.5962 1430.4,-69.546"/>
</g>
<!-- FieldVisitor -->
<g id="node40" class="node"><title>FieldVisitor</title>
<polygon style="fill:none;stroke:black;" points="1390,-60 1328,-60 1328,-24 1390,-24 1390,-60"/>
<text text-anchor="middle" x="1359" y="-39.8" style="font-family:Times New Roman;font-size:8.00;">FieldVisitor</text>
</g>
<!-- DependencyVisitor&#45;&gt;FieldVisitor -->
<g id="edge42" class="edge"><title>DependencyVisitor&#45;&gt;FieldVisitor</title>
<path style="fill:none;stroke:black;" d="M917,-112C1028,-107 1301,-94 1319,-86 1327,-82 1335,-75 1341,-68"/>
<polygon style="fill:black;stroke:black;" points="1343.8,-70.1 1347,-60 1338.2,-65.9 1343.8,-70.1"/>
</g>
<!-- MethodVisitor -->
<g id="node42" class="node"><title>MethodVisitor</title>
<polygon style="fill:none;stroke:black;" points="1310,-60 1236,-60 1236,-24 1310,-24 1310,-60"/>
<text text-anchor="middle" x="1273" y="-39.8" style="font-family:Times New Roman;font-size:8.00;">MethodVisitor</text>
</g>
<!-- DependencyVisitor&#45;&gt;MethodVisitor -->
<g id="edge44" class="edge"><title>DependencyVisitor&#45;&gt;MethodVisitor</title>
<path style="fill:none;stroke:black;" d="M917,-112C1007,-108 1199,-98 1227,-86 1236,-82 1244,-75 1252,-67"/>
<polygon style="fill:black;stroke:black;" points="1254.4,-69.546 1259,-60 1249.45,-64.5962 1254.4,-69.546"/>
</g>
<!-- EmptyVisitor -->
<g id="node44" class="node"><title>EmptyVisitor</title>
<polygon style="fill:none;stroke:black;" points="1009,-60 941,-60 941,-24 1009,-24 1009,-60"/>
<text text-anchor="middle" x="975" y="-39.8" style="font-family:Times New Roman;font-size:8.00;">EmptyVisitor</text>
</g>
<!-- DependencyVisitor&#45;&gt;EmptyVisitor -->
<g id="edge46" class="edge"><title>DependencyVisitor&#45;&gt;EmptyVisitor</title>
<path style="fill:none;stroke:black;" d="M913,-96C918,-93 924,-90 929,-86 936,-80 944,-74 951,-68"/>
<polygon style="fill:black;stroke:black;" points="954.049,-69.8306 958,-60 948.781,-65.221 954.049,-69.8306"/>
</g>
<!-- Label -->
<g id="node46" class="node"><title>Label</title>
<polygon style="fill:none;stroke:black;" points="1218,-60 1164,-60 1164,-24 1218,-24 1218,-60"/>
<text text-anchor="middle" x="1191" y="-39.8" style="font-family:Times New Roman;font-size:8.00;">Label</text>
</g>
<!-- DependencyVisitor&#45;&gt;Label -->
<g id="edge48" class="edge"><title>DependencyVisitor&#45;&gt;Label</title>
<path style="fill:none;stroke:black;" d="M917,-111C993,-107 1134,-97 1155,-86 1163,-82 1169,-75 1175,-68"/>
<polygon style="fill:black;stroke:black;" points="1177.8,-70.1 1181,-60 1172.2,-65.9 1177.8,-70.1"/>
</g>
<!-- DependenciesUtilTest -->
<g id="node48" class="node"><title>DependenciesUtilTest</title>
<polygon style="fill:none;stroke:black;" points="917,-282 811,-282 811,-246 917,-246 917,-282"/>
<text text-anchor="middle" x="864" y="-261.8" style="font-family:Times New Roman;font-size:8.00;">DependenciesUtilTest</text>
</g>
<!-- DependenciesUtilTest&#45;&gt;TestCase -->
<g id="edge56" class="edge"><title>DependenciesUtilTest&#45;&gt;TestCase</title>
<path style="fill:none;stroke:black;" d="M905,-246C913,-241 922,-236 929,-230 935,-224 942,-218 947,-212"/>
<polygon style="fill:black;stroke:black;" points="950.049,-213.831 954,-204 944.781,-209.221 950.049,-213.831"/>
</g>
<!-- DependenciesUtilTest&#45;&gt;DependencyAnalyzer -->
<g id="edge54" class="edge"><title>DependenciesUtilTest&#45;&gt;DependencyAnalyzer</title>
<path style="fill:none;stroke:black;" d="M861,-246C859,-236 857,-225 855,-214"/>
<polygon style="fill:black;stroke:black;" points="858.393,-213.119 853,-204 851.529,-214.492 858.393,-213.119"/>
</g>
<!-- DependenciesUtilTest&#45;&gt;DependenciesUtil -->
<g id="edge52" class="edge"><title>DependenciesUtilTest&#45;&gt;DependenciesUtil</title>
<path style="fill:none;stroke:black;" d="M822,-246C807,-239 793,-233 790,-230 766,-205 753,-168 746,-142"/>
<polygon style="fill:black;stroke:black;" points="749.393,-141.119 744,-132 742.529,-142.492 749.393,-141.119"/>
</g>
<!-- DependencyAnalyzerTest -->
<g id="node52" class="node"><title>DependencyAnalyzerTest</title>
<polygon style="fill:none;stroke:black;" points="793,-282 673,-282 673,-246 793,-246 793,-282"/>
<text text-anchor="middle" x="733" y="-261.8" style="font-family:Times New Roman;font-size:8.00;">DependencyAnalyzerTest</text>
</g>
<!-- DependencyAnalyzerTest&#45;&gt;TestCase -->
<g id="edge62" class="edge"><title>DependencyAnalyzerTest&#45;&gt;TestCase</title>
<path style="fill:none;stroke:black;" d="M774,-246C783,-243 793,-240 802,-238 830,-232 904,-242 929,-230 937,-226 944,-219 950,-212"/>
<polygon style="fill:black;stroke:black;" points="952.8,-214.1 956,-204 947.2,-209.9 952.8,-214.1"/>
</g>
<!-- DependencyAnalyzerTest&#45;&gt;ClassDependencies -->
<g id="edge58" class="edge"><title>DependencyAnalyzerTest&#45;&gt;ClassDependencies</title>
<path style="fill:none;stroke:black;" d="M724,-246C713,-221 694,-174 686,-132 684,-116 683,-111 686,-96 687,-87 691,-78 694,-69"/>
<polygon style="fill:black;stroke:black;" points="697.137,-70.5596 698,-60 690.74,-67.7166 697.137,-70.5596"/>
</g>
<!-- DependencyAnalyzerTest&#45;&gt;DependencyAnalyzer -->
<g id="edge60" class="edge"><title>DependencyAnalyzerTest&#45;&gt;DependencyAnalyzer</title>
<path style="fill:none;stroke:black;" d="M760,-246C776,-235 797,-221 815,-210"/>
<polygon style="fill:black;stroke:black;" points="817.1,-212.8 823,-204 812.9,-207.2 817.1,-212.8"/>
</g>
<!-- DependenciesUtil$1 -->
<g id="node58" class="node"><title>DependenciesUtil$1</title>
<polygon style="fill:none;stroke:black;" points="655,-282 555,-282 555,-246 655,-246 655,-282"/>
<text text-anchor="middle" x="605" y="-261.8" style="font-family:Times New Roman;font-size:8.00;">DependenciesUtil$1</text>
</g>
</g>
</svg>
