<?xml version="1.0" encoding="UTF-8" standalone="no"?>
<!DOCTYPE svg PUBLIC "-//W3C//DTD SVG 1.0//EN"
 "http://www.w3.org/TR/2001/REC-SVG-20010904/DTD/svg10.dtd" [
 <!ATTLIST svg xmlns:xlink CDATA #FIXED "http://www.w3.org/1999/xlink">
]>
<!-- Generated by Graphviz version 2.20.2 (Mon Mar 30 10:09:11 UTC 2009)
     For user: (jccastrejon) jccastrejon,,, -->
<!-- Title: MvcAnalyzerClassification&#45;external Pages: 1 -->
<svg width="1746pt" height="366pt"
 viewBox="0.00 0.00 1746.00 366.00" xmlns="http://www.w3.org/2000/svg" xmlns:xlink="http://www.w3.org/1999/xlink">
<g id="graph0" class="graph" transform="scale(1 1) rotate(0) translate(4 362)">
<title>MvcAnalyzerClassification&#45;external</title>
<polygon style="fill:white;stroke:white;" points="-4,4 -4,-362 1742,-362 1742,4 -4,4"/>
<g id="cluster2" class="cluster"><title>clusterMVCLayers</title>
<polygon style="fill:#ccffff;stroke:#ccffff;" points="43,-298 43,-350 229,-350 229,-298 43,-298"/>
<text text-anchor="middle" x="136" y="-338.8" style="font-family:Times New Roman;font-size:8.00;">MVC Layers</text>
</g>
<g id="cluster3" class="cluster"><title>cluster_mx.itesm.arch.mvc</title>
<polygon style="fill:none;stroke:black;" points="272,-76 272,-350 430,-350 430,-76 272,-76"/>
<text text-anchor="middle" x="351" y="-338.8" style="font-family:Times New Roman;font-size:8.00;">mx.itesm.arch.mvc</text>
</g>
<g id="cluster4" class="cluster"><title>cluster_mx.itesm.arch.dependencies</title>
<polygon style="fill:none;stroke:black;" points="637,-16 637,-290 1015,-290 1015,-16 637,-16"/>
<text text-anchor="middle" x="826" y="-278.8" style="font-family:Times New Roman;font-size:8.00;">mx.itesm.arch.dependencies</text>
</g>
<g id="cluster5" class="cluster"><title>cluster_junit.framework</title>
<polygon style="fill:none;stroke:black;" points="1023,-184 1023,-236 1106,-236 1106,-184 1023,-184"/>
<text text-anchor="middle" x="1064" y="-224.8" style="font-family:Times New Roman;font-size:8.00;">junit.framework</text>
</g>
<g id="cluster6" class="cluster"><title>cluster_org.objectweb.asm</title>
<polygon style="fill:none;stroke:black;" points="1174,-76 1174,-128 1730,-128 1730,-76 1174,-76"/>
<text text-anchor="middle" x="1452" y="-116.8" style="font-family:Times New Roman;font-size:8.00;">org.objectweb.asm</text>
</g>
<g id="cluster7" class="cluster"><title>cluster_org.objectweb.asm.commons</title>
<polygon style="fill:none;stroke:black;" points="1023,-76 1023,-128 1166,-128 1166,-76 1023,-76"/>
<text text-anchor="middle" x="1094" y="-116.8" style="font-family:Times New Roman;font-size:8.00;">org.objectweb.asm.commons</text>
</g>
<g id="cluster8" class="cluster"><title>cluster_weka.core</title>
<polygon style="fill:none;stroke:black;" points="8,-16 8,-68 412,-68 412,-16 8,-16"/>
<text text-anchor="middle" x="210" y="-56.8" style="font-family:Times New Roman;font-size:8.00;">weka.core</text>
</g>
<g id="cluster9" class="cluster"><title>cluster_weka.classifiers</title>
<polygon style="fill:none;stroke:black;" points="544,-184 544,-236 629,-236 629,-184 544,-184"/>
<text text-anchor="middle" x="587" y="-224.8" style="font-family:Times New Roman;font-size:8.00;">weka.classifiers</text>
</g>
<!-- ModelLayer -->
<g id="node1" class="node"><title>ModelLayer</title>
<polygon style="fill:#ffff5c;stroke:#ffff5c;" points="221,-324 181,-324 181,-306 221,-306 221,-324"/>
<text text-anchor="middle" x="201" y="-312.8" style="font-family:Times New Roman;font-size:8.00;">Model</text>
</g>
<!-- ViewLayer -->
<g id="node2" class="node"><title>ViewLayer</title>
<polygon style="fill:#99ccff;stroke:#99ccff;" points="163,-324 127,-324 127,-306 163,-306 163,-324"/>
<text text-anchor="middle" x="145" y="-312.8" style="font-family:Times New Roman;font-size:8.00;">View</text>
</g>
<!-- ControllerLayer -->
<g id="node3" class="node"><title>ControllerLayer</title>
<polygon style="fill:#ff9999;stroke:#ff9999;" points="109,-324 51,-324 51,-306 109,-306 109,-324"/>
<text text-anchor="middle" x="80" y="-312.8" style="font-family:Times New Roman;font-size:8.00;">Controller</text>
</g>
<!-- MvcAnalyzerTest -->
<g id="node5" class="node"><title>MvcAnalyzerTest</title>
<polygon style="fill:#ffff5c;stroke:#ffff5c;" points="393,-324 309,-324 309,-306 393,-306 393,-324"/>
<text text-anchor="middle" x="351" y="-312.8" style="font-family:Times New Roman;font-size:8.00;">MvcAnalyzerTest</text>
</g>
<!-- MvcAnalyzer -->
<g id="node7" class="node"><title>MvcAnalyzer</title>
<polygon style="fill:#ffff5c;stroke:#ffff5c;" points="365,-264 299,-264 299,-246 365,-246 365,-264"/>
<text text-anchor="middle" x="332" y="-252.8" style="font-family:Times New Roman;font-size:8.00;">MvcAnalyzer</text>
</g>
<!-- MvcAnalyzerTest&#45;&gt;MvcAnalyzer -->
<g id="edge3" class="edge"><title>MvcAnalyzerTest&#45;&gt;MvcAnalyzer</title>
<path style="fill:none;stroke:black;" d="M348,-306C346,-298 342,-284 338,-274"/>
<polygon style="fill:black;stroke:black;" points="341.226,-272.573 335,-264 334.521,-274.584 341.226,-272.573"/>
</g>
<!-- TestCase -->
<g id="node9" class="node"><title>TestCase</title>
<polygon style="fill:none;stroke:black;" points="1085,-210 1031,-210 1031,-192 1085,-192 1085,-210"/>
<text text-anchor="middle" x="1058" y="-198.8" style="font-family:Times New Roman;font-size:8.00;">TestCase</text>
</g>
<!-- MvcAnalyzerTest&#45;&gt;TestCase -->
<g id="edge5" class="edge"><title>MvcAnalyzerTest&#45;&gt;TestCase</title>
<path style="fill:none;stroke:black;" d="M393,-315C537,-313 994,-307 1019,-290 1042,-274 1051,-241 1055,-220"/>
<polygon style="fill:black;stroke:black;" points="1058.47,-220.492 1057,-210 1051.61,-219.119 1058.47,-220.492"/>
</g>
<!-- FastVector -->
<g id="node13" class="node"><title>FastVector</title>
<polygon style="fill:none;stroke:black;" points="334,-42 274,-42 274,-24 334,-24 334,-42"/>
<text text-anchor="middle" x="304" y="-30.8" style="font-family:Times New Roman;font-size:8.00;">FastVector</text>
</g>
<!-- MvcAnalyzer&#45;&gt;FastVector -->
<g id="edge43" class="edge"><title>MvcAnalyzer&#45;&gt;FastVector</title>
<path style="fill:none;stroke:black;" d="M299,-252C275,-250 246,-245 238,-236 193,-180 196,-132 238,-76 246,-65 255,-74 265,-68 274,-63 282,-56 289,-49"/>
<polygon style="fill:black;stroke:black;" points="291.404,-51.546 296,-42 286.454,-46.5962 291.404,-51.546"/>
</g>
<!-- Attribute -->
<g id="node15" class="node"><title>Attribute</title>
<polygon style="fill:none;stroke:black;" points="404,-42 352,-42 352,-24 404,-24 404,-42"/>
<text text-anchor="middle" x="378" y="-30.8" style="font-family:Times New Roman;font-size:8.00;">Attribute</text>
</g>
<!-- MvcAnalyzer&#45;&gt;Attribute -->
<g id="edge41" class="edge"><title>MvcAnalyzer&#45;&gt;Attribute</title>
<path style="fill:none;stroke:black;" d="M304,-246C299,-243 295,-240 291,-236 248,-179 224,-129 271,-76 282,-64 329,-74 343,-68 351,-64 359,-57 365,-50"/>
<polygon style="fill:black;stroke:black;" points="368.049,-51.8306 372,-42 362.781,-47.221 368.049,-51.8306"/>
</g>
<!-- MvcExportCommand -->
<g id="node16" class="node"><title>MvcExportCommand</title>
<polygon style="fill:#ffff5c;stroke:#ffff5c;" points="422,-210 320,-210 320,-192 422,-192 422,-210"/>
<text text-anchor="middle" x="371" y="-198.8" style="font-family:Times New Roman;font-size:8.00;">MvcExportCommand</text>
</g>
<!-- MvcAnalyzer&#45;&gt;MvcExportCommand -->
<g id="edge33" class="edge"><title>MvcAnalyzer&#45;&gt;MvcExportCommand</title>
<path style="fill:none;stroke:black;" d="M339,-246C344,-239 352,-228 358,-218"/>
<polygon style="fill:black;stroke:black;" points="360.8,-220.1 364,-210 355.2,-215.9 360.8,-220.1"/>
</g>
<!-- ClassDependencies -->
<g id="node18" class="node"><title>ClassDependencies</title>
<polygon style="fill:#ffff5c;stroke:#ffff5c;" points="772,-42 672,-42 672,-24 772,-24 772,-42"/>
<text text-anchor="middle" x="722" y="-30.8" style="font-family:Times New Roman;font-size:8.00;">ClassDependencies</text>
</g>
<!-- MvcAnalyzer&#45;&gt;ClassDependencies -->
<g id="edge27" class="edge"><title>MvcAnalyzer&#45;&gt;ClassDependencies</title>
<path style="fill:none;stroke:black;" d="M365,-251C390,-248 421,-243 431,-236 454,-220 445,-203 464,-184 473,-175 621,-84 636,-76 655,-65 677,-54 694,-46"/>
<polygon style="fill:black;stroke:black;" points="695.283,-49.2598 703,-42 692.44,-42.8631 695.283,-49.2598"/>
</g>
<!-- Layer -->
<g id="node20" class="node"><title>Layer</title>
<polygon style="fill:#ffff5c;stroke:#ffff5c;" points="390,-156 352,-156 352,-138 390,-138 390,-156"/>
<text text-anchor="middle" x="371" y="-144.8" style="font-family:Times New Roman;font-size:8.00;">Layer</text>
</g>
<!-- MvcAnalyzer&#45;&gt;Layer -->
<g id="edge35" class="edge"><title>MvcAnalyzer&#45;&gt;Layer</title>
<path style="fill:none;stroke:black;" d="M319,-246C316,-243 313,-240 311,-236 302,-214 300,-204 311,-184 318,-171 331,-163 343,-157"/>
<polygon style="fill:black;stroke:black;" points="344.283,-160.26 352,-153 341.44,-153.863 344.283,-160.26"/>
</g>
<!-- DependenciesUtil -->
<g id="node22" class="node"><title>DependenciesUtil</title>
<polygon style="fill:#ffff5c;stroke:#ffff5c;" points="755,-156 665,-156 665,-138 755,-138 755,-156"/>
<text text-anchor="middle" x="710" y="-144.8" style="font-family:Times New Roman;font-size:8.00;">DependenciesUtil</text>
</g>
<!-- MvcAnalyzer&#45;&gt;DependenciesUtil -->
<g id="edge31" class="edge"><title>MvcAnalyzer&#45;&gt;DependenciesUtil</title>
<path style="fill:none;stroke:black;" d="M365,-253C411,-249 491,-242 502,-236 527,-221 517,-199 540,-184 559,-171 613,-161 655,-154"/>
<polygon style="fill:black;stroke:black;" points="655.398,-157.478 665,-153 654.701,-150.512 655.398,-157.478"/>
</g>
<!-- ExportCommand -->
<g id="node24" class="node"><title>ExportCommand</title>
<polygon style="fill:#ffff5c;stroke:#ffff5c;" points="731,-102 645,-102 645,-84 731,-84 731,-102"/>
<text text-anchor="middle" x="688" y="-90.8" style="font-family:Times New Roman;font-size:8.00;">ExportCommand</text>
</g>
<!-- MvcAnalyzer&#45;&gt;ExportCommand -->
<g id="edge37" class="edge"><title>MvcAnalyzer&#45;&gt;ExportCommand</title>
<path style="fill:none;stroke:black;" d="M365,-253C399,-251 448,-246 464,-236 489,-221 481,-202 502,-184 547,-146 609,-119 649,-105"/>
<polygon style="fill:black;stroke:black;" points="650.427,-108.226 659,-102 648.416,-101.521 650.427,-108.226"/>
</g>
<!-- DependencyAnalyzer -->
<g id="node30" class="node"><title>DependencyAnalyzer</title>
<polygon style="fill:#ffff5c;stroke:#ffff5c;" points="822,-210 720,-210 720,-192 822,-192 822,-210"/>
<text text-anchor="middle" x="771" y="-198.8" style="font-family:Times New Roman;font-size:8.00;">DependencyAnalyzer</text>
</g>
<!-- MvcAnalyzer&#45;&gt;DependencyAnalyzer -->
<g id="edge29" class="edge"><title>MvcAnalyzer&#45;&gt;DependencyAnalyzer</title>
<path style="fill:none;stroke:black;" d="M365,-254C432,-251 582,-244 633,-236 667,-231 705,-221 732,-213"/>
<polygon style="fill:black;stroke:black;" points="733.427,-216.226 742,-210 731.416,-209.521 733.427,-216.226"/>
</g>
<!-- Classifier -->
<g id="node36" class="node"><title>Classifier</title>
<polygon style="fill:none;stroke:black;" points="610,-210 554,-210 554,-192 610,-192 610,-210"/>
<text text-anchor="middle" x="582" y="-198.8" style="font-family:Times New Roman;font-size:8.00;">Classifier</text>
</g>
<!-- MvcAnalyzer&#45;&gt;Classifier -->
<g id="edge39" class="edge"><title>MvcAnalyzer&#45;&gt;Classifier</title>
<path style="fill:none;stroke:black;" d="M365,-254C416,-253 510,-248 540,-236 550,-232 560,-224 567,-217"/>
<polygon style="fill:black;stroke:black;" points="569.404,-219.546 574,-210 564.454,-214.596 569.404,-219.546"/>
</g>
<!-- Instance -->
<g id="node40" class="node"><title>Instance</title>
<polygon style="fill:none;stroke:black;" points="256,-42 204,-42 204,-24 256,-24 256,-42"/>
<text text-anchor="middle" x="230" y="-30.8" style="font-family:Times New Roman;font-size:8.00;">Instance</text>
</g>
<!-- MvcAnalyzer&#45;&gt;Instance -->
<g id="edge45" class="edge"><title>MvcAnalyzer&#45;&gt;Instance</title>
<path style="fill:none;stroke:black;" d="M299,-252C264,-249 213,-242 207,-236 159,-183 187,-144 207,-76 210,-67 214,-58 219,-51"/>
<polygon style="fill:black;stroke:black;" points="222.203,-52.4414 224,-42 216.084,-49.0418 222.203,-52.4414"/>
</g>
<!-- Instances -->
<g id="node42" class="node"><title>Instances</title>
<polygon style="fill:none;stroke:black;" points="72,-42 16,-42 16,-24 72,-24 72,-42"/>
<text text-anchor="middle" x="44" y="-30.8" style="font-family:Times New Roman;font-size:8.00;">Instances</text>
</g>
<!-- MvcAnalyzer&#45;&gt;Instances -->
<g id="edge47" class="edge"><title>MvcAnalyzer&#45;&gt;Instances</title>
<path style="fill:none;stroke:black;" d="M299,-253C248,-251 156,-245 143,-236 79,-191 55,-93 47,-52"/>
<polygon style="fill:black;stroke:black;" points="50.3933,-51.1194 45,-42 43.5292,-52.4922 50.3933,-51.1194"/>
</g>
<!-- SerializationHelper -->
<g id="node44" class="node"><title>SerializationHelper</title>
<polygon style="fill:none;stroke:black;" points="186,-42 90,-42 90,-24 186,-24 186,-42"/>
<text text-anchor="middle" x="138" y="-30.8" style="font-family:Times New Roman;font-size:8.00;">SerializationHelper</text>
</g>
<!-- MvcAnalyzer&#45;&gt;SerializationHelper -->
<g id="edge49" class="edge"><title>MvcAnalyzer&#45;&gt;SerializationHelper</title>
<path style="fill:none;stroke:black;" d="M299,-253C256,-250 187,-244 178,-236 126,-188 131,-93 135,-52"/>
<polygon style="fill:black;stroke:black;" points="138.488,-52.2987 136,-42 131.522,-51.6021 138.488,-52.2987"/>
</g>
<!-- MvcAnalyzer$Variable -->
<g id="node10" class="node"><title>MvcAnalyzer$Variable</title>
<polygon style="fill:#ffff5c;stroke:#ffff5c;" points="386,-102 280,-102 280,-84 386,-84 386,-102"/>
<text text-anchor="middle" x="333" y="-90.8" style="font-family:Times New Roman;font-size:8.00;">MvcAnalyzer$Variable</text>
</g>
<!-- MvcAnalyzer$Variable&#45;&gt;MvcAnalyzer -->
<g id="edge7" class="edge"><title>MvcAnalyzer$Variable&#45;&gt;MvcAnalyzer</title>
<path style="fill:none;stroke:black;" d="M328,-102C321,-118 306,-152 300,-184 297,-206 289,-215 300,-236 301,-237 302,-238 303,-239"/>
<polygon style="fill:black;stroke:black;" points="300.454,-241.404 310,-246 305.404,-236.454 300.454,-241.404"/>
</g>
<!-- MvcAnalyzer$Variable&#45;&gt;FastVector -->
<g id="edge9" class="edge"><title>MvcAnalyzer$Variable&#45;&gt;FastVector</title>
<path style="fill:none;stroke:black;" d="M329,-84C324,-76 318,-62 313,-51"/>
<polygon style="fill:black;stroke:black;" points="315.916,-49.0418 308,-42 309.797,-52.4414 315.916,-49.0418"/>
</g>
<!-- MvcAnalyzer$Variable&#45;&gt;Attribute -->
<g id="edge11" class="edge"><title>MvcAnalyzer$Variable&#45;&gt;Attribute</title>
<path style="fill:none;stroke:black;" d="M340,-84C346,-75 356,-61 365,-50"/>
<polygon style="fill:black;stroke:black;" points="367.8,-52.1 371,-42 362.2,-47.9 367.8,-52.1"/>
</g>
<!-- MvcExportCommand&#45;&gt;ClassDependencies -->
<g id="edge13" class="edge"><title>MvcExportCommand&#45;&gt;ClassDependencies</title>
<path style="fill:none;stroke:black;" d="M380,-192C407,-165 484,-91 514,-76 560,-52 619,-42 662,-37"/>
<polygon style="fill:black;stroke:black;" points="662.398,-40.4778 672,-36 661.701,-33.5125 662.398,-40.4778"/>
</g>
<!-- MvcExportCommand&#45;&gt;Layer -->
<g id="edge15" class="edge"><title>MvcExportCommand&#45;&gt;Layer</title>
<path style="fill:none;stroke:black;" d="M371,-192C371,-185 371,-175 371,-166"/>
<polygon style="fill:black;stroke:black;" points="374.5,-166 371,-156 367.5,-166 374.5,-166"/>
</g>
<!-- MvcExportCommand&#45;&gt;DependenciesUtil -->
<g id="edge17" class="edge"><title>MvcExportCommand&#45;&gt;DependenciesUtil</title>
<path style="fill:none;stroke:black;" d="M422,-193C485,-184 591,-166 655,-156"/>
<polygon style="fill:black;stroke:black;" points="655.881,-159.393 665,-154 654.508,-152.529 655.881,-159.393"/>
</g>
<!-- MvcExportCommand&#45;&gt;ExportCommand -->
<g id="edge19" class="edge"><title>MvcExportCommand&#45;&gt;ExportCommand</title>
<path style="fill:none;stroke:black;" d="M393,-192C424,-179 484,-155 535,-138 572,-125 614,-114 644,-105"/>
<polygon style="fill:black;stroke:black;" points="645.427,-108.226 654,-102 643.416,-101.521 645.427,-108.226"/>
</g>
<!-- Layer&#45;&gt;MvcAnalyzer$Variable -->
<g id="edge21" class="edge"><title>Layer&#45;&gt;MvcAnalyzer$Variable</title>
<path style="fill:none;stroke:black;" d="M364,-138C359,-131 351,-120 345,-110"/>
<polygon style="fill:black;stroke:black;" points="347.8,-107.9 339,-102 342.2,-112.1 347.8,-107.9"/>
</g>
<!-- Layer&#45;&gt;FastVector -->
<g id="edge23" class="edge"><title>Layer&#45;&gt;FastVector</title>
<path style="fill:none;stroke:black;" d="M387,-138C390,-135 393,-132 395,-128 406,-107 411,-93 395,-76 380,-58 365,-78 343,-68 334,-64 325,-56 318,-49"/>
<polygon style="fill:black;stroke:black;" points="320.546,-46.5962 311,-42 315.596,-51.546 320.546,-46.5962"/>
</g>
<!-- Layer&#45;&gt;Attribute -->
<g id="edge25" class="edge"><title>Layer&#45;&gt;Attribute</title>
<path style="fill:none;stroke:black;" d="M390,-143C405,-139 424,-134 428,-128 442,-109 438,-97 428,-76 423,-64 413,-55 403,-48"/>
<polygon style="fill:black;stroke:black;" points="405.1,-45.2 395,-42 400.9,-50.8 405.1,-45.2"/>
</g>
<!-- DependenciesUtil&#45;&gt;ClassDependencies -->
<g id="edge73" class="edge"><title>DependenciesUtil&#45;&gt;ClassDependencies</title>
<path style="fill:none;stroke:black;" d="M730,-138C734,-135 738,-132 740,-128 754,-103 742,-71 733,-51"/>
<polygon style="fill:black;stroke:black;" points="735.916,-49.0418 728,-42 729.797,-52.4414 735.916,-49.0418"/>
</g>
<!-- DependenciesUtil&#45;&gt;ExportCommand -->
<g id="edge75" class="edge"><title>DependenciesUtil&#45;&gt;ExportCommand</title>
<path style="fill:none;stroke:black;" d="M706,-138C703,-131 699,-121 696,-112"/>
<polygon style="fill:black;stroke:black;" points="698.964,-109.985 692,-102 692.464,-112.585 698.964,-109.985"/>
</g>
<!-- ExportCommand&#45;&gt;ClassDependencies -->
<g id="edge91" class="edge"><title>ExportCommand&#45;&gt;ClassDependencies</title>
<path style="fill:none;stroke:black;" d="M693,-84C698,-76 706,-62 712,-51"/>
<polygon style="fill:black;stroke:black;" points="715.203,-52.4414 717,-42 709.084,-49.0418 715.203,-52.4414"/>
</g>
<!-- DependencyAnalyzer&#45;&gt;ClassDependencies -->
<g id="edge51" class="edge"><title>DependencyAnalyzer&#45;&gt;ClassDependencies</title>
<path style="fill:none;stroke:black;" d="M771,-192C770,-170 766,-116 749,-76 745,-67 740,-58 735,-50"/>
<polygon style="fill:black;stroke:black;" points="737.8,-47.9 729,-42 732.2,-52.1 737.8,-47.9"/>
</g>
<!-- DependencyAnalyzer&#45;&gt;DependenciesUtil -->
<g id="edge55" class="edge"><title>DependencyAnalyzer&#45;&gt;DependenciesUtil</title>
<path style="fill:none;stroke:black;" d="M761,-192C752,-184 739,-172 729,-163"/>
<polygon style="fill:black;stroke:black;" points="730.831,-159.951 721,-156 726.221,-165.219 730.831,-159.951"/>
</g>
<!-- DependencyVisitor -->
<g id="node47" class="node"><title>DependencyVisitor</title>
<polygon style="fill:#ffff5c;stroke:#ffff5c;" points="1007,-156 913,-156 913,-138 1007,-138 1007,-156"/>
<text text-anchor="middle" x="960" y="-144.8" style="font-family:Times New Roman;font-size:8.00;">DependencyVisitor</text>
</g>
<!-- DependencyAnalyzer&#45;&gt;DependencyVisitor -->
<g id="edge53" class="edge"><title>DependencyAnalyzer&#45;&gt;DependencyVisitor</title>
<path style="fill:none;stroke:black;" d="M803,-192C834,-183 884,-169 918,-159"/>
<polygon style="fill:black;stroke:black;" points="919.427,-162.226 928,-156 917.416,-155.521 919.427,-162.226"/>
</g>
<!-- ClassReader -->
<g id="node50" class="node"><title>ClassReader</title>
<polygon style="fill:none;stroke:black;" points="1638,-102 1568,-102 1568,-84 1638,-84 1638,-102"/>
<text text-anchor="middle" x="1603" y="-90.8" style="font-family:Times New Roman;font-size:8.00;">ClassReader</text>
</g>
<!-- DependencyAnalyzer&#45;&gt;ClassReader -->
<g id="edge57" class="edge"><title>DependencyAnalyzer&#45;&gt;ClassReader</title>
<path style="fill:none;stroke:black;" d="M822,-197C992,-184 1525,-141 1559,-128 1569,-124 1579,-116 1587,-109"/>
<polygon style="fill:black;stroke:black;" points="1589.78,-111.219 1595,-102 1585.17,-105.951 1589.78,-111.219"/>
</g>
<!-- ClassVisitor -->
<g id="node52" class="node"><title>ClassVisitor</title>
<polygon style="fill:none;stroke:black;" points="1722,-102 1656,-102 1656,-84 1722,-84 1722,-102"/>
<text text-anchor="middle" x="1689" y="-90.8" style="font-family:Times New Roman;font-size:8.00;">ClassVisitor</text>
</g>
<!-- DependencyAnalyzer&#45;&gt;ClassVisitor -->
<g id="edge59" class="edge"><title>DependencyAnalyzer&#45;&gt;ClassVisitor</title>
<path style="fill:none;stroke:black;" d="M822,-197C963,-188 1347,-161 1405,-156 1512,-145 1547,-170 1647,-128 1657,-124 1666,-116 1674,-109"/>
<polygon style="fill:black;stroke:black;" points="1676.4,-111.546 1681,-102 1671.45,-106.596 1676.4,-111.546"/>
</g>
<!-- Type -->
<g id="node55" class="node"><title>Type</title>
<polygon style="fill:none;stroke:black;" points="1402,-102 1368,-102 1368,-84 1402,-84 1402,-102"/>
<text text-anchor="middle" x="1385" y="-90.8" style="font-family:Times New Roman;font-size:8.00;">Type</text>
</g>
<!-- DependencyVisitor&#45;&gt;Type -->
<g id="edge61" class="edge"><title>DependencyVisitor&#45;&gt;Type</title>
<path style="fill:none;stroke:black;" d="M1007,-146C1109,-143 1343,-136 1359,-128 1366,-124 1372,-117 1376,-111"/>
<polygon style="fill:black;stroke:black;" points="1379.2,-112.441 1381,-102 1373.08,-109.042 1379.2,-112.441"/>
</g>
<!-- AnnotationVisitor -->
<g id="node57" class="node"><title>AnnotationVisitor</title>
<polygon style="fill:none;stroke:black;" points="1350,-102 1262,-102 1262,-84 1350,-84 1350,-102"/>
<text text-anchor="middle" x="1306" y="-90.8" style="font-family:Times New Roman;font-size:8.00;">AnnotationVisitor</text>
</g>
<!-- DependencyVisitor&#45;&gt;AnnotationVisitor -->
<g id="edge63" class="edge"><title>DependencyVisitor&#45;&gt;AnnotationVisitor</title>
<path style="fill:none;stroke:black;" d="M1007,-145C1084,-142 1230,-135 1253,-128 1265,-123 1278,-115 1288,-108"/>
<polygon style="fill:black;stroke:black;" points="1290.1,-110.8 1296,-102 1285.9,-105.2 1290.1,-110.8"/>
</g>
<!-- FieldVisitor -->
<g id="node59" class="node"><title>FieldVisitor</title>
<polygon style="fill:none;stroke:black;" points="1244,-102 1182,-102 1182,-84 1244,-84 1244,-102"/>
<text text-anchor="middle" x="1213" y="-90.8" style="font-family:Times New Roman;font-size:8.00;">FieldVisitor</text>
</g>
<!-- DependencyVisitor&#45;&gt;FieldVisitor -->
<g id="edge65" class="edge"><title>DependencyVisitor&#45;&gt;FieldVisitor</title>
<path style="fill:none;stroke:black;" d="M1007,-146C1060,-144 1141,-139 1170,-128 1180,-124 1189,-116 1197,-109"/>
<polygon style="fill:black;stroke:black;" points="1199.78,-111.219 1205,-102 1195.17,-105.951 1199.78,-111.219"/>
</g>
<!-- MethodVisitor -->
<g id="node61" class="node"><title>MethodVisitor</title>
<polygon style="fill:none;stroke:black;" points="1550,-102 1476,-102 1476,-84 1550,-84 1550,-102"/>
<text text-anchor="middle" x="1513" y="-90.8" style="font-family:Times New Roman;font-size:8.00;">MethodVisitor</text>
</g>
<!-- DependencyVisitor&#45;&gt;MethodVisitor -->
<g id="edge67" class="edge"><title>DependencyVisitor&#45;&gt;MethodVisitor</title>
<path style="fill:none;stroke:black;" d="M1007,-146C1129,-143 1445,-135 1467,-128 1478,-124 1488,-116 1496,-109"/>
<polygon style="fill:black;stroke:black;" points="1498.78,-111.219 1504,-102 1494.17,-105.951 1498.78,-111.219"/>
</g>
<!-- EmptyVisitor -->
<g id="node63" class="node"><title>EmptyVisitor</title>
<polygon style="fill:none;stroke:black;" points="1099,-102 1031,-102 1031,-84 1099,-84 1099,-102"/>
<text text-anchor="middle" x="1065" y="-90.8" style="font-family:Times New Roman;font-size:8.00;">EmptyVisitor</text>
</g>
<!-- DependencyVisitor&#45;&gt;EmptyVisitor -->
<g id="edge69" class="edge"><title>DependencyVisitor&#45;&gt;EmptyVisitor</title>
<path style="fill:none;stroke:black;" d="M994,-138C1002,-135 1011,-132 1019,-128 1029,-123 1039,-115 1047,-109"/>
<polygon style="fill:black;stroke:black;" points="1049.78,-111.219 1055,-102 1045.17,-105.951 1049.78,-111.219"/>
</g>
<!-- Label -->
<g id="node65" class="node"><title>Label</title>
<polygon style="fill:none;stroke:black;" points="1458,-102 1420,-102 1420,-84 1458,-84 1458,-102"/>
<text text-anchor="middle" x="1439" y="-90.8" style="font-family:Times New Roman;font-size:8.00;">Label</text>
</g>
<!-- DependencyVisitor&#45;&gt;Label -->
<g id="edge71" class="edge"><title>DependencyVisitor&#45;&gt;Label</title>
<path style="fill:none;stroke:black;" d="M1007,-146C1119,-144 1393,-137 1411,-128 1418,-124 1424,-117 1428,-110"/>
<polygon style="fill:black;stroke:black;" points="1430.8,-112.1 1434,-102 1425.2,-107.9 1430.8,-112.1"/>
</g>
<!-- DependenciesUtil$1 -->
<g id="node53" class="node"><title>DependenciesUtil$1</title>
<polygon style="fill:#ffff5c;stroke:#ffff5c;" points="1007,-264 907,-264 907,-246 1007,-246 1007,-264"/>
<text text-anchor="middle" x="957" y="-252.8" style="font-family:Times New Roman;font-size:8.00;">DependenciesUtil$1</text>
</g>
<!-- DependenciesUtilTest -->
<g id="node68" class="node"><title>DependenciesUtilTest</title>
<polygon style="fill:#ffff5c;stroke:#ffff5c;" points="751,-264 645,-264 645,-246 751,-246 751,-264"/>
<text text-anchor="middle" x="698" y="-252.8" style="font-family:Times New Roman;font-size:8.00;">DependenciesUtilTest</text>
</g>
<!-- DependenciesUtilTest&#45;&gt;TestCase -->
<g id="edge83" class="edge"><title>DependenciesUtilTest&#45;&gt;TestCase</title>
<path style="fill:none;stroke:black;" d="M751,-247C754,-246 757,-246 760,-246 789,-243 993,-246 1019,-236 1028,-232 1037,-224 1044,-217"/>
<polygon style="fill:black;stroke:black;" points="1046.4,-219.546 1051,-210 1041.45,-214.596 1046.4,-219.546"/>
</g>
<!-- DependenciesUtilTest&#45;&gt;DependenciesUtil -->
<g id="edge77" class="edge"><title>DependenciesUtilTest&#45;&gt;DependenciesUtil</title>
<path style="fill:none;stroke:black;" d="M699,-246C701,-229 705,-190 708,-166"/>
<polygon style="fill:black;stroke:black;" points="711.488,-166.299 709,-156 704.522,-165.602 711.488,-166.299"/>
</g>
<!-- DependenciesUtilTest&#45;&gt;ExportCommand -->
<g id="edge79" class="edge"><title>DependenciesUtilTest&#45;&gt;ExportCommand</title>
<path style="fill:none;stroke:black;" d="M693,-246C683,-229 663,-191 656,-156 655,-148 654,-145 656,-138 660,-128 666,-118 673,-110"/>
<polygon style="fill:black;stroke:black;" points="675.8,-112.1 679,-102 670.2,-107.9 675.8,-112.1"/>
</g>
<!-- DependenciesUtilTest&#45;&gt;DependencyAnalyzer -->
<g id="edge81" class="edge"><title>DependenciesUtilTest&#45;&gt;DependencyAnalyzer</title>
<path style="fill:none;stroke:black;" d="M710,-246C721,-238 737,-226 750,-216"/>
<polygon style="fill:black;stroke:black;" points="752.1,-218.8 758,-210 747.9,-213.2 752.1,-218.8"/>
</g>
<!-- DependencyAnalyzerTest -->
<g id="node73" class="node"><title>DependencyAnalyzerTest</title>
<polygon style="fill:#ffff5c;stroke:#ffff5c;" points="889,-264 769,-264 769,-246 889,-246 889,-264"/>
<text text-anchor="middle" x="829" y="-252.8" style="font-family:Times New Roman;font-size:8.00;">DependencyAnalyzerTest</text>
</g>
<!-- DependencyAnalyzerTest&#45;&gt;TestCase -->
<g id="edge89" class="edge"><title>DependencyAnalyzerTest&#45;&gt;TestCase</title>
<path style="fill:none;stroke:black;" d="M889,-247C892,-247 895,-246 898,-246 925,-243 995,-246 1019,-236 1028,-232 1037,-224 1044,-217"/>
<polygon style="fill:black;stroke:black;" points="1046.4,-219.546 1051,-210 1041.45,-214.596 1046.4,-219.546"/>
</g>
<!-- DependencyAnalyzerTest&#45;&gt;ClassDependencies -->
<g id="edge85" class="edge"><title>DependencyAnalyzerTest&#45;&gt;ClassDependencies</title>
<path style="fill:none;stroke:black;" d="M831,-246C834,-232 837,-205 831,-184 815,-127 766,-75 740,-49"/>
<polygon style="fill:black;stroke:black;" points="741.831,-45.9511 732,-42 737.221,-51.2191 741.831,-45.9511"/>
</g>
<!-- DependencyAnalyzerTest&#45;&gt;DependencyAnalyzer -->
<g id="edge87" class="edge"><title>DependencyAnalyzerTest&#45;&gt;DependencyAnalyzer</title>
<path style="fill:none;stroke:black;" d="M819,-246C811,-238 799,-226 789,-217"/>
<polygon style="fill:black;stroke:black;" points="790.831,-213.951 781,-210 786.221,-219.219 790.831,-213.951"/>
</g>
</g>
</svg>
