<?xml version="1.0" encoding="UTF-8" standalone="no"?>
<!DOCTYPE svg PUBLIC "-//W3C//DTD SVG 1.0//EN"
 "http://www.w3.org/TR/2001/REC-SVG-20010904/DTD/svg10.dtd" [
 <!ATTLIST svg xmlns:xlink CDATA #FIXED "http://www.w3.org/1999/xlink">
]>
<!-- Generated by Graphviz version 2.20.2 (Mon Mar 30 10:09:11 UTC 2009)
     For user: (jccastrejon) jccastrejon,,, -->
<!-- Title: petclinicClassification&#45;internal Pages: 1 -->
<svg width="2539pt" height="306pt"
 viewBox="0.00 0.00 2539.00 306.00" xmlns="http://www.w3.org/2000/svg" xmlns:xlink="http://www.w3.org/1999/xlink">
<g id="graph0" class="graph" transform="scale(1 1) rotate(0) translate(4 302)">
<title>petclinicClassification&#45;internal</title>
<polygon style="fill:white;stroke:white;" points="-4,4 -4,-302 2535,-302 2535,4 -4,4"/>
<g id="cluster2" class="cluster"><title>clusterMVCLayers</title>
<polygon style="fill:#ccffff;stroke:#ccffff;" points="8,-238 8,-290 194,-290 194,-238 8,-238"/>
<text text-anchor="middle" x="101" y="-278.8" style="font-family:Times New Roman;font-size:8.00;">MVC Layers</text>
</g>
<g id="cluster3" class="cluster"><title>cluster_org.springframework.samples.petclinic.web</title>
<polygon style="fill:none;stroke:black;" points="202,-238 202,-290 1072,-290 1072,-238 202,-238"/>
<text text-anchor="middle" x="637" y="-278.8" style="font-family:Times New Roman;font-size:8.00;">org.springframework.samples.petclinic.web</text>
</g>
<g id="cluster4" class="cluster"><title>cluster_org.springframework.samples.petclinic.util</title>
<polygon style="fill:none;stroke:black;" points="2324,-238 2324,-290 2523,-290 2523,-238 2324,-238"/>
<text text-anchor="middle" x="2423" y="-278.8" style="font-family:Times New Roman;font-size:8.00;">org.springframework.samples.petclinic.util</text>
</g>
<g id="cluster5" class="cluster"><title>cluster_org.springframework.samples.petclinic.jdbc</title>
<polygon style="fill:none;stroke:black;" points="1668,-178 1668,-290 2316,-290 2316,-178 1668,-178"/>
<text text-anchor="middle" x="1992" y="-278.8" style="font-family:Times New Roman;font-size:8.00;">org.springframework.samples.petclinic.jdbc</text>
</g>
<g id="cluster6" class="cluster"><title>cluster_org.springframework.samples.petclinic.aspects</title>
<polygon style="fill:none;stroke:black;" points="1198,-238 1198,-290 1542,-290 1542,-238 1198,-238"/>
<text text-anchor="middle" x="1370" y="-278.8" style="font-family:Times New Roman;font-size:8.00;">org.springframework.samples.petclinic.aspects</text>
</g>
<g id="cluster7" class="cluster"><title>cluster_org.springframework.samples.petclinic</title>
<polygon style="fill:none;stroke:black;" points="802,-16 802,-230 1660,-230 1660,-16 802,-16"/>
<text text-anchor="middle" x="1231" y="-218.8" style="font-family:Times New Roman;font-size:8.00;">org.springframework.samples.petclinic</text>
</g>
<!-- ModelLayer -->
<g id="node1" class="node"><title>ModelLayer</title>
<polygon style="fill:#ffff5c;stroke:#ffff5c;" points="186,-264 146,-264 146,-246 186,-246 186,-264"/>
<text text-anchor="middle" x="166" y="-252.8" style="font-family:Times New Roman;font-size:8.00;">Model</text>
</g>
<!-- ViewLayer -->
<g id="node2" class="node"><title>ViewLayer</title>
<polygon style="fill:#99ccff;stroke:#99ccff;" points="128,-264 92,-264 92,-246 128,-246 128,-264"/>
<text text-anchor="middle" x="110" y="-252.8" style="font-family:Times New Roman;font-size:8.00;">View</text>
</g>
<!-- ControllerLayer -->
<g id="node3" class="node"><title>ControllerLayer</title>
<polygon style="fill:#ff9999;stroke:#ff9999;" points="74,-264 16,-264 16,-246 74,-246 74,-264"/>
<text text-anchor="middle" x="45" y="-252.8" style="font-family:Times New Roman;font-size:8.00;">Controller</text>
</g>
<!-- BaseEntity -->
<g id="node5" class="node"><title>BaseEntity</title>
<polygon style="fill:#ffff5c;stroke:#ffff5c;" points="1548,-42 1488,-42 1488,-24 1548,-24 1548,-42"/>
<text text-anchor="middle" x="1518" y="-30.8" style="font-family:Times New Roman;font-size:8.00;">BaseEntity</text>
</g>
<!-- Clinic -->
<g id="node6" class="node"><title>Clinic</title>
<polygon style="fill:#ffff5c;stroke:#ffff5c;" points="1652,-204 1614,-204 1614,-186 1652,-186 1652,-204"/>
<text text-anchor="middle" x="1633" y="-192.8" style="font-family:Times New Roman;font-size:8.00;">Clinic</text>
</g>
<!-- NamedEntity -->
<g id="node7" class="node"><title>NamedEntity</title>
<polygon style="fill:#ffff5c;stroke:#ffff5c;" points="1552,-96 1484,-96 1484,-78 1552,-78 1552,-96"/>
<text text-anchor="middle" x="1518" y="-84.8" style="font-family:Times New Roman;font-size:8.00;">NamedEntity</text>
</g>
<!-- NamedEntity&#45;&gt;BaseEntity -->
<g id="edge3" class="edge"><title>NamedEntity&#45;&gt;BaseEntity</title>
<path style="fill:none;stroke:black;" d="M1518,-78C1518,-71 1518,-61 1518,-52"/>
<polygon style="fill:black;stroke:black;" points="1521.5,-52 1518,-42 1514.5,-52 1521.5,-52"/>
</g>
<!-- Owner -->
<g id="node9" class="node"><title>Owner</title>
<polygon style="fill:#ffff5c;stroke:#ffff5c;" points="1614,-96 1570,-96 1570,-78 1614,-78 1614,-96"/>
<text text-anchor="middle" x="1592" y="-84.8" style="font-family:Times New Roman;font-size:8.00;">Owner</text>
</g>
<!-- Person -->
<g id="node10" class="node"><title>Person</title>
<polygon style="fill:#ffff5c;stroke:#ffff5c;" points="1457,-96 1411,-96 1411,-78 1457,-78 1457,-96"/>
<text text-anchor="middle" x="1434" y="-84.8" style="font-family:Times New Roman;font-size:8.00;">Person</text>
</g>
<!-- Person&#45;&gt;BaseEntity -->
<g id="edge5" class="edge"><title>Person&#45;&gt;BaseEntity</title>
<path style="fill:none;stroke:black;" d="M1448,-78C1461,-70 1480,-57 1495,-47"/>
<polygon style="fill:black;stroke:black;" points="1496.96,-49.916 1504,-42 1493.56,-43.7969 1496.96,-49.916"/>
</g>
<!-- Pet -->
<g id="node12" class="node"><title>Pet</title>
<polygon style="fill:#ffff5c;stroke:#ffff5c;" points="1611,-150 1581,-150 1581,-132 1611,-132 1611,-150"/>
<text text-anchor="middle" x="1596" y="-138.8" style="font-family:Times New Roman;font-size:8.00;">Pet</text>
</g>
<!-- Pet&#45;&gt;NamedEntity -->
<g id="edge7" class="edge"><title>Pet&#45;&gt;NamedEntity</title>
<path style="fill:none;stroke:black;" d="M1583,-132C1571,-124 1554,-111 1539,-102"/>
<polygon style="fill:black;stroke:black;" points="1541.1,-99.2 1531,-96 1536.9,-104.8 1541.1,-99.2"/>
</g>
<!-- Pet&#45;&gt;Owner -->
<g id="edge9" class="edge"><title>Pet&#45;&gt;Owner</title>
<path style="fill:none;stroke:black;" d="M1595,-132C1594,-125 1594,-115 1593,-106"/>
<polygon style="fill:black;stroke:black;" points="1596.5,-106 1593,-96 1589.5,-106 1596.5,-106"/>
</g>
<!-- PetType -->
<g id="node15" class="node"><title>PetType</title>
<polygon style="fill:#ffff5c;stroke:#ffff5c;" points="1563,-150 1515,-150 1515,-132 1563,-132 1563,-150"/>
<text text-anchor="middle" x="1539" y="-138.8" style="font-family:Times New Roman;font-size:8.00;">PetType</text>
</g>
<!-- PetType&#45;&gt;NamedEntity -->
<g id="edge11" class="edge"><title>PetType&#45;&gt;NamedEntity</title>
<path style="fill:none;stroke:black;" d="M1535,-132C1532,-125 1528,-115 1525,-106"/>
<polygon style="fill:black;stroke:black;" points="1528.23,-104.573 1522,-96 1521.52,-106.584 1528.23,-104.573"/>
</g>
<!-- Specialty -->
<g id="node17" class="node"><title>Specialty</title>
<polygon style="fill:#ffff5c;stroke:#ffff5c;" points="1497,-150 1443,-150 1443,-132 1497,-132 1497,-150"/>
<text text-anchor="middle" x="1470" y="-138.8" style="font-family:Times New Roman;font-size:8.00;">Specialty</text>
</g>
<!-- Specialty&#45;&gt;NamedEntity -->
<g id="edge13" class="edge"><title>Specialty&#45;&gt;NamedEntity</title>
<path style="fill:none;stroke:black;" d="M1478,-132C1485,-124 1495,-113 1503,-104"/>
<polygon style="fill:black;stroke:black;" points="1506.05,-105.831 1510,-96 1500.78,-101.221 1506.05,-105.831"/>
</g>
<!-- Vet -->
<g id="node19" class="node"><title>Vet</title>
<polygon style="fill:#ffff5c;stroke:#ffff5c;" points="1544,-204 1516,-204 1516,-186 1544,-186 1544,-204"/>
<text text-anchor="middle" x="1530" y="-192.8" style="font-family:Times New Roman;font-size:8.00;">Vet</text>
</g>
<!-- Vet&#45;&gt;Person -->
<g id="edge15" class="edge"><title>Vet&#45;&gt;Person</title>
<path style="fill:none;stroke:black;" d="M1519,-186C1515,-183 1511,-180 1507,-178 1477,-161 1454,-178 1434,-150 1426,-137 1427,-119 1429,-106"/>
<polygon style="fill:black;stroke:black;" points="1432.47,-106.492 1431,-96 1425.61,-105.119 1432.47,-106.492"/>
</g>
<!-- Vet&#45;&gt;Specialty -->
<g id="edge17" class="edge"><title>Vet&#45;&gt;Specialty</title>
<path style="fill:none;stroke:black;" d="M1520,-186C1511,-178 1499,-166 1489,-157"/>
<polygon style="fill:black;stroke:black;" points="1490.83,-153.951 1481,-150 1486.22,-159.219 1490.83,-153.951"/>
</g>
<!-- Visit -->
<g id="node22" class="node"><title>Visit</title>
<polygon style="fill:#ffff5c;stroke:#ffff5c;" points="1596,-204 1562,-204 1562,-186 1596,-186 1596,-204"/>
<text text-anchor="middle" x="1579" y="-192.8" style="font-family:Times New Roman;font-size:8.00;">Visit</text>
</g>
<!-- Visit&#45;&gt;BaseEntity -->
<g id="edge21" class="edge"><title>Visit&#45;&gt;BaseEntity</title>
<path style="fill:none;stroke:black;" d="M1591,-186C1601,-177 1614,-164 1620,-150 1633,-120 1641,-104 1623,-78 1609,-56 1581,-45 1558,-39"/>
<polygon style="fill:black;stroke:black;" points="1558.49,-35.5292 1548,-37 1557.12,-42.3933 1558.49,-35.5292"/>
</g>
<!-- Visit&#45;&gt;Pet -->
<g id="edge19" class="edge"><title>Visit&#45;&gt;Pet</title>
<path style="fill:none;stroke:black;" d="M1582,-186C1584,-179 1587,-169 1590,-160"/>
<polygon style="fill:black;stroke:black;" points="1593.48,-160.584 1593,-150 1586.77,-158.573 1593.48,-160.584"/>
</g>
<!-- AbstractTraceAspect -->
<g id="node25" class="node"><title>AbstractTraceAspect</title>
<polygon style="fill:#ff9999;stroke:#ff9999;" points="1534,-264 1432,-264 1432,-246 1534,-246 1534,-264"/>
<text text-anchor="middle" x="1483" y="-252.8" style="font-family:Times New Roman;font-size:8.00;">AbstractTraceAspect</text>
</g>
<!-- CallMonitoringAspect -->
<g id="node26" class="node"><title>CallMonitoringAspect</title>
<polygon style="fill:#ff9999;stroke:#ff9999;" points="1414,-264 1310,-264 1310,-246 1414,-246 1414,-264"/>
<text text-anchor="middle" x="1362" y="-252.8" style="font-family:Times New Roman;font-size:8.00;">CallMonitoringAspect</text>
</g>
<!-- UsageLogAspect -->
<g id="node27" class="node"><title>UsageLogAspect</title>
<polygon style="fill:#ff9999;stroke:#ff9999;" points="1292,-264 1206,-264 1206,-246 1292,-246 1292,-264"/>
<text text-anchor="middle" x="1249" y="-252.8" style="font-family:Times New Roman;font-size:8.00;">UsageLogAspect</text>
</g>
<!-- HibernateClinic -->
<g id="node28" class="node"><title>HibernateClinic</title>
<polygon style="fill:#ffff5c;stroke:#ffff5c;" points="1498,-204 1418,-204 1418,-186 1498,-186 1498,-204"/>
<text text-anchor="middle" x="1458" y="-192.8" style="font-family:Times New Roman;font-size:8.00;">HibernateClinic</text>
</g>
<!-- JdbcPet -->
<g id="node29" class="node"><title>JdbcPet</title>
<polygon style="fill:#ffff5c;stroke:#ffff5c;" points="1945,-204 1899,-204 1899,-186 1945,-186 1945,-204"/>
<text text-anchor="middle" x="1922" y="-192.8" style="font-family:Times New Roman;font-size:8.00;">JdbcPet</text>
</g>
<!-- SimpleJdbcClinic$1 -->
<g id="node30" class="node"><title>SimpleJdbcClinic$1</title>
<polygon style="fill:#ffff5c;stroke:#ffff5c;" points="2308,-264 2212,-264 2212,-246 2308,-246 2308,-264"/>
<text text-anchor="middle" x="2260" y="-252.8" style="font-family:Times New Roman;font-size:8.00;">SimpleJdbcClinic$1</text>
</g>
<!-- SimpleJdbcClinic$2 -->
<g id="node31" class="node"><title>SimpleJdbcClinic$2</title>
<polygon style="fill:#ffff5c;stroke:#ffff5c;" points="2194,-264 2098,-264 2098,-246 2194,-246 2194,-264"/>
<text text-anchor="middle" x="2146" y="-252.8" style="font-family:Times New Roman;font-size:8.00;">SimpleJdbcClinic$2</text>
</g>
<!-- SimpleJdbcClinic$JdbcPetRowMapper -->
<g id="node32" class="node"><title>SimpleJdbcClinic$JdbcPetRowMapper</title>
<polygon style="fill:#ffff5c;stroke:#ffff5c;" points="2080,-264 1910,-264 1910,-246 2080,-246 2080,-264"/>
<text text-anchor="middle" x="1995" y="-252.8" style="font-family:Times New Roman;font-size:8.00;">SimpleJdbcClinic$JdbcPetRowMapper</text>
</g>
<!-- SimpleJdbcClinic$JdbcPetRowMapper&#45;&gt;JdbcPet -->
<g id="edge23" class="edge"><title>SimpleJdbcClinic$JdbcPetRowMapper&#45;&gt;JdbcPet</title>
<path style="fill:none;stroke:black;" d="M1984,-246C1972,-237 1955,-222 1941,-210"/>
<polygon style="fill:black;stroke:black;" points="1943.1,-207.2 1933,-204 1938.9,-212.8 1943.1,-207.2"/>
</g>
<!-- SimpleJdbcClinic -->
<g id="node34" class="node"><title>SimpleJdbcClinic</title>
<polygon style="fill:#ffff5c;stroke:#ffff5c;" points="1892,-264 1808,-264 1808,-246 1892,-246 1892,-264"/>
<text text-anchor="middle" x="1850" y="-252.8" style="font-family:Times New Roman;font-size:8.00;">SimpleJdbcClinic</text>
</g>
<!-- SimpleJdbcClinic&#45;&gt;JdbcPet -->
<g id="edge25" class="edge"><title>SimpleJdbcClinic&#45;&gt;JdbcPet</title>
<path style="fill:none;stroke:black;" d="M1861,-246C1872,-237 1889,-222 1903,-210"/>
<polygon style="fill:black;stroke:black;" points="1905.1,-212.8 1911,-204 1900.9,-207.2 1905.1,-212.8"/>
</g>
<!-- SimpleJdbcClinicMBean -->
<g id="node36" class="node"><title>SimpleJdbcClinicMBean</title>
<polygon style="fill:#ffff5c;stroke:#ffff5c;" points="1790,-264 1676,-264 1676,-246 1790,-246 1790,-264"/>
<text text-anchor="middle" x="1733" y="-252.8" style="font-family:Times New Roman;font-size:8.00;">SimpleJdbcClinicMBean</text>
</g>
<!-- EntityManagerClinic -->
<g id="node37" class="node"><title>EntityManagerClinic</title>
<polygon style="fill:#ffff5c;stroke:#ffff5c;" points="1400,-204 1302,-204 1302,-186 1400,-186 1400,-204"/>
<text text-anchor="middle" x="1351" y="-192.8" style="font-family:Times New Roman;font-size:8.00;">EntityManagerClinic</text>
</g>
<!-- EssentialsHSQLPlatformWithNativeSequence -->
<g id="node38" class="node"><title>EssentialsHSQLPlatformWithNativeSequence</title>
<polygon style="fill:#ffff5c;stroke:#ffff5c;" points="1284,-204 1080,-204 1080,-186 1284,-186 1284,-204"/>
<text text-anchor="middle" x="1182" y="-192.8" style="font-family:Times New Roman;font-size:8.00;">EssentialsHSQLPlatformWithNativeSequence</text>
</g>
<!-- EntityUtils -->
<g id="node39" class="node"><title>EntityUtils</title>
<polygon style="fill:#ffff5c;stroke:#ffff5c;" points="2452,-264 2394,-264 2394,-246 2452,-246 2452,-264"/>
<text text-anchor="middle" x="2423" y="-252.8" style="font-family:Times New Roman;font-size:8.00;">EntityUtils</text>
</g>
<!-- OwnerValidator -->
<g id="node40" class="node"><title>OwnerValidator</title>
<polygon style="fill:#ff9999;stroke:#ff9999;" points="974,-204 894,-204 894,-186 974,-186 974,-204"/>
<text text-anchor="middle" x="934" y="-192.8" style="font-family:Times New Roman;font-size:8.00;">OwnerValidator</text>
</g>
<!-- PetValidator -->
<g id="node41" class="node"><title>PetValidator</title>
<polygon style="fill:#ff9999;stroke:#ff9999;" points="876,-204 810,-204 810,-186 876,-186 876,-204"/>
<text text-anchor="middle" x="843" y="-192.8" style="font-family:Times New Roman;font-size:8.00;">PetValidator</text>
</g>
<!-- VisitValidator -->
<g id="node42" class="node"><title>VisitValidator</title>
<polygon style="fill:#ff9999;stroke:#ff9999;" points="1062,-204 992,-204 992,-186 1062,-186 1062,-204"/>
<text text-anchor="middle" x="1027" y="-192.8" style="font-family:Times New Roman;font-size:8.00;">VisitValidator</text>
</g>
<!-- AddOwnerForm -->
<g id="node43" class="node"><title>AddOwnerForm</title>
<polygon style="fill:#99ccff;stroke:#99ccff;" points="974,-264 894,-264 894,-246 974,-246 974,-264"/>
<text text-anchor="middle" x="934" y="-252.8" style="font-family:Times New Roman;font-size:8.00;">AddOwnerForm</text>
</g>
<!-- AddOwnerForm&#45;&gt;OwnerValidator -->
<g id="edge27" class="edge"><title>AddOwnerForm&#45;&gt;OwnerValidator</title>
<path style="fill:none;stroke:black;" d="M934,-246C934,-238 934,-225 934,-214"/>
<polygon style="fill:black;stroke:black;" points="937.5,-214 934,-204 930.5,-214 937.5,-214"/>
</g>
<!-- AddPetForm -->
<g id="node45" class="node"><title>AddPetForm</title>
<polygon style="fill:#99ccff;stroke:#99ccff;" points="876,-264 810,-264 810,-246 876,-246 876,-264"/>
<text text-anchor="middle" x="843" y="-252.8" style="font-family:Times New Roman;font-size:8.00;">AddPetForm</text>
</g>
<!-- AddPetForm&#45;&gt;PetValidator -->
<g id="edge29" class="edge"><title>AddPetForm&#45;&gt;PetValidator</title>
<path style="fill:none;stroke:black;" d="M843,-246C843,-238 843,-225 843,-214"/>
<polygon style="fill:black;stroke:black;" points="846.5,-214 843,-204 839.5,-214 846.5,-214"/>
</g>
<!-- AddVisitForm -->
<g id="node47" class="node"><title>AddVisitForm</title>
<polygon style="fill:#99ccff;stroke:#99ccff;" points="1064,-264 992,-264 992,-246 1064,-246 1064,-264"/>
<text text-anchor="middle" x="1028" y="-252.8" style="font-family:Times New Roman;font-size:8.00;">AddVisitForm</text>
</g>
<!-- AddVisitForm&#45;&gt;VisitValidator -->
<g id="edge31" class="edge"><title>AddVisitForm&#45;&gt;VisitValidator</title>
<path style="fill:none;stroke:black;" d="M1028,-246C1028,-238 1028,-225 1028,-214"/>
<polygon style="fill:black;stroke:black;" points="1031.48,-213.602 1027,-204 1024.51,-214.299 1031.48,-213.602"/>
</g>
<!-- ClinicBindingInitializer -->
<g id="node49" class="node"><title>ClinicBindingInitializer</title>
<polygon style="fill:#99ccff;stroke:#99ccff;" points="792,-264 684,-264 684,-246 792,-246 792,-264"/>
<text text-anchor="middle" x="738" y="-252.8" style="font-family:Times New Roman;font-size:8.00;">ClinicBindingInitializer</text>
</g>
<!-- ClinicController -->
<g id="node50" class="node"><title>ClinicController</title>
<polygon style="fill:#ff9999;stroke:#ff9999;" points="666,-264 586,-264 586,-246 666,-246 666,-264"/>
<text text-anchor="middle" x="626" y="-252.8" style="font-family:Times New Roman;font-size:8.00;">ClinicController</text>
</g>
<!-- EditOwnerForm -->
<g id="node51" class="node"><title>EditOwnerForm</title>
<polygon style="fill:#99ccff;stroke:#99ccff;" points="568,-264 488,-264 488,-246 568,-246 568,-264"/>
<text text-anchor="middle" x="528" y="-252.8" style="font-family:Times New Roman;font-size:8.00;">EditOwnerForm</text>
</g>
<!-- EditOwnerForm&#45;&gt;OwnerValidator -->
<g id="edge33" class="edge"><title>EditOwnerForm&#45;&gt;OwnerValidator</title>
<path style="fill:none;stroke:black;" d="M550,-246C558,-243 568,-240 577,-238 611,-231 853,-240 885,-230 897,-226 908,-218 917,-211"/>
<polygon style="fill:black;stroke:black;" points="919.779,-213.219 925,-204 915.169,-207.951 919.779,-213.219"/>
</g>
<!-- EditPetForm -->
<g id="node53" class="node"><title>EditPetForm</title>
<polygon style="fill:#99ccff;stroke:#99ccff;" points="470,-264 404,-264 404,-246 470,-246 470,-264"/>
<text text-anchor="middle" x="437" y="-252.8" style="font-family:Times New Roman;font-size:8.00;">EditPetForm</text>
</g>
<!-- EditPetForm&#45;&gt;PetValidator -->
<g id="edge35" class="edge"><title>EditPetForm&#45;&gt;PetValidator</title>
<path style="fill:none;stroke:black;" d="M457,-246C464,-243 472,-240 479,-238 592,-209 731,-199 800,-196"/>
<polygon style="fill:black;stroke:black;" points="800,-199.5 810,-196 800,-192.5 800,-199.5"/>
</g>
<!-- FindOwnersForm -->
<g id="node55" class="node"><title>FindOwnersForm</title>
<polygon style="fill:#99ccff;stroke:#99ccff;" points="386,-264 300,-264 300,-246 386,-246 386,-264"/>
<text text-anchor="middle" x="343" y="-252.8" style="font-family:Times New Roman;font-size:8.00;">FindOwnersForm</text>
</g>
<!-- PetTypeEditor -->
<g id="node56" class="node"><title>PetTypeEditor</title>
<polygon style="fill:#ffff5c;stroke:#ffff5c;" points="282,-264 210,-264 210,-246 282,-246 282,-264"/>
<text text-anchor="middle" x="246" y="-252.8" style="font-family:Times New Roman;font-size:8.00;">PetTypeEditor</text>
</g>
</g>
</svg>
