<?xml version="1.0" encoding="UTF-8" standalone="no"?>
<!DOCTYPE svg PUBLIC "-//W3C//DTD SVG 1.0//EN"
 "http://www.w3.org/TR/2001/REC-SVG-20010904/DTD/svg10.dtd" [
 <!ATTLIST svg xmlns:xlink CDATA #FIXED "http://www.w3.org/1999/xlink">
]>
<!-- Generated by Graphviz version 2.20.2 (Mon Mar 30 10:09:11 UTC 2009)
     For user: (jccastrejon) jccastrejon,,, -->
<!-- Title: mvcClassification Pages: 1 -->
<svg width="2068pt" height="204pt"
 viewBox="0.00 0.00 2068.00 204.00" xmlns="http://www.w3.org/2000/svg" xmlns:xlink="http://www.w3.org/1999/xlink">
<g id="graph0" class="graph" transform="scale(1 1) rotate(0) translate(4 200)">
<title>mvcClassification</title>
<polygon style="fill:white;stroke:white;" points="-4,4 -4,-200 2064,-200 2064,4 -4,4"/>
<g id="cluster2" class="cluster"><title>clusterMVCLayers</title>
<polygon style="fill:none;stroke:#ccffff;stroke-width:2;" points="8,-16 8,-188 184,-188 184,-16 8,-16"/>
<text text-anchor="middle" x="96" y="-176.8" style="font-family:Times New Roman;font-size:8.00;">MVC Layers</text>
</g>
<g id="cluster3" class="cluster"><title>cluster_build</title>
<polygon style="fill:none;stroke:black;" points="1298,-136 1298,-188 1344,-188 1344,-136 1298,-136"/>
<text text-anchor="middle" x="1321" y="-176.8" style="font-family:Times New Roman;font-size:8.00;">build</text>
</g>
<g id="cluster4" class="cluster"><title>cluster_bin.mx.itesm.arch.mvc</title>
<polygon style="fill:none;stroke:black;" points="1220,-76 1220,-128 2052,-128 2052,-76 1220,-76"/>
<text text-anchor="middle" x="1636" y="-116.8" style="font-family:Times New Roman;font-size:8.00;">bin.mx.itesm.arch.mvc</text>
</g>
<g id="cluster5" class="cluster"><title>cluster_bin.mx.itesm.arch.dependencies</title>
<polygon style="fill:none;stroke:black;" points="192,-16 192,-68 1380,-68 1380,-16 192,-16"/>
<text text-anchor="middle" x="786" y="-56.8" style="font-family:Times New Roman;font-size:8.00;">bin.mx.itesm.arch.dependencies</text>
</g>
<!-- ModelLayer -->
<g id="node1" class="node"><title>ModelLayer</title>
<polygon style="fill:#b1ff3d;stroke:#b1ff3d;" points="167,-162 127,-162 127,-144 167,-144 167,-162"/>
<text text-anchor="middle" x="147" y="-150.8" style="font-family:Times New Roman;font-size:8.00;">Model</text>
</g>
<!-- ViewLayer -->
<g id="node2" class="node"><title>ViewLayer</title>
<polygon style="fill:#3399ff;stroke:#3399ff;" points="165,-102 129,-102 129,-84 165,-84 165,-102"/>
<text text-anchor="middle" x="147" y="-90.8" style="font-family:Times New Roman;font-size:8.00;">View</text>
</g>
<!-- ModelLayer&#45;&gt;ViewLayer -->
<!-- ControllerLayer -->
<g id="node3" class="node"><title>ControllerLayer</title>
<polygon style="fill:#a3a3a3;stroke:#a3a3a3;" points="176,-42 118,-42 118,-24 176,-24 176,-42"/>
<text text-anchor="middle" x="147" y="-30.8" style="font-family:Times New Roman;font-size:8.00;">Controller</text>
</g>
<!-- ViewLayer&#45;&gt;ControllerLayer -->
<!-- InvalidModelLayer -->
<g id="node4" class="node"><title>InvalidModelLayer</title>
<polyline style="fill:none;stroke:#b1ff3d;" points="80,-162 36,-162 "/>
<path style="fill:none;stroke:#b1ff3d;" d="M36,-162C30,-162 24,-156 24,-150"/>
<polyline style="fill:none;stroke:#b1ff3d;" points="24,-150 24,-156 "/>
<path style="fill:none;stroke:#b1ff3d;" d="M24,-156C24,-150 30,-144 36,-144"/>
<polyline style="fill:none;stroke:#b1ff3d;" points="36,-144 80,-144 "/>
<path style="fill:none;stroke:#b1ff3d;" d="M80,-144C86,-144 92,-150 92,-156"/>
<polyline style="fill:none;stroke:#b1ff3d;" points="92,-156 92,-150 "/>
<path style="fill:none;stroke:#b1ff3d;" d="M92,-150C92,-156 86,-162 80,-162"/>
<text text-anchor="middle" x="58" y="-150.8" style="font-family:Times New Roman;font-size:8.00;">InvalidModel</text>
</g>
<!-- InvalidViewLayer -->
<g id="node5" class="node"><title>InvalidViewLayer</title>
<polyline style="fill:none;stroke:#3399ff;" points="77,-102 39,-102 "/>
<path style="fill:none;stroke:#3399ff;" d="M39,-102C33,-102 27,-96 27,-90"/>
<polyline style="fill:none;stroke:#3399ff;" points="27,-90 27,-96 "/>
<path style="fill:none;stroke:#3399ff;" d="M27,-96C27,-90 33,-84 39,-84"/>
<polyline style="fill:none;stroke:#3399ff;" points="39,-84 77,-84 "/>
<path style="fill:none;stroke:#3399ff;" d="M77,-84C83,-84 89,-90 89,-96"/>
<polyline style="fill:none;stroke:#3399ff;" points="89,-96 89,-90 "/>
<path style="fill:none;stroke:#3399ff;" d="M89,-90C89,-96 83,-102 77,-102"/>
<text text-anchor="middle" x="58" y="-90.8" style="font-family:Times New Roman;font-size:8.00;">InvalidView</text>
</g>
<!-- InvalidModelLayer&#45;&gt;InvalidViewLayer -->
<!-- InvalidControllerLayer -->
<g id="node6" class="node"><title>InvalidControllerLayer</title>
<polyline style="fill:none;stroke:#a3a3a3;" points="88,-42 28,-42 "/>
<path style="fill:none;stroke:#a3a3a3;" d="M28,-42C22,-42 16,-36 16,-30"/>
<polyline style="fill:none;stroke:#a3a3a3;" points="16,-30 16,-36 "/>
<path style="fill:none;stroke:#a3a3a3;" d="M16,-36C16,-30 22,-24 28,-24"/>
<polyline style="fill:none;stroke:#a3a3a3;" points="28,-24 88,-24 "/>
<path style="fill:none;stroke:#a3a3a3;" d="M88,-24C94,-24 100,-30 100,-36"/>
<polyline style="fill:none;stroke:#a3a3a3;" points="100,-36 100,-30 "/>
<path style="fill:none;stroke:#a3a3a3;" d="M100,-30C100,-36 94,-42 88,-42"/>
<text text-anchor="middle" x="58" y="-30.8" style="font-family:Times New Roman;font-size:8.00;">InvalidController</text>
</g>
<!-- InvalidViewLayer&#45;&gt;InvalidControllerLayer -->
<!-- MvcAnalyzerTest -->
<g id="node10" class="node"><title>MvcAnalyzerTest</title>
<polygon style="fill:#b1ff3d;stroke:#b1ff3d;" points="2044,-102 1960,-102 1960,-84 2044,-84 2044,-102"/>
<text text-anchor="middle" x="2002" y="-90.8" style="font-family:Times New Roman;font-size:8.00;">MvcAnalyzerTest</text>
</g>
<!-- MvcAnalyzer$Variable -->
<g id="node11" class="node"><title>MvcAnalyzer$Variable</title>
<polygon style="fill:#b1ff3d;stroke:#b1ff3d;" points="1942,-102 1836,-102 1836,-84 1942,-84 1942,-102"/>
<text text-anchor="middle" x="1889" y="-90.8" style="font-family:Times New Roman;font-size:8.00;">MvcAnalyzer$Variable</text>
</g>
<!-- Layer$1 -->
<g id="node12" class="node"><title>Layer$1</title>
<polygon style="fill:#b1ff3d;stroke:#b1ff3d;" points="1818,-102 1768,-102 1768,-84 1818,-84 1818,-102"/>
<text text-anchor="middle" x="1793" y="-90.8" style="font-family:Times New Roman;font-size:8.00;">Layer$1</text>
</g>
<!-- MvcExportCommand -->
<g id="node13" class="node"><title>MvcExportCommand</title>
<polygon style="fill:#b1ff3d;stroke:#b1ff3d;" points="1750,-102 1648,-102 1648,-84 1750,-84 1750,-102"/>
<text text-anchor="middle" x="1699" y="-90.8" style="font-family:Times New Roman;font-size:8.00;">MvcExportCommand</text>
</g>
<!-- Layer -->
<g id="node14" class="node"><title>Layer</title>
<polygon style="fill:#b1ff3d;stroke:#b1ff3d;" points="1630,-102 1592,-102 1592,-84 1630,-84 1630,-102"/>
<text text-anchor="middle" x="1611" y="-90.8" style="font-family:Times New Roman;font-size:8.00;">Layer</text>
</g>
<!-- MvcDependencyCommand -->
<g id="node15" class="node"><title>MvcDependencyCommand</title>
<polygon style="fill:#b1ff3d;stroke:#b1ff3d;" points="1574,-102 1448,-102 1448,-84 1574,-84 1574,-102"/>
<text text-anchor="middle" x="1511" y="-90.8" style="font-family:Times New Roman;font-size:8.00;">MvcDependencyCommand</text>
</g>
<!-- MvcAnalyzer -->
<g id="node16" class="node"><title>MvcAnalyzer</title>
<polygon style="fill:#b1ff3d;stroke:#b1ff3d;" points="1430,-102 1364,-102 1364,-84 1430,-84 1430,-102"/>
<text text-anchor="middle" x="1397" y="-90.8" style="font-family:Times New Roman;font-size:8.00;">MvcAnalyzer</text>
</g>
<!-- Layer$3 -->
<g id="node17" class="node"><title>Layer$3</title>
<polygon style="fill:#b1ff3d;stroke:#b1ff3d;" points="1346,-102 1296,-102 1296,-84 1346,-84 1346,-102"/>
<text text-anchor="middle" x="1321" y="-90.8" style="font-family:Times New Roman;font-size:8.00;">Layer$3</text>
</g>
<!-- DependencyAnalyzer -->
<g id="node19" class="node"><title>DependencyAnalyzer</title>
<polygon style="fill:#b1ff3d;stroke:#b1ff3d;" points="1372,-42 1270,-42 1270,-24 1372,-24 1372,-42"/>
<text text-anchor="middle" x="1321" y="-30.8" style="font-family:Times New Roman;font-size:8.00;">DependencyAnalyzer</text>
</g>
<!-- Layer$3&#45;&gt;DependencyAnalyzer -->
<!-- Layer$2 -->
<g id="node18" class="node"><title>Layer$2</title>
<polygon style="fill:#b1ff3d;stroke:#b1ff3d;" points="1278,-102 1228,-102 1228,-84 1278,-84 1278,-102"/>
<text text-anchor="middle" x="1253" y="-90.8" style="font-family:Times New Roman;font-size:8.00;">Layer$2</text>
</g>
<!-- DependencyFileFilter -->
<g id="node20" class="node"><title>DependencyFileFilter</title>
<polygon style="fill:#b1ff3d;stroke:#b1ff3d;" points="1252,-42 1150,-42 1150,-24 1252,-24 1252,-42"/>
<text text-anchor="middle" x="1201" y="-30.8" style="font-family:Times New Roman;font-size:8.00;">DependencyFileFilter</text>
</g>
<!-- DependenciesUtil$1 -->
<g id="node21" class="node"><title>DependenciesUtil$1</title>
<polygon style="fill:#b1ff3d;stroke:#b1ff3d;" points="1132,-42 1032,-42 1032,-24 1132,-24 1132,-42"/>
<text text-anchor="middle" x="1082" y="-30.8" style="font-family:Times New Roman;font-size:8.00;">DependenciesUtil$1</text>
</g>
<!-- DependencyVisitor -->
<g id="node22" class="node"><title>DependencyVisitor</title>
<polygon style="fill:#b1ff3d;stroke:#b1ff3d;" points="1014,-42 920,-42 920,-24 1014,-24 1014,-42"/>
<text text-anchor="middle" x="967" y="-30.8" style="font-family:Times New Roman;font-size:8.00;">DependencyVisitor</text>
</g>
<!-- DependenciesUtil -->
<g id="node23" class="node"><title>DependenciesUtil</title>
<polygon style="fill:#b1ff3d;stroke:#b1ff3d;" points="902,-42 812,-42 812,-24 902,-24 902,-42"/>
<text text-anchor="middle" x="857" y="-30.8" style="font-family:Times New Roman;font-size:8.00;">DependenciesUtil</text>
</g>
<!-- DependenciesUtilTest -->
<g id="node24" class="node"><title>DependenciesUtilTest</title>
<polygon style="fill:#b1ff3d;stroke:#b1ff3d;" points="794,-42 688,-42 688,-24 794,-24 794,-42"/>
<text text-anchor="middle" x="741" y="-30.8" style="font-family:Times New Roman;font-size:8.00;">DependenciesUtilTest</text>
</g>
<!-- DependencyCommand -->
<g id="node25" class="node"><title>DependencyCommand</title>
<polygon style="fill:#b1ff3d;stroke:#b1ff3d;" points="670,-42 560,-42 560,-24 670,-24 670,-42"/>
<text text-anchor="middle" x="615" y="-30.8" style="font-family:Times New Roman;font-size:8.00;">DependencyCommand</text>
</g>
<!-- ClassDependencies -->
<g id="node26" class="node"><title>ClassDependencies</title>
<polygon style="fill:#b1ff3d;stroke:#b1ff3d;" points="542,-42 442,-42 442,-24 542,-24 542,-42"/>
<text text-anchor="middle" x="492" y="-30.8" style="font-family:Times New Roman;font-size:8.00;">ClassDependencies</text>
</g>
<!-- DependencyAnalyzerTest -->
<g id="node27" class="node"><title>DependencyAnalyzerTest</title>
<polygon style="fill:#b1ff3d;stroke:#b1ff3d;" points="424,-42 304,-42 304,-24 424,-24 424,-42"/>
<text text-anchor="middle" x="364" y="-30.8" style="font-family:Times New Roman;font-size:8.00;">DependencyAnalyzerTest</text>
</g>
<!-- ExportCommand -->
<g id="node28" class="node"><title>ExportCommand</title>
<polygon style="fill:#b1ff3d;stroke:#b1ff3d;" points="286,-42 200,-42 200,-24 286,-24 286,-42"/>
<text text-anchor="middle" x="243" y="-30.8" style="font-family:Times New Roman;font-size:8.00;">ExportCommand</text>
</g>
<!-- xml -->
<g id="node29" class="node"><title>xml</title>
<polygon style="fill:#a3a3a3;stroke:#a3a3a3;" points="1336,-162 1306,-162 1306,-144 1336,-144 1336,-162"/>
<text text-anchor="middle" x="1321" y="-150.8" style="font-family:Times New Roman;font-size:8.00;">xml</text>
</g>
<!-- xml&#45;&gt;Layer$3 -->
</g>
</svg>
