<?xml version="1.0" encoding="UTF-8" standalone="no"?>
<!DOCTYPE svg PUBLIC "-//W3C//DTD SVG 1.0//EN"
 "http://www.w3.org/TR/2001/REC-SVG-20010904/DTD/svg10.dtd" [
 <!ATTLIST svg xmlns:xlink CDATA #FIXED "http://www.w3.org/1999/xlink">
]>
<!-- Generated by Graphviz version 2.20.2 (Mon Mar 30 10:09:11 UTC 2009)
     For user: (jccastrejon) jccastrejon,,, -->
<!-- Title: MvcAnalyzer&#45;external Pages: 1 -->
<svg width="1693pt" height="432pt"
 viewBox="0.00 0.00 1693.00 432.00" xmlns="http://www.w3.org/2000/svg" xmlns:xlink="http://www.w3.org/1999/xlink">
<g id="graph0" class="graph" transform="scale(1 1) rotate(0) translate(4 428)">
<title>MvcAnalyzer&#45;external</title>
<polygon style="fill:white;stroke:white;" points="-4,4 -4,-428 1689,-428 1689,4 -4,4"/>
<g id="cluster2" class="cluster"><title>cluster_mx.itesm.arch.mvc</title>
<polygon style="fill:none;stroke:black;" points="238,-136 238,-416 744,-416 744,-136 238,-136"/>
<text text-anchor="middle" x="491" y="-404.8" style="font-family:Times New Roman;font-size:8.00;">mx.itesm.arch.mvc</text>
</g>
<g id="cluster3" class="cluster"><title>cluster_mx.itesm.arch.dependencies</title>
<polygon style="fill:none;stroke:black;" points="1103,-76 1103,-362 1513,-362 1513,-76 1103,-76"/>
<text text-anchor="middle" x="1308" y="-350.8" style="font-family:Times New Roman;font-size:8.00;">mx.itesm.arch.dependencies</text>
</g>
<g id="cluster4" class="cluster"><title>cluster_junit.framework</title>
<polygon style="fill:none;stroke:black;" points="1594,-256 1594,-308 1677,-308 1677,-256 1594,-256"/>
<text text-anchor="middle" x="1635" y="-296.8" style="font-family:Times New Roman;font-size:8.00;">junit.framework</text>
</g>
<g id="cluster5" class="cluster"><title>cluster_org.objectweb.asm.commons</title>
<polygon style="fill:none;stroke:black;" points="767,-196 767,-248 910,-248 910,-196 767,-196"/>
<text text-anchor="middle" x="839" y="-236.8" style="font-family:Times New Roman;font-size:8.00;">org.objectweb.asm.commons</text>
</g>
<g id="cluster6" class="cluster"><title>cluster_weka.classifiers</title>
<polygon style="fill:none;stroke:black;" points="752,-136 752,-188 837,-188 837,-136 752,-136"/>
<text text-anchor="middle" x="795" y="-176.8" style="font-family:Times New Roman;font-size:8.00;">weka.classifiers</text>
</g>
<g id="cluster7" class="cluster"><title>cluster_weka.core</title>
<polygon style="fill:none;stroke:black;" points="8,-76 8,-128 412,-128 412,-76 8,-76"/>
<text text-anchor="middle" x="210" y="-116.8" style="font-family:Times New Roman;font-size:8.00;">weka.core</text>
</g>
<g id="cluster8" class="cluster"><title>cluster_org.objectweb.asm</title>
<polygon style="fill:none;stroke:black;" points="678,-16 678,-68 1234,-68 1234,-16 678,-16"/>
<text text-anchor="middle" x="956" y="-56.8" style="font-family:Times New Roman;font-size:8.00;">org.objectweb.asm</text>
</g>
<!-- MvcAnalyzerTest -->
<g id="node1" class="node"><title>MvcAnalyzerTest</title>
<polygon style="fill:none;stroke:black;" points="665,-390 581,-390 581,-372 665,-372 665,-390"/>
<text text-anchor="middle" x="623" y="-378.8" style="font-family:Times New Roman;font-size:8.00;">MvcAnalyzerTest</text>
</g>
<!-- MvcAnalyzer -->
<g id="node3" class="node"><title>MvcAnalyzer</title>
<polygon style="fill:none;stroke:black;" points="586,-336 520,-336 520,-318 586,-318 586,-336"/>
<text text-anchor="middle" x="553" y="-324.8" style="font-family:Times New Roman;font-size:8.00;">MvcAnalyzer</text>
</g>
<!-- MvcAnalyzerTest&#45;&gt;MvcAnalyzer -->
<g id="edge2" class="edge"><title>MvcAnalyzerTest&#45;&gt;MvcAnalyzer</title>
<path style="fill:none;stroke:black;" d="M611,-372C600,-364 585,-352 573,-342"/>
<polygon style="fill:black;stroke:black;" points="575.1,-339.2 565,-336 570.9,-344.8 575.1,-339.2"/>
</g>
<!-- TestCase -->
<g id="node5" class="node"><title>TestCase</title>
<polygon style="fill:none;stroke:black;" points="1657,-282 1603,-282 1603,-264 1657,-264 1657,-282"/>
<text text-anchor="middle" x="1630" y="-270.8" style="font-family:Times New Roman;font-size:8.00;">TestCase</text>
</g>
<!-- MvcAnalyzerTest&#45;&gt;TestCase -->
<g id="edge4" class="edge"><title>MvcAnalyzerTest&#45;&gt;TestCase</title>
<path style="fill:none;stroke:black;" d="M665,-381C837,-380 1477,-376 1517,-362 1558,-348 1596,-311 1615,-290"/>
<polygon style="fill:black;stroke:black;" points="1618.05,-291.831 1622,-282 1612.78,-287.221 1618.05,-291.831"/>
</g>
<!-- FastVector -->
<g id="node9" class="node"><title>FastVector</title>
<polygon style="fill:none;stroke:black;" points="404,-102 344,-102 344,-84 404,-84 404,-102"/>
<text text-anchor="middle" x="374" y="-90.8" style="font-family:Times New Roman;font-size:8.00;">FastVector</text>
</g>
<!-- MvcAnalyzer&#45;&gt;FastVector -->
<g id="edge54" class="edge"><title>MvcAnalyzer&#45;&gt;FastVector</title>
<path style="fill:none;stroke:black;" d="M520,-326C442,-324 250,-318 240,-308 188,-252 187,-192 238,-136 253,-120 316,-136 335,-128 344,-124 353,-116 360,-109"/>
<polygon style="fill:black;stroke:black;" points="362.404,-111.546 367,-102 357.454,-106.596 362.404,-111.546"/>
</g>
<!-- Attribute -->
<g id="node11" class="node"><title>Attribute</title>
<polygon style="fill:none;stroke:black;" points="326,-102 274,-102 274,-84 326,-84 326,-102"/>
<text text-anchor="middle" x="300" y="-90.8" style="font-family:Times New Roman;font-size:8.00;">Attribute</text>
</g>
<!-- MvcAnalyzer&#45;&gt;Attribute -->
<g id="edge52" class="edge"><title>MvcAnalyzer&#45;&gt;Attribute</title>
<path style="fill:none;stroke:black;" d="M520,-326C435,-324 217,-318 205,-308 149,-256 150,-190 203,-136 213,-126 253,-134 265,-128 273,-124 281,-117 287,-110"/>
<polygon style="fill:black;stroke:black;" points="290.049,-111.831 294,-102 284.781,-107.221 290.049,-111.831"/>
</g>
<!-- Layer -->
<g id="node14" class="node"><title>Layer</title>
<polygon style="fill:none;stroke:black;" points="419,-222 381,-222 381,-204 419,-204 419,-222"/>
<text text-anchor="middle" x="400" y="-210.8" style="font-family:Times New Roman;font-size:8.00;">Layer</text>
</g>
<!-- MvcAnalyzer&#45;&gt;Layer -->
<g id="edge46" class="edge"><title>MvcAnalyzer&#45;&gt;Layer</title>
<path style="fill:none;stroke:black;" d="M520,-321C504,-318 487,-313 481,-308 463,-291 477,-275 461,-256 452,-244 439,-234 428,-227"/>
<polygon style="fill:black;stroke:black;" points="429.441,-223.797 419,-222 426.042,-229.916 429.441,-223.797"/>
</g>
<!-- MvcExportCommand -->
<g id="node15" class="node"><title>MvcExportCommand</title>
<polygon style="fill:none;stroke:black;" points="736,-282 634,-282 634,-264 736,-264 736,-282"/>
<text text-anchor="middle" x="685" y="-270.8" style="font-family:Times New Roman;font-size:8.00;">MvcExportCommand</text>
</g>
<!-- MvcAnalyzer&#45;&gt;MvcExportCommand -->
<g id="edge44" class="edge"><title>MvcAnalyzer&#45;&gt;MvcExportCommand</title>
<path style="fill:none;stroke:black;" d="M586,-320C599,-317 613,-313 625,-308 638,-303 652,-295 663,-288"/>
<polygon style="fill:black;stroke:black;" points="665.621,-290.459 672,-282 661.738,-284.635 665.621,-290.459"/>
</g>
<!-- ClassDependencies -->
<g id="node17" class="node"><title>ClassDependencies</title>
<polygon style="fill:none;stroke:black;" points="1434,-102 1334,-102 1334,-84 1434,-84 1434,-102"/>
<text text-anchor="middle" x="1384" y="-90.8" style="font-family:Times New Roman;font-size:8.00;">ClassDependencies</text>
</g>
<!-- MvcAnalyzer&#45;&gt;ClassDependencies -->
<g id="edge34" class="edge"><title>MvcAnalyzer&#45;&gt;ClassDependencies</title>
<path style="fill:none;stroke:black;" d="M586,-326C734,-324 1321,-313 1338,-308 1429,-279 1470,-271 1514,-188 1525,-167 1528,-154 1514,-136 1505,-123 1471,-112 1440,-104"/>
<polygon style="fill:black;stroke:black;" points="1440.49,-100.529 1430,-102 1439.12,-107.393 1440.49,-100.529"/>
</g>
<!-- DependenciesUtil -->
<g id="node20" class="node"><title>DependenciesUtil</title>
<polygon style="fill:none;stroke:black;" points="1313,-222 1223,-222 1223,-204 1313,-204 1313,-222"/>
<text text-anchor="middle" x="1268" y="-210.8" style="font-family:Times New Roman;font-size:8.00;">DependenciesUtil</text>
</g>
<!-- MvcAnalyzer&#45;&gt;DependenciesUtil -->
<g id="edge42" class="edge"><title>MvcAnalyzer&#45;&gt;DependenciesUtil</title>
<path style="fill:none;stroke:black;" d="M586,-325C630,-322 711,-315 778,-308 938,-289 977,-275 1136,-256 1171,-251 1182,-259 1214,-248 1226,-243 1239,-235 1249,-228"/>
<polygon style="fill:black;stroke:black;" points="1251.1,-230.8 1257,-222 1246.9,-225.2 1251.1,-230.8"/>
</g>
<!-- ExportCommand -->
<g id="node22" class="node"><title>ExportCommand</title>
<polygon style="fill:none;stroke:black;" points="1357,-162 1271,-162 1271,-144 1357,-144 1357,-162"/>
<text text-anchor="middle" x="1314" y="-150.8" style="font-family:Times New Roman;font-size:8.00;">ExportCommand</text>
</g>
<!-- MvcAnalyzer&#45;&gt;ExportCommand -->
<g id="edge48" class="edge"><title>MvcAnalyzer&#45;&gt;ExportCommand</title>
<path style="fill:none;stroke:black;" d="M586,-327C721,-325 1225,-319 1256,-308 1297,-293 1314,-286 1333,-248 1345,-223 1334,-191 1324,-171"/>
<polygon style="fill:black;stroke:black;" points="1326.92,-169.042 1319,-162 1320.8,-172.441 1326.92,-169.042"/>
</g>
<!-- MvcDependencyCommand -->
<g id="node26" class="node"><title>MvcDependencyCommand</title>
<polygon style="fill:none;stroke:black;" points="616,-282 490,-282 490,-264 616,-264 616,-282"/>
<text text-anchor="middle" x="553" y="-270.8" style="font-family:Times New Roman;font-size:8.00;">MvcDependencyCommand</text>
</g>
<!-- MvcAnalyzer&#45;&gt;MvcDependencyCommand -->
<g id="edge40" class="edge"><title>MvcAnalyzer&#45;&gt;MvcDependencyCommand</title>
<path style="fill:none;stroke:black;" d="M548,-318C547,-311 546,-301 547,-292"/>
<polygon style="fill:black;stroke:black;" points="550.488,-292.299 548,-282 543.522,-291.602 550.488,-292.299"/>
</g>
<!-- DependencyCommand -->
<g id="node28" class="node"><title>DependencyCommand</title>
<polygon style="fill:none;stroke:black;" points="1485,-162 1375,-162 1375,-144 1485,-144 1485,-162"/>
<text text-anchor="middle" x="1430" y="-150.8" style="font-family:Times New Roman;font-size:8.00;">DependencyCommand</text>
</g>
<!-- MvcAnalyzer&#45;&gt;DependencyCommand -->
<g id="edge36" class="edge"><title>MvcAnalyzer&#45;&gt;DependencyCommand</title>
<path style="fill:none;stroke:black;" d="M586,-326C729,-324 1284,-315 1300,-308 1362,-279 1404,-206 1422,-171"/>
<polygon style="fill:black;stroke:black;" points="1425.14,-172.56 1426,-162 1418.74,-169.717 1425.14,-172.56"/>
</g>
<!-- DependencyAnalyzer -->
<g id="node34" class="node"><title>DependencyAnalyzer</title>
<polygon style="fill:none;stroke:black;" points="1247,-282 1145,-282 1145,-264 1247,-264 1247,-282"/>
<text text-anchor="middle" x="1196" y="-270.8" style="font-family:Times New Roman;font-size:8.00;">DependencyAnalyzer</text>
</g>
<!-- MvcAnalyzer&#45;&gt;DependencyAnalyzer -->
<g id="edge38" class="edge"><title>MvcAnalyzer&#45;&gt;DependencyAnalyzer</title>
<path style="fill:none;stroke:black;" d="M586,-327C657,-326 830,-322 973,-308 1029,-302 1092,-292 1137,-284"/>
<polygon style="fill:black;stroke:black;" points="1137.88,-287.393 1147,-282 1136.51,-280.529 1137.88,-287.393"/>
</g>
<!-- Classifier -->
<g id="node41" class="node"><title>Classifier</title>
<polygon style="fill:none;stroke:black;" points="816,-162 760,-162 760,-144 816,-144 816,-162"/>
<text text-anchor="middle" x="788" y="-150.8" style="font-family:Times New Roman;font-size:8.00;">Classifier</text>
</g>
<!-- MvcAnalyzer&#45;&gt;Classifier -->
<g id="edge50" class="edge"><title>MvcAnalyzer&#45;&gt;Classifier</title>
<path style="fill:none;stroke:black;" d="M586,-326C638,-324 734,-318 745,-308 782,-273 747,-243 763,-196 767,-187 772,-178 776,-170"/>
<polygon style="fill:black;stroke:black;" points="778.8,-172.1 782,-162 773.2,-167.9 778.8,-172.1"/>
</g>
<!-- Instance -->
<g id="node45" class="node"><title>Instance</title>
<polygon style="fill:none;stroke:black;" points="182,-102 130,-102 130,-84 182,-84 182,-102"/>
<text text-anchor="middle" x="156" y="-90.8" style="font-family:Times New Roman;font-size:8.00;">Instance</text>
</g>
<!-- MvcAnalyzer&#45;&gt;Instance -->
<g id="edge56" class="edge"><title>MvcAnalyzer&#45;&gt;Instance</title>
<path style="fill:none;stroke:black;" d="M520,-327C422,-326 144,-321 130,-308 75,-254 109,-208 132,-136 135,-127 140,-118 144,-110"/>
<polygon style="fill:black;stroke:black;" points="146.8,-112.1 150,-102 141.2,-107.9 146.8,-112.1"/>
</g>
<!-- Instances -->
<g id="node47" class="node"><title>Instances</title>
<polygon style="fill:none;stroke:black;" points="256,-102 200,-102 200,-84 256,-84 256,-102"/>
<text text-anchor="middle" x="228" y="-90.8" style="font-family:Times New Roman;font-size:8.00;">Instances</text>
</g>
<!-- MvcAnalyzer&#45;&gt;Instances -->
<g id="edge58" class="edge"><title>MvcAnalyzer&#45;&gt;Instances</title>
<path style="fill:none;stroke:black;" d="M520,-326C429,-325 181,-319 168,-308 112,-256 118,-195 166,-136 174,-126 181,-133 191,-128 199,-123 207,-116 214,-110"/>
<polygon style="fill:black;stroke:black;" points="217.049,-111.831 221,-102 211.781,-107.221 217.049,-111.831"/>
</g>
<!-- SerializationHelper -->
<g id="node49" class="node"><title>SerializationHelper</title>
<polygon style="fill:none;stroke:black;" points="112,-102 16,-102 16,-84 112,-84 112,-102"/>
<text text-anchor="middle" x="64" y="-90.8" style="font-family:Times New Roman;font-size:8.00;">SerializationHelper</text>
</g>
<!-- MvcAnalyzer&#45;&gt;SerializationHelper -->
<g id="edge60" class="edge"><title>MvcAnalyzer&#45;&gt;SerializationHelper</title>
<path style="fill:none;stroke:black;" d="M520,-327C418,-326 115,-321 99,-308 43,-258 53,-155 60,-112"/>
<polygon style="fill:black;stroke:black;" points="63.4708,-112.492 62,-102 56.6067,-111.119 63.4708,-112.492"/>
</g>
<!-- EmptyVisitor -->
<g id="node72" class="node"><title>EmptyVisitor</title>
<polygon style="fill:none;stroke:black;" points="900,-222 832,-222 832,-204 900,-204 900,-222"/>
<text text-anchor="middle" x="866" y="-210.8" style="font-family:Times New Roman;font-size:8.00;">EmptyVisitor</text>
</g>
<!-- TestCase&#45;&gt;EmptyVisitor -->
<!-- MvcAnalyzer$Variable -->
<g id="node6" class="node"><title>MvcAnalyzer$Variable</title>
<polygon style="fill:none;stroke:black;" points="353,-162 247,-162 247,-144 353,-144 353,-162"/>
<text text-anchor="middle" x="300" y="-150.8" style="font-family:Times New Roman;font-size:8.00;">MvcAnalyzer$Variable</text>
</g>
<!-- MvcAnalyzer$Variable&#45;&gt;MvcAnalyzer -->
<g id="edge6" class="edge"><title>MvcAnalyzer$Variable&#45;&gt;MvcAnalyzer</title>
<path style="fill:none;stroke:black;" d="M293,-162C272,-188 218,-265 257,-308 266,-317 429,-323 510,-326"/>
<polygon style="fill:black;stroke:black;" points="510,-329.5 520,-326 510,-322.5 510,-329.5"/>
</g>
<!-- MvcAnalyzer$Variable&#45;&gt;FastVector -->
<g id="edge8" class="edge"><title>MvcAnalyzer$Variable&#45;&gt;FastVector</title>
<path style="fill:none;stroke:black;" d="M313,-144C320,-139 328,-133 335,-128 343,-122 350,-115 357,-109"/>
<polygon style="fill:black;stroke:black;" points="359.779,-111.219 365,-102 355.169,-105.951 359.779,-111.219"/>
</g>
<!-- MvcAnalyzer$Variable&#45;&gt;Attribute -->
<g id="edge10" class="edge"><title>MvcAnalyzer$Variable&#45;&gt;Attribute</title>
<path style="fill:none;stroke:black;" d="M300,-144C300,-136 300,-123 300,-112"/>
<polygon style="fill:black;stroke:black;" points="303.5,-112 300,-102 296.5,-112 303.5,-112"/>
</g>
<!-- Label -->
<g id="node74" class="node"><title>Label</title>
<polygon style="fill:none;stroke:black;" points="724,-42 686,-42 686,-24 724,-24 724,-42"/>
<text text-anchor="middle" x="705" y="-30.8" style="font-family:Times New Roman;font-size:8.00;">Label</text>
</g>
<!-- FastVector&#45;&gt;Label -->
<!-- Layer$1 -->
<g id="node12" class="node"><title>Layer$1</title>
<polygon style="fill:none;stroke:black;" points="316,-282 266,-282 266,-264 316,-264 316,-282"/>
<text text-anchor="middle" x="291" y="-270.8" style="font-family:Times New Roman;font-size:8.00;">Layer$1</text>
</g>
<!-- Layer$1&#45;&gt;Layer -->
<g id="edge12" class="edge"><title>Layer$1&#45;&gt;Layer</title>
<path style="fill:none;stroke:black;" d="M308,-264C325,-255 354,-238 374,-227"/>
<polygon style="fill:black;stroke:black;" points="375.958,-229.916 383,-222 372.559,-223.797 375.958,-229.916"/>
</g>
<!-- Layer&#45;&gt;MvcAnalyzer$Variable -->
<g id="edge22" class="edge"><title>Layer&#45;&gt;MvcAnalyzer$Variable</title>
<path style="fill:none;stroke:black;" d="M385,-204C369,-195 343,-178 324,-167"/>
<polygon style="fill:black;stroke:black;" points="325.441,-163.797 315,-162 322.042,-169.916 325.441,-163.797"/>
</g>
<!-- Layer&#45;&gt;FastVector -->
<g id="edge24" class="edge"><title>Layer&#45;&gt;FastVector</title>
<path style="fill:none;stroke:black;" d="M401,-204C401,-189 401,-160 395,-136 393,-127 389,-118 385,-111"/>
<polygon style="fill:black;stroke:black;" points="387.916,-109.042 380,-102 381.797,-112.441 387.916,-109.042"/>
</g>
<!-- Layer&#45;&gt;Attribute -->
<g id="edge26" class="edge"><title>Layer&#45;&gt;Attribute</title>
<path style="fill:none;stroke:black;" d="M398,-204C394,-188 384,-154 362,-136 353,-127 346,-134 335,-128 327,-123 320,-116 314,-110"/>
<polygon style="fill:black;stroke:black;" points="316.219,-107.221 307,-102 310.951,-111.831 316.219,-107.221"/>
</g>
<!-- MvcExportCommand&#45;&gt;Layer -->
<g id="edge16" class="edge"><title>MvcExportCommand&#45;&gt;Layer</title>
<path style="fill:none;stroke:black;" d="M656,-264C646,-261 635,-258 625,-256 555,-239 472,-225 429,-218"/>
<polygon style="fill:black;stroke:black;" points="429.492,-214.529 419,-216 428.119,-221.393 429.492,-214.529"/>
</g>
<!-- MvcExportCommand&#45;&gt;ClassDependencies -->
<g id="edge14" class="edge"><title>MvcExportCommand&#45;&gt;ClassDependencies</title>
<path style="fill:none;stroke:black;" d="M736,-271C815,-267 968,-261 1099,-256 1149,-254 1274,-257 1322,-248 1402,-233 1448,-254 1494,-188 1508,-169 1508,-155 1494,-136 1487,-124 1456,-113 1430,-105"/>
<polygon style="fill:black;stroke:black;" points="1430.58,-101.521 1420,-102 1428.57,-108.226 1430.58,-101.521"/>
</g>
<!-- MvcExportCommand&#45;&gt;DependenciesUtil -->
<g id="edge18" class="edge"><title>MvcExportCommand&#45;&gt;DependenciesUtil</title>
<path style="fill:none;stroke:black;" d="M736,-269C789,-265 873,-259 945,-256 975,-254 1186,-256 1214,-248 1227,-243 1240,-235 1250,-228"/>
<polygon style="fill:black;stroke:black;" points="1252.1,-230.8 1258,-222 1247.9,-225.2 1252.1,-230.8"/>
</g>
<!-- MvcExportCommand&#45;&gt;ExportCommand -->
<g id="edge20" class="edge"><title>MvcExportCommand&#45;&gt;ExportCommand</title>
<path style="fill:none;stroke:black;" d="M736,-270C783,-266 854,-259 914,-248 1000,-231 1017,-210 1102,-196 1164,-185 1182,-203 1242,-188 1260,-183 1277,-174 1291,-167"/>
<polygon style="fill:black;stroke:black;" points="1292.96,-169.916 1300,-162 1289.56,-163.797 1292.96,-169.916"/>
</g>
<!-- DependenciesUtil&#45;&gt;ClassDependencies -->
<g id="edge90" class="edge"><title>DependenciesUtil&#45;&gt;ClassDependencies</title>
<path style="fill:none;stroke:black;" d="M1245,-204C1235,-201 1224,-198 1214,-196 1204,-194 1129,-195 1122,-188 1107,-170 1108,-153 1122,-136 1135,-121 1251,-106 1324,-99"/>
<polygon style="fill:black;stroke:black;" points="1324.4,-102.478 1334,-98 1323.7,-95.5125 1324.4,-102.478"/>
</g>
<!-- DependenciesUtil&#45;&gt;ExportCommand -->
<g id="edge96" class="edge"><title>DependenciesUtil&#45;&gt;ExportCommand</title>
<path style="fill:none;stroke:black;" d="M1275,-204C1282,-195 1292,-181 1301,-170"/>
<polygon style="fill:black;stroke:black;" points="1303.8,-172.1 1307,-162 1298.2,-167.9 1303.8,-172.1"/>
</g>
<!-- DependenciesUtil&#45;&gt;DependencyCommand -->
<g id="edge92" class="edge"><title>DependenciesUtil&#45;&gt;DependencyCommand</title>
<path style="fill:none;stroke:black;" d="M1313,-204C1330,-200 1349,-195 1366,-188 1380,-182 1396,-174 1407,-167"/>
<polygon style="fill:black;stroke:black;" points="1408.96,-169.916 1416,-162 1405.56,-163.797 1408.96,-169.916"/>
</g>
<!-- DependencyFileFilter -->
<g id="node78" class="node"><title>DependencyFileFilter</title>
<polygon style="fill:none;stroke:black;" points="1233,-162 1131,-162 1131,-144 1233,-144 1233,-162"/>
<text text-anchor="middle" x="1182" y="-150.8" style="font-family:Times New Roman;font-size:8.00;">DependencyFileFilter</text>
</g>
<!-- DependenciesUtil&#45;&gt;DependencyFileFilter -->
<g id="edge94" class="edge"><title>DependenciesUtil&#45;&gt;DependencyFileFilter</title>
<path style="fill:none;stroke:black;" d="M1255,-204C1241,-195 1219,-179 1203,-168"/>
<polygon style="fill:black;stroke:black;" points="1205.1,-165.2 1195,-162 1200.9,-170.8 1205.1,-165.2"/>
</g>
<!-- ExportCommand&#45;&gt;ClassDependencies -->
<g id="edge116" class="edge"><title>ExportCommand&#45;&gt;ClassDependencies</title>
<path style="fill:none;stroke:black;" d="M1325,-144C1336,-135 1352,-120 1365,-109"/>
<polygon style="fill:black;stroke:black;" points="1367.78,-111.219 1373,-102 1363.17,-105.951 1367.78,-111.219"/>
</g>
<!-- MvcDependencyCommand&#45;&gt;MvcAnalyzer -->
<g id="edge30" class="edge"><title>MvcDependencyCommand&#45;&gt;MvcAnalyzer</title>
<path style="fill:none;stroke:black;" d="M558,-282C559,-289 560,-299 559,-308"/>
<polygon style="fill:black;stroke:black;" points="555.512,-307.701 558,-318 562.478,-308.398 555.512,-307.701"/>
</g>
<!-- MvcDependencyCommand&#45;&gt;MvcAnalyzer$Variable -->
<g id="edge32" class="edge"><title>MvcDependencyCommand&#45;&gt;MvcAnalyzer$Variable</title>
<path style="fill:none;stroke:black;" d="M541,-264C519,-248 472,-216 428,-196 402,-183 370,-173 344,-165"/>
<polygon style="fill:black;stroke:black;" points="344.584,-161.521 334,-162 342.573,-168.226 344.584,-161.521"/>
</g>
<!-- MvcDependencyCommand&#45;&gt;DependencyCommand -->
<g id="edge28" class="edge"><title>MvcDependencyCommand&#45;&gt;DependencyCommand</title>
<path style="fill:none;stroke:black;" d="M585,-264C597,-261 612,-258 625,-256 753,-239 787,-267 914,-248 1000,-235 1017,-208 1102,-196 1161,-187 1310,-203 1366,-188 1382,-183 1397,-175 1409,-167"/>
<polygon style="fill:black;stroke:black;" points="1410.96,-169.916 1418,-162 1407.56,-163.797 1410.96,-169.916"/>
</g>
<!-- DependencyAnalyzer&#45;&gt;ClassDependencies -->
<g id="edge66" class="edge"><title>DependencyAnalyzer&#45;&gt;ClassDependencies</title>
<path style="fill:none;stroke:black;" d="M1247,-266C1280,-261 1317,-254 1322,-248 1337,-230 1338,-213 1322,-196 1305,-175 1280,-208 1262,-188 1247,-170 1249,-154 1262,-136 1271,-123 1303,-112 1333,-105"/>
<polygon style="fill:black;stroke:black;" points="1334.43,-108.226 1343,-102 1332.42,-101.521 1334.43,-108.226"/>
</g>
<!-- DependencyAnalyzer&#45;&gt;DependenciesUtil -->
<g id="edge72" class="edge"><title>DependencyAnalyzer&#45;&gt;DependenciesUtil</title>
<path style="fill:none;stroke:black;" d="M1207,-264C1218,-255 1235,-240 1249,-228"/>
<polygon style="fill:black;stroke:black;" points="1251.1,-230.8 1257,-222 1246.9,-225.2 1251.1,-230.8"/>
</g>
<!-- DependencyAnalyzer&#45;&gt;DependencyCommand -->
<g id="edge68" class="edge"><title>DependencyAnalyzer&#45;&gt;DependencyCommand</title>
<path style="fill:none;stroke:black;" d="M1247,-267C1281,-262 1322,-256 1337,-248 1366,-232 1365,-218 1387,-196 1395,-187 1405,-177 1413,-169"/>
<polygon style="fill:black;stroke:black;" points="1415.4,-171.546 1420,-162 1410.45,-166.596 1415.4,-171.546"/>
</g>
<!-- DependencyVisitor -->
<g id="node57" class="node"><title>DependencyVisitor</title>
<polygon style="fill:none;stroke:black;" points="1205,-222 1111,-222 1111,-204 1205,-204 1205,-222"/>
<text text-anchor="middle" x="1158" y="-210.8" style="font-family:Times New Roman;font-size:8.00;">DependencyVisitor</text>
</g>
<!-- DependencyAnalyzer&#45;&gt;DependencyVisitor -->
<g id="edge70" class="edge"><title>DependencyAnalyzer&#45;&gt;DependencyVisitor</title>
<path style="fill:none;stroke:black;" d="M1190,-264C1185,-255 1176,-242 1169,-231"/>
<polygon style="fill:black;stroke:black;" points="1171.92,-229.042 1164,-222 1165.8,-232.441 1171.92,-229.042"/>
</g>
<!-- ClassReader -->
<g id="node60" class="node"><title>ClassReader</title>
<polygon style="fill:none;stroke:black;" points="812,-42 742,-42 742,-24 812,-24 812,-42"/>
<text text-anchor="middle" x="777" y="-30.8" style="font-family:Times New Roman;font-size:8.00;">ClassReader</text>
</g>
<!-- DependencyAnalyzer&#45;&gt;ClassReader -->
<g id="edge74" class="edge"><title>DependencyAnalyzer&#45;&gt;ClassReader</title>
<path style="fill:none;stroke:black;" d="M1145,-270C1097,-266 1030,-259 1006,-248 906,-200 821,-93 790,-50"/>
<polygon style="fill:black;stroke:black;" points="792.8,-47.9 784,-42 787.2,-52.1 792.8,-47.9"/>
</g>
<!-- ClassVisitor -->
<g id="node62" class="node"><title>ClassVisitor</title>
<polygon style="fill:none;stroke:black;" points="896,-42 830,-42 830,-24 896,-24 896,-42"/>
<text text-anchor="middle" x="863" y="-30.8" style="font-family:Times New Roman;font-size:8.00;">ClassVisitor</text>
</g>
<!-- DependencyAnalyzer&#45;&gt;ClassVisitor -->
<g id="edge76" class="edge"><title>DependencyAnalyzer&#45;&gt;ClassVisitor</title>
<path style="fill:none;stroke:black;" d="M1153,-264C1137,-260 1118,-255 1102,-248 1053,-227 1038,-222 997,-188 949,-146 950,-123 907,-76 899,-66 889,-57 881,-49"/>
<polygon style="fill:black;stroke:black;" points="882.831,-45.9511 873,-42 878.221,-51.2191 882.831,-45.9511"/>
</g>
<!-- Classifier&#45;&gt;FastVector -->
<!-- Layer$3 -->
<g id="node50" class="node"><title>Layer$3</title>
<polygon style="fill:none;stroke:black;" points="452,-282 402,-282 402,-264 452,-264 452,-282"/>
<text text-anchor="middle" x="427" y="-270.8" style="font-family:Times New Roman;font-size:8.00;">Layer$3</text>
</g>
<!-- Layer$3&#45;&gt;Layer -->
<g id="edge62" class="edge"><title>Layer$3&#45;&gt;Layer</title>
<path style="fill:none;stroke:black;" d="M423,-264C419,-256 413,-242 408,-231"/>
<polygon style="fill:black;stroke:black;" points="411.26,-229.717 404,-222 404.863,-232.56 411.26,-229.717"/>
</g>
<!-- Layer$3&#45;&gt;DependencyAnalyzer -->
<!-- Layer$2 -->
<g id="node52" class="node"><title>Layer$2</title>
<polygon style="fill:none;stroke:black;" points="384,-282 334,-282 334,-264 384,-264 384,-282"/>
<text text-anchor="middle" x="359" y="-270.8" style="font-family:Times New Roman;font-size:8.00;">Layer$2</text>
</g>
<!-- Layer$2&#45;&gt;Layer -->
<g id="edge64" class="edge"><title>Layer$2&#45;&gt;Layer</title>
<path style="fill:none;stroke:black;" d="M365,-264C371,-255 381,-241 388,-230"/>
<polygon style="fill:black;stroke:black;" points="390.8,-232.1 394,-222 385.2,-227.9 390.8,-232.1"/>
</g>
<!-- Type -->
<g id="node64" class="node"><title>Type</title>
<polygon style="fill:none;stroke:black;" points="1120,-42 1086,-42 1086,-24 1120,-24 1120,-42"/>
<text text-anchor="middle" x="1103" y="-30.8" style="font-family:Times New Roman;font-size:8.00;">Type</text>
</g>
<!-- DependencyVisitor&#45;&gt;Type -->
<g id="edge78" class="edge"><title>DependencyVisitor&#45;&gt;Type</title>
<path style="fill:none;stroke:black;" d="M1118,-204C1110,-200 1103,-195 1098,-188 1070,-146 1086,-83 1096,-52"/>
<polygon style="fill:black;stroke:black;" points="1099.48,-52.584 1099,-42 1092.77,-50.5725 1099.48,-52.584"/>
</g>
<!-- AnnotationVisitor -->
<g id="node66" class="node"><title>AnnotationVisitor</title>
<polygon style="fill:none;stroke:black;" points="1226,-42 1138,-42 1138,-24 1226,-24 1226,-42"/>
<text text-anchor="middle" x="1182" y="-30.8" style="font-family:Times New Roman;font-size:8.00;">AnnotationVisitor</text>
</g>
<!-- DependencyVisitor&#45;&gt;AnnotationVisitor -->
<g id="edge80" class="edge"><title>DependencyVisitor&#45;&gt;AnnotationVisitor</title>
<path style="fill:none;stroke:black;" d="M1127,-204C1120,-200 1113,-195 1108,-188 1096,-168 1101,-157 1108,-136 1119,-101 1147,-69 1165,-50"/>
<polygon style="fill:black;stroke:black;" points="1168.05,-51.8306 1172,-42 1162.78,-47.221 1168.05,-51.8306"/>
</g>
<!-- FieldVisitor -->
<g id="node68" class="node"><title>FieldVisitor</title>
<polygon style="fill:none;stroke:black;" points="976,-42 914,-42 914,-24 976,-24 976,-42"/>
<text text-anchor="middle" x="945" y="-30.8" style="font-family:Times New Roman;font-size:8.00;">FieldVisitor</text>
</g>
<!-- DependencyVisitor&#45;&gt;FieldVisitor -->
<g id="edge82" class="edge"><title>DependencyVisitor&#45;&gt;FieldVisitor</title>
<path style="fill:none;stroke:black;" d="M1111,-206C1086,-201 1058,-195 1047,-188 997,-153 965,-84 952,-51"/>
<polygon style="fill:black;stroke:black;" points="955.26,-49.7166 948,-42 948.863,-52.5596 955.26,-49.7166"/>
</g>
<!-- MethodVisitor -->
<g id="node70" class="node"><title>MethodVisitor</title>
<polygon style="fill:none;stroke:black;" points="1068,-42 994,-42 994,-24 1068,-24 1068,-42"/>
<text text-anchor="middle" x="1031" y="-30.8" style="font-family:Times New Roman;font-size:8.00;">MethodVisitor</text>
</g>
<!-- DependencyVisitor&#45;&gt;MethodVisitor -->
<g id="edge84" class="edge"><title>DependencyVisitor&#45;&gt;MethodVisitor</title>
<path style="fill:none;stroke:black;" d="M1120,-204C1103,-199 1086,-194 1080,-188 1043,-150 1034,-84 1032,-52"/>
<polygon style="fill:black;stroke:black;" points="1035.48,-51.6021 1031,-42 1028.51,-52.2987 1035.48,-51.6021"/>
</g>
<!-- DependencyVisitor&#45;&gt;EmptyVisitor -->
<g id="edge86" class="edge"><title>DependencyVisitor&#45;&gt;EmptyVisitor</title>
<path style="fill:none;stroke:black;" d="M1111,-213C1044,-213 978,-213 910,-213"/>
<polygon style="fill:black;stroke:black;" points="910,-209.5 900,-213 910,-216.5 910,-209.5"/>
</g>
<!-- DependencyVisitor&#45;&gt;Label -->
<g id="edge88" class="edge"><title>DependencyVisitor&#45;&gt;Label</title>
<path style="fill:none;stroke:black;" d="M1111,-209C1079,-205 1035,-199 997,-188 936,-169 784,-107 733,-68 727,-63 721,-56 717,-50"/>
<polygon style="fill:black;stroke:black;" points="719.8,-47.9 711,-42 714.2,-52.1 719.8,-47.9"/>
</g>
<!-- EmptyVisitor&#45;&gt;Classifier -->
<!-- DependenciesUtilTest -->
<g id="node80" class="node"><title>DependenciesUtilTest</title>
<polygon style="fill:none;stroke:black;" points="1354,-336 1248,-336 1248,-318 1354,-318 1354,-336"/>
<text text-anchor="middle" x="1301" y="-324.8" style="font-family:Times New Roman;font-size:8.00;">DependenciesUtilTest</text>
</g>
<!-- DependenciesUtilTest&#45;&gt;TestCase -->
<g id="edge106" class="edge"><title>DependenciesUtilTest&#45;&gt;TestCase</title>
<path style="fill:none;stroke:black;" d="M1354,-319C1357,-318 1360,-318 1363,-318 1389,-315 1566,-317 1589,-308 1599,-304 1608,-296 1616,-289"/>
<polygon style="fill:black;stroke:black;" points="1618.4,-291.546 1623,-282 1613.45,-286.596 1618.4,-291.546"/>
</g>
<!-- DependenciesUtilTest&#45;&gt;DependenciesUtil -->
<g id="edge100" class="edge"><title>DependenciesUtilTest&#45;&gt;DependenciesUtil</title>
<path style="fill:none;stroke:black;" d="M1298,-318C1293,-299 1281,-257 1274,-232"/>
<polygon style="fill:black;stroke:black;" points="1277.23,-230.573 1271,-222 1270.52,-232.584 1277.23,-230.573"/>
</g>
<!-- DependenciesUtilTest&#45;&gt;ExportCommand -->
<g id="edge102" class="edge"><title>DependenciesUtilTest&#45;&gt;ExportCommand</title>
<path style="fill:none;stroke:black;" d="M1307,-318C1316,-303 1331,-274 1337,-248 1342,-225 1343,-218 1337,-196 1335,-187 1331,-178 1326,-171"/>
<polygon style="fill:black;stroke:black;" points="1328.92,-169.042 1321,-162 1322.8,-172.441 1328.92,-169.042"/>
</g>
<!-- DependenciesUtilTest&#45;&gt;DependencyCommand -->
<g id="edge98" class="edge"><title>DependenciesUtilTest&#45;&gt;DependencyCommand</title>
<path style="fill:none;stroke:black;" d="M1317,-318C1322,-315 1326,-312 1330,-308 1372,-265 1406,-202 1422,-171"/>
<polygon style="fill:black;stroke:black;" points="1425.14,-172.56 1426,-162 1418.74,-169.717 1425.14,-172.56"/>
</g>
<!-- DependenciesUtilTest&#45;&gt;DependencyAnalyzer -->
<g id="edge104" class="edge"><title>DependenciesUtilTest&#45;&gt;DependencyAnalyzer</title>
<path style="fill:none;stroke:black;" d="M1283,-318C1267,-309 1242,-296 1223,-287"/>
<polygon style="fill:black;stroke:black;" points="1224.44,-283.797 1214,-282 1221.04,-289.916 1224.44,-283.797"/>
</g>
<!-- DependencyAnalyzerTest -->
<g id="node86" class="node"><title>DependencyAnalyzerTest</title>
<polygon style="fill:none;stroke:black;" points="1492,-336 1372,-336 1372,-318 1492,-318 1492,-336"/>
<text text-anchor="middle" x="1432" y="-324.8" style="font-family:Times New Roman;font-size:8.00;">DependencyAnalyzerTest</text>
</g>
<!-- DependencyAnalyzerTest&#45;&gt;TestCase -->
<g id="edge114" class="edge"><title>DependencyAnalyzerTest&#45;&gt;TestCase</title>
<path style="fill:none;stroke:black;" d="M1492,-323C1529,-320 1572,-315 1589,-308 1599,-304 1608,-296 1615,-289"/>
<polygon style="fill:black;stroke:black;" points="1617.4,-291.546 1622,-282 1612.45,-286.596 1617.4,-291.546"/>
</g>
<!-- DependencyAnalyzerTest&#45;&gt;ClassDependencies -->
<g id="edge108" class="edge"><title>DependencyAnalyzerTest&#45;&gt;ClassDependencies</title>
<path style="fill:none;stroke:black;" d="M1440,-318C1465,-289 1536,-197 1494,-136 1487,-124 1456,-113 1430,-105"/>
<polygon style="fill:black;stroke:black;" points="1430.58,-101.521 1420,-102 1428.57,-108.226 1430.58,-101.521"/>
</g>
<!-- DependencyAnalyzerTest&#45;&gt;DependencyCommand -->
<g id="edge110" class="edge"><title>DependencyAnalyzerTest&#45;&gt;DependencyCommand</title>
<path style="fill:none;stroke:black;" d="M1430,-318C1429,-315 1428,-311 1427,-308 1421,-258 1426,-245 1427,-196 1428,-188 1428,-180 1429,-172"/>
<polygon style="fill:black;stroke:black;" points="1432.5,-172 1429,-162 1425.5,-172 1432.5,-172"/>
</g>
<!-- DependencyAnalyzerTest&#45;&gt;DependencyAnalyzer -->
<g id="edge112" class="edge"><title>DependencyAnalyzerTest&#45;&gt;DependencyAnalyzer</title>
<path style="fill:none;stroke:black;" d="M1392,-318C1351,-309 1289,-294 1245,-284"/>
<polygon style="fill:black;stroke:black;" points="1245.49,-280.529 1235,-282 1244.12,-287.393 1245.49,-280.529"/>
</g>
<!-- DependenciesUtil$1 -->
<g id="node95" class="node"><title>DependenciesUtil$1</title>
<polygon style="fill:none;stroke:black;" points="1221,-336 1121,-336 1121,-318 1221,-318 1221,-336"/>
<text text-anchor="middle" x="1171" y="-324.8" style="font-family:Times New Roman;font-size:8.00;">DependenciesUtil$1</text>
</g>
</g>
</svg>
