<?xml version="1.0" encoding="UTF-8" standalone="no"?>
<!DOCTYPE svg PUBLIC "-//W3C//DTD SVG 1.1//EN"
 "http://www.w3.org/Graphics/SVG/1.1/DTD/svg11.dtd">
<!-- Generated by graphviz version 2.26.3 (20100126.1600)
 -->
<!-- Title: junit Pages: 1 -->
<svg width="7223pt" height="296pt"
 viewBox="0.00 0.00 7223.42 296.00" xmlns="http://www.w3.org/2000/svg" xmlns:xlink="http://www.w3.org/1999/xlink">
<g id="graph1" class="graph" transform="scale(1 1) rotate(0) translate(4 292)">
<title>junit</title>
<polygon fill="white" stroke="white" points="-4,5 -4,-292 7220.42,-292 7220.42,5 -4,5"/>
<g id="graph2" class="cluster"><title>cluster_junit.textui</title>
<polygon fill="none" stroke="black" points="163.418,-175 163.418,-280 239.418,-280 239.418,-175 163.418,-175"/>
<text text-anchor="middle" x="201.418" y="-268.8" font-family="Times,serif" font-size="8.00">junit.textui</text>
</g>
<g id="graph3" class="cluster"><title>cluster_junit.extensions</title>
<polygon fill="none" stroke="black" points="6709.42,-175 6709.42,-280 7207.42,-280 7207.42,-175 6709.42,-175"/>
<text text-anchor="middle" x="6958.42" y="-268.8" font-family="Times,serif" font-size="8.00">junit.extensions</text>
</g>
<g id="graph4" class="cluster"><title>cluster_junit.framework</title>
<polygon fill="none" stroke="black" points="247.418,-8 247.418,-226 707.418,-226 707.418,-8 247.418,-8"/>
<text text-anchor="middle" x="477.418" y="-214.8" font-family="Times,serif" font-size="8.00">junit.framework</text>
</g>
<g id="graph5" class="cluster"><title>cluster_junit.runner</title>
<polygon fill="none" stroke="black" points="715.418,-62 715.418,-167 1905.42,-167 1905.42,-62 715.418,-62"/>
<text text-anchor="middle" x="1310.42" y="-155.8" font-family="Times,serif" font-size="8.00">junit.runner</text>
</g>
<g id="graph6" class="cluster"><title>cluster_junit.awtui</title>
<polygon fill="none" stroke="black" points="5465.42,-116 5465.42,-226 6597.42,-226 6597.42,-116 5465.42,-116"/>
<text text-anchor="middle" x="6031.42" y="-214.8" font-family="Times,serif" font-size="8.00">junit.awtui</text>
</g>
<g id="graph7" class="cluster"><title>cluster_junit.swingui</title>
<polygon fill="none" stroke="black" points="1913.42,-116 1913.42,-226 5425.42,-226 5425.42,-116 1913.42,-116"/>
<text text-anchor="middle" x="3669.42" y="-214.8" font-family="Times,serif" font-size="8.00">junit.swingui</text>
</g>
<!-- TestRunner$10 -->
<g id="node1" class="node"><title>TestRunner$10</title>
<polygon fill="none" stroke="black" points="6439.42,-200.5 6371.42,-200.5 6371.42,-183.5 6439.42,-183.5 6439.42,-200.5"/>
<text text-anchor="middle" x="6405.42" y="-189.3" font-family="Times,serif" font-size="8.00">TestRunner$10</text>
</g>
<!-- TestRunner$10&#45;&gt;TestRunner$10 -->
<!-- ProgressBar -->
<g id="node3" class="node"><title>ProgressBar</title>
<polygon fill="none" stroke="black" points="6585.42,-141.5 6529.42,-141.5 6529.42,-124.5 6585.42,-124.5 6585.42,-141.5"/>
<text text-anchor="middle" x="6557.42" y="-130.3" font-family="Times,serif" font-size="8.00">ProgressBar</text>
</g>
<!-- TestRunner$10&#45;&gt;ProgressBar -->
<g id="edge2" class="edge"><title>TestRunner$10&#45;&gt;ProgressBar</title>
<path fill="none" stroke="black" d="M6427.52,-183.421C6453.41,-173.371 6496.5,-156.647 6525.89,-145.238"/>
<polygon fill="black" stroke="black" points="6527.23,-148.471 6535.29,-141.589 6524.7,-141.945 6527.23,-148.471"/>
</g>
<!-- TestRunner -->
<g id="node4" class="node"><title>TestRunner</title>
<polygon fill="none" stroke="black" points="231.418,-254.5 175.418,-254.5 175.418,-237.5 231.418,-237.5 231.418,-254.5"/>
<text text-anchor="middle" x="203.418" y="-243.3" font-family="Times,serif" font-size="8.00">TestRunner</text>
</g>
<!-- TestRunner&#45;&gt;ProgressBar -->
<g id="edge4" class="edge"><title>TestRunner&#45;&gt;ProgressBar</title>
<path fill="none" stroke="black" d="M231.54,-245.979C689.078,-245.644 6574.36,-241.104 6589.42,-226 6605.42,-209.947 6597.97,-195.993 6589.42,-175 6585.33,-164.961 6577.56,-156.013 6570.52,-148.983"/>
<polygon fill="black" stroke="black" points="6572.5,-146.037 6562.85,-141.66 6567.67,-151.099 6572.5,-146.037"/>
</g>
<!-- TestRunner&#45;&gt;ProgressBar -->
<g id="edge162" class="edge"><title>TestRunner&#45;&gt;ProgressBar</title>
<path fill="none" stroke="black" d="M231.464,-245.981C689.112,-245.658 6592.34,-241.127 6607.42,-226 6623.42,-209.947 6615.97,-195.993 6607.42,-175 6603.06,-164.306 6594.53,-154.85 6585.59,-147.632"/>
<polygon fill="black" stroke="black" points="6587.52,-144.709 6577.38,-141.66 6583.41,-150.371 6587.52,-144.709"/>
</g>
<!-- Logo -->
<g id="node7" class="node"><title>Logo</title>
<polygon fill="none" stroke="black" points="6507.42,-200.5 6475.42,-200.5 6475.42,-183.5 6507.42,-183.5 6507.42,-200.5"/>
<text text-anchor="middle" x="6491.42" y="-189.3" font-family="Times,serif" font-size="8.00">Logo</text>
</g>
<!-- TestRunner&#45;&gt;Logo -->
<g id="edge6" class="edge"><title>TestRunner&#45;&gt;Logo</title>
<path fill="none" stroke="black" d="M231.514,-245.997C683.168,-245.946 6429.16,-244.923 6466.42,-226 6473.44,-222.433 6478.97,-215.866 6483.03,-209.448"/>
<polygon fill="black" stroke="black" points="6486.19,-210.971 6487.92,-200.518 6480.05,-207.61 6486.19,-210.971"/>
</g>
<!-- AboutDialog -->
<g id="node9" class="node"><title>AboutDialog</title>
<polygon fill="none" stroke="black" points="6189.42,-200.5 6131.42,-200.5 6131.42,-183.5 6189.42,-183.5 6189.42,-200.5"/>
<text text-anchor="middle" x="6160.42" y="-189.3" font-family="Times,serif" font-size="8.00">AboutDialog</text>
</g>
<!-- TestRunner&#45;&gt;AboutDialog -->
<g id="edge8" class="edge"><title>TestRunner&#45;&gt;AboutDialog</title>
<path fill="none" stroke="black" d="M231.559,-245.973C669.739,-245.549 6076.63,-240.127 6113.42,-226 6123.13,-222.271 6131.93,-214.803 6139.48,-207.813"/>
<polygon fill="black" stroke="black" points="6142.26,-210.005 6147.17,-200.616 6137.48,-204.895 6142.26,-210.005"/>
</g>
<!-- TestRunner&#45;&gt;AboutDialog -->
<g id="edge152" class="edge"><title>TestRunner&#45;&gt;AboutDialog</title>
<path fill="none" stroke="black" d="M231.65,-245.975C671.204,-245.566 6094.57,-240.149 6131.42,-226 6140.51,-222.509 6148.8,-215.741 6154.59,-209.156"/>
<polygon fill="black" stroke="black" points="6157.75,-210.768 6160.78,-200.616 6152.08,-206.664 6157.75,-210.768"/>
</g>
<!-- TestDecorator -->
<g id="node12" class="node"><title>TestDecorator</title>
<polygon fill="none" stroke="black" points="6781.42,-200.5 6719.42,-200.5 6719.42,-183.5 6781.42,-183.5 6781.42,-200.5"/>
<text text-anchor="middle" x="6750.42" y="-189.3" font-family="Times,serif" font-size="8.00">TestDecorator</text>
</g>
<!-- TestRunner&#45;&gt;TestDecorator -->
<!-- TestCase -->
<g id="node20" class="node"><title>TestCase</title>
<polygon fill="none" stroke="black" points="419.418,-87.5 373.418,-87.5 373.418,-70.5 419.418,-70.5 419.418,-87.5"/>
<text text-anchor="middle" x="396.418" y="-76.3" font-family="Times,serif" font-size="8.00">TestCase</text>
</g>
<!-- TestRunner&#45;&gt;TestCase -->
<g id="edge140" class="edge"><title>TestRunner&#45;&gt;TestCase</title>
<path fill="none" stroke="black" d="M228.356,-237.311C233.16,-234.466 237.576,-230.767 240.418,-226 252.025,-206.531 255.435,-191.978 240.418,-175 221.134,-153.197 194.701,-188.803 175.418,-167 160.401,-150.022 160.611,-133.162 175.418,-116 201.42,-85.8619 308.289,-95.4252 362.899,-87.7203"/>
<polygon fill="black" stroke="black" points="363.84,-91.1086 373.085,-85.9322 362.63,-84.2141 363.84,-91.1086"/>
</g>
<!-- Test -->
<g id="node23" class="node"><title>Test</title>
<polygon fill="none" stroke="black" points="699.418,-33.5 669.418,-33.5 669.418,-16.5 699.418,-16.5 699.418,-33.5"/>
<text text-anchor="middle" x="684.418" y="-22.3" font-family="Times,serif" font-size="8.00">Test</text>
</g>
<!-- TestRunner&#45;&gt;Test -->
<g id="edge226" class="edge"><title>TestRunner&#45;&gt;Test</title>
<path fill="none" stroke="black" d="M231.668,-245.98C691.244,-245.649 6602.3,-241.17 6617.42,-226 6800.59,-42.2546 7683.69,-119.337 5068.42,-62 4142.91,-41.7094 1022.59,-26.6306 709.74,-25.124"/>
<polygon fill="black" stroke="black" points="709.454,-21.6227 699.437,-25.0744 709.42,-28.6226 709.454,-21.6227"/>
</g>
<!-- TestRunner&#45;&gt;Test -->
<g id="edge156" class="edge"><title>TestRunner&#45;&gt;Test</title>
<path fill="none" stroke="black" d="M231.582,-245.981C691.199,-245.663 6620.27,-241.193 6635.42,-226 6818.59,-42.2546 7701.69,-119.337 5086.42,-62 4158.56,-41.6578 1024.7,-26.5539 709.943,-25.1128"/>
<polygon fill="black" stroke="black" points="709.59,-21.6113 699.575,-25.0656 709.558,-28.6112 709.59,-21.6113"/>
</g>
<!-- TestFailure -->
<g id="node24" class="node"><title>TestFailure</title>
<polygon fill="none" stroke="black" points="699.418,-87.5 643.418,-87.5 643.418,-70.5 699.418,-70.5 699.418,-87.5"/>
<text text-anchor="middle" x="671.418" y="-76.3" font-family="Times,serif" font-size="8.00">TestFailure</text>
</g>
<!-- TestRunner&#45;&gt;TestFailure -->
<g id="edge134" class="edge"><title>TestRunner&#45;&gt;TestFailure</title>
<path fill="none" stroke="black" d="M231.764,-243.183C253.971,-240.322 282.268,-235.003 289.418,-226 303.514,-208.25 302.782,-193.308 289.418,-175 282.54,-165.577 271.296,-176.423 264.418,-167 251.054,-148.692 249.007,-132.621 264.418,-116 290.916,-87.4204 561.565,-93.616 632.933,-87.5438"/>
<polygon fill="black" stroke="black" points="633.698,-90.9788 643.232,-86.3577 632.897,-84.0248 633.698,-90.9788"/>
</g>
<!-- TestListener -->
<g id="node27" class="node"><title>TestListener</title>
<polygon fill="none" stroke="black" points="515.418,-87.5 457.418,-87.5 457.418,-70.5 515.418,-70.5 515.418,-87.5"/>
<text text-anchor="middle" x="486.418" y="-76.3" font-family="Times,serif" font-size="8.00">TestListener</text>
</g>
<!-- TestRunner&#45;&gt;TestListener -->
<g id="edge210" class="edge"><title>TestRunner&#45;&gt;TestListener</title>
<path fill="none" stroke="black" d="M229.571,-237.438C239.211,-234.186 248.416,-230.235 251.418,-226 264.526,-207.508 265.15,-193.033 251.418,-175 243.318,-164.363 230.518,-177.637 222.418,-167 208.686,-148.967 207.561,-133.118 222.418,-116 251.401,-82.6058 375.681,-94.5014 419.418,-88 428.279,-86.6828 437.894,-85.2089 447.065,-83.8413"/>
<polygon fill="black" stroke="black" points="447.782,-87.2736 457.166,-82.3563 446.764,-80.3481 447.782,-87.2736"/>
</g>
<!-- TestRunner&#45;&gt;TestListener -->
<g id="edge130" class="edge"><title>TestRunner&#45;&gt;TestListener</title>
<path fill="none" stroke="black" d="M231.493,-241.402C247.562,-237.718 265.051,-232.16 269.418,-226 282.526,-207.508 283.15,-193.033 269.418,-175 261.318,-164.363 248.518,-177.637 240.418,-167 226.686,-148.967 225.561,-133.118 240.418,-116 269.401,-82.6058 393.681,-94.5014 437.418,-88 440.643,-87.5206 443.968,-87.0204 447.301,-86.5121"/>
<polygon fill="black" stroke="black" points="447.878,-89.9644 457.225,-84.9757 446.807,-83.0468 447.878,-89.9644"/>
</g>
<!-- TestResult -->
<g id="node34" class="node"><title>TestResult</title>
<polygon fill="none" stroke="black" points="439.418,-141.5 387.418,-141.5 387.418,-124.5 439.418,-124.5 439.418,-141.5"/>
<text text-anchor="middle" x="413.418" y="-130.3" font-family="Times,serif" font-size="8.00">TestResult</text>
</g>
<!-- TestRunner&#45;&gt;TestResult -->
<g id="edge220" class="edge"><title>TestRunner&#45;&gt;TestResult</title>
<path fill="none" stroke="black" d="M231.648,-243.558C273.627,-240.089 348.061,-233.337 358.418,-226 383.553,-208.191 395.635,-172.674 403.569,-151.055"/>
<polygon fill="black" stroke="black" points="406.845,-152.286 407.169,-141.696 400.312,-149.772 406.845,-152.286"/>
</g>
<!-- TestRunner&#45;&gt;TestResult -->
<g id="edge158" class="edge"><title>TestRunner&#45;&gt;TestResult</title>
<path fill="none" stroke="black" d="M231.778,-244.392C278.099,-241.268 365.154,-233.98 376.418,-226 401.211,-208.434 413.303,-173.639 416.092,-151.947"/>
<polygon fill="black" stroke="black" points="419.602,-151.89 416.715,-141.696 412.615,-151.466 419.602,-151.89"/>
</g>
<!-- TestSuite -->
<g id="node44" class="node"><title>TestSuite</title>
<polygon fill="none" stroke="black" points="485.418,-200.5 437.418,-200.5 437.418,-183.5 485.418,-183.5 485.418,-200.5"/>
<text text-anchor="middle" x="461.418" y="-189.3" font-family="Times,serif" font-size="8.00">TestSuite</text>
</g>
<!-- TestRunner&#45;&gt;TestSuite -->
<g id="edge222" class="edge"><title>TestRunner&#45;&gt;TestSuite</title>
<path fill="none" stroke="black" d="M231.688,-245.503C281.482,-244.293 381.886,-240.15 414.418,-226 423.837,-221.903 432.524,-214.535 440.046,-207.703"/>
<polygon fill="black" stroke="black" points="442.71,-210.01 447.73,-200.68 437.987,-204.843 442.71,-210.01"/>
</g>
<!-- TestRunner&#45;&gt;TestSuite -->
<g id="edge148" class="edge"><title>TestRunner&#45;&gt;TestSuite</title>
<path fill="none" stroke="black" d="M231.653,-245.717C285.036,-244.826 397.6,-241.144 432.418,-226 441.236,-222.165 449.412,-215.462 455.216,-209.017"/>
<polygon fill="black" stroke="black" points="458.276,-210.773 461.498,-200.68 452.685,-206.561 458.276,-210.773"/>
</g>
<!-- BaseTestRunner -->
<g id="node48" class="node"><title>BaseTestRunner</title>
<polygon fill="none" stroke="black" points="1501.42,-141.5 1429.42,-141.5 1429.42,-124.5 1501.42,-124.5 1501.42,-141.5"/>
<text text-anchor="middle" x="1465.42" y="-130.3" font-family="Times,serif" font-size="8.00">BaseTestRunner</text>
</g>
<!-- TestRunner&#45;&gt;BaseTestRunner -->
<g id="edge214" class="edge"><title>TestRunner&#45;&gt;BaseTestRunner</title>
<path fill="none" stroke="black" d="M231.62,-245.555C349.669,-243.733 798.018,-236.439 826.418,-226 860.556,-213.452 856.179,-187.27 890.418,-175 944.92,-155.469 1356.67,-185.826 1411.42,-167 1422.76,-163.1 1433.55,-155.147 1442.71,-147.913"/>
<polygon fill="black" stroke="black" points="1444.98,-150.575 1450.63,-141.609 1440.62,-145.099 1444.98,-150.575"/>
</g>
<!-- TestRunner&#45;&gt;BaseTestRunner -->
<g id="edge154" class="edge"><title>TestRunner&#45;&gt;BaseTestRunner</title>
<path fill="none" stroke="black" d="M231.788,-245.643C352.298,-243.98 815.535,-236.616 844.418,-226 878.556,-213.452 874.179,-187.27 908.418,-175 962.92,-155.469 1374.67,-185.826 1429.42,-167 1440.07,-163.338 1450.23,-156.105 1457.38,-149.249"/>
<polygon fill="black" stroke="black" points="1460.16,-151.389 1464.23,-141.609 1454.95,-146.714 1460.16,-151.389"/>
</g>
<!-- FailureDetailView -->
<g id="node53" class="node"><title>FailureDetailView</title>
<polygon fill="none" stroke="black" points="1411.42,-141.5 1333.42,-141.5 1333.42,-124.5 1411.42,-124.5 1411.42,-141.5"/>
<text text-anchor="middle" x="1372.42" y="-130.3" font-family="Times,serif" font-size="8.00">FailureDetailView</text>
</g>
<!-- TestRunner&#45;&gt;FailureDetailView -->
<g id="edge144" class="edge"><title>TestRunner&#45;&gt;FailureDetailView</title>
<path fill="none" stroke="black" d="M231.514,-245.673C346.007,-244.263 772.535,-238.207 798.418,-226 825.758,-213.105 815.969,-187.663 843.418,-175 867.686,-163.805 1299.02,-175.317 1324.42,-167 1336.06,-163.186 1347.34,-155.477 1356.03,-148.363"/>
<polygon fill="black" stroke="black" points="1358.54,-150.82 1363.78,-141.613 1353.94,-145.541 1358.54,-150.82"/>
</g>
<!-- SimpleTestCollector -->
<g id="node59" class="node"><title>SimpleTestCollector</title>
<polygon fill="none" stroke="black" points="1315.42,-141.5 1231.42,-141.5 1231.42,-124.5 1315.42,-124.5 1315.42,-141.5"/>
<text text-anchor="middle" x="1273.42" y="-130.3" font-family="Times,serif" font-size="8.00">SimpleTestCollector</text>
</g>
<!-- TestRunner&#45;&gt;SimpleTestCollector -->
<g id="edge136" class="edge"><title>TestRunner&#45;&gt;SimpleTestCollector</title>
<path fill="none" stroke="black" d="M231.671,-245.623C341.929,-244.072 738.379,-237.702 762.418,-226 789.075,-213.023 778.654,-187.755 805.418,-175 847.252,-155.063 1178.2,-180.854 1222.42,-167 1234.73,-163.143 1246.82,-155.312 1256.14,-148.137"/>
<polygon fill="black" stroke="black" points="1258.6,-150.644 1264.14,-141.61 1254.17,-145.221 1258.6,-150.644"/>
</g>
<!-- Version -->
<g id="node62" class="node"><title>Version</title>
<polygon fill="none" stroke="black" points="1639.42,-141.5 1597.42,-141.5 1597.42,-124.5 1639.42,-124.5 1639.42,-141.5"/>
<text text-anchor="middle" x="1618.42" y="-130.3" font-family="Times,serif" font-size="8.00">Version</text>
</g>
<!-- TestRunner&#45;&gt;Version -->
<g id="edge218" class="edge"><title>TestRunner&#45;&gt;Version</title>
<path fill="none" stroke="black" d="M231.699,-245.527C347.122,-243.653 781.613,-236.345 919.418,-226 1104.73,-212.089 1149.14,-189.38 1334.42,-175 1361.57,-172.892 1554.78,-178.607 1579.42,-167 1587.33,-163.273 1594.02,-156.378 1599.8,-149.766"/>
<polygon fill="black" stroke="black" points="1602.79,-151.665 1606.66,-141.803 1597.48,-147.099 1602.79,-151.665"/>
</g>
<!-- TestRunner&#45;&gt;Version -->
<g id="edge142" class="edge"><title>TestRunner&#45;&gt;Version</title>
<path fill="none" stroke="black" d="M231.732,-245.624C349.188,-243.919 797.102,-236.533 937.418,-226 1122.73,-212.089 1167.14,-189.38 1352.42,-175 1379.57,-172.892 1572.78,-178.607 1597.42,-167 1604.98,-163.439 1611.43,-156.985 1615.74,-150.649"/>
<polygon fill="black" stroke="black" points="1618.84,-152.278 1620.43,-141.803 1612.65,-149.004 1618.84,-152.278"/>
</g>
<!-- DefaultFailureDetailView -->
<g id="node63" class="node"><title>DefaultFailureDetailView</title>
<polygon fill="none" stroke="black" points="4349.42,-200.5 4245.42,-200.5 4245.42,-183.5 4349.42,-183.5 4349.42,-200.5"/>
<text text-anchor="middle" x="4297.42" y="-189.3" font-family="Times,serif" font-size="8.00">DefaultFailureDetailView</text>
</g>
<!-- TestRunner&#45;&gt;DefaultFailureDetailView -->
<g id="edge132" class="edge"><title>TestRunner&#45;&gt;DefaultFailureDetailView</title>
<path fill="none" stroke="black" d="M231.501,-245.958C586.315,-245.41 4184.91,-239.521 4236.42,-226 4251.22,-222.113 4266.26,-213.791 4277.7,-206.353"/>
<polygon fill="black" stroke="black" points="4279.74,-209.202 4286.03,-200.68 4275.8,-203.416 4279.74,-209.202"/>
</g>
<!-- FailureRunView -->
<g id="node71" class="node"><title>FailureRunView</title>
<polygon fill="none" stroke="black" points="4227.42,-200.5 4153.42,-200.5 4153.42,-183.5 4227.42,-183.5 4227.42,-200.5"/>
<text text-anchor="middle" x="4190.42" y="-189.3" font-family="Times,serif" font-size="8.00">FailureRunView</text>
</g>
<!-- TestRunner&#45;&gt;FailureRunView -->
<g id="edge138" class="edge"><title>TestRunner&#45;&gt;FailureRunView</title>
<path fill="none" stroke="black" d="M231.674,-245.978C583.092,-245.689 4095.07,-242.396 4144.42,-226 4155.73,-222.242 4166.54,-214.537 4174.84,-207.41"/>
<polygon fill="black" stroke="black" points="4177.22,-209.98 4182.22,-200.644 4172.49,-204.819 4177.22,-209.98"/>
</g>
<!-- TestHierarchyRunView -->
<g id="node75" class="node"><title>TestHierarchyRunView</title>
<polygon fill="none" stroke="black" points="3985.42,-200.5 3889.42,-200.5 3889.42,-183.5 3985.42,-183.5 3985.42,-200.5"/>
<text text-anchor="middle" x="3937.42" y="-189.3" font-family="Times,serif" font-size="8.00">TestHierarchyRunView</text>
</g>
<!-- TestRunner&#45;&gt;TestHierarchyRunView -->
<g id="edge128" class="edge"><title>TestRunner&#45;&gt;TestHierarchyRunView</title>
<path fill="none" stroke="black" d="M231.574,-245.949C569.365,-245.328 3833.77,-238.993 3880.42,-226 3894.15,-222.174 3907.93,-214.102 3918.5,-206.783"/>
<polygon fill="black" stroke="black" points="3920.86,-209.392 3926.88,-200.671 3916.73,-203.737 3920.86,-209.392"/>
</g>
<!-- TestRunContext -->
<g id="node79" class="node"><title>TestRunContext</title>
<polygon fill="none" stroke="black" points="4993.42,-200.5 4923.42,-200.5 4923.42,-183.5 4993.42,-183.5 4993.42,-200.5"/>
<text text-anchor="middle" x="4958.42" y="-189.3" font-family="Times,serif" font-size="8.00">TestRunContext</text>
</g>
<!-- TestRunner&#45;&gt;TestRunContext -->
<g id="edge146" class="edge"><title>TestRunner&#45;&gt;TestRunContext</title>
<path fill="none" stroke="black" d="M231.496,-245.943C618.876,-245.147 4884.88,-236.151 4914.42,-226 4925.26,-222.274 4935.51,-214.688 4943.39,-207.626"/>
<polygon fill="black" stroke="black" points="4945.87,-210.092 4950.66,-200.64 4941.02,-205.044 4945.87,-210.092"/>
</g>
<!-- CounterPanel -->
<g id="node83" class="node"><title>CounterPanel</title>
<polygon fill="none" stroke="black" points="5417.42,-141.5 5355.42,-141.5 5355.42,-124.5 5417.42,-124.5 5417.42,-141.5"/>
<text text-anchor="middle" x="5386.42" y="-130.3" font-family="Times,serif" font-size="8.00">CounterPanel</text>
</g>
<!-- TestRunner&#45;&gt;CounterPanel -->
<g id="edge150" class="edge"><title>TestRunner&#45;&gt;CounterPanel</title>
<path fill="none" stroke="black" d="M231.451,-245.961C641.573,-245.375 5414.17,-238.296 5426.42,-226 5442.41,-209.942 5434.84,-196.045 5426.42,-175 5422.35,-164.839 5414.53,-155.735 5406.87,-148.622"/>
<polygon fill="black" stroke="black" points="5408.69,-145.57 5398.81,-141.73 5404.14,-150.89 5408.69,-145.57"/>
</g>
<!-- StatusLine -->
<g id="node118" class="node"><title>StatusLine</title>
<polygon fill="none" stroke="black" points="4055.42,-200.5 4003.42,-200.5 4003.42,-183.5 4055.42,-183.5 4055.42,-200.5"/>
<text text-anchor="middle" x="4029.42" y="-189.3" font-family="Times,serif" font-size="8.00">StatusLine</text>
</g>
<!-- TestRunner&#45;&gt;StatusLine -->
<g id="edge160" class="edge"><title>TestRunner&#45;&gt;StatusLine</title>
<path fill="none" stroke="black" d="M231.66,-245.997C575.702,-245.941 3948.17,-244.909 3994.42,-226 4003.24,-222.393 4011.07,-215.391 4017.07,-208.673"/>
<polygon fill="black" stroke="black" points="4020.05,-210.562 4023.64,-200.594 4014.61,-206.147 4020.05,-210.562"/>
</g>
<!-- TestSuiteLoader -->
<g id="node121" class="node"><title>TestSuiteLoader</title>
<polygon fill="none" stroke="black" points="1213.42,-141.5 1143.42,-141.5 1143.42,-124.5 1213.42,-124.5 1213.42,-141.5"/>
<text text-anchor="middle" x="1178.42" y="-130.3" font-family="Times,serif" font-size="8.00">TestSuiteLoader</text>
</g>
<!-- TestRunner&#45;&gt;TestSuiteLoader -->
<g id="edge216" class="edge"><title>TestRunner&#45;&gt;TestSuiteLoader</title>
<path fill="none" stroke="black" d="M231.54,-245.35C333.875,-243.063 680.368,-235.039 702.418,-226 733.566,-213.232 727.159,-187.494 758.418,-175 796.292,-159.862 1086.96,-180.596 1125.42,-167 1136.45,-163.098 1146.91,-155.265 1155.81,-148.1"/>
<polygon fill="black" stroke="black" points="1158.28,-150.604 1163.84,-141.586 1153.87,-145.169 1158.28,-150.604"/>
</g>
<!-- TestRunner&#45;&gt;TestSuiteLoader -->
<g id="edge164" class="edge"><title>TestRunner&#45;&gt;TestSuiteLoader</title>
<path fill="none" stroke="black" d="M231.608,-245.492C336.479,-243.415 697.883,-235.238 720.418,-226 751.566,-213.232 745.159,-187.494 776.418,-175 814.292,-159.862 1104.96,-180.596 1143.42,-167 1153.88,-163.299 1163.83,-156.062 1170.79,-149.213"/>
<polygon fill="black" stroke="black" points="1173.51,-151.422 1177.44,-141.586 1168.23,-146.82 1173.51,-151.422"/>
</g>
<!-- TestCollector -->
<g id="node123" class="node"><title>TestCollector</title>
<polygon fill="none" stroke="black" points="1579.42,-141.5 1519.42,-141.5 1519.42,-124.5 1579.42,-124.5 1579.42,-141.5"/>
<text text-anchor="middle" x="1549.42" y="-130.3" font-family="Times,serif" font-size="8.00">TestCollector</text>
</g>
<!-- TestRunner&#45;&gt;TestCollector -->
<g id="edge166" class="edge"><title>TestRunner&#45;&gt;TestCollector</title>
<path fill="none" stroke="black" d="M231.512,-245.79C356.833,-244.777 860.017,-239.856 890.418,-226 918.466,-213.216 909.274,-187.571 937.418,-175 966.486,-162.016 1480.68,-178.378 1510.42,-167 1520.07,-163.308 1528.92,-156.072 1535.74,-149.221"/>
<polygon fill="black" stroke="black" points="1538.56,-151.325 1542.74,-141.591 1533.4,-146.591 1538.56,-151.325"/>
</g>
<!-- ResultPrinter -->
<g id="node148" class="node"><title>ResultPrinter</title>
<polygon fill="none" stroke="black" points="231.418,-200.5 171.418,-200.5 171.418,-183.5 231.418,-183.5 231.418,-200.5"/>
<text text-anchor="middle" x="201.418" y="-189.3" font-family="Times,serif" font-size="8.00">ResultPrinter</text>
</g>
<!-- TestRunner&#45;&gt;ResultPrinter -->
<g id="edge224" class="edge"><title>TestRunner&#45;&gt;ResultPrinter</title>
<path fill="none" stroke="black" d="M203.088,-237.083C202.825,-230.006 202.45,-219.861 202.121,-210.986"/>
<polygon fill="black" stroke="black" points="205.61,-210.615 201.742,-200.751 198.615,-210.874 205.61,-210.615"/>
</g>
<!-- StandardTestSuiteLoader -->
<g id="node157" class="node"><title>StandardTestSuiteLoader</title>
<polygon fill="none" stroke="black" points="1757.42,-141.5 1657.42,-141.5 1657.42,-124.5 1757.42,-124.5 1757.42,-141.5"/>
<text text-anchor="middle" x="1707.42" y="-130.3" font-family="Times,serif" font-size="8.00">StandardTestSuiteLoader</text>
</g>
<!-- TestRunner&#45;&gt;StandardTestSuiteLoader -->
<g id="edge212" class="edge"><title>TestRunner&#45;&gt;StandardTestSuiteLoader</title>
<path fill="none" stroke="black" d="M231.56,-245.788C369.163,-244.696 972.087,-239.228 1159.42,-226 1377.78,-210.581 1440.72,-236.159 1648.42,-167 1662.26,-162.39 1676.47,-154.321 1687.48,-147.2"/>
<polygon fill="black" stroke="black" points="1689.55,-150.026 1695.89,-141.539 1685.64,-144.219 1689.55,-150.026"/>
</g>
<!-- AboutDialog&#45;&gt;Version -->
<g id="edge72" class="edge"><title>AboutDialog&#45;&gt;Version</title>
<path fill="none" stroke="black" d="M6145.02,-183.345C6138.3,-180.04 6130.19,-176.667 6122.42,-175 6092.04,-168.486 1676.73,-179.805 1648.42,-167 1640.53,-163.431 1633.88,-156.652 1628.86,-150.08"/>
<polygon fill="black" stroke="black" points="1631.59,-147.865 1623.07,-141.568 1625.8,-151.804 1631.59,-147.865"/>
</g>
<!-- TestSetup$1 -->
<g id="node10" class="node"><title>TestSetup$1</title>
<polygon fill="none" stroke="black" points="7131.42,-254.5 7075.42,-254.5 7075.42,-237.5 7131.42,-237.5 7131.42,-254.5"/>
<text text-anchor="middle" x="7103.42" y="-243.3" font-family="Times,serif" font-size="8.00">TestSetup$1</text>
</g>
<!-- TestSetup$1&#45;&gt;TestDecorator -->
<g id="edge10" class="edge"><title>TestSetup$1&#45;&gt;TestDecorator</title>
<path fill="none" stroke="black" d="M7075.2,-238.837C7072.24,-238.176 7069.27,-237.549 7066.42,-237 6968.63,-218.189 6852.41,-203.613 6791.83,-196.596"/>
<polygon fill="black" stroke="black" points="6791.87,-193.077 6781.53,-195.414 6791.07,-200.032 6791.87,-193.077"/>
</g>
<!-- TestResult$1 -->
<g id="node30" class="node"><title>TestResult$1</title>
<polygon fill="none" stroke="black" points="515.418,-141.5 457.418,-141.5 457.418,-124.5 515.418,-124.5 515.418,-141.5"/>
<text text-anchor="middle" x="486.418" y="-130.3" font-family="Times,serif" font-size="8.00">TestResult$1</text>
</g>
<!-- TestDecorator&#45;&gt;TestResult$1 -->
<!-- TestSetup -->
<g id="node13" class="node"><title>TestSetup</title>
<polygon fill="none" stroke="black" points="7199.42,-254.5 7149.42,-254.5 7149.42,-237.5 7199.42,-237.5 7199.42,-254.5"/>
<text text-anchor="middle" x="7174.42" y="-243.3" font-family="Times,serif" font-size="8.00">TestSetup</text>
</g>
<!-- TestSetup&#45;&gt;TestDecorator -->
<g id="edge12" class="edge"><title>TestSetup&#45;&gt;TestDecorator</title>
<path fill="none" stroke="black" d="M7149.26,-238.909C7146.29,-238.201 7143.3,-237.544 7140.42,-237 7014.61,-213.218 6863.43,-200.108 6791.86,-194.813"/>
<polygon fill="black" stroke="black" points="6791.71,-191.293 6781.49,-194.059 6791.21,-198.274 6791.71,-191.293"/>
</g>
<!-- ComparisonFailure -->
<g id="node15" class="node"><title>ComparisonFailure</title>
<polygon fill="none" stroke="black" points="355.418,-87.5 275.418,-87.5 275.418,-70.5 355.418,-70.5 355.418,-87.5"/>
<text text-anchor="middle" x="315.418" y="-76.3" font-family="Times,serif" font-size="8.00">ComparisonFailure</text>
</g>
<!-- Assert -->
<g id="node17" class="node"><title>Assert</title>
<polygon fill="none" stroke="black" points="334.418,-33.5 296.418,-33.5 296.418,-16.5 334.418,-16.5 334.418,-33.5"/>
<text text-anchor="middle" x="315.418" y="-22.3" font-family="Times,serif" font-size="8.00">Assert</text>
</g>
<!-- ComparisonFailure&#45;&gt;Assert -->
<g id="edge14" class="edge"><title>ComparisonFailure&#45;&gt;Assert</title>
<path fill="none" stroke="black" d="M315.418,-70.083C315.418,-63.0059 315.418,-52.8611 315.418,-43.9865"/>
<polygon fill="black" stroke="black" points="318.918,-43.751 315.418,-33.7511 311.918,-43.7511 318.918,-43.751"/>
</g>
<!-- AssertionFailedError -->
<g id="node19" class="node"><title>AssertionFailedError</title>
<polygon fill="none" stroke="black" points="529.418,-33.5 443.418,-33.5 443.418,-16.5 529.418,-16.5 529.418,-33.5"/>
<text text-anchor="middle" x="486.418" y="-22.3" font-family="Times,serif" font-size="8.00">AssertionFailedError</text>
</g>
<!-- ComparisonFailure&#45;&gt;AssertionFailedError -->
<g id="edge16" class="edge"><title>ComparisonFailure&#45;&gt;AssertionFailedError</title>
<path fill="none" stroke="black" d="M339.529,-70.4227C347.437,-67.6664 356.282,-64.6437 364.418,-62 391.861,-53.0817 422.994,-43.6508 446.941,-36.5424"/>
<polygon fill="black" stroke="black" points="448.136,-39.839 456.733,-33.6464 446.15,-33.1265 448.136,-39.839"/>
</g>
<!-- TestCase&#45;&gt;Assert -->
<g id="edge18" class="edge"><title>TestCase&#45;&gt;Assert</title>
<path fill="none" stroke="black" d="M383.404,-70.324C370.886,-61.979 351.736,-49.2122 336.946,-39.3524"/>
<polygon fill="black" stroke="black" points="338.662,-36.2894 328.4,-33.6545 334.779,-42.1137 338.662,-36.2894"/>
</g>
<!-- TestCase&#45;&gt;Test -->
<g id="edge20" class="edge"><title>TestCase&#45;&gt;Test</title>
<path fill="none" stroke="black" d="M419.487,-70.5774C428.43,-67.5454 438.813,-64.3071 448.418,-62 524.255,-43.7832 616.03,-32.3636 659.4,-27.5855"/>
<polygon fill="black" stroke="black" points="659.777,-31.0652 669.344,-26.5137 659.027,-24.1055 659.777,-31.0652"/>
</g>
<!-- TestFailure&#45;&gt;AssertionFailedError -->
<g id="edge22" class="edge"><title>TestFailure&#45;&gt;AssertionFailedError</title>
<path fill="none" stroke="black" d="M654.374,-70.3656C648.192,-67.4496 641.087,-64.3431 634.418,-62 603.459,-51.1242 567.802,-42.1093 539.246,-35.7014"/>
<polygon fill="black" stroke="black" points="539.979,-32.2792 529.46,-33.5448 538.473,-39.1151 539.979,-32.2792"/>
</g>
<!-- TestFailure&#45;&gt;Test -->
<g id="edge24" class="edge"><title>TestFailure&#45;&gt;Test</title>
<path fill="none" stroke="black" d="M673.565,-70.083C675.287,-62.9272 677.765,-52.6353 679.918,-43.6911"/>
<polygon fill="black" stroke="black" points="683.373,-44.2925 682.311,-33.7511 676.568,-42.6541 683.373,-44.2925"/>
</g>
<!-- TestListener&#45;&gt;AssertionFailedError -->
<g id="edge26" class="edge"><title>TestListener&#45;&gt;AssertionFailedError</title>
<path fill="none" stroke="black" d="M486.418,-70.083C486.418,-63.0059 486.418,-52.8611 486.418,-43.9865"/>
<polygon fill="black" stroke="black" points="489.918,-43.751 486.418,-33.7511 482.918,-43.7511 489.918,-43.751"/>
</g>
<!-- TestListener&#45;&gt;Test -->
<g id="edge28" class="edge"><title>TestListener&#45;&gt;Test</title>
<path fill="none" stroke="black" d="M506.331,-70.4444C513.526,-67.5357 521.762,-64.4137 529.418,-62 574.499,-47.7872 628.447,-36.0649 659.346,-29.8396"/>
<polygon fill="black" stroke="black" points="660.134,-33.2515 669.261,-27.8718 658.771,-26.3854 660.134,-33.2515"/>
</g>
<!-- TestResult$1&#45;&gt;TestCase -->
<g id="edge32" class="edge"><title>TestResult$1&#45;&gt;TestCase</title>
<path fill="none" stroke="black" d="M471.958,-124.324C457.918,-115.9 436.369,-102.971 419.875,-93.0741"/>
<polygon fill="black" stroke="black" points="421.218,-89.7983 410.842,-87.6545 417.616,-95.8007 421.218,-89.7983"/>
</g>
<!-- Protectable -->
<g id="node32" class="node"><title>Protectable</title>
<polygon fill="none" stroke="black" points="625.418,-87.5 573.418,-87.5 573.418,-70.5 625.418,-70.5 625.418,-87.5"/>
<text text-anchor="middle" x="599.418" y="-76.3" font-family="Times,serif" font-size="8.00">Protectable</text>
</g>
<!-- TestResult$1&#45;&gt;Protectable -->
<g id="edge30" class="edge"><title>TestResult$1&#45;&gt;Protectable</title>
<path fill="none" stroke="black" d="M504.323,-124.444C522.672,-115.675 551.423,-101.935 572.511,-91.8579"/>
<polygon fill="black" stroke="black" points="574.083,-94.9862 581.596,-87.5164 571.065,-88.6703 574.083,-94.9862"/>
</g>
<!-- TestResult$1&#45;&gt;StandardTestSuiteLoader -->
<!-- TestResult&#45;&gt;AssertionFailedError -->
<g id="edge36" class="edge"><title>TestResult&#45;&gt;AssertionFailedError</title>
<path fill="none" stroke="black" d="M416.639,-124.165C421.976,-110.186 433.554,-82.4566 448.418,-62 454.098,-54.1831 461.506,-46.5576 468.272,-40.2801"/>
<polygon fill="black" stroke="black" points="470.634,-42.8628 475.776,-33.5994 465.98,-37.6343 470.634,-42.8628"/>
</g>
<!-- TestResult&#45;&gt;TestCase -->
<g id="edge40" class="edge"><title>TestResult&#45;&gt;TestCase</title>
<path fill="none" stroke="black" d="M410.611,-124.083C408.333,-116.849 405.047,-106.409 402.209,-97.3968"/>
<polygon fill="black" stroke="black" points="405.514,-96.2385 399.173,-87.7511 398.837,-98.3406 405.514,-96.2385"/>
</g>
<!-- TestResult&#45;&gt;Test -->
<g id="edge44" class="edge"><title>TestResult&#45;&gt;Test</title>
<path fill="none" stroke="black" d="M429.919,-124.34C435.686,-121.487 442.259,-118.427 448.418,-116 487.788,-100.488 503.381,-110.181 539.418,-88 553.07,-79.597 550.768,-70.407 564.418,-62 594.304,-43.5926 634.062,-33.7039 659.454,-28.8995"/>
<polygon fill="black" stroke="black" points="660.149,-32.331 669.386,-27.1418 658.929,-25.4381 660.149,-32.331"/>
</g>
<!-- TestResult&#45;&gt;TestFailure -->
<g id="edge34" class="edge"><title>TestResult&#45;&gt;TestFailure</title>
<path fill="none" stroke="black" d="M428.685,-124.339C434.673,-121.277 441.708,-118.081 448.418,-116 525.3,-92.1515 550.521,-103.213 633.353,-88.0174"/>
<polygon fill="black" stroke="black" points="634.027,-91.4522 643.193,-86.14 632.715,-84.5762 634.027,-91.4522"/>
</g>
<!-- TestResult&#45;&gt;TestListener -->
<g id="edge38" class="edge"><title>TestResult&#45;&gt;TestListener</title>
<path fill="none" stroke="black" d="M425.147,-124.324C436.255,-116.107 453.16,-103.602 466.401,-93.8069"/>
<polygon fill="black" stroke="black" points="468.518,-96.5948 474.476,-87.8339 464.355,-90.9671 468.518,-96.5948"/>
</g>
<!-- TestResult&#45;&gt;Protectable -->
<g id="edge42" class="edge"><title>TestResult&#45;&gt;Protectable</title>
<path fill="none" stroke="black" d="M429.14,-124.484C435.063,-121.512 441.936,-118.338 448.418,-116 459.214,-112.105 522.319,-97.0531 563.46,-87.3887"/>
<polygon fill="black" stroke="black" points="564.464,-90.7483 573.401,-85.0578 562.866,-83.9331 564.464,-90.7483"/>
</g>
<!-- TestSuite$1 -->
<g id="node41" class="node"><title>TestSuite$1</title>
<polygon fill="none" stroke="black" points="329.418,-141.5 273.418,-141.5 273.418,-124.5 329.418,-124.5 329.418,-141.5"/>
<text text-anchor="middle" x="301.418" y="-130.3" font-family="Times,serif" font-size="8.00">TestSuite$1</text>
</g>
<!-- TestSuite$1&#45;&gt;Assert -->
<g id="edge46" class="edge"><title>TestSuite$1&#45;&gt;Assert</title>
<path fill="none" stroke="black" d="M291.54,-124.244C277.662,-110.83 255.269,-84.3894 266.418,-62 271.073,-52.6517 279.341,-45.0397 287.776,-39.2041"/>
<polygon fill="black" stroke="black" points="289.853,-42.0333 296.481,-33.7676 286.145,-36.0961 289.853,-42.0333"/>
</g>
<!-- TestSuite$1&#45;&gt;TestCase -->
<g id="edge48" class="edge"><title>TestSuite$1&#45;&gt;TestCase</title>
<path fill="none" stroke="black" d="M316.681,-124.324C331.639,-115.822 354.673,-102.729 372.145,-92.7975"/>
<polygon fill="black" stroke="black" points="374.228,-95.639 381.192,-87.6545 370.769,-89.5534 374.228,-95.639"/>
</g>
<!-- TestSuite&#45;&gt;TestCase -->
<g id="edge50" class="edge"><title>TestSuite&#45;&gt;TestCase</title>
<path fill="none" stroke="black" d="M437.381,-189.234C411.376,-185.689 372.413,-178.578 363.418,-167 349.511,-149.101 355.345,-137.18 363.418,-116 366.411,-108.148 371.92,-100.904 377.591,-94.9461"/>
<polygon fill="black" stroke="black" points="380.385,-97.1181 385.204,-87.6825 375.553,-92.0535 380.385,-97.1181"/>
</g>
<!-- TestSuite&#45;&gt;Test -->
<g id="edge54" class="edge"><title>TestSuite&#45;&gt;Test</title>
<path fill="none" stroke="black" d="M437.358,-188.009C415.464,-183.829 385.509,-176.542 378.418,-167 364.897,-148.807 363.978,-133.472 378.418,-116 420.508,-65.0704 470.586,-126.309 524.418,-88 535.287,-80.2649 528.787,-70.0596 539.418,-62 558.086,-47.847 622.412,-35.2725 658.802,-29.0763"/>
<polygon fill="black" stroke="black" points="659.826,-32.4543 669.117,-27.3634 658.679,-25.5489 659.826,-32.4543"/>
</g>
<!-- TestSuite&#45;&gt;TestResult -->
<g id="edge52" class="edge"><title>TestSuite&#45;&gt;TestResult</title>
<path fill="none" stroke="black" d="M454.335,-183.294C447.174,-174.492 435.925,-160.665 427.033,-149.735"/>
<polygon fill="black" stroke="black" points="429.555,-147.29 420.529,-141.741 424.125,-151.707 429.555,-147.29"/>
</g>
<!-- BaseTestRunner&#45;&gt;AssertionFailedError -->
<g id="edge60" class="edge"><title>BaseTestRunner&#45;&gt;AssertionFailedError</title>
<path fill="none" stroke="black" d="M1444.57,-124.392C1437.05,-121.479 1428.43,-118.367 1420.42,-116 1311.82,-83.9032 1283.65,-77.1019 1171.42,-62 1155.81,-59.9003 698.375,-36.012 539.868,-27.7732"/>
<polygon fill="black" stroke="black" points="539.593,-24.2543 529.425,-27.2306 539.23,-31.2449 539.593,-24.2543"/>
</g>
<!-- BaseTestRunner&#45;&gt;Test -->
<g id="edge62" class="edge"><title>BaseTestRunner&#45;&gt;Test</title>
<path fill="none" stroke="black" d="M1454.41,-124.446C1433.43,-108.71 1385.69,-75.5444 1339.42,-62 1278.19,-44.0771 822.469,-29.1867 709.633,-25.748"/>
<polygon fill="black" stroke="black" points="709.63,-22.2464 699.529,-25.4429 709.419,-29.2432 709.63,-22.2464"/>
</g>
<!-- BaseTestRunner&#45;&gt;TestListener -->
<g id="edge56" class="edge"><title>BaseTestRunner&#45;&gt;TestListener</title>
<path fill="none" stroke="black" d="M1446.99,-124.473C1439,-121.189 1429.43,-117.798 1420.42,-116 1233.77,-78.7573 754.224,-102.031 564.418,-88 551.779,-87.0657 538.033,-85.6231 525.651,-84.1645"/>
<polygon fill="black" stroke="black" points="525.974,-80.6781 515.625,-82.9464 525.13,-87.627 525.974,-80.6781"/>
</g>
<!-- BaseTestRunner&#45;&gt;TestSuite -->
<g id="edge58" class="edge"><title>BaseTestRunner&#45;&gt;TestSuite</title>
<path fill="none" stroke="black" d="M1457.43,-141.613C1449.11,-149.906 1435.24,-161.917 1420.42,-167 1390.09,-177.402 875.463,-174.065 843.418,-175 715.188,-178.741 562.883,-186.521 495.915,-190.11"/>
<polygon fill="black" stroke="black" points="495.34,-186.636 485.543,-190.67 495.717,-193.626 495.34,-186.636"/>
</g>
<!-- FailureDetailView&#45;&gt;TestFailure -->
<g id="edge64" class="edge"><title>FailureDetailView&#45;&gt;TestFailure</title>
<path fill="none" stroke="black" d="M1352.23,-124.36C1343.8,-121.143 1333.79,-117.831 1324.42,-116 1056.75,-63.6859 981.72,-124.296 711.418,-88 710.823,-87.9201 710.223,-87.8356 709.62,-87.7471"/>
<polygon fill="black" stroke="black" points="710.167,-84.2897 699.714,-86.0121 708.96,-91.1848 710.167,-84.2897"/>
</g>
<!-- LoadingTestCollector -->
<g id="node55" class="node"><title>LoadingTestCollector</title>
<polygon fill="none" stroke="black" points="1125.42,-141.5 1039.42,-141.5 1039.42,-124.5 1125.42,-124.5 1125.42,-141.5"/>
<text text-anchor="middle" x="1082.42" y="-130.3" font-family="Times,serif" font-size="8.00">LoadingTestCollector</text>
</g>
<!-- LoadingTestCollector&#45;&gt;TestSuite -->
<g id="edge66" class="edge"><title>LoadingTestCollector&#45;&gt;TestSuite</title>
<path fill="none" stroke="black" d="M1072.92,-141.592C1063.09,-149.868 1046.89,-161.866 1030.42,-167 996.568,-177.548 746.835,-173.352 711.418,-175 634.253,-178.59 543.854,-185.379 495.707,-189.202"/>
<polygon fill="black" stroke="black" points="495.221,-185.729 485.532,-190.015 495.779,-192.707 495.221,-185.729"/>
</g>
<!-- ClassPathTestCollector -->
<g id="node58" class="node"><title>ClassPathTestCollector</title>
<polygon fill="none" stroke="black" points="1162.42,-87.5 1070.42,-87.5 1070.42,-70.5 1162.42,-70.5 1162.42,-87.5"/>
<text text-anchor="middle" x="1116.42" y="-76.3" font-family="Times,serif" font-size="8.00">ClassPathTestCollector</text>
</g>
<!-- LoadingTestCollector&#45;&gt;ClassPathTestCollector -->
<g id="edge68" class="edge"><title>LoadingTestCollector&#45;&gt;ClassPathTestCollector</title>
<path fill="none" stroke="black" d="M1088.03,-124.083C1092.79,-116.534 1099.74,-105.495 1105.57,-96.2298"/>
<polygon fill="black" stroke="black" points="1108.54,-98.0783 1110.91,-87.7511 1102.62,-94.3486 1108.54,-98.0783"/>
</g>
<!-- SimpleTestCollector&#45;&gt;ClassPathTestCollector -->
<g id="edge70" class="edge"><title>SimpleTestCollector&#45;&gt;ClassPathTestCollector</title>
<path fill="none" stroke="black" d="M1248.54,-124.444C1222.13,-115.359 1180.2,-100.939 1150.68,-90.7831"/>
<polygon fill="black" stroke="black" points="1151.77,-87.4593 1141.18,-87.5164 1149.5,-94.0787 1151.77,-87.4593"/>
</g>
<!-- DefaultFailureDetailView&#45;&gt;TestFailure -->
<g id="edge76" class="edge"><title>DefaultFailureDetailView&#45;&gt;TestFailure</title>
<path fill="none" stroke="black" d="M4272.51,-183.421C4261.58,-180.084 4248.51,-176.667 4236.42,-175 4224.19,-173.314 690.617,-175.231 681.418,-167 662.372,-149.957 663.843,-117.947 667.217,-97.5905"/>
<polygon fill="black" stroke="black" points="670.677,-98.1365 669.17,-87.6494 663.808,-96.7875 670.677,-98.1365"/>
</g>
<!-- DefaultFailureDetailView&#45;&gt;BaseTestRunner -->
<g id="edge78" class="edge"><title>DefaultFailureDetailView&#45;&gt;BaseTestRunner</title>
<path fill="none" stroke="black" d="M4272.51,-183.425C4261.58,-180.089 4248.51,-176.671 4236.42,-175 4198.91,-169.816 1546.3,-179.089 1510.42,-167 1499.4,-163.287 1488.92,-155.703 1480.85,-148.638"/>
<polygon fill="black" stroke="black" points="1483.08,-145.933 1473.39,-141.647 1478.3,-151.04 1483.08,-145.933"/>
</g>
<!-- DefaultFailureDetailView&#45;&gt;FailureDetailView -->
<g id="edge74" class="edge"><title>DefaultFailureDetailView&#45;&gt;FailureDetailView</title>
<path fill="none" stroke="black" d="M4272.51,-183.424C4261.58,-180.088 4248.51,-176.67 4236.42,-175 4197.67,-169.646 1457.67,-178.915 1420.42,-167 1408.75,-163.267 1397.47,-155.563 1388.78,-148.431"/>
<polygon fill="black" stroke="black" points="1390.87,-145.608 1381.04,-141.658 1386.26,-150.876 1390.87,-145.608"/>
</g>
<!-- FailureRunView$FailureListCellRenderer -->
<g id="node67" class="node"><title>FailureRunView$FailureListCellRenderer</title>
<polygon fill="none" stroke="black" points="4611.42,-200.5 4453.42,-200.5 4453.42,-183.5 4611.42,-183.5 4611.42,-200.5"/>
<text text-anchor="middle" x="4532.42" y="-189.3" font-family="Times,serif" font-size="8.00">FailureRunView$FailureListCellRenderer</text>
</g>
<!-- FailureRunView$FailureListCellRenderer&#45;&gt;Test -->
<g id="edge84" class="edge"><title>FailureRunView$FailureListCellRenderer&#45;&gt;Test</title>
<path fill="none" stroke="black" d="M4494.93,-183.453C4479.38,-180.25 4461.11,-176.924 4444.42,-175 4352.95,-164.46 4329.12,-175.228 4237.42,-167 4076.03,-152.519 4037.48,-133.746 3876.42,-116 3574.63,-82.7487 3498.7,-76.2441 3195.42,-62 2675.34,-37.5739 940.065,-26.5196 709.746,-25.1472"/>
<polygon fill="black" stroke="black" points="709.674,-21.6468 699.653,-25.0876 709.632,-28.6467 709.674,-21.6468"/>
</g>
<!-- FailureRunView$FailureListCellRenderer&#45;&gt;TestFailure -->
<g id="edge80" class="edge"><title>FailureRunView$FailureListCellRenderer&#45;&gt;TestFailure</title>
<path fill="none" stroke="black" d="M4496.25,-183.418C4480.44,-180.081 4461.61,-176.664 4444.42,-175 4431.52,-173.751 722.308,-174.029 711.418,-167 699.063,-159.026 684.879,-120.731 677.159,-97.3646"/>
<polygon fill="black" stroke="black" points="680.402,-96.0161 674.011,-87.566 673.738,-98.1573 680.402,-96.0161"/>
</g>
<!-- FailureRunView$FailureListCellRenderer&#45;&gt;BaseTestRunner -->
<g id="edge82" class="edge"><title>FailureRunView$FailureListCellRenderer&#45;&gt;BaseTestRunner</title>
<path fill="none" stroke="black" d="M4496.25,-183.423C4480.44,-180.087 4461.61,-176.669 4444.42,-175 4403.86,-171.062 1549.04,-180.008 1510.42,-167 1499.4,-163.288 1488.92,-155.704 1480.85,-148.639"/>
<polygon fill="black" stroke="black" points="1483.08,-145.934 1473.39,-141.648 1478.29,-151.041 1483.08,-145.934"/>
</g>
<!-- FailureRunView&#45;&gt;Test -->
<g id="edge90" class="edge"><title>FailureRunView&#45;&gt;Test</title>
<path fill="none" stroke="black" d="M4171.11,-183.328C4163.03,-180.105 4153.44,-176.799 4144.42,-175 4100.58,-166.255 3987.98,-170.53 3943.42,-167 3752.01,-151.837 3705.76,-131.934 3514.42,-116 3014.24,-74.3491 2888.02,-79.4557 2386.42,-62 1703.46,-38.2334 865.793,-27.2157 709.987,-25.305"/>
<polygon fill="black" stroke="black" points="709.626,-21.8004 699.584,-25.1786 709.54,-28.7999 709.626,-21.8004"/>
</g>
<!-- FailureRunView&#45;&gt;TestFailure -->
<g id="edge86" class="edge"><title>FailureRunView&#45;&gt;TestFailure</title>
<path fill="none" stroke="black" d="M4171.59,-183.338C4163.42,-180.032 4153.64,-176.66 4144.42,-175 4132.45,-172.846 652.004,-175.606 643.418,-167 627.408,-150.954 636.204,-137.488 643.418,-116 645.898,-108.611 650.503,-101.523 655.272,-95.5628"/>
<polygon fill="black" stroke="black" points="658.179,-97.5575 662.149,-87.7347 652.92,-92.9377 658.179,-97.5575"/>
</g>
<!-- FailureRunView&#45;&gt;TestResult -->
<g id="edge88" class="edge"><title>FailureRunView&#45;&gt;TestResult</title>
<path fill="none" stroke="black" d="M4171.59,-183.338C4163.42,-180.031 4153.64,-176.659 4144.42,-175 4119.16,-170.453 472.191,-176.676 448.418,-167 439.591,-163.407 431.763,-156.406 425.76,-149.686"/>
<polygon fill="black" stroke="black" points="428.217,-147.159 419.196,-141.602 422.782,-151.571 428.217,-147.159"/>
</g>
<!-- TestHierarchyRunView&#45;&gt;Test -->
<g id="edge96" class="edge"><title>TestHierarchyRunView&#45;&gt;Test</title>
<path fill="none" stroke="black" d="M3914.18,-183.484C3903.97,-180.158 3891.75,-176.732 3880.42,-175 3815.5,-165.076 3355.02,-169.937 3289.42,-167 2674.93,-139.491 2523.66,-94.627 1909.42,-62 1427.83,-36.4193 838.736,-27.1316 710.026,-25.3386"/>
<polygon fill="black" stroke="black" points="709.693,-21.8338 699.646,-25.1965 709.597,-28.8332 709.693,-21.8338"/>
</g>
<!-- TestHierarchyRunView&#45;&gt;TestListener -->
<g id="edge92" class="edge"><title>TestHierarchyRunView&#45;&gt;TestListener</title>
<path fill="none" stroke="black" d="M3914.19,-183.423C3903.98,-180.087 3891.76,-176.669 3880.42,-175 3857.66,-171.65 588.269,-176.724 567.418,-167 540.548,-154.469 544.619,-137.701 524.418,-116 517.654,-108.734 509.847,-101.025 503.076,-94.536"/>
<polygon fill="black" stroke="black" points="505.395,-91.9117 495.727,-87.5776 500.582,-96.9947 505.395,-91.9117"/>
</g>
<!-- TestHierarchyRunView&#45;&gt;TestResult -->
<g id="edge94" class="edge"><title>TestHierarchyRunView&#45;&gt;TestResult</title>
<path fill="none" stroke="black" d="M3914.19,-183.423C3903.98,-180.086 3891.76,-176.669 3880.42,-175 3856.84,-171.531 470.492,-175.987 448.418,-167 439.591,-163.406 431.763,-156.405 425.76,-149.685"/>
<polygon fill="black" stroke="black" points="428.217,-147.158 419.196,-141.602 422.783,-151.571 428.217,-147.158"/>
</g>
<!-- TestRunContext&#45;&gt;Test -->
<g id="edge98" class="edge"><title>TestRunContext&#45;&gt;Test</title>
<path fill="none" stroke="black" d="M4940.43,-183.404C4932.63,-180.109 4923.26,-176.727 4914.42,-175 4863.59,-165.071 4499.84,-173.128 4448.42,-167 4345.31,-154.712 4323.01,-132.029 4220.42,-116 3956.32,-74.738 3888.37,-75.6938 3621.42,-62 3010.14,-30.6434 962.65,-25.5593 710.049,-25.0478"/>
<polygon fill="black" stroke="black" points="709.693,-21.5472 699.686,-25.0273 709.679,-28.5471 709.693,-21.5472"/>
</g>
<!-- TestRunner$1 -->
<g id="node81" class="node"><title>TestRunner$1</title>
<polygon fill="none" stroke="black" points="6271.42,-200.5 6207.42,-200.5 6207.42,-183.5 6271.42,-183.5 6271.42,-200.5"/>
<text text-anchor="middle" x="6239.42" y="-189.3" font-family="Times,serif" font-size="8.00">TestRunner$1</text>
</g>
<!-- TestRunner$1&#45;&gt;Test -->
<g id="edge104" class="edge"><title>TestRunner$1&#45;&gt;Test</title>
<path fill="none" stroke="black" d="M6222.71,-183.438C6215.44,-180.149 6206.71,-176.762 6198.42,-175 6131.01,-160.673 5957.17,-171.698 5888.42,-167 5683.64,-153.006 5633.93,-133.425 5429.42,-116 5026.17,-81.6422 4924.89,-75.956 4520.42,-62 3714.57,-34.1946 1001.28,-25.8871 709.846,-25.0691"/>
<polygon fill="black" stroke="black" points="709.482,-21.5682 699.473,-25.0403 709.463,-28.5682 709.482,-21.5682"/>
</g>
<!-- TestRunner$1&#45;&gt;TestResult -->
<g id="edge102" class="edge"><title>TestRunner$1&#45;&gt;TestResult</title>
<path fill="none" stroke="black" d="M6222.73,-183.34C6215.47,-180.033 6206.73,-176.661 6198.42,-175 6159.26,-167.176 485.408,-182.039 448.418,-167 439.589,-163.411 431.761,-156.41 425.759,-149.689"/>
<polygon fill="black" stroke="black" points="428.215,-147.162 419.195,-141.604 422.781,-151.574 428.215,-147.162"/>
</g>
<!-- TestRunner$1&#45;&gt;CounterPanel -->
<g id="edge100" class="edge"><title>TestRunner$1&#45;&gt;CounterPanel</title>
<path fill="none" stroke="black" d="M6222.72,-183.378C6215.46,-180.078 6206.72,-176.7 6198.42,-175 6118.19,-158.573 5541.37,-184.731 5461.42,-167 5443.16,-162.951 5423.98,-154.162 5409.58,-146.535"/>
<polygon fill="black" stroke="black" points="5410.9,-143.266 5400.45,-141.513 5407.53,-149.399 5410.9,-143.266"/>
</g>
<!-- TestRunner$16 -->
<g id="node86" class="node"><title>TestRunner$16</title>
<polygon fill="none" stroke="black" points="4435.42,-200.5 4367.42,-200.5 4367.42,-183.5 4435.42,-183.5 4435.42,-200.5"/>
<text text-anchor="middle" x="4401.42" y="-189.3" font-family="Times,serif" font-size="8.00">TestRunner$16</text>
</g>
<!-- TestRunner$16&#45;&gt;Test -->
<g id="edge108" class="edge"><title>TestRunner$16&#45;&gt;Test</title>
<path fill="none" stroke="black" d="M4383.86,-183.421C4376.23,-180.128 4367.07,-176.744 4358.42,-175 4276.27,-158.446 4064.65,-176.712 3981.42,-167 3873.97,-154.463 3850.64,-130.359 3743.42,-116 3110.36,-31.2227 968.27,-25.4203 709.976,-25.0281"/>
<polygon fill="black" stroke="black" points="709.722,-21.5279 699.717,-25.014 709.712,-28.5278 709.722,-21.5279"/>
</g>
<!-- TestRunner$16&#45;&gt;TestResult -->
<g id="edge106" class="edge"><title>TestRunner$16&#45;&gt;TestResult</title>
<path fill="none" stroke="black" d="M4383.88,-183.34C4376.25,-180.034 4367.09,-176.661 4358.42,-175 4331.75,-169.891 473.568,-177.235 448.418,-167 439.59,-163.408 431.762,-156.407 425.76,-149.687"/>
<polygon fill="black" stroke="black" points="428.216,-147.159 419.196,-141.602 422.782,-151.572 428.216,-147.159"/>
</g>
<!-- TestRunner$16&#45;&gt;BaseTestRunner -->
<g id="edge110" class="edge"><title>TestRunner$16&#45;&gt;BaseTestRunner</title>
<path fill="none" stroke="black" d="M4383.87,-183.343C4376.25,-180.037 4367.09,-176.665 4358.42,-175 4319.57,-167.543 1547.9,-179.628 1510.42,-167 1499.4,-163.288 1488.92,-155.704 1480.85,-148.639"/>
<polygon fill="black" stroke="black" points="1483.08,-145.933 1473.39,-141.648 1478.29,-151.04 1483.08,-145.933"/>
</g>
<!-- TestRunner$18 -->
<g id="node90" class="node"><title>TestRunner$18</title>
<polygon fill="none" stroke="black" points="5417.42,-200.5 5349.42,-200.5 5349.42,-183.5 5417.42,-183.5 5417.42,-200.5"/>
<text text-anchor="middle" x="5383.42" y="-189.3" font-family="Times,serif" font-size="8.00">TestRunner$18</text>
</g>
<!-- TestRunner$18&#45;&gt;ProgressBar -->
<g id="edge116" class="edge"><title>TestRunner$18&#45;&gt;ProgressBar</title>
<path fill="none" stroke="black" d="M5416.6,-183.417C5430.37,-180.208 5446.57,-176.888 5461.42,-175 5672.47,-148.17 6350.14,-136.178 6519.02,-133.563"/>
<polygon fill="black" stroke="black" points="6519.23,-137.06 6529.17,-133.407 6519.12,-130.061 6519.23,-137.06"/>
</g>
<!-- TestRunner$18&#45;&gt;Test -->
<g id="edge114" class="edge"><title>TestRunner$18&#45;&gt;Test</title>
<path fill="none" stroke="black" d="M5364.47,-183.406C5357.1,-180.353 5348.49,-177.145 5340.42,-175 5162.93,-127.806 5113.84,-137.323 4931.42,-116 4664.6,-84.8117 4597.71,-75.3739 4329.42,-62 3945.84,-42.8795 1012.26,-26.7517 709.617,-25.1334"/>
<polygon fill="black" stroke="black" points="709.631,-21.6336 699.613,-25.0801 709.594,-28.6335 709.631,-21.6336"/>
</g>
<!-- TestRunner$18&#45;&gt;CounterPanel -->
<g id="edge112" class="edge"><title>TestRunner$18&#45;&gt;CounterPanel</title>
<path fill="none" stroke="black" d="M5383.86,-183.294C5384.28,-175.102 5384.91,-162.558 5385.45,-152.047"/>
<polygon fill="black" stroke="black" points="5388.96,-151.906 5385.97,-141.741 5381.97,-151.551 5388.96,-151.906"/>
</g>
<!-- TestRunner$2 -->
<g id="node94" class="node"><title>TestRunner$2</title>
<polygon fill="none" stroke="black" points="6589.42,-200.5 6525.42,-200.5 6525.42,-183.5 6589.42,-183.5 6589.42,-200.5"/>
<text text-anchor="middle" x="6557.42" y="-189.3" font-family="Times,serif" font-size="8.00">TestRunner$2</text>
</g>
<!-- TestRunner$2&#45;&gt;ProgressBar -->
<g id="edge122" class="edge"><title>TestRunner$2&#45;&gt;ProgressBar</title>
<path fill="none" stroke="black" d="M6557.42,-183.294C6557.42,-175.102 6557.42,-162.558 6557.42,-152.047"/>
<polygon fill="black" stroke="black" points="6560.92,-151.741 6557.42,-141.741 6553.92,-151.741 6560.92,-151.741"/>
</g>
<!-- TestRunner$2&#45;&gt;TestResult -->
<g id="edge120" class="edge"><title>TestRunner$2&#45;&gt;TestResult</title>
<path fill="none" stroke="black" d="M6540.73,-183.339C6533.47,-180.033 6524.73,-176.661 6516.42,-175 6475.1,-166.744 487.455,-182.869 448.418,-167 439.589,-163.411 431.761,-156.41 425.759,-149.69"/>
<polygon fill="black" stroke="black" points="428.215,-147.162 419.195,-141.604 422.78,-151.574 428.215,-147.162"/>
</g>
<!-- TestRunner$2&#45;&gt;CounterPanel -->
<g id="edge118" class="edge"><title>TestRunner$2&#45;&gt;CounterPanel</title>
<path fill="none" stroke="black" d="M6540.73,-183.365C6533.46,-180.063 6524.72,-176.687 6516.42,-175 6458.98,-163.337 5518.66,-179.597 5461.42,-167 5443.15,-162.981 5423.97,-154.192 5409.58,-146.556"/>
<polygon fill="black" stroke="black" points="5410.9,-143.287 5400.45,-141.528 5407.52,-149.418 5410.9,-143.287"/>
</g>
<!-- TestRunner$3 -->
<g id="node98" class="node"><title>TestRunner$3</title>
<polygon fill="none" stroke="black" points="6353.42,-200.5 6289.42,-200.5 6289.42,-183.5 6353.42,-183.5 6353.42,-200.5"/>
<text text-anchor="middle" x="6321.42" y="-189.3" font-family="Times,serif" font-size="8.00">TestRunner$3</text>
</g>
<!-- TestRunner$3&#45;&gt;Test -->
<g id="edge126" class="edge"><title>TestRunner$3&#45;&gt;Test</title>
<path fill="none" stroke="black" d="M6303.85,-183.371C6296.73,-180.236 6288.34,-176.981 6280.42,-175 6017.46,-109.261 5943.61,-137.588 5673.42,-116 5290.78,-85.4274 5195.03,-75.7256 4811.42,-62 3942.72,-30.9186 1013.5,-25.5173 709.904,-25.0379"/>
<polygon fill="black" stroke="black" points="709.51,-21.5374 699.505,-25.0218 709.499,-28.5374 709.51,-21.5374"/>
</g>
<!-- TestRunner$3&#45;&gt;TestResult -->
<g id="edge124" class="edge"><title>TestRunner$3&#45;&gt;TestResult</title>
<path fill="none" stroke="black" d="M6304.73,-183.339C6297.47,-180.033 6288.73,-176.661 6280.42,-175 6240.7,-167.064 485.936,-182.253 448.418,-167 439.589,-163.411 431.761,-156.41 425.759,-149.689"/>
<polygon fill="black" stroke="black" points="428.215,-147.162 419.195,-141.604 422.781,-151.574 428.215,-147.162"/>
</g>
<!-- TestRunView -->
<g id="node124" class="node"><title>TestRunView</title>
<polygon fill="none" stroke="black" points="4135.42,-200.5 4073.42,-200.5 4073.42,-183.5 4135.42,-183.5 4135.42,-200.5"/>
<text text-anchor="middle" x="4104.42" y="-189.3" font-family="Times,serif" font-size="8.00">TestRunView</text>
</g>
<!-- TestRunView&#45;&gt;Test -->
<g id="edge170" class="edge"><title>TestRunView&#45;&gt;Test</title>
<path fill="none" stroke="black" d="M4087.73,-183.356C4080.72,-180.138 4072.36,-176.827 4064.42,-175 4029.94,-167.07 3940.74,-168.924 3905.42,-167 3108.79,-123.621 2910.52,-95.6629 2113.42,-62 1545.49,-38.0154 849.893,-27.3305 709.717,-25.3465"/>
<polygon fill="black" stroke="black" points="709.612,-21.8447 699.564,-25.2043 709.514,-28.8441 709.612,-21.8447"/>
</g>
<!-- TestRunView&#45;&gt;TestResult -->
<g id="edge168" class="edge"><title>TestRunView&#45;&gt;TestResult</title>
<path fill="none" stroke="black" d="M4088.16,-183.344C4081.08,-180.039 4072.55,-176.666 4064.42,-175 4039.82,-169.961 471.676,-176.467 448.418,-167 439.591,-163.407 431.763,-156.406 425.76,-149.686"/>
<polygon fill="black" stroke="black" points="428.217,-147.159 419.196,-141.602 422.783,-151.571 428.217,-147.159"/>
</g>
<!-- TestSelector$ParallelSwapper -->
<g id="node127" class="node"><title>TestSelector$ParallelSwapper</title>
<polygon fill="none" stroke="black" points="4821.42,-200.5 4705.42,-200.5 4705.42,-183.5 4821.42,-183.5 4821.42,-200.5"/>
<text text-anchor="middle" x="4763.42" y="-189.3" font-family="Times,serif" font-size="8.00">TestSelector$ParallelSwapper</text>
</g>
<!-- Sorter$Swapper -->
<g id="node129" class="node"><title>Sorter$Swapper</title>
<polygon fill="none" stroke="black" points="1897.42,-141.5 1829.42,-141.5 1829.42,-124.5 1897.42,-124.5 1897.42,-141.5"/>
<text text-anchor="middle" x="1863.42" y="-130.3" font-family="Times,serif" font-size="8.00">Sorter$Swapper</text>
</g>
<!-- TestSelector$ParallelSwapper&#45;&gt;Sorter$Swapper -->
<g id="edge172" class="edge"><title>TestSelector$ParallelSwapper&#45;&gt;Sorter$Swapper</title>
<path fill="none" stroke="black" d="M4736,-183.424C4723.98,-180.088 4709.63,-176.67 4696.42,-175 4658.01,-170.148 1946.17,-179.165 1909.42,-167 1898.1,-163.255 1887.29,-155.55 1878.99,-148.421"/>
<polygon fill="black" stroke="black" points="1881.35,-145.829 1871.61,-141.651 1876.61,-150.989 1881.35,-145.829"/>
</g>
<!-- TestSelector -->
<g id="node130" class="node"><title>TestSelector</title>
<polygon fill="none" stroke="black" points="4687.42,-200.5 4629.42,-200.5 4629.42,-183.5 4687.42,-183.5 4687.42,-200.5"/>
<text text-anchor="middle" x="4658.42" y="-189.3" font-family="Times,serif" font-size="8.00">TestSelector</text>
</g>
<!-- TestSelector&#45;&gt;TestCollector -->
<g id="edge178" class="edge"><title>TestSelector&#45;&gt;TestCollector</title>
<path fill="none" stroke="black" d="M4643.02,-183.348C4636.3,-180.044 4628.19,-176.67 4620.42,-175 4579.25,-166.154 1627.83,-181.828 1588.42,-167 1578.75,-163.363 1569.9,-156.132 1563.08,-149.271"/>
<polygon fill="black" stroke="black" points="1565.42,-146.639 1556.08,-141.623 1560.25,-151.364 1565.42,-146.639"/>
</g>
<!-- TestSelector&#45;&gt;Sorter$Swapper -->
<g id="edge176" class="edge"><title>TestSelector&#45;&gt;Sorter$Swapper</title>
<path fill="none" stroke="black" d="M4643.02,-183.35C4636.3,-180.045 4628.19,-176.671 4620.42,-175 4583.61,-167.084 1945.16,-178.835 1909.42,-167 1898.1,-163.254 1887.29,-155.55 1878.99,-148.42"/>
<polygon fill="black" stroke="black" points="1881.35,-145.829 1871.61,-141.651 1876.61,-150.989 1881.35,-145.829"/>
</g>
<!-- Sorter -->
<g id="node132" class="node"><title>Sorter</title>
<polygon fill="none" stroke="black" points="1811.42,-141.5 1775.42,-141.5 1775.42,-124.5 1811.42,-124.5 1811.42,-141.5"/>
<text text-anchor="middle" x="1793.42" y="-130.3" font-family="Times,serif" font-size="8.00">Sorter</text>
</g>
<!-- TestSelector&#45;&gt;Sorter -->
<g id="edge174" class="edge"><title>TestSelector&#45;&gt;Sorter</title>
<path fill="none" stroke="black" d="M4643.02,-183.349C4636.3,-180.045 4628.19,-176.671 4620.42,-175 4582.4,-166.826 1855.41,-183.959 1820.42,-167 1813.13,-163.466 1807.2,-156.905 1802.77,-150.482"/>
<polygon fill="black" stroke="black" points="1805.54,-148.297 1797.38,-141.539 1799.55,-151.91 1805.54,-148.297"/>
</g>
<!-- TestSuitePanel$1 -->
<g id="node135" class="node"><title>TestSuitePanel$1</title>
<polygon fill="none" stroke="black" points="5085.42,-200.5 5011.42,-200.5 5011.42,-183.5 5085.42,-183.5 5085.42,-200.5"/>
<text text-anchor="middle" x="5048.42" y="-189.3" font-family="Times,serif" font-size="8.00">TestSuitePanel$1</text>
</g>
<!-- TestSuitePanel$1&#45;&gt;Test -->
<g id="edge180" class="edge"><title>TestSuitePanel$1&#45;&gt;Test</title>
<path fill="none" stroke="black" d="M5029.58,-183.404C5021.41,-180.109 5011.62,-176.727 5002.42,-175 4899.53,-155.694 4635.01,-182.062 4531.42,-167 4447.86,-154.851 4431.36,-131.791 4348.42,-116 4122.33,-72.9575 4063.17,-75.3663 3833.42,-62 3503.68,-42.8168 990.58,-26.8811 709.883,-25.1549"/>
<polygon fill="black" stroke="black" points="709.53,-21.6528 699.509,-25.0913 709.487,-28.6526 709.53,-21.6528"/>
</g>
<!-- TestSuitePanel$TestTreeCellRenderer -->
<g id="node137" class="node"><title>TestSuitePanel$TestTreeCellRenderer</title>
<polygon fill="none" stroke="black" points="5247.42,-200.5 5103.42,-200.5 5103.42,-183.5 5247.42,-183.5 5247.42,-200.5"/>
<text text-anchor="middle" x="5175.42" y="-189.3" font-family="Times,serif" font-size="8.00">TestSuitePanel$TestTreeCellRenderer</text>
</g>
<!-- TestSuitePanel$TestTreeCellRenderer&#45;&gt;TestRunner -->
<g id="edge182" class="edge"><title>TestSuitePanel$TestTreeCellRenderer&#45;&gt;TestRunner</title>
<path fill="none" stroke="black" d="M5160.17,-200.549C5144.31,-208.918 5118.48,-221.104 5094.42,-226 5031.34,-238.837 695.72,-245.304 241.743,-245.947"/>
<polygon fill="black" stroke="black" points="241.448,-242.447 231.453,-245.961 241.458,-249.447 241.448,-242.447"/>
</g>
<!-- TestSuitePanel$TestTreeCellRenderer&#45;&gt;Test -->
<g id="edge184" class="edge"><title>TestSuitePanel$TestTreeCellRenderer&#45;&gt;Test</title>
<path fill="none" stroke="black" d="M5141.75,-183.487C5127.28,-180.206 5110.12,-176.813 5094.42,-175 4940.73,-157.259 4900.38,-182.129 4746.42,-167 4615.31,-154.117 4584.71,-135.491 4454.42,-116 4262.62,-87.3079 4214.91,-75.096 4021.42,-62 3671.67,-38.3284 1000.8,-26.3457 710.068,-25.1072"/>
<polygon fill="black" stroke="black" points="709.716,-21.6058 699.702,-25.0634 709.687,-28.6058 709.716,-21.6058"/>
</g>
<!-- TestSuitePanel -->
<g id="node140" class="node"><title>TestSuitePanel</title>
<polygon fill="none" stroke="black" points="4905.42,-200.5 4839.42,-200.5 4839.42,-183.5 4905.42,-183.5 4905.42,-200.5"/>
<text text-anchor="middle" x="4872.42" y="-189.3" font-family="Times,serif" font-size="8.00">TestSuitePanel</text>
</g>
<!-- TestSuitePanel&#45;&gt;AssertionFailedError -->
<g id="edge186" class="edge"><title>TestSuitePanel&#45;&gt;AssertionFailedError</title>
<path fill="none" stroke="black" d="M4855.3,-183.375C4847.85,-180.075 4838.9,-176.697 4830.42,-175 4787.76,-166.468 4090.9,-168.289 4047.42,-167 3096.47,-138.801 2860.18,-95.9975 1909.42,-62 1354.52,-42.1579 1215.29,-54.5652 660.418,-34 620.012,-32.5024 574.362,-30.115 539.96,-28.1752"/>
<polygon fill="black" stroke="black" points="539.846,-24.6632 529.664,-27.5891 539.449,-31.6519 539.846,-24.6632"/>
</g>
<!-- TestSuitePanel&#45;&gt;Test -->
<g id="edge190" class="edge"><title>TestSuitePanel&#45;&gt;Test</title>
<path fill="none" stroke="black" d="M4855.29,-183.404C4847.84,-180.108 4838.9,-176.727 4830.42,-175 4779.78,-164.688 4416.89,-171.547 4365.42,-167 4222.83,-154.404 4189.49,-133.419 4047.42,-116 3766.72,-81.5853 3695.87,-75.9258 3413.42,-62 2846.53,-34.0507 950.669,-26.0092 709.686,-25.0923"/>
<polygon fill="black" stroke="black" points="709.486,-21.5916 699.473,-25.0539 709.46,-28.5915 709.486,-21.5916"/>
</g>
<!-- TestSuitePanel&#45;&gt;TestListener -->
<g id="edge188" class="edge"><title>TestSuitePanel&#45;&gt;TestListener</title>
<path fill="none" stroke="black" d="M4855.3,-183.341C4847.86,-180.034 4838.91,-176.662 4830.42,-175 4718.13,-153.024 823.832,-188.314 711.418,-167 635.277,-152.563 551.839,-113.126 511.3,-92.2957"/>
<polygon fill="black" stroke="black" points="512.662,-89.0589 502.176,-87.5472 509.431,-95.2683 512.662,-89.0589"/>
</g>
<!-- TestTreeModel -->
<g id="node144" class="node"><title>TestTreeModel</title>
<polygon fill="none" stroke="black" points="5331.42,-200.5 5265.42,-200.5 5265.42,-183.5 5331.42,-183.5 5331.42,-200.5"/>
<text text-anchor="middle" x="5298.42" y="-189.3" font-family="Times,serif" font-size="8.00">TestTreeModel</text>
</g>
<!-- TestTreeModel&#45;&gt;TestDecorator -->
<g id="edge192" class="edge"><title>TestTreeModel&#45;&gt;TestDecorator</title>
<path fill="none" stroke="black" d="M5305.61,-200.638C5314.6,-210.608 5331.07,-226.247 5349.42,-231 5367.53,-235.693 6678.31,-235.693 6696.42,-231 6711.29,-227.147 6725.26,-216.795 6735.27,-207.724"/>
<polygon fill="black" stroke="black" points="6737.91,-210.04 6742.67,-200.577 6733.05,-205.004 6737.91,-210.04"/>
</g>
<!-- TestTreeModel&#45;&gt;Test -->
<g id="edge196" class="edge"><title>TestTreeModel&#45;&gt;Test</title>
<path fill="none" stroke="black" d="M5280.84,-183.432C5273.47,-180.226 5264.7,-176.903 5256.42,-175 5204.76,-163.129 5190.23,-171.611 5137.42,-167 4702.35,-129.012 4596.38,-87.6874 4160.42,-62 3795.35,-40.4901 1005.53,-26.5432 709.776,-25.1203"/>
<polygon fill="black" stroke="black" points="709.632,-21.6197 699.615,-25.0717 709.598,-28.6196 709.632,-21.6197"/>
</g>
<!-- TestTreeModel&#45;&gt;TestSuite -->
<g id="edge194" class="edge"><title>TestTreeModel&#45;&gt;TestSuite</title>
<path fill="none" stroke="black" d="M5291.23,-200.638C5282.23,-210.608 5265.76,-226.247 5247.42,-231 5225.04,-236.799 1941.53,-231.309 1918.42,-231 1349.54,-223.388 656.068,-199.064 495.649,-193.255"/>
<polygon fill="black" stroke="black" points="495.564,-189.75 485.444,-192.884 495.31,-196.745 495.564,-189.75"/>
</g>
<!-- ResultPrinter&#45;&gt;AssertionFailedError -->
<g id="edge200" class="edge"><title>ResultPrinter&#45;&gt;AssertionFailedError</title>
<path fill="none" stroke="black" d="M171.294,-189.901C123.072,-186.23 32.9639,-177.98 23.4178,-167 -7.19983,-131.782 -8.23889,-96.2875 23.4178,-62 30.3027,-54.543 312.863,-35.9221 433.123,-28.3158"/>
<polygon fill="black" stroke="black" points="433.454,-31.802 443.213,-27.6793 433.013,-24.8158 433.454,-31.802"/>
</g>
<!-- ResultPrinter&#45;&gt;Test -->
<g id="edge208" class="edge"><title>ResultPrinter&#45;&gt;Test</title>
<path fill="none" stroke="black" d="M171.353,-189.727C140.652,-186.707 96.0304,-180.143 85.4178,-167 71.1782,-149.365 71.8736,-134.175 85.4178,-116 135.58,-48.687 183.966,-77.7811 266.418,-62 342.461,-47.4455 580.374,-31.5537 658.95,-26.5782"/>
<polygon fill="black" stroke="black" points="659.588,-30.0451 669.348,-25.9247 659.148,-23.0588 659.588,-30.0451"/>
</g>
<!-- ResultPrinter&#45;&gt;TestFailure -->
<g id="edge198" class="edge"><title>ResultPrinter&#45;&gt;TestFailure</title>
<path fill="none" stroke="black" d="M201.985,-183.142C203.556,-166.796 209.444,-132.092 231.418,-116 265.792,-90.8264 558.054,-94.418 633.124,-87.5705"/>
<polygon fill="black" stroke="black" points="633.715,-91.0252 643.235,-86.3759 632.893,-84.0735 633.715,-91.0252"/>
</g>
<!-- ResultPrinter&#45;&gt;TestListener -->
<g id="edge202" class="edge"><title>ResultPrinter&#45;&gt;TestListener</title>
<path fill="none" stroke="black" d="M171.417,-188.728C144.614,-185.112 108.252,-178.261 99.4178,-167 85.4273,-149.166 84.0847,-132.694 99.4178,-116 124.236,-88.9803 391.991,-92.371 428.418,-88 434.446,-87.2767 440.809,-86.4026 447.026,-85.4871"/>
<polygon fill="black" stroke="black" points="447.905,-88.8935 457.263,-83.9265 446.85,-81.9735 447.905,-88.8935"/>
</g>
<!-- ResultPrinter&#45;&gt;TestResult -->
<g id="edge206" class="edge"><title>ResultPrinter&#45;&gt;TestResult</title>
<path fill="none" stroke="black" d="M219.425,-183.324C226.713,-180.183 235.307,-176.936 243.418,-175 284.632,-165.163 297.414,-177.681 338.418,-167 356.178,-162.374 374.986,-153.837 389.325,-146.476"/>
<polygon fill="black" stroke="black" points="391.273,-149.405 398.47,-141.63 387.995,-143.22 391.273,-149.405"/>
</g>
<!-- ResultPrinter&#45;&gt;BaseTestRunner -->
<g id="edge204" class="edge"><title>ResultPrinter&#45;&gt;BaseTestRunner</title>
<path fill="none" stroke="black" d="M218.536,-183.361C225.982,-180.058 234.93,-176.683 243.418,-175 275.489,-168.642 1389.45,-177.499 1420.42,-167 1431.43,-163.266 1441.91,-155.68 1449.98,-148.62"/>
<polygon fill="black" stroke="black" points="1452.53,-151.025 1457.44,-141.635 1447.75,-145.915 1452.53,-151.025"/>
</g>
<!-- StandardTestSuiteLoader&#45;&gt;TestRunner$10 -->
<!-- ActiveTestSuite -->
<g id="node168" class="node"><title>ActiveTestSuite</title>
<polygon fill="none" stroke="black" points="7057.42,-254.5 6987.42,-254.5 6987.42,-237.5 7057.42,-237.5 7057.42,-254.5"/>
<text text-anchor="middle" x="7022.42" y="-243.3" font-family="Times,serif" font-size="8.00">ActiveTestSuite</text>
</g>
<!-- ActiveTestSuite$1 -->
<g id="node169" class="node"><title>ActiveTestSuite$1</title>
<polygon fill="none" stroke="black" points="6969.42,-254.5 6893.42,-254.5 6893.42,-237.5 6969.42,-237.5 6969.42,-254.5"/>
<text text-anchor="middle" x="6931.42" y="-243.3" font-family="Times,serif" font-size="8.00">ActiveTestSuite$1</text>
</g>
<!-- RepeatedTest -->
<g id="node170" class="node"><title>RepeatedTest</title>
<polygon fill="none" stroke="black" points="6875.42,-254.5 6815.42,-254.5 6815.42,-237.5 6875.42,-237.5 6875.42,-254.5"/>
<text text-anchor="middle" x="6845.42" y="-243.3" font-family="Times,serif" font-size="8.00">RepeatedTest</text>
</g>
<!-- ExceptionTestCase -->
<g id="node171" class="node"><title>ExceptionTestCase</title>
<polygon fill="none" stroke="black" points="6797.42,-254.5 6717.42,-254.5 6717.42,-237.5 6797.42,-237.5 6797.42,-254.5"/>
<text text-anchor="middle" x="6757.42" y="-243.3" font-family="Times,serif" font-size="8.00">ExceptionTestCase</text>
</g>
<!-- ReloadingTestSuiteLoader -->
<g id="node176" class="node"><title>ReloadingTestSuiteLoader</title>
<polygon fill="none" stroke="black" points="1021.42,-141.5 917.418,-141.5 917.418,-124.5 1021.42,-124.5 1021.42,-141.5"/>
<text text-anchor="middle" x="969.418" y="-130.3" font-family="Times,serif" font-size="8.00">ReloadingTestSuiteLoader</text>
</g>
<!-- TestRunListener -->
<g id="node177" class="node"><title>TestRunListener</title>
<polygon fill="none" stroke="black" points="899.418,-141.5 827.418,-141.5 827.418,-124.5 899.418,-124.5 899.418,-141.5"/>
<text text-anchor="middle" x="863.418" y="-130.3" font-family="Times,serif" font-size="8.00">TestRunListener</text>
</g>
<!-- TestCaseClassLoader -->
<g id="node178" class="node"><title>TestCaseClassLoader</title>
<polygon fill="none" stroke="black" points="809.418,-141.5 723.418,-141.5 723.418,-124.5 809.418,-124.5 809.418,-141.5"/>
<text text-anchor="middle" x="766.418" y="-130.3" font-family="Times,serif" font-size="8.00">TestCaseClassLoader</text>
</g>
<!-- AboutDialog$1 -->
<g id="node181" class="node"><title>AboutDialog$1</title>
<polygon fill="none" stroke="black" points="6113.42,-200.5 6049.42,-200.5 6049.42,-183.5 6113.42,-183.5 6113.42,-200.5"/>
<text text-anchor="middle" x="6081.42" y="-189.3" font-family="Times,serif" font-size="8.00">AboutDialog$1</text>
</g>
<!-- TestRunner$4 -->
<g id="node182" class="node"><title>TestRunner$4</title>
<polygon fill="none" stroke="black" points="6031.42,-200.5 5967.42,-200.5 5967.42,-183.5 6031.42,-183.5 6031.42,-200.5"/>
<text text-anchor="middle" x="5999.42" y="-189.3" font-family="Times,serif" font-size="8.00">TestRunner$4</text>
</g>
<!-- AboutDialog$2 -->
<g id="node183" class="node"><title>AboutDialog$2</title>
<polygon fill="none" stroke="black" points="5949.42,-200.5 5883.42,-200.5 5883.42,-183.5 5949.42,-183.5 5949.42,-200.5"/>
<text text-anchor="middle" x="5916.42" y="-189.3" font-family="Times,serif" font-size="8.00">AboutDialog$2</text>
</g>
<!-- TestRunner$7 -->
<g id="node184" class="node"><title>TestRunner$7</title>
<polygon fill="none" stroke="black" points="5865.42,-200.5 5801.42,-200.5 5801.42,-183.5 5865.42,-183.5 5865.42,-200.5"/>
<text text-anchor="middle" x="5833.42" y="-189.3" font-family="Times,serif" font-size="8.00">TestRunner$7</text>
</g>
<!-- TestRunner$6 -->
<g id="node185" class="node"><title>TestRunner$6</title>
<polygon fill="none" stroke="black" points="5783.42,-200.5 5719.42,-200.5 5719.42,-183.5 5783.42,-183.5 5783.42,-200.5"/>
<text text-anchor="middle" x="5751.42" y="-189.3" font-family="Times,serif" font-size="8.00">TestRunner$6</text>
</g>
<!-- TestRunner$5 -->
<g id="node186" class="node"><title>TestRunner$5</title>
<polygon fill="none" stroke="black" points="5701.42,-200.5 5637.42,-200.5 5637.42,-183.5 5701.42,-183.5 5701.42,-200.5"/>
<text text-anchor="middle" x="5669.42" y="-189.3" font-family="Times,serif" font-size="8.00">TestRunner$5</text>
</g>
<!-- TestRunner$8 -->
<g id="node187" class="node"><title>TestRunner$8</title>
<polygon fill="none" stroke="black" points="5619.42,-200.5 5555.42,-200.5 5555.42,-183.5 5619.42,-183.5 5619.42,-200.5"/>
<text text-anchor="middle" x="5587.42" y="-189.3" font-family="Times,serif" font-size="8.00">TestRunner$8</text>
</g>
<!-- TestRunner$9 -->
<g id="node188" class="node"><title>TestRunner$9</title>
<polygon fill="none" stroke="black" points="5537.42,-200.5 5473.42,-200.5 5473.42,-183.5 5537.42,-183.5 5537.42,-200.5"/>
<text text-anchor="middle" x="5505.42" y="-189.3" font-family="Times,serif" font-size="8.00">TestRunner$9</text>
</g>
<!-- TestSelector$KeySelectListener -->
<g id="node191" class="node"><title>TestSelector$KeySelectListener</title>
<polygon fill="none" stroke="black" points="3871.42,-200.5 3749.42,-200.5 3749.42,-183.5 3871.42,-183.5 3871.42,-200.5"/>
<text text-anchor="middle" x="3810.42" y="-189.3" font-family="Times,serif" font-size="8.00">TestSelector$KeySelectListener</text>
</g>
<!-- TestRunner$15 -->
<g id="node192" class="node"><title>TestRunner$15</title>
<polygon fill="none" stroke="black" points="3731.42,-200.5 3663.42,-200.5 3663.42,-183.5 3731.42,-183.5 3731.42,-200.5"/>
<text text-anchor="middle" x="3697.42" y="-189.3" font-family="Times,serif" font-size="8.00">TestRunner$15</text>
</g>
<!-- TestHierarchyRunView$1 -->
<g id="node193" class="node"><title>TestHierarchyRunView$1</title>
<polygon fill="none" stroke="black" points="3645.42,-200.5 3541.42,-200.5 3541.42,-183.5 3645.42,-183.5 3645.42,-200.5"/>
<text text-anchor="middle" x="3593.42" y="-189.3" font-family="Times,serif" font-size="8.00">TestHierarchyRunView$1</text>
</g>
<!-- TestRunner$13 -->
<g id="node194" class="node"><title>TestRunner$13</title>
<polygon fill="none" stroke="black" points="3523.42,-200.5 3455.42,-200.5 3455.42,-183.5 3523.42,-183.5 3523.42,-200.5"/>
<text text-anchor="middle" x="3489.42" y="-189.3" font-family="Times,serif" font-size="8.00">TestRunner$13</text>
</g>
<!-- DefaultFailureDetailView$StackTraceListModel -->
<g id="node195" class="node"><title>DefaultFailureDetailView$StackTraceListModel</title>
<polygon fill="none" stroke="black" points="3437.42,-200.5 3259.42,-200.5 3259.42,-183.5 3437.42,-183.5 3437.42,-200.5"/>
<text text-anchor="middle" x="3348.42" y="-189.3" font-family="Times,serif" font-size="8.00">DefaultFailureDetailView$StackTraceListModel</text>
</g>
<!-- TestSelector$4 -->
<g id="node196" class="node"><title>TestSelector$4</title>
<polygon fill="none" stroke="black" points="3241.42,-200.5 3177.42,-200.5 3177.42,-183.5 3241.42,-183.5 3241.42,-200.5"/>
<text text-anchor="middle" x="3209.42" y="-189.3" font-family="Times,serif" font-size="8.00">TestSelector$4</text>
</g>
<!-- FailureRunView$1 -->
<g id="node197" class="node"><title>FailureRunView$1</title>
<polygon fill="none" stroke="black" points="3159.42,-200.5 3079.42,-200.5 3079.42,-183.5 3159.42,-183.5 3159.42,-200.5"/>
<text text-anchor="middle" x="3119.42" y="-189.3" font-family="Times,serif" font-size="8.00">FailureRunView$1</text>
</g>
<!-- TestRunner$19 -->
<g id="node198" class="node"><title>TestRunner$19</title>
<polygon fill="none" stroke="black" points="3061.42,-200.5 2993.42,-200.5 2993.42,-183.5 3061.42,-183.5 3061.42,-200.5"/>
<text text-anchor="middle" x="3027.42" y="-189.3" font-family="Times,serif" font-size="8.00">TestRunner$19</text>
</g>
<!-- TestSelector$3 -->
<g id="node199" class="node"><title>TestSelector$3</title>
<polygon fill="none" stroke="black" points="2975.42,-200.5 2911.42,-200.5 2911.42,-183.5 2975.42,-183.5 2975.42,-200.5"/>
<text text-anchor="middle" x="2943.42" y="-189.3" font-family="Times,serif" font-size="8.00">TestSelector$3</text>
</g>
<!-- TestRunner$14 -->
<g id="node200" class="node"><title>TestRunner$14</title>
<polygon fill="none" stroke="black" points="2893.42,-200.5 2825.42,-200.5 2825.42,-183.5 2893.42,-183.5 2893.42,-200.5"/>
<text text-anchor="middle" x="2859.42" y="-189.3" font-family="Times,serif" font-size="8.00">TestRunner$14</text>
</g>
<!-- TestSelector$DoubleClickListener -->
<g id="node201" class="node"><title>TestSelector$DoubleClickListener</title>
<polygon fill="none" stroke="black" points="2807.42,-200.5 2677.42,-200.5 2677.42,-183.5 2807.42,-183.5 2807.42,-200.5"/>
<text text-anchor="middle" x="2742.42" y="-189.3" font-family="Times,serif" font-size="8.00">TestSelector$DoubleClickListener</text>
</g>
<!-- TestRunner$12 -->
<g id="node202" class="node"><title>TestRunner$12</title>
<polygon fill="none" stroke="black" points="2659.42,-200.5 2591.42,-200.5 2591.42,-183.5 2659.42,-183.5 2659.42,-200.5"/>
<text text-anchor="middle" x="2625.42" y="-189.3" font-family="Times,serif" font-size="8.00">TestRunner$12</text>
</g>
<!-- DefaultFailureDetailView$StackEntryRenderer -->
<g id="node203" class="node"><title>DefaultFailureDetailView$StackEntryRenderer</title>
<polygon fill="none" stroke="black" points="2573.42,-200.5 2397.42,-200.5 2397.42,-183.5 2573.42,-183.5 2573.42,-200.5"/>
<text text-anchor="middle" x="2485.42" y="-189.3" font-family="Times,serif" font-size="8.00">DefaultFailureDetailView$StackEntryRenderer</text>
</g>
<!-- TestSelector$TestCellRenderer -->
<g id="node204" class="node"><title>TestSelector$TestCellRenderer</title>
<polygon fill="none" stroke="black" points="2379.42,-200.5 2259.42,-200.5 2259.42,-183.5 2379.42,-183.5 2379.42,-200.5"/>
<text text-anchor="middle" x="2319.42" y="-189.3" font-family="Times,serif" font-size="8.00">TestSelector$TestCellRenderer</text>
</g>
<!-- TestSelector$2 -->
<g id="node205" class="node"><title>TestSelector$2</title>
<polygon fill="none" stroke="black" points="2241.42,-200.5 2175.42,-200.5 2175.42,-183.5 2241.42,-183.5 2241.42,-200.5"/>
<text text-anchor="middle" x="2208.42" y="-189.3" font-family="Times,serif" font-size="8.00">TestSelector$2</text>
</g>
<!-- TestRunner$17 -->
<g id="node206" class="node"><title>TestRunner$17</title>
<polygon fill="none" stroke="black" points="2157.42,-200.5 2089.42,-200.5 2089.42,-183.5 2157.42,-183.5 2157.42,-200.5"/>
<text text-anchor="middle" x="2123.42" y="-189.3" font-family="Times,serif" font-size="8.00">TestRunner$17</text>
</g>
<!-- TestRunner$11 -->
<g id="node207" class="node"><title>TestRunner$11</title>
<polygon fill="none" stroke="black" points="2071.42,-200.5 2003.42,-200.5 2003.42,-183.5 2071.42,-183.5 2071.42,-200.5"/>
<text text-anchor="middle" x="2037.42" y="-189.3" font-family="Times,serif" font-size="8.00">TestRunner$11</text>
</g>
<!-- TestSelector$1 -->
<g id="node208" class="node"><title>TestSelector$1</title>
<polygon fill="none" stroke="black" points="1985.42,-200.5 1921.42,-200.5 1921.42,-183.5 1985.42,-183.5 1985.42,-200.5"/>
<text text-anchor="middle" x="1953.42" y="-189.3" font-family="Times,serif" font-size="8.00">TestSelector$1</text>
</g>
</g>
</svg>
