<?xml version="1.0" encoding="UTF-8" standalone="no"?>
<!DOCTYPE svg PUBLIC "-//W3C//DTD SVG 1.1//EN"
 "http://www.w3.org/Graphics/SVG/1.1/DTD/svg11.dtd">
<!-- Generated by graphviz version 2.26.3 (20100126.1600)
 -->
<!-- Title: MvcAnalyzer&#45;external Pages: 1 -->
<svg width="1680pt" height="463pt"
 viewBox="0.00 0.00 1680.05 463.00" xmlns="http://www.w3.org/2000/svg" xmlns:xlink="http://www.w3.org/1999/xlink">
<g id="graph1" class="graph" transform="scale(1 1) rotate(0) translate(4 459)">
<title>MvcAnalyzer&#45;external</title>
<polygon fill="white" stroke="white" points="-4,5 -4,-459 1677.05,-459 1677.05,5 -4,5"/>
<g id="graph2" class="cluster"><title>cluster_mx.itesm.arch.mvc</title>
<polygon fill="none" stroke="black" points="996,-180 996,-447 1240,-447 1240,-180 996,-180"/>
<text text-anchor="middle" x="1118" y="-435.8" font-family="Times,serif" font-size="8.00">mx.itesm.arch.mvc</text>
</g>
<g id="graph3" class="cluster"><title>cluster_mx.itesm.arch.dependencies</title>
<polygon fill="none" stroke="black" points="514,-8 514,-285 878,-285 878,-8 514,-8"/>
<text text-anchor="middle" x="696" y="-273.8" font-family="Times,serif" font-size="8.00">mx.itesm.arch.dependencies</text>
</g>
<g id="graph4" class="cluster"><title>cluster_junit.framework</title>
<polygon fill="none" stroke="black" points="886,-180 886,-231 958,-231 958,-180 886,-180"/>
<text text-anchor="middle" x="922" y="-219.8" font-family="Times,serif" font-size="8.00">junit.framework</text>
</g>
<g id="graph5" class="cluster"><title>cluster_org.objectweb.asm.commons</title>
<polygon fill="none" stroke="black" points="886,-121 886,-172 999,-172 999,-121 886,-121"/>
<text text-anchor="middle" x="942.5" y="-160.8" font-family="Times,serif" font-size="8.00">org.objectweb.asm.commons</text>
</g>
<g id="graph6" class="cluster"><title>cluster_weka.classifiers</title>
<polygon fill="none" stroke="black" points="1260,-180 1260,-231 1330,-231 1330,-180 1260,-180"/>
<text text-anchor="middle" x="1295" y="-219.8" font-family="Times,serif" font-size="8.00">weka.classifiers</text>
</g>
<g id="graph7" class="cluster"><title>cluster_weka.core</title>
<polygon fill="none" stroke="black" points="1298,-121 1298,-172 1654,-172 1654,-121 1298,-121"/>
<text text-anchor="middle" x="1476" y="-160.8" font-family="Times,serif" font-size="8.00">weka.core</text>
</g>
<g id="graph8" class="cluster"><title>cluster_org.objectweb.asm</title>
<polygon fill="none" stroke="black" points="8,-62 8,-113 506,-113 506,-62 8,-62"/>
<text text-anchor="middle" x="257" y="-101.8" font-family="Times,serif" font-size="8.00">org.objectweb.asm</text>
</g>
<!-- DependenciesUtil -->
<g id="node1" class="node"><title>DependenciesUtil</title>
<polygon fill="none" stroke="black" points="837,-146.5 763,-146.5 763,-129.5 837,-129.5 837,-146.5"/>
<text text-anchor="middle" x="800" y="-135.3" font-family="Times,serif" font-size="8.00">DependenciesUtil</text>
</g>
<!-- ClassDependencies -->
<g id="node3" class="node"><title>ClassDependencies</title>
<polygon fill="none" stroke="black" points="844,-33.5 764,-33.5 764,-16.5 844,-16.5 844,-33.5"/>
<text text-anchor="middle" x="804" y="-22.3" font-family="Times,serif" font-size="8.00">ClassDependencies</text>
</g>
<!-- DependenciesUtil&#45;&gt;ClassDependencies -->
<g id="edge2" class="edge"><title>DependenciesUtil&#45;&gt;ClassDependencies</title>
<path fill="none" stroke="black" d="M794.976,-129.044C792.661,-124.41 790.171,-118.568 789,-113 784.336,-90.8184 784.662,-84.2476 789,-62 790.275,-55.4625 792.706,-48.6196 795.246,-42.6217"/>
<polygon fill="black" stroke="black" points="798.43,-44.0754 799.438,-33.5286 792.073,-41.1446 798.43,-44.0754"/>
</g>
<!-- DependencyCommand -->
<g id="node5" class="node"><title>DependencyCommand</title>
<polygon fill="none" stroke="black" points="654,-87.5 562,-87.5 562,-70.5 654,-70.5 654,-87.5"/>
<text text-anchor="middle" x="608" y="-76.3" font-family="Times,serif" font-size="8.00">DependencyCommand</text>
</g>
<!-- DependenciesUtil&#45;&gt;DependencyCommand -->
<g id="edge4" class="edge"><title>DependenciesUtil&#45;&gt;DependencyCommand</title>
<path fill="none" stroke="black" d="M777.962,-129.427C769.089,-126.3 758.681,-123.036 749,-121 711.434,-113.101 699.399,-125.193 663,-113 649.992,-108.643 636.87,-100.698 626.707,-93.5835"/>
<polygon fill="black" stroke="black" points="628.751,-90.7418 618.615,-87.6562 624.614,-96.3889 628.751,-90.7418"/>
</g>
<!-- DependencyFileFilter -->
<g id="node7" class="node"><title>DependencyFileFilter</title>
<polygon fill="none" stroke="black" points="760,-87.5 672,-87.5 672,-70.5 760,-70.5 760,-87.5"/>
<text text-anchor="middle" x="716" y="-76.3" font-family="Times,serif" font-size="8.00">DependencyFileFilter</text>
</g>
<!-- DependenciesUtil&#45;&gt;DependencyFileFilter -->
<g id="edge6" class="edge"><title>DependenciesUtil&#45;&gt;DependencyFileFilter</title>
<path fill="none" stroke="black" d="M787.606,-129.294C774.128,-119.828 752.376,-104.55 736.379,-93.3136"/>
<polygon fill="black" stroke="black" points="738.367,-90.4332 728.172,-87.5495 734.344,-96.1614 738.367,-90.4332"/>
</g>
<!-- ExportCommand -->
<g id="node9" class="node"><title>ExportCommand</title>
<polygon fill="none" stroke="black" points="870,-87.5 798,-87.5 798,-70.5 870,-70.5 870,-87.5"/>
<text text-anchor="middle" x="834" y="-76.3" font-family="Times,serif" font-size="8.00">ExportCommand</text>
</g>
<!-- DependenciesUtil&#45;&gt;ExportCommand -->
<g id="edge8" class="edge"><title>DependenciesUtil&#45;&gt;ExportCommand</title>
<path fill="none" stroke="black" d="M805.017,-129.294C809.938,-120.754 817.586,-107.482 823.791,-96.7164"/>
<polygon fill="black" stroke="black" points="827.002,-98.1532 828.963,-87.7414 820.937,-94.6581 827.002,-98.1532"/>
</g>
<!-- ExportCommand&#45;&gt;ClassDependencies -->
<g id="edge52" class="edge"><title>ExportCommand&#45;&gt;ClassDependencies</title>
<path fill="none" stroke="black" d="M829.046,-70.083C824.896,-62.6127 818.847,-51.7244 813.733,-42.5199"/>
<polygon fill="black" stroke="black" points="816.778,-40.7929 808.862,-33.7511 810.659,-44.1924 816.778,-40.7929"/>
</g>
<!-- DependenciesUtilTest -->
<g id="node10" class="node"><title>DependenciesUtilTest</title>
<polygon fill="none" stroke="black" points="870,-259.5 782,-259.5 782,-242.5 870,-242.5 870,-259.5"/>
<text text-anchor="middle" x="826" y="-248.3" font-family="Times,serif" font-size="8.00">DependenciesUtilTest</text>
</g>
<!-- DependenciesUtilTest&#45;&gt;DependenciesUtil -->
<g id="edge12" class="edge"><title>DependenciesUtilTest&#45;&gt;DependenciesUtil</title>
<path fill="none" stroke="black" d="M823.96,-242.133C819.724,-223.725 809.901,-181.031 804.235,-156.407"/>
<polygon fill="black" stroke="black" points="807.613,-155.477 801.96,-146.517 800.791,-157.047 807.613,-155.477"/>
</g>
<!-- DependenciesUtilTest&#45;&gt;DependencyCommand -->
<g id="edge10" class="edge"><title>DependenciesUtilTest&#45;&gt;DependencyCommand</title>
<path fill="none" stroke="black" d="M817.14,-242.146C788,-213.032 696.875,-122.057 695,-121 682.229,-113.802 676.507,-118.7 663,-113 650.805,-107.854 638.177,-100.236 628.101,-93.5144"/>
<polygon fill="black" stroke="black" points="629.871,-90.4834 619.651,-87.6904 625.898,-96.2471 629.871,-90.4834"/>
</g>
<!-- DependenciesUtilTest&#45;&gt;ExportCommand -->
<g id="edge14" class="edge"><title>DependenciesUtilTest&#45;&gt;ExportCommand</title>
<path fill="none" stroke="black" d="M828.938,-242.367C833.663,-227.984 842.746,-198.113 846,-172 848.803,-149.507 849.144,-143.448 846,-121 844.883,-113.028 842.629,-104.445 840.373,-97.1291"/>
<polygon fill="black" stroke="black" points="843.663,-95.9297 837.199,-87.5356 837.018,-98.1289 843.663,-95.9297"/>
</g>
<!-- DependencyAnalyzer -->
<g id="node15" class="node"><title>DependencyAnalyzer</title>
<polygon fill="none" stroke="black" points="705,-205.5 617,-205.5 617,-188.5 705,-188.5 705,-205.5"/>
<text text-anchor="middle" x="661" y="-194.3" font-family="Times,serif" font-size="8.00">DependencyAnalyzer</text>
</g>
<!-- DependenciesUtilTest&#45;&gt;DependencyAnalyzer -->
<g id="edge16" class="edge"><title>DependenciesUtilTest&#45;&gt;DependencyAnalyzer</title>
<path fill="none" stroke="black" d="M781.751,-242.49C767.913,-239.387 752.688,-235.514 739,-231 721.392,-225.194 702.301,-216.909 687.414,-209.971"/>
<polygon fill="black" stroke="black" points="688.83,-206.769 678.295,-205.646 685.83,-213.094 688.83,-206.769"/>
</g>
<!-- TestCase -->
<g id="node17" class="node"><title>TestCase</title>
<polygon fill="none" stroke="black" points="943,-205.5 897,-205.5 897,-188.5 943,-188.5 943,-205.5"/>
<text text-anchor="middle" x="920" y="-194.3" font-family="Times,serif" font-size="8.00">TestCase</text>
</g>
<!-- DependenciesUtilTest&#45;&gt;TestCase -->
<g id="edge18" class="edge"><title>DependenciesUtilTest&#45;&gt;TestCase</title>
<path fill="none" stroke="black" d="M856.609,-242.464C865.134,-239.458 874.191,-235.643 882,-231 890.239,-226.101 898.307,-219.263 904.874,-213.004"/>
<polygon fill="black" stroke="black" points="907.703,-215.124 912.29,-205.573 902.749,-210.179 907.703,-215.124"/>
</g>
<!-- DependencyAnalyzer&#45;&gt;DependenciesUtil -->
<g id="edge26" class="edge"><title>DependencyAnalyzer&#45;&gt;DependenciesUtil</title>
<path fill="none" stroke="black" d="M681.212,-188.421C704.683,-178.458 743.605,-161.937 770.465,-150.536"/>
<polygon fill="black" stroke="black" points="771.926,-153.719 779.764,-146.589 769.191,-147.275 771.926,-153.719"/>
</g>
<!-- DependencyAnalyzer&#45;&gt;ClassDependencies -->
<g id="edge20" class="edge"><title>DependencyAnalyzer&#45;&gt;ClassDependencies</title>
<path fill="none" stroke="black" d="M655.358,-188.406C652.376,-183.674 648.77,-177.632 646,-172 635.255,-150.152 645.337,-135.795 626,-121 613.039,-111.083 563.893,-125.152 553,-113 537.87,-96.1218 538.187,-79.1567 553,-62 565.92,-47.0359 684.167,-34.863 753.654,-28.926"/>
<polygon fill="black" stroke="black" points="754.277,-32.3861 763.949,-28.0615 753.691,-25.4107 754.277,-32.3861"/>
</g>
<!-- DependencyAnalyzer&#45;&gt;DependencyCommand -->
<g id="edge22" class="edge"><title>DependencyAnalyzer&#45;&gt;DependencyCommand</title>
<path fill="none" stroke="black" d="M660.766,-188.075C660.055,-173.347 657.221,-143.357 646,-121 641.076,-111.19 633.222,-101.95 625.928,-94.6473"/>
<polygon fill="black" stroke="black" points="628.076,-91.8624 618.399,-87.549 623.274,-96.9556 628.076,-91.8624"/>
</g>
<!-- DependencyVisitor -->
<g id="node21" class="node"><title>DependencyVisitor</title>
<polygon fill="none" stroke="black" points="602,-146.5 522,-146.5 522,-129.5 602,-129.5 602,-146.5"/>
<text text-anchor="middle" x="562" y="-135.3" font-family="Times,serif" font-size="8.00">DependencyVisitor</text>
</g>
<!-- DependencyAnalyzer&#45;&gt;DependencyVisitor -->
<g id="edge24" class="edge"><title>DependencyAnalyzer&#45;&gt;DependencyVisitor</title>
<path fill="none" stroke="black" d="M646.392,-188.294C630.214,-178.653 603.919,-162.982 584.977,-151.694"/>
<polygon fill="black" stroke="black" points="586.728,-148.662 576.346,-146.55 583.144,-154.676 586.728,-148.662"/>
</g>
<!-- ClassReader -->
<g id="node24" class="node"><title>ClassReader</title>
<polygon fill="none" stroke="black" points="72,-87.5 16,-87.5 16,-70.5 72,-70.5 72,-87.5"/>
<text text-anchor="middle" x="44" y="-76.3" font-family="Times,serif" font-size="8.00">ClassReader</text>
</g>
<!-- DependencyAnalyzer&#45;&gt;ClassReader -->
<g id="edge28" class="edge"><title>DependencyAnalyzer&#45;&gt;ClassReader</title>
<path fill="none" stroke="black" d="M616.777,-196.031C504.535,-193.386 214.547,-185.341 173,-172 125.942,-156.889 81.6175,-117.435 59.2144,-95.0729"/>
<polygon fill="black" stroke="black" points="61.4824,-92.3861 51.988,-87.6841 56.4779,-97.2806 61.4824,-92.3861"/>
</g>
<!-- ClassVisitor -->
<g id="node26" class="node"><title>ClassVisitor</title>
<polygon fill="none" stroke="black" points="146,-87.5 90,-87.5 90,-70.5 146,-70.5 146,-87.5"/>
<text text-anchor="middle" x="118" y="-76.3" font-family="Times,serif" font-size="8.00">ClassVisitor</text>
</g>
<!-- DependencyAnalyzer&#45;&gt;ClassVisitor -->
<g id="edge30" class="edge"><title>DependencyAnalyzer&#45;&gt;ClassVisitor</title>
<path fill="none" stroke="black" d="M616.954,-192.94C509.479,-182.518 236.636,-152.822 155,-113 146.4,-108.805 138.377,-101.963 132.015,-95.5122"/>
<polygon fill="black" stroke="black" points="134.265,-92.7864 124.927,-87.7796 129.104,-97.5163 134.265,-92.7864"/>
</g>
<!-- EmptyVisitor -->
<g id="node41" class="node"><title>EmptyVisitor</title>
<polygon fill="none" stroke="black" points="954,-146.5 894,-146.5 894,-129.5 954,-129.5 954,-146.5"/>
<text text-anchor="middle" x="924" y="-135.3" font-family="Times,serif" font-size="8.00">EmptyVisitor</text>
</g>
<!-- TestCase&#45;&gt;EmptyVisitor -->
<!-- Type -->
<g id="node33" class="node"><title>Type</title>
<polygon fill="none" stroke="black" points="364,-87.5 332,-87.5 332,-70.5 364,-70.5 364,-87.5"/>
<text text-anchor="middle" x="348" y="-76.3" font-family="Times,serif" font-size="8.00">Type</text>
</g>
<!-- DependencyVisitor&#45;&gt;Type -->
<g id="edge40" class="edge"><title>DependencyVisitor&#45;&gt;Type</title>
<path fill="none" stroke="black" d="M521.803,-136.35C473.949,-133.759 397.428,-127.449 373,-113 366.306,-109.04 360.864,-102.518 356.788,-96.2396"/>
<polygon fill="black" stroke="black" points="359.813,-94.4792 351.806,-87.5419 353.739,-97.9588 359.813,-94.4792"/>
</g>
<!-- AnnotationVisitor -->
<g id="node35" class="node"><title>AnnotationVisitor</title>
<polygon fill="none" stroke="black" points="314,-87.5 238,-87.5 238,-70.5 314,-70.5 314,-87.5"/>
<text text-anchor="middle" x="276" y="-76.3" font-family="Times,serif" font-size="8.00">AnnotationVisitor</text>
</g>
<!-- DependencyVisitor&#45;&gt;AnnotationVisitor -->
<g id="edge42" class="edge"><title>DependencyVisitor&#45;&gt;AnnotationVisitor</title>
<path fill="none" stroke="black" d="M521.56,-136.292C463.138,-133.399 358.266,-126.486 323,-113 311.853,-108.737 300.955,-101.136 292.464,-94.2"/>
<polygon fill="black" stroke="black" points="294.713,-91.5176 284.855,-87.6342 290.14,-96.8172 294.713,-91.5176"/>
</g>
<!-- FieldVisitor -->
<g id="node37" class="node"><title>FieldVisitor</title>
<polygon fill="none" stroke="black" points="220,-87.5 164,-87.5 164,-70.5 220,-70.5 220,-87.5"/>
<text text-anchor="middle" x="192" y="-76.3" font-family="Times,serif" font-size="8.00">FieldVisitor</text>
</g>
<!-- DependencyVisitor&#45;&gt;FieldVisitor -->
<g id="edge44" class="edge"><title>DependencyVisitor&#45;&gt;FieldVisitor</title>
<path fill="none" stroke="black" d="M521.974,-135.165C434.205,-128.925 232.329,-114.443 229,-113 220.108,-109.145 211.966,-102.233 205.597,-95.6432"/>
<polygon fill="black" stroke="black" points="207.815,-92.8709 198.555,-87.7226 202.584,-97.5218 207.815,-92.8709"/>
</g>
<!-- MethodVisitor -->
<g id="node39" class="node"><title>MethodVisitor</title>
<polygon fill="none" stroke="black" points="446,-87.5 382,-87.5 382,-70.5 446,-70.5 446,-87.5"/>
<text text-anchor="middle" x="414" y="-76.3" font-family="Times,serif" font-size="8.00">MethodVisitor</text>
</g>
<!-- DependencyVisitor&#45;&gt;MethodVisitor -->
<g id="edge46" class="edge"><title>DependencyVisitor&#45;&gt;MethodVisitor</title>
<path fill="none" stroke="black" d="M521.875,-133.13C501.123,-129.515 475.845,-123.352 455,-113 445.714,-108.388 436.697,-101.294 429.495,-94.7765"/>
<polygon fill="black" stroke="black" points="431.612,-91.9579 421.966,-87.5737 426.772,-97.0158 431.612,-91.9579"/>
</g>
<!-- DependencyVisitor&#45;&gt;EmptyVisitor -->
<g id="edge48" class="edge"><title>DependencyVisitor&#45;&gt;EmptyVisitor</title>
<path fill="none" stroke="black" d="M596.579,-146.579C636.406,-155.982 703.95,-170.467 763,-176 787.338,-178.28 849.088,-181.074 873,-176 887.202,-172.986 900.269,-163.044 909.62,-154.085"/>
<polygon fill="black" stroke="black" points="912.368,-156.28 916.817,-146.665 907.343,-151.407 912.368,-156.28"/>
</g>
<!-- Label -->
<g id="node43" class="node"><title>Label</title>
<polygon fill="none" stroke="black" points="498,-87.5 464,-87.5 464,-70.5 498,-70.5 498,-87.5"/>
<text text-anchor="middle" x="481" y="-76.3" font-family="Times,serif" font-size="8.00">Label</text>
</g>
<!-- DependencyVisitor&#45;&gt;Label -->
<g id="edge50" class="edge"><title>DependencyVisitor&#45;&gt;Label</title>
<path fill="none" stroke="black" d="M539.069,-129.442C529.557,-125.285 518.729,-119.724 510,-113 503.723,-108.165 497.839,-101.777 493.034,-95.844"/>
<polygon fill="black" stroke="black" points="495.686,-93.5494 486.844,-87.7117 490.115,-97.7889 495.686,-93.5494"/>
</g>
<!-- DependencyAnalyzerTest -->
<g id="node27" class="node"><title>DependencyAnalyzerTest</title>
<polygon fill="none" stroke="black" points="764,-259.5 662,-259.5 662,-242.5 764,-242.5 764,-259.5"/>
<text text-anchor="middle" x="713" y="-248.3" font-family="Times,serif" font-size="8.00">DependencyAnalyzerTest</text>
</g>
<!-- DependencyAnalyzerTest&#45;&gt;ClassDependencies -->
<g id="edge32" class="edge"><title>DependencyAnalyzerTest&#45;&gt;ClassDependencies</title>
<path fill="none" stroke="black" d="M661.92,-242.716C636.143,-238.287 609.893,-233.287 608,-231 576.82,-193.321 643.645,-157.417 611,-121 600.107,-108.848 548.893,-125.152 538,-113 522.87,-96.1218 523.117,-79.0962 538,-62 551.915,-46.0159 680.228,-34.0736 753.432,-28.4941"/>
<polygon fill="black" stroke="black" points="754.101,-31.9539 763.812,-27.7174 753.579,-24.9734 754.101,-31.9539"/>
</g>
<!-- DependencyAnalyzerTest&#45;&gt;DependencyCommand -->
<g id="edge34" class="edge"><title>DependencyAnalyzerTest&#45;&gt;DependencyCommand</title>
<path fill="none" stroke="black" d="M715.188,-242.31C718.212,-228.529 722.406,-201.068 714,-180 698.326,-140.719 658.25,-109.834 632.113,-93.0246"/>
<polygon fill="black" stroke="black" points="633.852,-89.9845 623.512,-87.6751 630.155,-95.9286 633.852,-89.9845"/>
</g>
<!-- DependencyAnalyzerTest&#45;&gt;DependencyAnalyzer -->
<g id="edge36" class="edge"><title>DependencyAnalyzerTest&#45;&gt;DependencyAnalyzer</title>
<path fill="none" stroke="black" d="M704.413,-242.083C696.841,-234.22 685.622,-222.569 676.486,-213.081"/>
<polygon fill="black" stroke="black" points="678.885,-210.527 669.427,-205.751 673.842,-215.382 678.885,-210.527"/>
</g>
<!-- DependencyAnalyzerTest&#45;&gt;TestCase -->
<g id="edge38" class="edge"><title>DependencyAnalyzerTest&#45;&gt;TestCase</title>
<path fill="none" stroke="black" d="M764.04,-243.173C767.07,-242.761 770.074,-242.367 773,-242 821.312,-235.942 837.447,-250.642 882,-231 891.199,-226.945 899.714,-219.796 906.342,-213.098"/>
<polygon fill="black" stroke="black" points="908.995,-215.384 913.184,-205.652 903.84,-210.647 908.995,-215.384"/>
</g>
<!-- Classifier -->
<g id="node73" class="node"><title>Classifier</title>
<polygon fill="none" stroke="black" points="1318,-205.5 1270,-205.5 1270,-188.5 1318,-188.5 1318,-205.5"/>
<text text-anchor="middle" x="1294" y="-194.3" font-family="Times,serif" font-size="8.00">Classifier</text>
</g>
<!-- EmptyVisitor&#45;&gt;Classifier -->
<!-- Layer$1 -->
<g id="node45" class="node"><title>Layer$1</title>
<polygon fill="none" stroke="black" points="1139,-421.5 1097,-421.5 1097,-404.5 1139,-404.5 1139,-421.5"/>
<text text-anchor="middle" x="1118" y="-410.3" font-family="Times,serif" font-size="8.00">Layer$1</text>
</g>
<!-- Layer -->
<g id="node47" class="node"><title>Layer</title>
<polygon fill="none" stroke="black" points="1151,-367.5 1117,-367.5 1117,-350.5 1151,-350.5 1151,-367.5"/>
<text text-anchor="middle" x="1134" y="-356.3" font-family="Times,serif" font-size="8.00">Layer</text>
</g>
<!-- Layer$1&#45;&gt;Layer -->
<g id="edge54" class="edge"><title>Layer$1&#45;&gt;Layer</title>
<path fill="none" stroke="black" d="M1120.64,-404.083C1122.79,-396.849 1125.88,-386.409 1128.55,-377.397"/>
<polygon fill="black" stroke="black" points="1131.92,-378.333 1131.41,-367.751 1125.21,-376.345 1131.92,-378.333"/>
</g>
<!-- MvcAnalyzer$Variable -->
<g id="node53" class="node"><title>MvcAnalyzer$Variable</title>
<polygon fill="none" stroke="black" points="1232,-313.5 1138,-313.5 1138,-296.5 1232,-296.5 1232,-313.5"/>
<text text-anchor="middle" x="1185" y="-302.3" font-family="Times,serif" font-size="8.00">MvcAnalyzer$Variable</text>
</g>
<!-- Layer&#45;&gt;MvcAnalyzer$Variable -->
<g id="edge60" class="edge"><title>Layer&#45;&gt;MvcAnalyzer$Variable</title>
<path fill="none" stroke="black" d="M1142.42,-350.083C1149.85,-342.22 1160.85,-330.569 1169.81,-321.081"/>
<polygon fill="black" stroke="black" points="1172.41,-323.424 1176.74,-313.751 1167.32,-318.618 1172.41,-323.424"/>
</g>
<!-- FastVector -->
<g id="node55" class="node"><title>FastVector</title>
<polygon fill="none" stroke="black" points="1582,-146.5 1530,-146.5 1530,-129.5 1582,-129.5 1582,-146.5"/>
<text text-anchor="middle" x="1556" y="-135.3" font-family="Times,serif" font-size="8.00">FastVector</text>
</g>
<!-- Layer&#45;&gt;FastVector -->
<g id="edge62" class="edge"><title>Layer&#45;&gt;FastVector</title>
<path fill="none" stroke="black" d="M1151.09,-356.063C1220.97,-343.697 1483.7,-293.597 1535,-231 1552.36,-209.819 1556.05,-177.171 1556.49,-156.725"/>
<polygon fill="black" stroke="black" points="1559.99,-156.513 1556.46,-146.524 1552.99,-156.534 1559.99,-156.513"/>
</g>
<!-- Attribute -->
<g id="node57" class="node"><title>Attribute</title>
<polygon fill="none" stroke="black" points="1646,-146.5 1600,-146.5 1600,-129.5 1646,-129.5 1646,-146.5"/>
<text text-anchor="middle" x="1623" y="-135.3" font-family="Times,serif" font-size="8.00">Attribute</text>
</g>
<!-- Layer&#45;&gt;Attribute -->
<g id="edge64" class="edge"><title>Layer&#45;&gt;Attribute</title>
<path fill="none" stroke="black" d="M1151.31,-357.768C1203.22,-353.566 1361.29,-337.04 1480,-285 1525.19,-265.189 1542.97,-266.728 1577,-231 1597.64,-209.33 1610.86,-176.617 1617.61,-156.322"/>
<polygon fill="black" stroke="black" points="1620.96,-157.308 1620.62,-146.718 1614.28,-155.213 1620.96,-157.308"/>
</g>
<!-- Layer$2 -->
<g id="node48" class="node"><title>Layer$2</title>
<polygon fill="none" stroke="black" points="1201,-421.5 1157,-421.5 1157,-404.5 1201,-404.5 1201,-421.5"/>
<text text-anchor="middle" x="1179" y="-410.3" font-family="Times,serif" font-size="8.00">Layer$2</text>
</g>
<!-- Layer$2&#45;&gt;Layer -->
<g id="edge56" class="edge"><title>Layer$2&#45;&gt;Layer</title>
<path fill="none" stroke="black" d="M1171.57,-404.083C1165.15,-396.377 1155.69,-385.033 1147.88,-375.653"/>
<polygon fill="black" stroke="black" points="1150.38,-373.193 1141.29,-367.751 1145.01,-377.674 1150.38,-373.193"/>
</g>
<!-- Layer$3 -->
<g id="node50" class="node"><title>Layer$3</title>
<polygon fill="none" stroke="black" points="1062,-421.5 1020,-421.5 1020,-404.5 1062,-404.5 1062,-421.5"/>
<text text-anchor="middle" x="1041" y="-410.3" font-family="Times,serif" font-size="8.00">Layer$3</text>
</g>
<!-- Layer$3&#45;&gt;DependencyAnalyzer -->
<!-- Layer$3&#45;&gt;Layer -->
<g id="edge58" class="edge"><title>Layer$3&#45;&gt;Layer</title>
<path fill="none" stroke="black" d="M1055.94,-404.324C1070.59,-395.822 1093.13,-382.729 1110.24,-372.797"/>
<polygon fill="black" stroke="black" points="1112.2,-375.703 1119.1,-367.655 1108.69,-369.649 1112.2,-375.703"/>
</g>
<!-- MvcAnalyzer$Variable&#45;&gt;FastVector -->
<g id="edge68" class="edge"><title>MvcAnalyzer$Variable&#45;&gt;FastVector</title>
<path fill="none" stroke="black" d="M1232.24,-298.566C1309.5,-287.294 1458.54,-262.181 1501,-231 1526.61,-212.195 1542.41,-177.561 1550.17,-156.277"/>
<polygon fill="black" stroke="black" points="1553.49,-157.368 1553.42,-146.773 1546.87,-155.101 1553.49,-157.368"/>
</g>
<!-- MvcAnalyzer$Variable&#45;&gt;Attribute -->
<g id="edge70" class="edge"><title>MvcAnalyzer$Variable&#45;&gt;Attribute</title>
<path fill="none" stroke="black" d="M1232.05,-302.733C1288.82,-299.676 1380.78,-293.605 1414,-285 1471.01,-270.234 1486.92,-265.007 1535,-231 1566.14,-208.973 1595.08,-174.687 1610.77,-154.476"/>
<polygon fill="black" stroke="black" points="1613.56,-156.59 1616.83,-146.513 1607.99,-152.35 1613.56,-156.59"/>
</g>
<!-- MvcAnalyzer -->
<g id="node59" class="node"><title>MvcAnalyzer</title>
<polygon fill="none" stroke="black" points="1232,-259.5 1170,-259.5 1170,-242.5 1232,-242.5 1232,-259.5"/>
<text text-anchor="middle" x="1201" y="-248.3" font-family="Times,serif" font-size="8.00">MvcAnalyzer</text>
</g>
<!-- MvcAnalyzer$Variable&#45;&gt;MvcAnalyzer -->
<g id="edge66" class="edge"><title>MvcAnalyzer$Variable&#45;&gt;MvcAnalyzer</title>
<path fill="none" stroke="black" d="M1187.64,-296.083C1189.79,-288.849 1192.88,-278.409 1195.55,-269.397"/>
<polygon fill="black" stroke="black" points="1198.92,-270.333 1198.41,-259.751 1192.21,-268.345 1198.92,-270.333"/>
</g>
<!-- FastVector&#45;&gt;Label -->
<!-- MvcAnalyzer&#45;&gt;DependenciesUtil -->
<g id="edge80" class="edge"><title>MvcAnalyzer&#45;&gt;DependenciesUtil</title>
<path fill="none" stroke="black" d="M1169.89,-249.467C1115.99,-246.592 1009.58,-239.872 995,-231 971.936,-216.966 985.043,-194.067 962,-180 946.751,-170.691 899.327,-176.357 882,-172 862.444,-167.082 841.458,-158.31 825.611,-150.907"/>
<polygon fill="black" stroke="black" points="826.998,-147.691 816.468,-146.522 823.971,-154.002 826.998,-147.691"/>
</g>
<!-- MvcAnalyzer&#45;&gt;ClassDependencies -->
<g id="edge72" class="edge"><title>MvcAnalyzer&#45;&gt;ClassDependencies</title>
<path fill="none" stroke="black" d="M1214.15,-242.239C1217.7,-239.147 1221.08,-235.343 1223,-231 1232.17,-210.271 1234.56,-199.495 1223,-180 1167.19,-85.9166 1110.12,-98.4951 1007,-62 956.614,-44.1686 896.007,-34.5542 854.207,-29.6356"/>
<polygon fill="black" stroke="black" points="854.597,-26.1574 844.267,-28.5127 853.811,-33.1132 854.597,-26.1574"/>
</g>
<!-- MvcAnalyzer&#45;&gt;DependencyCommand -->
<g id="edge74" class="edge"><title>MvcAnalyzer&#45;&gt;DependencyCommand</title>
<path fill="none" stroke="black" d="M1232.17,-250.059C1312.88,-247.508 1524.53,-240.036 1555,-231 1619.21,-211.956 1705.17,-168.549 1658,-121 1648.27,-111.189 676.278,-116.831 663,-113 649.652,-109.149 636.357,-101.077 626.183,-93.7635"/>
<polygon fill="black" stroke="black" points="628.206,-90.9057 618.122,-87.6575 623.98,-96.4856 628.206,-90.9057"/>
</g>
<!-- MvcAnalyzer&#45;&gt;ExportCommand -->
<g id="edge86" class="edge"><title>MvcAnalyzer&#45;&gt;ExportCommand</title>
<path fill="none" stroke="black" d="M1232.12,-248.44C1269.33,-245.059 1327.43,-238.631 1334,-231 1348.79,-213.822 1348.37,-197.529 1334,-180 1322.51,-165.979 1311.72,-175.843 1294,-172 1196.76,-150.907 1173.51,-140.849 1076,-121 1008.12,-107.182 928.946,-93.989 880.141,-86.1916"/>
<polygon fill="black" stroke="black" points="880.628,-82.7252 870.203,-84.6113 879.529,-89.6383 880.628,-82.7252"/>
</g>
<!-- MvcAnalyzer&#45;&gt;DependencyAnalyzer -->
<g id="edge76" class="edge"><title>MvcAnalyzer&#45;&gt;DependencyAnalyzer</title>
<path fill="none" stroke="black" d="M1169.68,-249.972C1112.43,-247.886 987.098,-242.356 882,-231 824.89,-224.829 759.963,-214.432 715.338,-206.757"/>
<polygon fill="black" stroke="black" points="715.743,-203.275 705.292,-205.016 714.548,-210.172 715.743,-203.275"/>
</g>
<!-- MvcAnalyzer&#45;&gt;Layer -->
<g id="edge84" class="edge"><title>MvcAnalyzer&#45;&gt;Layer</title>
<path fill="none" stroke="black" d="M1175.5,-259.528C1159.01,-266.522 1138.86,-278.208 1129,-296 1121.52,-309.495 1123.77,-327.174 1127.31,-340.368"/>
<polygon fill="black" stroke="black" points="1124.07,-341.719 1130.41,-350.207 1130.74,-339.617 1124.07,-341.719"/>
</g>
<!-- MvcAnalyzer&#45;&gt;FastVector -->
<g id="edge92" class="edge"><title>MvcAnalyzer&#45;&gt;FastVector</title>
<path fill="none" stroke="black" d="M1232.16,-249.595C1294.9,-246.611 1432.17,-239.233 1452,-231 1491.32,-214.676 1525.68,-176.922 1543.35,-154.864"/>
<polygon fill="black" stroke="black" points="1546.29,-156.779 1549.67,-146.737 1540.77,-152.481 1546.29,-156.779"/>
</g>
<!-- MvcAnalyzer&#45;&gt;Attribute -->
<g id="edge90" class="edge"><title>MvcAnalyzer&#45;&gt;Attribute</title>
<path fill="none" stroke="black" d="M1232.08,-249.824C1303.67,-246.987 1476.01,-239.378 1501,-231 1546.35,-215.799 1554.36,-202.738 1591,-172 1597.4,-166.628 1603.84,-160.066 1609.25,-154.146"/>
<polygon fill="black" stroke="black" points="1611.88,-156.453 1615.88,-146.641 1606.63,-151.818 1611.88,-156.453"/>
</g>
<!-- MvcDependencyCommand -->
<g id="node66" class="node"><title>MvcDependencyCommand</title>
<polygon fill="none" stroke="black" points="1214,-205.5 1108,-205.5 1108,-188.5 1214,-188.5 1214,-205.5"/>
<text text-anchor="middle" x="1161" y="-194.3" font-family="Times,serif" font-size="8.00">MvcDependencyCommand</text>
</g>
<!-- MvcAnalyzer&#45;&gt;MvcDependencyCommand -->
<g id="edge78" class="edge"><title>MvcAnalyzer&#45;&gt;MvcDependencyCommand</title>
<path fill="none" stroke="black" d="M1189.23,-242.083C1182.12,-234.613 1173.65,-223.724 1167.61,-214.52"/>
<polygon fill="black" stroke="black" points="1170.5,-212.526 1162.35,-205.751 1164.49,-216.127 1170.5,-212.526"/>
</g>
<!-- MvcExportCommand -->
<g id="node69" class="node"><title>MvcExportCommand</title>
<polygon fill="none" stroke="black" points="1090,-205.5 1004,-205.5 1004,-188.5 1090,-188.5 1090,-205.5"/>
<text text-anchor="middle" x="1047" y="-194.3" font-family="Times,serif" font-size="8.00">MvcExportCommand</text>
</g>
<!-- MvcAnalyzer&#45;&gt;MvcExportCommand -->
<g id="edge82" class="edge"><title>MvcAnalyzer&#45;&gt;MvcExportCommand</title>
<path fill="none" stroke="black" d="M1169.76,-248.032C1149.1,-245.314 1121.73,-240.248 1099,-231 1087.19,-226.195 1075.2,-218.577 1065.71,-211.769"/>
<polygon fill="black" stroke="black" points="1067.57,-208.793 1057.47,-205.608 1063.38,-214.4 1067.57,-208.793"/>
</g>
<!-- MvcAnalyzer&#45;&gt;Classifier -->
<g id="edge88" class="edge"><title>MvcAnalyzer&#45;&gt;Classifier</title>
<path fill="none" stroke="black" d="M1230.77,-242.5C1239.23,-239.476 1248.24,-235.644 1256,-231 1264.22,-226.077 1272.29,-219.236 1278.86,-212.98"/>
<polygon fill="black" stroke="black" points="1281.69,-215.104 1286.28,-205.557 1276.74,-210.155 1281.69,-215.104"/>
</g>
<!-- Instance -->
<g id="node77" class="node"><title>Instance</title>
<polygon fill="none" stroke="black" points="1448,-146.5 1404,-146.5 1404,-129.5 1448,-129.5 1448,-146.5"/>
<text text-anchor="middle" x="1426" y="-135.3" font-family="Times,serif" font-size="8.00">Instance</text>
</g>
<!-- MvcAnalyzer&#45;&gt;Instance -->
<g id="edge94" class="edge"><title>MvcAnalyzer&#45;&gt;Instance</title>
<path fill="none" stroke="black" d="M1232.12,-249.175C1280.41,-246.101 1369.13,-239.395 1381,-231 1405.82,-213.453 1417.5,-178.385 1422.56,-156.682"/>
<polygon fill="black" stroke="black" points="1426.02,-157.218 1424.64,-146.714 1419.17,-155.79 1426.02,-157.218"/>
</g>
<!-- Instances -->
<g id="node79" class="node"><title>Instances</title>
<polygon fill="none" stroke="black" points="1512,-146.5 1466,-146.5 1466,-129.5 1512,-129.5 1512,-146.5"/>
<text text-anchor="middle" x="1489" y="-135.3" font-family="Times,serif" font-size="8.00">Instances</text>
</g>
<!-- MvcAnalyzer&#45;&gt;Instances -->
<g id="edge96" class="edge"><title>MvcAnalyzer&#45;&gt;Instances</title>
<path fill="none" stroke="black" d="M1232.33,-249.352C1287.23,-246.27 1396.51,-239.199 1412,-231 1444.13,-213.991 1468.07,-177.342 1480.17,-155.473"/>
<polygon fill="black" stroke="black" points="1483.28,-157.062 1484.88,-146.588 1477.1,-153.782 1483.28,-157.062"/>
</g>
<!-- SerializationHelper -->
<g id="node81" class="node"><title>SerializationHelper</title>
<polygon fill="none" stroke="black" points="1386,-146.5 1306,-146.5 1306,-129.5 1386,-129.5 1386,-146.5"/>
<text text-anchor="middle" x="1346" y="-135.3" font-family="Times,serif" font-size="8.00">SerializationHelper</text>
</g>
<!-- MvcAnalyzer&#45;&gt;SerializationHelper -->
<g id="edge98" class="edge"><title>MvcAnalyzer&#45;&gt;SerializationHelper</title>
<path fill="none" stroke="black" d="M1232.19,-249.315C1276.57,-246.594 1353.56,-240.552 1362,-231 1380.36,-210.214 1367.44,-176.248 1356.58,-155.624"/>
<polygon fill="black" stroke="black" points="1359.51,-153.693 1351.56,-146.688 1353.41,-157.121 1359.51,-153.693"/>
</g>
<!-- MvcDependencyCommand&#45;&gt;DependencyCommand -->
<g id="edge104" class="edge"><title>MvcDependencyCommand&#45;&gt;DependencyCommand</title>
<path fill="none" stroke="black" d="M1148.19,-188.474C1122.18,-171.708 1060.71,-134.875 1003,-121 929.517,-103.334 735.451,-134.51 663,-113 649.683,-109.046 636.388,-100.97 626.207,-93.6808"/>
<polygon fill="black" stroke="black" points="628.231,-90.8238 618.138,-87.6012 624.019,-96.4144 628.231,-90.8238"/>
</g>
<!-- MvcDependencyCommand&#45;&gt;MvcAnalyzer$Variable -->
<g id="edge108" class="edge"><title>MvcDependencyCommand&#45;&gt;MvcAnalyzer$Variable</title>
<path fill="none" stroke="black" d="M1158.67,-205.769C1154.78,-222.218 1148.56,-258.436 1161,-285 1161.66,-286.412 1162.48,-287.759 1163.4,-289.038"/>
<polygon fill="black" stroke="black" points="1161.18,-291.766 1170.68,-296.456 1166.17,-286.865 1161.18,-291.766"/>
</g>
<!-- MvcDependencyCommand&#45;&gt;MvcAnalyzer -->
<g id="edge106" class="edge"><title>MvcDependencyCommand&#45;&gt;MvcAnalyzer</title>
<path fill="none" stroke="black" d="M1172.61,-205.751C1179.7,-213.17 1188.18,-224.045 1194.25,-233.275"/>
<polygon fill="black" stroke="black" points="1191.4,-235.325 1199.56,-242.083 1197.4,-231.711 1191.4,-235.325"/>
</g>
<!-- MvcExportCommand&#45;&gt;DependenciesUtil -->
<g id="edge114" class="edge"><title>MvcExportCommand&#45;&gt;DependenciesUtil</title>
<path fill="none" stroke="black" d="M1022.59,-188.458C1012.61,-185.297 1000.87,-181.999 990,-180 942.663,-171.293 928.825,-183.137 882,-172 862.258,-167.305 841.132,-158.445 825.267,-150.946"/>
<polygon fill="black" stroke="black" points="826.653,-147.728 816.129,-146.503 823.592,-154.023 826.653,-147.728"/>
</g>
<!-- MvcExportCommand&#45;&gt;ClassDependencies -->
<g id="edge110" class="edge"><title>MvcExportCommand&#45;&gt;ClassDependencies</title>
<path fill="none" stroke="black" d="M1048.15,-188.427C1049.7,-173.148 1050.7,-140.944 1035,-121 990.717,-64.7317 907.658,-41.1219 854.138,-31.4432"/>
<polygon fill="black" stroke="black" points="854.623,-27.9754 844.176,-29.7404 853.444,-34.8754 854.623,-27.9754"/>
</g>
<!-- MvcExportCommand&#45;&gt;ExportCommand -->
<g id="edge116" class="edge"><title>MvcExportCommand&#45;&gt;ExportCommand</title>
<path fill="none" stroke="black" d="M1044.51,-188.424C1039.45,-172.547 1026.4,-138.594 1003,-121 983.818,-106.575 923.424,-93.8874 880.315,-86.3309"/>
<polygon fill="black" stroke="black" points="880.759,-82.8559 870.311,-84.6141 879.575,-89.7551 880.759,-82.8559"/>
</g>
<!-- MvcExportCommand&#45;&gt;Layer -->
<g id="edge112" class="edge"><title>MvcExportCommand&#45;&gt;Layer</title>
<path fill="none" stroke="black" d="M1040.1,-205.75C1024.72,-226.389 990.819,-279.003 1015,-314 1025.72,-329.51 1075.05,-344.344 1106.74,-352.507"/>
<polygon fill="black" stroke="black" points="1106.18,-355.975 1116.73,-355.011 1107.88,-349.185 1106.18,-355.975"/>
</g>
<!-- Classifier&#45;&gt;FastVector -->
<!-- MvcAnalyzerTest -->
<g id="node82" class="node"><title>MvcAnalyzerTest</title>
<polygon fill="none" stroke="black" points="1100,-313.5 1024,-313.5 1024,-296.5 1100,-296.5 1100,-313.5"/>
<text text-anchor="middle" x="1062" y="-302.3" font-family="Times,serif" font-size="8.00">MvcAnalyzerTest</text>
</g>
<!-- MvcAnalyzerTest&#45;&gt;TestCase -->
<g id="edge102" class="edge"><title>MvcAnalyzerTest&#45;&gt;TestCase</title>
<path fill="none" stroke="black" d="M1049.87,-296.282C1030.92,-282.613 993.253,-255.195 962,-231 954.109,-224.891 945.524,-217.988 938.184,-212.006"/>
<polygon fill="black" stroke="black" points="940.209,-209.141 930.256,-205.51 935.773,-214.555 940.209,-209.141"/>
</g>
<!-- MvcAnalyzerTest&#45;&gt;MvcAnalyzer -->
<g id="edge100" class="edge"><title>MvcAnalyzerTest&#45;&gt;MvcAnalyzer</title>
<path fill="none" stroke="black" d="M1084.02,-296.444C1107.1,-287.478 1143.56,-273.314 1169.64,-263.183"/>
<polygon fill="black" stroke="black" points="1171.02,-266.4 1179.08,-259.516 1168.49,-259.875 1171.02,-266.4"/>
</g>
<!-- DependenciesUtil$1 -->
<g id="node95" class="node"><title>DependenciesUtil$1</title>
<polygon fill="none" stroke="black" points="644,-259.5 562,-259.5 562,-242.5 644,-242.5 644,-259.5"/>
<text text-anchor="middle" x="603" y="-248.3" font-family="Times,serif" font-size="8.00">DependenciesUtil$1</text>
</g>
</g>
</svg>
