<?xml version="1.0" encoding="UTF-8" standalone="no"?>
<!DOCTYPE svg PUBLIC "-//W3C//DTD SVG 1.1//EN"
 "http://www.w3.org/Graphics/SVG/1.1/DTD/svg11.dtd">
<!-- Generated by graphviz version 2.26.3 (20100126.1600)
 -->
<!-- Title: MvcAnalyzer&#45;internal Pages: 1 -->
<svg width="640pt" height="453pt"
 viewBox="0.00 0.00 640.00 453.00" xmlns="http://www.w3.org/2000/svg" xmlns:xlink="http://www.w3.org/1999/xlink">
<g id="graph1" class="graph" transform="scale(1 1) rotate(0) translate(4 449)">
<title>MvcAnalyzer&#45;internal</title>
<polygon fill="white" stroke="white" points="-4,5 -4,-449 637,-449 637,5 -4,5"/>
<g id="graph2" class="cluster"><title>cluster_mx.itesm.arch.mvc</title>
<polygon fill="none" stroke="black" points="380,-170 380,-437 624,-437 624,-170 380,-170"/>
<text text-anchor="middle" x="502" y="-425.8" font-family="Times,serif" font-size="8.00">mx.itesm.arch.mvc</text>
</g>
<g id="graph3" class="cluster"><title>cluster_mx.itesm.arch.dependencies</title>
<polygon fill="none" stroke="black" points="8,-8 8,-275 372,-275 372,-8 8,-8"/>
<text text-anchor="middle" x="190" y="-263.8" font-family="Times,serif" font-size="8.00">mx.itesm.arch.dependencies</text>
</g>
<!-- DependenciesUtil -->
<g id="node1" class="node"><title>DependenciesUtil</title>
<polygon fill="none" stroke="black" points="288,-141.5 214,-141.5 214,-124.5 288,-124.5 288,-141.5"/>
<text text-anchor="middle" x="251" y="-130.3" font-family="Times,serif" font-size="8.00">DependenciesUtil</text>
</g>
<!-- ClassDependencies -->
<g id="node3" class="node"><title>ClassDependencies</title>
<polygon fill="none" stroke="black" points="285,-33.5 205,-33.5 205,-16.5 285,-16.5 285,-33.5"/>
<text text-anchor="middle" x="245" y="-22.3" font-family="Times,serif" font-size="8.00">ClassDependencies</text>
</g>
<!-- DependenciesUtil&#45;&gt;ClassDependencies -->
<g id="edge2" class="edge"><title>DependenciesUtil&#45;&gt;ClassDependencies</title>
<path fill="none" stroke="black" d="M224.071,-124.356C207.281,-117.411 187.022,-105.825 177,-88 165.284,-67.1634 190.056,-49.2973 212.918,-37.9693"/>
<polygon fill="black" stroke="black" points="214.569,-41.0614 222.159,-33.6687 211.616,-34.715 214.569,-41.0614"/>
</g>
<!-- DependencyCommand -->
<g id="node5" class="node"><title>DependencyCommand</title>
<polygon fill="none" stroke="black" points="148,-87.5 56,-87.5 56,-70.5 148,-70.5 148,-87.5"/>
<text text-anchor="middle" x="102" y="-76.3" font-family="Times,serif" font-size="8.00">DependencyCommand</text>
</g>
<!-- DependenciesUtil&#45;&gt;DependencyCommand -->
<g id="edge4" class="edge"><title>DependenciesUtil&#45;&gt;DependencyCommand</title>
<path fill="none" stroke="black" d="M227.391,-124.444C202.542,-115.438 163.226,-101.189 135.246,-91.049"/>
<polygon fill="black" stroke="black" points="136.093,-87.6332 125.499,-87.5164 133.708,-94.2144 136.093,-87.6332"/>
</g>
<!-- DependencyFileFilter -->
<g id="node7" class="node"><title>DependencyFileFilter</title>
<polygon fill="none" stroke="black" points="274,-87.5 186,-87.5 186,-70.5 274,-70.5 274,-87.5"/>
<text text-anchor="middle" x="230" y="-76.3" font-family="Times,serif" font-size="8.00">DependencyFileFilter</text>
</g>
<!-- DependenciesUtil&#45;&gt;DependencyFileFilter -->
<g id="edge6" class="edge"><title>DependenciesUtil&#45;&gt;DependencyFileFilter</title>
<path fill="none" stroke="black" d="M247.532,-124.083C244.688,-116.77 240.571,-106.181 237.04,-97.1034"/>
<polygon fill="black" stroke="black" points="240.29,-95.8025 233.403,-87.7511 233.766,-98.3397 240.29,-95.8025"/>
</g>
<!-- ExportCommand -->
<g id="node9" class="node"><title>ExportCommand</title>
<polygon fill="none" stroke="black" points="364,-87.5 292,-87.5 292,-70.5 364,-70.5 364,-87.5"/>
<text text-anchor="middle" x="328" y="-76.3" font-family="Times,serif" font-size="8.00">ExportCommand</text>
</g>
<!-- DependenciesUtil&#45;&gt;ExportCommand -->
<g id="edge8" class="edge"><title>DependenciesUtil&#45;&gt;ExportCommand</title>
<path fill="none" stroke="black" d="M263.371,-124.324C275.158,-116.058 293.132,-103.453 307.136,-93.6322"/>
<polygon fill="black" stroke="black" points="309.482,-96.2619 315.659,-87.6545 305.462,-90.5307 309.482,-96.2619"/>
</g>
<!-- ExportCommand&#45;&gt;ClassDependencies -->
<g id="edge32" class="edge"><title>ExportCommand&#45;&gt;ClassDependencies</title>
<path fill="none" stroke="black" d="M314.665,-70.324C301.838,-61.979 282.215,-49.2122 267.06,-39.3524"/>
<polygon fill="black" stroke="black" points="268.593,-36.1742 258.302,-33.6545 264.776,-42.0417 268.593,-36.1742"/>
</g>
<!-- DependenciesUtilTest -->
<g id="node10" class="node"><title>DependenciesUtilTest</title>
<polygon fill="none" stroke="black" points="324,-249.5 236,-249.5 236,-232.5 324,-232.5 324,-249.5"/>
<text text-anchor="middle" x="280" y="-238.3" font-family="Times,serif" font-size="8.00">DependenciesUtilTest</text>
</g>
<!-- DependenciesUtilTest&#45;&gt;DependenciesUtil -->
<g id="edge12" class="edge"><title>DependenciesUtilTest&#45;&gt;DependenciesUtil</title>
<path fill="none" stroke="black" d="M277.627,-232.162C272.909,-214.592 262.263,-174.946 255.955,-151.453"/>
<polygon fill="black" stroke="black" points="259.299,-150.409 253.325,-141.658 252.538,-152.224 259.299,-150.409"/>
</g>
<!-- DependenciesUtilTest&#45;&gt;DependencyCommand -->
<g id="edge10" class="edge"><title>DependenciesUtilTest&#45;&gt;DependencyCommand</title>
<path fill="none" stroke="black" d="M240.923,-232.477C213.166,-225.352 175.704,-213.507 146,-196 115.376,-177.951 101.326,-174.533 87,-142 80.6358,-127.548 85.7701,-109.99 91.7015,-97.0848"/>
<polygon fill="black" stroke="black" points="94.973,-98.3757 96.4247,-87.8807 88.7451,-95.1797 94.973,-98.3757"/>
</g>
<!-- DependenciesUtilTest&#45;&gt;ExportCommand -->
<g id="edge14" class="edge"><title>DependenciesUtilTest&#45;&gt;ExportCommand</title>
<path fill="none" stroke="black" d="M282.581,-232.29C290.101,-206.909 312.119,-132.6 322.484,-97.6172"/>
<polygon fill="black" stroke="black" points="325.921,-98.3352 325.407,-87.7529 319.21,-96.3465 325.921,-98.3352"/>
</g>
<!-- DependencyAnalyzer -->
<g id="node15" class="node"><title>DependencyAnalyzer</title>
<polygon fill="none" stroke="black" points="243,-195.5 155,-195.5 155,-178.5 243,-178.5 243,-195.5"/>
<text text-anchor="middle" x="199" y="-184.3" font-family="Times,serif" font-size="8.00">DependencyAnalyzer</text>
</g>
<!-- DependenciesUtilTest&#45;&gt;DependencyAnalyzer -->
<g id="edge16" class="edge"><title>DependenciesUtilTest&#45;&gt;DependencyAnalyzer</title>
<path fill="none" stroke="black" d="M266.986,-232.324C254.468,-223.979 235.318,-211.212 220.529,-201.352"/>
<polygon fill="black" stroke="black" points="222.244,-198.289 211.982,-195.655 218.361,-204.114 222.244,-198.289"/>
</g>
<!-- DependencyAnalyzer&#45;&gt;DependenciesUtil -->
<g id="edge24" class="edge"><title>DependencyAnalyzer&#45;&gt;DependenciesUtil</title>
<path fill="none" stroke="black" d="M207.587,-178.083C215.159,-170.22 226.378,-158.569 235.514,-149.081"/>
<polygon fill="black" stroke="black" points="238.158,-151.382 242.573,-141.751 233.115,-146.527 238.158,-151.382"/>
</g>
<!-- DependencyAnalyzer&#45;&gt;ClassDependencies -->
<g id="edge18" class="edge"><title>DependencyAnalyzer&#45;&gt;ClassDependencies</title>
<path fill="none" stroke="black" d="M169.056,-178.489C114.212,-161.435 6.80041,-120.361 47,-70 65.1432,-47.2707 142.152,-35.147 194.608,-29.3998"/>
<polygon fill="black" stroke="black" points="195.168,-32.8603 204.747,-28.3341 194.436,-25.8987 195.168,-32.8603"/>
</g>
<!-- DependencyAnalyzer&#45;&gt;DependencyCommand -->
<g id="edge20" class="edge"><title>DependencyAnalyzer&#45;&gt;DependencyCommand</title>
<path fill="none" stroke="black" d="M199.245,-178.332C199.176,-165.253 197.281,-140.279 185,-124 173.694,-109.014 155.893,-98.4308 139.671,-91.3098"/>
<polygon fill="black" stroke="black" points="140.944,-88.0492 130.363,-87.5101 138.299,-94.53 140.944,-88.0492"/>
</g>
<!-- DependencyVisitor -->
<g id="node19" class="node"><title>DependencyVisitor</title>
<polygon fill="none" stroke="black" points="176,-141.5 96,-141.5 96,-124.5 176,-124.5 176,-141.5"/>
<text text-anchor="middle" x="136" y="-130.3" font-family="Times,serif" font-size="8.00">DependencyVisitor</text>
</g>
<!-- DependencyAnalyzer&#45;&gt;DependencyVisitor -->
<g id="edge22" class="edge"><title>DependencyAnalyzer&#45;&gt;DependencyVisitor</title>
<path fill="none" stroke="black" d="M188.878,-178.324C179.474,-170.263 165.256,-158.077 153.931,-148.369"/>
<polygon fill="black" stroke="black" points="156.177,-145.684 146.306,-141.834 151.621,-150.999 156.177,-145.684"/>
</g>
<!-- DependencyAnalyzerTest -->
<g id="node21" class="node"><title>DependencyAnalyzerTest</title>
<polygon fill="none" stroke="black" points="218,-249.5 116,-249.5 116,-232.5 218,-232.5 218,-249.5"/>
<text text-anchor="middle" x="167" y="-238.3" font-family="Times,serif" font-size="8.00">DependencyAnalyzerTest</text>
</g>
<!-- DependencyAnalyzerTest&#45;&gt;ClassDependencies -->
<g id="edge26" class="edge"><title>DependencyAnalyzerTest&#45;&gt;ClassDependencies</title>
<path fill="none" stroke="black" d="M127.009,-232.428C92.9461,-224.229 47.8403,-210.929 37,-196 4.09276,-150.68 -0.210377,-113.555 35,-70 54.6951,-45.6374 139.018,-33.8692 194.637,-28.6584"/>
<polygon fill="black" stroke="black" points="195.019,-32.1383 204.667,-27.7602 194.394,-25.1662 195.019,-32.1383"/>
</g>
<!-- DependencyAnalyzerTest&#45;&gt;DependencyCommand -->
<g id="edge28" class="edge"><title>DependencyAnalyzerTest&#45;&gt;DependencyCommand</title>
<path fill="none" stroke="black" d="M133.831,-232.497C103.38,-223.94 61.5783,-210.034 52,-196 33.9604,-169.569 38.9812,-153.232 52,-124 57.5679,-111.498 68.5156,-101.012 78.751,-93.3167"/>
<polygon fill="black" stroke="black" points="80.8509,-96.1193 87.0475,-87.5256 76.8442,-90.3794 80.8509,-96.1193"/>
</g>
<!-- DependencyAnalyzerTest&#45;&gt;DependencyAnalyzer -->
<g id="edge30" class="edge"><title>DependencyAnalyzerTest&#45;&gt;DependencyAnalyzer</title>
<path fill="none" stroke="black" d="M172.284,-232.083C176.711,-224.613 183.163,-213.724 188.618,-204.52"/>
<polygon fill="black" stroke="black" points="191.727,-206.138 193.814,-195.751 185.705,-202.57 191.727,-206.138"/>
</g>
<!-- Layer$1 -->
<g id="node26" class="node"><title>Layer$1</title>
<polygon fill="none" stroke="black" points="490,-411.5 448,-411.5 448,-394.5 490,-394.5 490,-411.5"/>
<text text-anchor="middle" x="469" y="-400.3" font-family="Times,serif" font-size="8.00">Layer$1</text>
</g>
<!-- Layer -->
<g id="node28" class="node"><title>Layer</title>
<polygon fill="none" stroke="black" points="456,-357.5 422,-357.5 422,-340.5 456,-340.5 456,-357.5"/>
<text text-anchor="middle" x="439" y="-346.3" font-family="Times,serif" font-size="8.00">Layer</text>
</g>
<!-- Layer$1&#45;&gt;Layer -->
<g id="edge34" class="edge"><title>Layer$1&#45;&gt;Layer</title>
<path fill="none" stroke="black" d="M464.046,-394.083C459.896,-386.613 453.847,-375.724 448.733,-366.52"/>
<polygon fill="black" stroke="black" points="451.778,-364.793 443.862,-357.751 445.659,-368.192 451.778,-364.793"/>
</g>
<!-- MvcAnalyzer$Variable -->
<g id="node34" class="node"><title>MvcAnalyzer$Variable</title>
<polygon fill="none" stroke="black" points="616,-303.5 522,-303.5 522,-286.5 616,-286.5 616,-303.5"/>
<text text-anchor="middle" x="569" y="-292.3" font-family="Times,serif" font-size="8.00">MvcAnalyzer$Variable</text>
</g>
<!-- Layer&#45;&gt;MvcAnalyzer$Variable -->
<g id="edge40" class="edge"><title>Layer&#45;&gt;MvcAnalyzer$Variable</title>
<path fill="none" stroke="black" d="M456.263,-341.829C477.331,-333.078 513.31,-318.133 538.956,-307.48"/>
<polygon fill="black" stroke="black" points="540.334,-310.698 548.226,-303.629 537.648,-304.233 540.334,-310.698"/>
</g>
<!-- Layer$2 -->
<g id="node29" class="node"><title>Layer$2</title>
<polygon fill="none" stroke="black" points="552,-411.5 508,-411.5 508,-394.5 552,-394.5 552,-411.5"/>
<text text-anchor="middle" x="530" y="-400.3" font-family="Times,serif" font-size="8.00">Layer$2</text>
</g>
<!-- Layer$2&#45;&gt;Layer -->
<g id="edge36" class="edge"><title>Layer$2&#45;&gt;Layer</title>
<path fill="none" stroke="black" d="M515.379,-394.324C501.051,-385.822 478.987,-372.729 462.251,-362.797"/>
<polygon fill="black" stroke="black" points="463.97,-359.748 453.584,-357.655 460.398,-365.768 463.97,-359.748"/>
</g>
<!-- Layer$3 -->
<g id="node31" class="node"><title>Layer$3</title>
<polygon fill="none" stroke="black" points="430,-411.5 388,-411.5 388,-394.5 430,-394.5 430,-411.5"/>
<text text-anchor="middle" x="409" y="-400.3" font-family="Times,serif" font-size="8.00">Layer$3</text>
</g>
<!-- Layer$3&#45;&gt;DependencyAnalyzer -->
<!-- Layer$3&#45;&gt;Layer -->
<g id="edge38" class="edge"><title>Layer$3&#45;&gt;Layer</title>
<path fill="none" stroke="black" d="M413.954,-394.083C418.104,-386.613 424.153,-375.724 429.267,-366.52"/>
<polygon fill="black" stroke="black" points="432.341,-368.192 434.138,-357.751 426.222,-364.793 432.341,-368.192"/>
</g>
<!-- MvcAnalyzer -->
<g id="node36" class="node"><title>MvcAnalyzer</title>
<polygon fill="none" stroke="black" points="497,-249.5 435,-249.5 435,-232.5 497,-232.5 497,-249.5"/>
<text text-anchor="middle" x="466" y="-238.3" font-family="Times,serif" font-size="8.00">MvcAnalyzer</text>
</g>
<!-- MvcAnalyzer$Variable&#45;&gt;MvcAnalyzer -->
<g id="edge42" class="edge"><title>MvcAnalyzer$Variable&#45;&gt;MvcAnalyzer</title>
<path fill="none" stroke="black" d="M552.451,-286.324C536.008,-277.703 510.565,-264.364 491.532,-254.386"/>
<polygon fill="black" stroke="black" points="492.989,-251.198 482.508,-249.655 489.739,-257.398 492.989,-251.198"/>
</g>
<!-- MvcAnalyzer&#45;&gt;DependenciesUtil -->
<g id="edge52" class="edge"><title>MvcAnalyzer&#45;&gt;DependenciesUtil</title>
<path fill="none" stroke="black" d="M437.59,-232.37C412.777,-224.362 376.12,-211.382 346,-196 318.434,-181.922 289.09,-161.53 270.431,-147.794"/>
<polygon fill="black" stroke="black" points="272.292,-144.816 262.184,-141.643 268.107,-150.427 272.292,-144.816"/>
</g>
<!-- MvcAnalyzer&#45;&gt;ClassDependencies -->
<g id="edge44" class="edge"><title>MvcAnalyzer&#45;&gt;ClassDependencies</title>
<path fill="none" stroke="black" d="M497.398,-239.358C550.691,-235.18 650.617,-220.56 624,-170 592.138,-109.476 390.566,-57.3459 295.063,-35.6963"/>
<polygon fill="black" stroke="black" points="295.583,-32.226 285.059,-33.4522 294.051,-39.0563 295.583,-32.226"/>
</g>
<!-- MvcAnalyzer&#45;&gt;DependencyCommand -->
<g id="edge46" class="edge"><title>MvcAnalyzer&#45;&gt;DependencyCommand</title>
<path fill="none" stroke="black" d="M446.225,-232.453C428.071,-224.222 400.77,-210.86 379,-196 338.943,-168.657 340.16,-146.124 297,-124 273.114,-111.756 207.027,-97.8994 158.381,-88.8369"/>
<polygon fill="black" stroke="black" points="158.755,-85.3471 148.287,-86.9782 157.488,-92.2313 158.755,-85.3471"/>
</g>
<!-- MvcAnalyzer&#45;&gt;ExportCommand -->
<g id="edge58" class="edge"><title>MvcAnalyzer&#45;&gt;ExportCommand</title>
<path fill="none" stroke="black" d="M497.366,-237.404C547.514,-230.345 637.182,-211.592 607,-170 579.335,-131.877 446.079,-101.351 374.2,-87.3359"/>
<polygon fill="black" stroke="black" points="374.54,-83.8375 364.06,-85.3891 373.221,-90.7119 374.54,-83.8375"/>
</g>
<!-- MvcAnalyzer&#45;&gt;DependencyAnalyzer -->
<g id="edge48" class="edge"><title>MvcAnalyzer&#45;&gt;DependencyAnalyzer</title>
<path fill="none" stroke="black" d="M434.849,-234.7C389.783,-225.585 305.827,-208.605 251.2,-197.557"/>
<polygon fill="black" stroke="black" points="251.853,-194.119 241.358,-195.567 250.465,-200.98 251.853,-194.119"/>
</g>
<!-- MvcAnalyzer&#45;&gt;Layer -->
<g id="edge56" class="edge"><title>MvcAnalyzer&#45;&gt;Layer</title>
<path fill="none" stroke="black" d="M451.922,-249.741C440.647,-257.645 425.654,-270.416 419,-286 412.608,-300.97 419.439,-318.692 426.803,-331.52"/>
<polygon fill="black" stroke="black" points="424.022,-333.672 432.327,-340.25 429.937,-329.928 424.022,-333.672"/>
</g>
<!-- MvcDependencyCommand -->
<g id="node41" class="node"><title>MvcDependencyCommand</title>
<polygon fill="none" stroke="black" points="598,-195.5 492,-195.5 492,-178.5 598,-178.5 598,-195.5"/>
<text text-anchor="middle" x="545" y="-184.3" font-family="Times,serif" font-size="8.00">MvcDependencyCommand</text>
</g>
<!-- MvcAnalyzer&#45;&gt;MvcDependencyCommand -->
<g id="edge50" class="edge"><title>MvcAnalyzer&#45;&gt;MvcDependencyCommand</title>
<path fill="none" stroke="black" d="M473.578,-232.324C484.078,-223.9 502.695,-210.971 518.401,-201.074"/>
<polygon fill="black" stroke="black" points="520.538,-203.869 527.229,-195.655 516.875,-197.904 520.538,-203.869"/>
</g>
<!-- MvcExportCommand -->
<g id="node44" class="node"><title>MvcExportCommand</title>
<polygon fill="none" stroke="black" points="474,-195.5 388,-195.5 388,-178.5 474,-178.5 474,-195.5"/>
<text text-anchor="middle" x="431" y="-184.3" font-family="Times,serif" font-size="8.00">MvcExportCommand</text>
</g>
<!-- MvcAnalyzer&#45;&gt;MvcExportCommand -->
<g id="edge54" class="edge"><title>MvcAnalyzer&#45;&gt;MvcExportCommand</title>
<path fill="none" stroke="black" d="M460.22,-232.083C455.328,-224.534 448.173,-213.495 442.167,-204.23"/>
<polygon fill="black" stroke="black" points="445.048,-202.239 436.672,-195.751 439.174,-206.046 445.048,-202.239"/>
</g>
<!-- MvcDependencyCommand&#45;&gt;DependencyCommand -->
<g id="edge62" class="edge"><title>MvcDependencyCommand&#45;&gt;DependencyCommand</title>
<path fill="none" stroke="black" d="M525.64,-178.494C494.343,-165.057 430.433,-138.92 374,-124 334.277,-113.498 225.496,-96.8424 158.152,-87.0108"/>
<polygon fill="black" stroke="black" points="158.522,-83.5279 148.123,-85.5524 157.515,-90.4551 158.522,-83.5279"/>
</g>
<!-- MvcDependencyCommand&#45;&gt;MvcAnalyzer$Variable -->
<g id="edge66" class="edge"><title>MvcDependencyCommand&#45;&gt;MvcAnalyzer$Variable</title>
<path fill="none" stroke="black" d="M546.924,-195.658C550.795,-213.077 559.6,-252.701 564.846,-276.305"/>
<polygon fill="black" stroke="black" points="561.45,-277.159 567.036,-286.162 568.283,-275.641 561.45,-277.159"/>
</g>
<!-- MvcDependencyCommand&#45;&gt;MvcAnalyzer -->
<g id="edge64" class="edge"><title>MvcDependencyCommand&#45;&gt;MvcAnalyzer</title>
<path fill="none" stroke="black" d="M537.225,-195.834C526.687,-204.263 508.196,-217.099 492.585,-226.935"/>
<polygon fill="black" stroke="black" points="490.498,-224.109 483.808,-232.324 494.161,-230.074 490.498,-224.109"/>
</g>
<!-- MvcExportCommand&#45;&gt;DependenciesUtil -->
<g id="edge72" class="edge"><title>MvcExportCommand&#45;&gt;DependenciesUtil</title>
<path fill="none" stroke="black" d="M403.603,-178.461C394.796,-175.735 384.992,-172.72 376,-170 347.251,-161.302 314.715,-151.679 290.046,-144.427"/>
<polygon fill="black" stroke="black" points="290.908,-141.032 280.327,-141.573 288.936,-147.749 290.908,-141.032"/>
</g>
<!-- MvcExportCommand&#45;&gt;ClassDependencies -->
<g id="edge68" class="edge"><title>MvcExportCommand&#45;&gt;ClassDependencies</title>
<path fill="none" stroke="black" d="M429.081,-178.272C423.903,-156.746 407.639,-100.646 373,-70 351.274,-50.7778 320.829,-39.6358 295.082,-33.2482"/>
<polygon fill="black" stroke="black" points="295.639,-29.7849 285.108,-30.9481 294.066,-36.6059 295.639,-29.7849"/>
</g>
<!-- MvcExportCommand&#45;&gt;ExportCommand -->
<g id="edge74" class="edge"><title>MvcExportCommand&#45;&gt;ExportCommand</title>
<path fill="none" stroke="black" d="M423.419,-178.288C412.648,-165.989 392.2,-142.923 374,-124 364.513,-114.136 353.573,-103.408 344.742,-94.9019"/>
<polygon fill="black" stroke="black" points="346.971,-92.1906 337.327,-87.803 342.13,-97.2468 346.971,-92.1906"/>
</g>
<!-- MvcExportCommand&#45;&gt;Layer -->
<g id="edge70" class="edge"><title>MvcExportCommand&#45;&gt;Layer</title>
<path fill="none" stroke="black" d="M427.265,-195.647C419.329,-215.22 402.355,-264.299 413,-304 415.654,-313.897 421.069,-323.869 426.274,-331.901"/>
<polygon fill="black" stroke="black" points="423.536,-334.094 432.11,-340.319 429.289,-330.106 423.536,-334.094"/>
</g>
<!-- MvcAnalyzerTest -->
<g id="node47" class="node"><title>MvcAnalyzerTest</title>
<polygon fill="none" stroke="black" points="504,-303.5 428,-303.5 428,-286.5 504,-286.5 504,-303.5"/>
<text text-anchor="middle" x="466" y="-292.3" font-family="Times,serif" font-size="8.00">MvcAnalyzerTest</text>
</g>
<!-- MvcAnalyzerTest&#45;&gt;MvcAnalyzer -->
<g id="edge60" class="edge"><title>MvcAnalyzerTest&#45;&gt;MvcAnalyzer</title>
<path fill="none" stroke="black" d="M466,-286.083C466,-279.006 466,-268.861 466,-259.986"/>
<polygon fill="black" stroke="black" points="469.5,-259.751 466,-249.751 462.5,-259.751 469.5,-259.751"/>
</g>
<!-- DependenciesUtil$1 -->
<g id="node59" class="node"><title>DependenciesUtil$1</title>
<polygon fill="none" stroke="black" points="98,-249.5 16,-249.5 16,-232.5 98,-232.5 98,-249.5"/>
<text text-anchor="middle" x="57" y="-238.3" font-family="Times,serif" font-size="8.00">DependenciesUtil$1</text>
</g>
</g>
</svg>
