<?xml version="1.0" encoding="UTF-8" standalone="no"?>
<!DOCTYPE svg PUBLIC "-//W3C//DTD SVG 1.0//EN"
 "http://www.w3.org/TR/2001/REC-SVG-20010904/DTD/svg10.dtd" [
 <!ATTLIST svg xmlns:xlink CDATA #FIXED "http://www.w3.org/1999/xlink">
]>
<!-- Generated by Graphviz version 2.20.2 (Mon Mar 30 10:09:11 UTC 2009)
     For user: (jccastrejon) jccastrejon,,, -->
<!-- Title: MvcAnalyzerClassification&#45;internal Pages: 1 -->
<svg width="775pt" height="360pt"
 viewBox="0.00 0.00 775.00 360.00" xmlns="http://www.w3.org/2000/svg" xmlns:xlink="http://www.w3.org/1999/xlink">
<g id="graph0" class="graph" transform="scale(1 1) rotate(0) translate(4 356)">
<title>MvcAnalyzerClassification&#45;internal</title>
<polygon style="fill:white;stroke:white;" points="-4,4 -4,-356 771,-356 771,4 -4,4"/>
<g id="cluster2" class="cluster"><title>clusterMVCLayers</title>
<polygon style="fill:#ccffff;stroke:#ccffff;" points="8,-292 8,-344 194,-344 194,-292 8,-292"/>
<text text-anchor="middle" x="101" y="-332.8" style="font-family:Times New Roman;font-size:8.00;">MVC Layers</text>
</g>
<g id="cluster3" class="cluster"><title>cluster_mx.itesm.arch.mvc</title>
<polygon style="fill:none;stroke:black;" points="202,-70 202,-344 360,-344 360,-70 202,-70"/>
<text text-anchor="middle" x="281" y="-332.8" style="font-family:Times New Roman;font-size:8.00;">mx.itesm.arch.mvc</text>
</g>
<g id="cluster4" class="cluster"><title>cluster_mx.itesm.arch.dependencies</title>
<polygon style="fill:none;stroke:black;" points="381,-16 381,-284 759,-284 759,-16 381,-16"/>
<text text-anchor="middle" x="570" y="-272.8" style="font-family:Times New Roman;font-size:8.00;">mx.itesm.arch.dependencies</text>
</g>
<!-- ModelLayer -->
<g id="node1" class="node"><title>ModelLayer</title>
<polygon style="fill:#ffff5c;stroke:#ffff5c;" points="186,-318 146,-318 146,-300 186,-300 186,-318"/>
<text text-anchor="middle" x="166" y="-306.8" style="font-family:Times New Roman;font-size:8.00;">Model</text>
</g>
<!-- ViewLayer -->
<g id="node2" class="node"><title>ViewLayer</title>
<polygon style="fill:#99ccff;stroke:#99ccff;" points="128,-318 92,-318 92,-300 128,-300 128,-318"/>
<text text-anchor="middle" x="110" y="-306.8" style="font-family:Times New Roman;font-size:8.00;">View</text>
</g>
<!-- ControllerLayer -->
<g id="node3" class="node"><title>ControllerLayer</title>
<polygon style="fill:#ff9999;stroke:#ff9999;" points="74,-318 16,-318 16,-300 74,-300 74,-318"/>
<text text-anchor="middle" x="45" y="-306.8" style="font-family:Times New Roman;font-size:8.00;">Controller</text>
</g>
<!-- MvcAnalyzerTest -->
<g id="node5" class="node"><title>MvcAnalyzerTest</title>
<polygon style="fill:#ffff5c;stroke:#ffff5c;" points="343,-318 259,-318 259,-300 343,-300 343,-318"/>
<text text-anchor="middle" x="301" y="-306.8" style="font-family:Times New Roman;font-size:8.00;">MvcAnalyzerTest</text>
</g>
<!-- MvcAnalyzer -->
<g id="node7" class="node"><title>MvcAnalyzer</title>
<polygon style="fill:#ffff5c;stroke:#ffff5c;" points="334,-258 268,-258 268,-240 334,-240 334,-258"/>
<text text-anchor="middle" x="301" y="-246.8" style="font-family:Times New Roman;font-size:8.00;">MvcAnalyzer</text>
</g>
<!-- MvcAnalyzerTest&#45;&gt;MvcAnalyzer -->
<g id="edge3" class="edge"><title>MvcAnalyzerTest&#45;&gt;MvcAnalyzer</title>
<path style="fill:none;stroke:black;" d="M301,-300C301,-292 301,-279 301,-268"/>
<polygon style="fill:black;stroke:black;" points="304.5,-268 301,-258 297.5,-268 304.5,-268"/>
</g>
<!-- MvcExportCommand -->
<g id="node10" class="node"><title>MvcExportCommand</title>
<polygon style="fill:#ffff5c;stroke:#ffff5c;" points="352,-204 250,-204 250,-186 352,-186 352,-204"/>
<text text-anchor="middle" x="301" y="-192.8" style="font-family:Times New Roman;font-size:8.00;">MvcExportCommand</text>
</g>
<!-- MvcAnalyzer&#45;&gt;MvcExportCommand -->
<g id="edge23" class="edge"><title>MvcAnalyzer&#45;&gt;MvcExportCommand</title>
<path style="fill:none;stroke:black;" d="M301,-240C301,-233 301,-223 301,-214"/>
<polygon style="fill:black;stroke:black;" points="304.5,-214 301,-204 297.5,-214 304.5,-214"/>
</g>
<!-- ClassDependencies -->
<g id="node12" class="node"><title>ClassDependencies</title>
<polygon style="fill:#ffff5c;stroke:#ffff5c;" points="516,-42 416,-42 416,-24 516,-24 516,-42"/>
<text text-anchor="middle" x="466" y="-30.8" style="font-family:Times New Roman;font-size:8.00;">ClassDependencies</text>
</g>
<!-- MvcAnalyzer&#45;&gt;ClassDependencies -->
<g id="edge17" class="edge"><title>MvcAnalyzer&#45;&gt;ClassDependencies</title>
<path style="fill:none;stroke:black;" d="M278,-240C262,-232 241,-221 228,-204 191,-155 156,-116 196,-70 209,-55 330,-43 406,-37"/>
<polygon style="fill:black;stroke:black;" points="406.398,-40.4778 416,-36 405.701,-33.5125 406.398,-40.4778"/>
</g>
<!-- Layer -->
<g id="node14" class="node"><title>Layer</title>
<polygon style="fill:#ffff5c;stroke:#ffff5c;" points="289,-150 251,-150 251,-132 289,-132 289,-150"/>
<text text-anchor="middle" x="270" y="-138.8" style="font-family:Times New Roman;font-size:8.00;">Layer</text>
</g>
<!-- MvcAnalyzer&#45;&gt;Layer -->
<g id="edge25" class="edge"><title>MvcAnalyzer&#45;&gt;Layer</title>
<path style="fill:none;stroke:black;" d="M281,-240C267,-232 249,-220 241,-204 234,-188 244,-171 254,-158"/>
<polygon style="fill:black;stroke:black;" points="256.8,-160.1 260,-150 251.2,-155.9 256.8,-160.1"/>
</g>
<!-- DependenciesUtil -->
<g id="node16" class="node"><title>DependenciesUtil</title>
<polygon style="fill:#ffff5c;stroke:#ffff5c;" points="495,-150 405,-150 405,-132 495,-132 495,-150"/>
<text text-anchor="middle" x="450" y="-138.8" style="font-family:Times New Roman;font-size:8.00;">DependenciesUtil</text>
</g>
<!-- MvcAnalyzer&#45;&gt;DependenciesUtil -->
<g id="edge21" class="edge"><title>MvcAnalyzer&#45;&gt;DependenciesUtil</title>
<path style="fill:none;stroke:black;" d="M326,-240C346,-232 373,-220 394,-204 411,-191 427,-172 438,-158"/>
<polygon style="fill:black;stroke:black;" points="440.8,-160.1 444,-150 435.2,-155.9 440.8,-160.1"/>
</g>
<!-- ExportCommand -->
<g id="node18" class="node"><title>ExportCommand</title>
<polygon style="fill:#ffff5c;stroke:#ffff5c;" points="475,-96 389,-96 389,-78 475,-78 475,-96"/>
<text text-anchor="middle" x="432" y="-84.8" style="font-family:Times New Roman;font-size:8.00;">ExportCommand</text>
</g>
<!-- MvcAnalyzer&#45;&gt;ExportCommand -->
<g id="edge27" class="edge"><title>MvcAnalyzer&#45;&gt;ExportCommand</title>
<path style="fill:none;stroke:black;" d="M317,-240C330,-232 349,-219 361,-204 384,-176 377,-162 396,-132 403,-122 410,-112 417,-104"/>
<polygon style="fill:black;stroke:black;" points="420.049,-105.831 424,-96 414.781,-101.221 420.049,-105.831"/>
</g>
<!-- DependencyAnalyzer -->
<g id="node22" class="node"><title>DependencyAnalyzer</title>
<polygon style="fill:#ffff5c;stroke:#ffff5c;" points="568,-204 466,-204 466,-186 568,-186 568,-204"/>
<text text-anchor="middle" x="517" y="-192.8" style="font-family:Times New Roman;font-size:8.00;">DependencyAnalyzer</text>
</g>
<!-- MvcAnalyzer&#45;&gt;DependencyAnalyzer -->
<g id="edge19" class="edge"><title>MvcAnalyzer&#45;&gt;DependencyAnalyzer</title>
<path style="fill:none;stroke:black;" d="M334,-241C371,-232 430,-217 471,-206"/>
<polygon style="fill:black;stroke:black;" points="471.881,-209.393 481,-204 470.508,-202.529 471.881,-209.393"/>
</g>
<!-- MvcAnalyzer$Variable -->
<g id="node8" class="node"><title>MvcAnalyzer$Variable</title>
<polygon style="fill:#ffff5c;stroke:#ffff5c;" points="323,-96 217,-96 217,-78 323,-78 323,-96"/>
<text text-anchor="middle" x="270" y="-84.8" style="font-family:Times New Roman;font-size:8.00;">MvcAnalyzer$Variable</text>
</g>
<!-- MvcAnalyzer$Variable&#45;&gt;MvcAnalyzer -->
<g id="edge5" class="edge"><title>MvcAnalyzer$Variable&#45;&gt;MvcAnalyzer</title>
<path style="fill:none;stroke:black;" d="M263,-96C248,-117 217,-167 236,-204 243,-218 257,-228 269,-235"/>
<polygon style="fill:black;stroke:black;" points="267.559,-238.203 278,-240 270.958,-232.084 267.559,-238.203"/>
</g>
<!-- MvcExportCommand&#45;&gt;ClassDependencies -->
<g id="edge7" class="edge"><title>MvcExportCommand&#45;&gt;ClassDependencies</title>
<path style="fill:none;stroke:black;" d="M285,-186C251,-165 173,-111 208,-70 220,-55 334,-43 406,-38"/>
<polygon style="fill:black;stroke:black;" points="406.398,-41.4778 416,-37 405.701,-34.5125 406.398,-41.4778"/>
</g>
<!-- MvcExportCommand&#45;&gt;Layer -->
<g id="edge9" class="edge"><title>MvcExportCommand&#45;&gt;Layer</title>
<path style="fill:none;stroke:black;" d="M296,-186C292,-179 285,-168 280,-159"/>
<polygon style="fill:black;stroke:black;" points="282.916,-157.042 275,-150 276.797,-160.441 282.916,-157.042"/>
</g>
<!-- MvcExportCommand&#45;&gt;DependenciesUtil -->
<g id="edge11" class="edge"><title>MvcExportCommand&#45;&gt;DependenciesUtil</title>
<path style="fill:none;stroke:black;" d="M326,-186C350,-177 388,-163 415,-153"/>
<polygon style="fill:black;stroke:black;" points="416.427,-156.226 425,-150 414.416,-149.521 416.427,-156.226"/>
</g>
<!-- MvcExportCommand&#45;&gt;ExportCommand -->
<g id="edge13" class="edge"><title>MvcExportCommand&#45;&gt;ExportCommand</title>
<path style="fill:none;stroke:black;" d="M309,-186C320,-173 342,-149 363,-132 377,-121 394,-109 407,-101"/>
<polygon style="fill:black;stroke:black;" points="408.958,-103.916 416,-96 405.559,-97.7969 408.958,-103.916"/>
</g>
<!-- Layer&#45;&gt;MvcAnalyzer$Variable -->
<g id="edge15" class="edge"><title>Layer&#45;&gt;MvcAnalyzer$Variable</title>
<path style="fill:none;stroke:black;" d="M270,-132C270,-125 270,-115 270,-106"/>
<polygon style="fill:black;stroke:black;" points="273.5,-106 270,-96 266.5,-106 273.5,-106"/>
</g>
<!-- DependenciesUtil&#45;&gt;ClassDependencies -->
<g id="edge35" class="edge"><title>DependenciesUtil&#45;&gt;ClassDependencies</title>
<path style="fill:none;stroke:black;" d="M460,-132C468,-123 480,-110 484,-96 490,-81 484,-64 477,-51"/>
<polygon style="fill:black;stroke:black;" points="479.916,-49.0418 472,-42 473.797,-52.4414 479.916,-49.0418"/>
</g>
<!-- DependenciesUtil&#45;&gt;ExportCommand -->
<g id="edge37" class="edge"><title>DependenciesUtil&#45;&gt;ExportCommand</title>
<path style="fill:none;stroke:black;" d="M447,-132C445,-125 442,-115 439,-106"/>
<polygon style="fill:black;stroke:black;" points="441.964,-103.985 435,-96 435.464,-106.585 441.964,-103.985"/>
</g>
<!-- ExportCommand&#45;&gt;ClassDependencies -->
<g id="edge49" class="edge"><title>ExportCommand&#45;&gt;ClassDependencies</title>
<path style="fill:none;stroke:black;" d="M438,-78C442,-71 449,-60 455,-51"/>
<polygon style="fill:black;stroke:black;" points="458.203,-52.4414 460,-42 452.084,-49.0418 458.203,-52.4414"/>
</g>
<!-- DependencyAnalyzer&#45;&gt;ClassDependencies -->
<g id="edge29" class="edge"><title>DependencyAnalyzer&#45;&gt;ClassDependencies</title>
<path style="fill:none;stroke:black;" d="M516,-186C515,-165 509,-111 491,-70 488,-63 484,-56 480,-50"/>
<polygon style="fill:black;stroke:black;" points="482.8,-47.9 474,-42 477.2,-52.1 482.8,-47.9"/>
</g>
<!-- DependencyAnalyzer&#45;&gt;DependenciesUtil -->
<g id="edge33" class="edge"><title>DependencyAnalyzer&#45;&gt;DependenciesUtil</title>
<path style="fill:none;stroke:black;" d="M506,-186C496,-178 482,-166 470,-156"/>
<polygon style="fill:black;stroke:black;" points="472.1,-153.2 462,-150 467.9,-158.8 472.1,-153.2"/>
</g>
<!-- DependencyVisitor -->
<g id="node29" class="node"><title>DependencyVisitor</title>
<polygon style="fill:#ffff5c;stroke:#ffff5c;" points="627,-150 533,-150 533,-132 627,-132 627,-150"/>
<text text-anchor="middle" x="580" y="-138.8" style="font-family:Times New Roman;font-size:8.00;">DependencyVisitor</text>
</g>
<!-- DependencyAnalyzer&#45;&gt;DependencyVisitor -->
<g id="edge31" class="edge"><title>DependencyAnalyzer&#45;&gt;DependencyVisitor</title>
<path style="fill:none;stroke:black;" d="M528,-186C538,-178 551,-166 562,-157"/>
<polygon style="fill:black;stroke:black;" points="564.404,-159.546 569,-150 559.454,-154.596 564.404,-159.546"/>
</g>
<!-- DependenciesUtil$1 -->
<g id="node31" class="node"><title>DependenciesUtil$1</title>
<polygon style="fill:#ffff5c;stroke:#ffff5c;" points="751,-258 651,-258 651,-240 751,-240 751,-258"/>
<text text-anchor="middle" x="701" y="-246.8" style="font-family:Times New Roman;font-size:8.00;">DependenciesUtil$1</text>
</g>
<!-- DependenciesUtilTest -->
<g id="node34" class="node"><title>DependenciesUtilTest</title>
<polygon style="fill:#ffff5c;stroke:#ffff5c;" points="495,-258 389,-258 389,-240 495,-240 495,-258"/>
<text text-anchor="middle" x="442" y="-246.8" style="font-family:Times New Roman;font-size:8.00;">DependenciesUtilTest</text>
</g>
<!-- DependenciesUtilTest&#45;&gt;DependenciesUtil -->
<g id="edge39" class="edge"><title>DependenciesUtilTest&#45;&gt;DependenciesUtil</title>
<path style="fill:none;stroke:black;" d="M443,-240C445,-223 447,-184 448,-160"/>
<polygon style="fill:black;stroke:black;" points="451.488,-160.299 449,-150 444.522,-159.602 451.488,-160.299"/>
</g>
<!-- DependenciesUtilTest&#45;&gt;ExportCommand -->
<g id="edge41" class="edge"><title>DependenciesUtilTest&#45;&gt;ExportCommand</title>
<path style="fill:none;stroke:black;" d="M489,-240C560,-224 681,-188 636,-132 617,-109 539,-97 485,-91"/>
<polygon style="fill:black;stroke:black;" points="485.299,-87.5125 475,-90 484.602,-94.4778 485.299,-87.5125"/>
</g>
<!-- DependenciesUtilTest&#45;&gt;DependencyAnalyzer -->
<g id="edge43" class="edge"><title>DependenciesUtilTest&#45;&gt;DependencyAnalyzer</title>
<path style="fill:none;stroke:black;" d="M455,-240C466,-232 483,-220 496,-210"/>
<polygon style="fill:black;stroke:black;" points="498.1,-212.8 504,-204 493.9,-207.2 498.1,-212.8"/>
</g>
<!-- DependencyAnalyzerTest -->
<g id="node38" class="node"><title>DependencyAnalyzerTest</title>
<polygon style="fill:#ffff5c;stroke:#ffff5c;" points="633,-258 513,-258 513,-240 633,-240 633,-258"/>
<text text-anchor="middle" x="573" y="-246.8" style="font-family:Times New Roman;font-size:8.00;">DependencyAnalyzerTest</text>
</g>
<!-- DependencyAnalyzerTest&#45;&gt;ClassDependencies -->
<g id="edge45" class="edge"><title>DependencyAnalyzerTest&#45;&gt;ClassDependencies</title>
<path style="fill:none;stroke:black;" d="M586,-240C613,-220 669,-172 645,-132 617,-85 557,-58 515,-45"/>
<polygon style="fill:black;stroke:black;" points="515.584,-41.5212 505,-42 513.573,-48.2259 515.584,-41.5212"/>
</g>
<!-- DependencyAnalyzerTest&#45;&gt;DependencyAnalyzer -->
<g id="edge47" class="edge"><title>DependencyAnalyzerTest&#45;&gt;DependencyAnalyzer</title>
<path style="fill:none;stroke:black;" d="M564,-240C556,-232 544,-220 534,-211"/>
<polygon style="fill:black;stroke:black;" points="536.546,-208.596 527,-204 531.596,-213.546 536.546,-208.596"/>
</g>
</g>
</svg>
