<?xml version="1.0" encoding="UTF-8" standalone="no"?>
<!DOCTYPE svg PUBLIC "-//W3C//DTD SVG 1.0//EN"
 "http://www.w3.org/TR/2001/REC-SVG-20010904/DTD/svg10.dtd" [
 <!ATTLIST svg xmlns:xlink CDATA #FIXED "http://www.w3.org/1999/xlink">
]>
<!-- Generated by Graphviz version 2.20.2 (Mon Mar 30 10:09:11 UTC 2009)
     For user: (jccastrejon) jccastrejon,,, -->
<!-- Title: MvcAnalyzer&#45;internal Pages: 1 -->
<svg width="586pt" height="354pt"
 viewBox="0.00 0.00 586.00 354.00" xmlns="http://www.w3.org/2000/svg" xmlns:xlink="http://www.w3.org/1999/xlink">
<g id="graph0" class="graph" transform="scale(1 1) rotate(0) translate(4 350)">
<title>MvcAnalyzer&#45;internal</title>
<polygon style="fill:white;stroke:white;" points="-4,4 -4,-350 582,-350 582,4 -4,4"/>
<g id="cluster2" class="cluster"><title>cluster_mx.itesm.arch.mvc</title>
<polygon style="fill:none;stroke:black;" points="26,-70 26,-338 184,-338 184,-70 26,-70"/>
<text text-anchor="middle" x="105" y="-326.8" style="font-family:Times New Roman;font-size:8.00;">mx.itesm.arch.mvc</text>
</g>
<g id="cluster3" class="cluster"><title>cluster_mx.itesm.arch.dependencies</title>
<polygon style="fill:none;stroke:black;" points="192,-16 192,-284 570,-284 570,-16 192,-16"/>
<text text-anchor="middle" x="381" y="-272.8" style="font-family:Times New Roman;font-size:8.00;">mx.itesm.arch.dependencies</text>
</g>
<!-- MvcAnalyzerTest -->
<g id="node1" class="node"><title>MvcAnalyzerTest</title>
<polygon style="fill:none;stroke:black;" points="167,-312 83,-312 83,-294 167,-294 167,-312"/>
<text text-anchor="middle" x="125" y="-300.8" style="font-family:Times New Roman;font-size:8.00;">MvcAnalyzerTest</text>
</g>
<!-- MvcAnalyzer -->
<g id="node3" class="node"><title>MvcAnalyzer</title>
<polygon style="fill:none;stroke:black;" points="158,-258 92,-258 92,-240 158,-240 158,-258"/>
<text text-anchor="middle" x="125" y="-246.8" style="font-family:Times New Roman;font-size:8.00;">MvcAnalyzer</text>
</g>
<!-- MvcAnalyzerTest&#45;&gt;MvcAnalyzer -->
<g id="edge2" class="edge"><title>MvcAnalyzerTest&#45;&gt;MvcAnalyzer</title>
<path style="fill:none;stroke:black;" d="M125,-294C125,-287 125,-277 125,-268"/>
<polygon style="fill:black;stroke:black;" points="128.5,-268 125,-258 121.5,-268 128.5,-268"/>
</g>
<!-- MvcExportCommand -->
<g id="node6" class="node"><title>MvcExportCommand</title>
<polygon style="fill:none;stroke:black;" points="176,-204 74,-204 74,-186 176,-186 176,-204"/>
<text text-anchor="middle" x="125" y="-192.8" style="font-family:Times New Roman;font-size:8.00;">MvcExportCommand</text>
</g>
<!-- MvcAnalyzer&#45;&gt;MvcExportCommand -->
<g id="edge22" class="edge"><title>MvcAnalyzer&#45;&gt;MvcExportCommand</title>
<path style="fill:none;stroke:black;" d="M125,-240C125,-233 125,-223 125,-214"/>
<polygon style="fill:black;stroke:black;" points="128.5,-214 125,-204 121.5,-214 128.5,-214"/>
</g>
<!-- ClassDependencies -->
<g id="node8" class="node"><title>ClassDependencies</title>
<polygon style="fill:none;stroke:black;" points="327,-42 227,-42 227,-24 327,-24 327,-42"/>
<text text-anchor="middle" x="277" y="-30.8" style="font-family:Times New Roman;font-size:8.00;">ClassDependencies</text>
</g>
<!-- MvcAnalyzer&#45;&gt;ClassDependencies -->
<g id="edge16" class="edge"><title>MvcAnalyzer&#45;&gt;ClassDependencies</title>
<path style="fill:none;stroke:black;" d="M102,-240C86,-232 65,-221 52,-204 16,-155 -17,-116 22,-70 34,-56 145,-43 217,-38"/>
<polygon style="fill:black;stroke:black;" points="217.398,-41.4778 227,-37 216.701,-34.5125 217.398,-41.4778"/>
</g>
<!-- Layer -->
<g id="node10" class="node"><title>Layer</title>
<polygon style="fill:none;stroke:black;" points="114,-150 76,-150 76,-132 114,-132 114,-150"/>
<text text-anchor="middle" x="95" y="-138.8" style="font-family:Times New Roman;font-size:8.00;">Layer</text>
</g>
<!-- MvcAnalyzer&#45;&gt;Layer -->
<g id="edge24" class="edge"><title>MvcAnalyzer&#45;&gt;Layer</title>
<path style="fill:none;stroke:black;" d="M105,-240C91,-232 73,-220 65,-204 58,-188 68,-171 78,-158"/>
<polygon style="fill:black;stroke:black;" points="81.0489,-159.831 85,-150 75.7809,-155.221 81.0489,-159.831"/>
</g>
<!-- DependenciesUtil -->
<g id="node12" class="node"><title>DependenciesUtil</title>
<polygon style="fill:none;stroke:black;" points="322,-150 232,-150 232,-132 322,-132 322,-150"/>
<text text-anchor="middle" x="277" y="-138.8" style="font-family:Times New Roman;font-size:8.00;">DependenciesUtil</text>
</g>
<!-- MvcAnalyzer&#45;&gt;DependenciesUtil -->
<g id="edge20" class="edge"><title>MvcAnalyzer&#45;&gt;DependenciesUtil</title>
<path style="fill:none;stroke:black;" d="M150,-240C170,-232 197,-220 218,-204 236,-191 253,-172 264,-158"/>
<polygon style="fill:black;stroke:black;" points="266.8,-160.1 270,-150 261.2,-155.9 266.8,-160.1"/>
</g>
<!-- ExportCommand -->
<g id="node14" class="node"><title>ExportCommand</title>
<polygon style="fill:none;stroke:black;" points="286,-96 200,-96 200,-78 286,-78 286,-96"/>
<text text-anchor="middle" x="243" y="-84.8" style="font-family:Times New Roman;font-size:8.00;">ExportCommand</text>
</g>
<!-- MvcAnalyzer&#45;&gt;ExportCommand -->
<g id="edge26" class="edge"><title>MvcAnalyzer&#45;&gt;ExportCommand</title>
<path style="fill:none;stroke:black;" d="M141,-240C154,-232 173,-219 185,-204 192,-195 220,-136 235,-105"/>
<polygon style="fill:black;stroke:black;" points="238.137,-106.56 239,-96 231.74,-103.717 238.137,-106.56"/>
</g>
<!-- DependencyAnalyzer -->
<g id="node18" class="node"><title>DependencyAnalyzer</title>
<polygon style="fill:none;stroke:black;" points="415,-204 313,-204 313,-186 415,-186 415,-204"/>
<text text-anchor="middle" x="364" y="-192.8" style="font-family:Times New Roman;font-size:8.00;">DependencyAnalyzer</text>
</g>
<!-- MvcAnalyzer&#45;&gt;DependencyAnalyzer -->
<g id="edge18" class="edge"><title>MvcAnalyzer&#45;&gt;DependencyAnalyzer</title>
<path style="fill:none;stroke:black;" d="M158,-241C199,-233 268,-217 314,-206"/>
<polygon style="fill:black;stroke:black;" points="314.881,-209.393 324,-204 313.508,-202.529 314.881,-209.393"/>
</g>
<!-- MvcAnalyzer$Variable -->
<g id="node4" class="node"><title>MvcAnalyzer$Variable</title>
<polygon style="fill:none;stroke:black;" points="148,-96 42,-96 42,-78 148,-78 148,-96"/>
<text text-anchor="middle" x="95" y="-84.8" style="font-family:Times New Roman;font-size:8.00;">MvcAnalyzer$Variable</text>
</g>
<!-- MvcAnalyzer$Variable&#45;&gt;MvcAnalyzer -->
<g id="edge4" class="edge"><title>MvcAnalyzer$Variable&#45;&gt;MvcAnalyzer</title>
<path style="fill:none;stroke:black;" d="M88,-96C72,-116 41,-166 60,-204 67,-218 81,-228 93,-235"/>
<polygon style="fill:black;stroke:black;" points="91.5586,-238.203 102,-240 94.9582,-232.084 91.5586,-238.203"/>
</g>
<!-- MvcExportCommand&#45;&gt;ClassDependencies -->
<g id="edge6" class="edge"><title>MvcExportCommand&#45;&gt;ClassDependencies</title>
<path style="fill:none;stroke:black;" d="M110,-186C75,-165 -2,-111 33,-70 45,-56 148,-44 217,-38"/>
<polygon style="fill:black;stroke:black;" points="217.398,-41.4778 227,-37 216.701,-34.5125 217.398,-41.4778"/>
</g>
<!-- MvcExportCommand&#45;&gt;Layer -->
<g id="edge8" class="edge"><title>MvcExportCommand&#45;&gt;Layer</title>
<path style="fill:none;stroke:black;" d="M120,-186C116,-179 110,-168 105,-159"/>
<polygon style="fill:black;stroke:black;" points="107.916,-157.042 100,-150 101.797,-160.441 107.916,-157.042"/>
</g>
<!-- MvcExportCommand&#45;&gt;DependenciesUtil -->
<g id="edge10" class="edge"><title>MvcExportCommand&#45;&gt;DependenciesUtil</title>
<path style="fill:none;stroke:black;" d="M150,-186C176,-177 214,-163 242,-153"/>
<polygon style="fill:black;stroke:black;" points="243.427,-156.226 252,-150 241.416,-149.521 243.427,-156.226"/>
</g>
<!-- MvcExportCommand&#45;&gt;ExportCommand -->
<g id="edge12" class="edge"><title>MvcExportCommand&#45;&gt;ExportCommand</title>
<path style="fill:none;stroke:black;" d="M134,-186C147,-173 170,-151 190,-132 201,-122 214,-111 224,-103"/>
<polygon style="fill:black;stroke:black;" points="226.779,-105.219 232,-96 222.169,-99.9511 226.779,-105.219"/>
</g>
<!-- Layer&#45;&gt;MvcAnalyzer$Variable -->
<g id="edge14" class="edge"><title>Layer&#45;&gt;MvcAnalyzer$Variable</title>
<path style="fill:none;stroke:black;" d="M95,-132C95,-125 95,-115 95,-106"/>
<polygon style="fill:black;stroke:black;" points="98.5001,-106 95,-96 91.5001,-106 98.5001,-106"/>
</g>
<!-- DependenciesUtil&#45;&gt;ClassDependencies -->
<g id="edge34" class="edge"><title>DependenciesUtil&#45;&gt;ClassDependencies</title>
<path style="fill:none;stroke:black;" d="M282,-132C289,-118 301,-92 295,-70 294,-64 291,-57 288,-51"/>
<polygon style="fill:black;stroke:black;" points="290.916,-49.0418 283,-42 284.797,-52.4414 290.916,-49.0418"/>
</g>
<!-- DependenciesUtil&#45;&gt;ExportCommand -->
<g id="edge36" class="edge"><title>DependenciesUtil&#45;&gt;ExportCommand</title>
<path style="fill:none;stroke:black;" d="M271,-132C267,-125 260,-114 254,-105"/>
<polygon style="fill:black;stroke:black;" points="256.916,-103.042 249,-96 250.797,-106.441 256.916,-103.042"/>
</g>
<!-- ExportCommand&#45;&gt;ClassDependencies -->
<g id="edge48" class="edge"><title>ExportCommand&#45;&gt;ClassDependencies</title>
<path style="fill:none;stroke:black;" d="M249,-78C253,-71 260,-60 266,-51"/>
<polygon style="fill:black;stroke:black;" points="269.203,-52.4414 271,-42 263.084,-49.0418 269.203,-52.4414"/>
</g>
<!-- DependencyAnalyzer&#45;&gt;ClassDependencies -->
<g id="edge28" class="edge"><title>DependencyAnalyzer&#45;&gt;ClassDependencies</title>
<path style="fill:none;stroke:black;" d="M360,-186C351,-165 327,-112 302,-70 299,-63 294,-56 290,-50"/>
<polygon style="fill:black;stroke:black;" points="292.8,-47.9 284,-42 287.2,-52.1 292.8,-47.9"/>
</g>
<!-- DependencyAnalyzer&#45;&gt;DependenciesUtil -->
<g id="edge32" class="edge"><title>DependencyAnalyzer&#45;&gt;DependenciesUtil</title>
<path style="fill:none;stroke:black;" d="M349,-186C336,-178 316,-165 301,-155"/>
<polygon style="fill:black;stroke:black;" points="302.441,-151.797 292,-150 299.042,-157.916 302.441,-151.797"/>
</g>
<!-- DependencyVisitor -->
<g id="node25" class="node"><title>DependencyVisitor</title>
<polygon style="fill:none;stroke:black;" points="454,-150 360,-150 360,-132 454,-132 454,-150"/>
<text text-anchor="middle" x="407" y="-138.8" style="font-family:Times New Roman;font-size:8.00;">DependencyVisitor</text>
</g>
<!-- DependencyAnalyzer&#45;&gt;DependencyVisitor -->
<g id="edge30" class="edge"><title>DependencyAnalyzer&#45;&gt;DependencyVisitor</title>
<path style="fill:none;stroke:black;" d="M371,-186C377,-178 386,-167 394,-158"/>
<polygon style="fill:black;stroke:black;" points="396.8,-160.1 400,-150 391.2,-155.9 396.8,-160.1"/>
</g>
<!-- DependenciesUtilTest -->
<g id="node29" class="node"><title>DependenciesUtilTest</title>
<polygon style="fill:none;stroke:black;" points="424,-258 318,-258 318,-240 424,-240 424,-258"/>
<text text-anchor="middle" x="371" y="-246.8" style="font-family:Times New Roman;font-size:8.00;">DependenciesUtilTest</text>
</g>
<!-- DependenciesUtilTest&#45;&gt;DependenciesUtil -->
<g id="edge38" class="edge"><title>DependenciesUtilTest&#45;&gt;DependenciesUtil</title>
<path style="fill:none;stroke:black;" d="M352,-240C337,-232 317,-220 304,-204 294,-191 287,-173 282,-160"/>
<polygon style="fill:black;stroke:black;" points="285.226,-158.573 279,-150 278.521,-160.584 285.226,-158.573"/>
</g>
<!-- DependenciesUtilTest&#45;&gt;ExportCommand -->
<g id="edge40" class="edge"><title>DependenciesUtilTest&#45;&gt;ExportCommand</title>
<path style="fill:none;stroke:black;" d="M388,-240C422,-220 495,-172 463,-132 442,-107 355,-95 296,-90"/>
<polygon style="fill:black;stroke:black;" points="296.299,-86.5125 286,-89 295.602,-93.4778 296.299,-86.5125"/>
</g>
<!-- DependenciesUtilTest&#45;&gt;DependencyAnalyzer -->
<g id="edge42" class="edge"><title>DependenciesUtilTest&#45;&gt;DependencyAnalyzer</title>
<path style="fill:none;stroke:black;" d="M370,-240C369,-233 368,-223 367,-214"/>
<polygon style="fill:black;stroke:black;" points="370.393,-213.119 365,-204 363.529,-214.492 370.393,-213.119"/>
</g>
<!-- DependencyAnalyzerTest -->
<g id="node33" class="node"><title>DependencyAnalyzerTest</title>
<polygon style="fill:none;stroke:black;" points="562,-258 442,-258 442,-240 562,-240 562,-258"/>
<text text-anchor="middle" x="502" y="-246.8" style="font-family:Times New Roman;font-size:8.00;">DependencyAnalyzerTest</text>
</g>
<!-- DependencyAnalyzerTest&#45;&gt;ClassDependencies -->
<g id="edge44" class="edge"><title>DependencyAnalyzerTest&#45;&gt;ClassDependencies</title>
<path style="fill:none;stroke:black;" d="M502,-240C501,-218 497,-164 471,-132 434,-86 369,-59 325,-45"/>
<polygon style="fill:black;stroke:black;" points="325.584,-41.5212 315,-42 323.573,-48.2259 325.584,-41.5212"/>
</g>
<!-- DependencyAnalyzerTest&#45;&gt;DependencyAnalyzer -->
<g id="edge46" class="edge"><title>DependencyAnalyzerTest&#45;&gt;DependencyAnalyzer</title>
<path style="fill:none;stroke:black;" d="M479,-240C457,-231 422,-218 396,-208"/>
<polygon style="fill:black;stroke:black;" points="397.56,-204.863 387,-204 394.717,-211.26 397.56,-204.863"/>
</g>
<!-- DependenciesUtil$1 -->
<g id="node39" class="node"><title>DependenciesUtil$1</title>
<polygon style="fill:none;stroke:black;" points="300,-258 200,-258 200,-240 300,-240 300,-258"/>
<text text-anchor="middle" x="250" y="-246.8" style="font-family:Times New Roman;font-size:8.00;">DependenciesUtil$1</text>
</g>
</g>
</svg>
