<?xml version="1.0" encoding="UTF-8" standalone="no"?>
<!DOCTYPE svg PUBLIC "-//W3C//DTD SVG 1.0//EN"
 "http://www.w3.org/TR/2001/REC-SVG-20010904/DTD/svg10.dtd" [
 <!ATTLIST svg xmlns:xlink CDATA #FIXED "http://www.w3.org/1999/xlink">
]>
<!-- Generated by Graphviz version 2.20.2 (Mon Mar 30 10:09:11 UTC 2009)
     For user: (jccastrejon) jccastrejon,,, -->
<!-- Title: MvcAnalyzer Pages: 1 -->
<svg width="1746pt" height="360pt"
 viewBox="0.00 0.00 1746.00 360.00" xmlns="http://www.w3.org/2000/svg" xmlns:xlink="http://www.w3.org/1999/xlink">
<g id="graph0" class="graph" transform="scale(1 1) rotate(0) translate(4 356)">
<title>MvcAnalyzer</title>
<polygon style="fill:white;stroke:white;" points="-4,4 -4,-356 1742,-356 1742,4 -4,4"/>
<g id="cluster2" class="cluster"><title>cluster_mx.itesm.arch.mvc</title>
<polygon style="fill:none;stroke:black;" points="272,-76 272,-344 430,-344 430,-76 272,-76"/>
<text text-anchor="middle" x="351" y="-332.8" style="font-family:Times New Roman;font-size:8.00;">mx.itesm.arch.mvc</text>
</g>
<g id="cluster3" class="cluster"><title>cluster_mx.itesm.arch.dependencies</title>
<polygon style="fill:none;stroke:black;" points="637,-16 637,-290 1015,-290 1015,-16 637,-16"/>
<text text-anchor="middle" x="826" y="-278.8" style="font-family:Times New Roman;font-size:8.00;">mx.itesm.arch.dependencies</text>
</g>
<g id="cluster4" class="cluster"><title>cluster_junit.framework</title>
<polygon style="fill:none;stroke:black;" points="1023,-184 1023,-236 1106,-236 1106,-184 1023,-184"/>
<text text-anchor="middle" x="1064" y="-224.8" style="font-family:Times New Roman;font-size:8.00;">junit.framework</text>
</g>
<g id="cluster5" class="cluster"><title>cluster_org.objectweb.asm</title>
<polygon style="fill:none;stroke:black;" points="1174,-76 1174,-128 1730,-128 1730,-76 1174,-76"/>
<text text-anchor="middle" x="1452" y="-116.8" style="font-family:Times New Roman;font-size:8.00;">org.objectweb.asm</text>
</g>
<g id="cluster6" class="cluster"><title>cluster_org.objectweb.asm.commons</title>
<polygon style="fill:none;stroke:black;" points="1023,-76 1023,-128 1166,-128 1166,-76 1023,-76"/>
<text text-anchor="middle" x="1094" y="-116.8" style="font-family:Times New Roman;font-size:8.00;">org.objectweb.asm.commons</text>
</g>
<g id="cluster7" class="cluster"><title>cluster_weka.core</title>
<polygon style="fill:none;stroke:black;" points="8,-16 8,-68 412,-68 412,-16 8,-16"/>
<text text-anchor="middle" x="210" y="-56.8" style="font-family:Times New Roman;font-size:8.00;">weka.core</text>
</g>
<g id="cluster8" class="cluster"><title>cluster_weka.classifiers</title>
<polygon style="fill:none;stroke:black;" points="544,-184 544,-236 629,-236 629,-184 544,-184"/>
<text text-anchor="middle" x="587" y="-224.8" style="font-family:Times New Roman;font-size:8.00;">weka.classifiers</text>
</g>
<!-- MvcAnalyzerTest -->
<g id="node1" class="node"><title>MvcAnalyzerTest</title>
<polygon style="fill:none;stroke:black;" points="393,-318 309,-318 309,-300 393,-300 393,-318"/>
<text text-anchor="middle" x="351" y="-306.8" style="font-family:Times New Roman;font-size:8.00;">MvcAnalyzerTest</text>
</g>
<!-- MvcAnalyzer -->
<g id="node3" class="node"><title>MvcAnalyzer</title>
<polygon style="fill:none;stroke:black;" points="365,-264 299,-264 299,-246 365,-246 365,-264"/>
<text text-anchor="middle" x="332" y="-252.8" style="font-family:Times New Roman;font-size:8.00;">MvcAnalyzer</text>
</g>
<!-- MvcAnalyzerTest&#45;&gt;MvcAnalyzer -->
<g id="edge2" class="edge"><title>MvcAnalyzerTest&#45;&gt;MvcAnalyzer</title>
<path style="fill:none;stroke:black;" d="M348,-300C345,-293 342,-283 339,-274"/>
<polygon style="fill:black;stroke:black;" points="341.964,-271.985 335,-264 335.464,-274.585 341.964,-271.985"/>
</g>
<!-- TestCase -->
<g id="node5" class="node"><title>TestCase</title>
<polygon style="fill:none;stroke:black;" points="1085,-210 1031,-210 1031,-192 1085,-192 1085,-210"/>
<text text-anchor="middle" x="1058" y="-198.8" style="font-family:Times New Roman;font-size:8.00;">TestCase</text>
</g>
<!-- MvcAnalyzerTest&#45;&gt;TestCase -->
<g id="edge4" class="edge"><title>MvcAnalyzerTest&#45;&gt;TestCase</title>
<path style="fill:none;stroke:black;" d="M393,-308C538,-306 1006,-298 1019,-290 1042,-274 1051,-241 1055,-220"/>
<polygon style="fill:black;stroke:black;" points="1058.47,-220.492 1057,-210 1051.61,-219.119 1058.47,-220.492"/>
</g>
<!-- FastVector -->
<g id="node9" class="node"><title>FastVector</title>
<polygon style="fill:none;stroke:black;" points="334,-42 274,-42 274,-24 334,-24 334,-42"/>
<text text-anchor="middle" x="304" y="-30.8" style="font-family:Times New Roman;font-size:8.00;">FastVector</text>
</g>
<!-- MvcAnalyzer&#45;&gt;FastVector -->
<g id="edge42" class="edge"><title>MvcAnalyzer&#45;&gt;FastVector</title>
<path style="fill:none;stroke:black;" d="M299,-252C275,-250 246,-245 238,-236 193,-180 196,-132 238,-76 246,-65 255,-74 265,-68 274,-63 282,-56 289,-49"/>
<polygon style="fill:black;stroke:black;" points="291.404,-51.546 296,-42 286.454,-46.5962 291.404,-51.546"/>
</g>
<!-- Attribute -->
<g id="node11" class="node"><title>Attribute</title>
<polygon style="fill:none;stroke:black;" points="404,-42 352,-42 352,-24 404,-24 404,-42"/>
<text text-anchor="middle" x="378" y="-30.8" style="font-family:Times New Roman;font-size:8.00;">Attribute</text>
</g>
<!-- MvcAnalyzer&#45;&gt;Attribute -->
<g id="edge40" class="edge"><title>MvcAnalyzer&#45;&gt;Attribute</title>
<path style="fill:none;stroke:black;" d="M304,-246C299,-243 295,-240 291,-236 248,-179 224,-129 271,-76 282,-64 329,-74 343,-68 351,-64 359,-57 365,-50"/>
<polygon style="fill:black;stroke:black;" points="368.049,-51.8306 372,-42 362.781,-47.221 368.049,-51.8306"/>
</g>
<!-- MvcExportCommand -->
<g id="node12" class="node"><title>MvcExportCommand</title>
<polygon style="fill:none;stroke:black;" points="422,-210 320,-210 320,-192 422,-192 422,-210"/>
<text text-anchor="middle" x="371" y="-198.8" style="font-family:Times New Roman;font-size:8.00;">MvcExportCommand</text>
</g>
<!-- MvcAnalyzer&#45;&gt;MvcExportCommand -->
<g id="edge32" class="edge"><title>MvcAnalyzer&#45;&gt;MvcExportCommand</title>
<path style="fill:none;stroke:black;" d="M339,-246C344,-239 352,-228 358,-218"/>
<polygon style="fill:black;stroke:black;" points="360.8,-220.1 364,-210 355.2,-215.9 360.8,-220.1"/>
</g>
<!-- ClassDependencies -->
<g id="node14" class="node"><title>ClassDependencies</title>
<polygon style="fill:none;stroke:black;" points="772,-42 672,-42 672,-24 772,-24 772,-42"/>
<text text-anchor="middle" x="722" y="-30.8" style="font-family:Times New Roman;font-size:8.00;">ClassDependencies</text>
</g>
<!-- MvcAnalyzer&#45;&gt;ClassDependencies -->
<g id="edge26" class="edge"><title>MvcAnalyzer&#45;&gt;ClassDependencies</title>
<path style="fill:none;stroke:black;" d="M365,-251C390,-248 421,-243 431,-236 454,-220 445,-203 464,-184 473,-175 621,-84 636,-76 655,-65 677,-54 694,-46"/>
<polygon style="fill:black;stroke:black;" points="695.283,-49.2598 703,-42 692.44,-42.8631 695.283,-49.2598"/>
</g>
<!-- Layer -->
<g id="node16" class="node"><title>Layer</title>
<polygon style="fill:none;stroke:black;" points="390,-156 352,-156 352,-138 390,-138 390,-156"/>
<text text-anchor="middle" x="371" y="-144.8" style="font-family:Times New Roman;font-size:8.00;">Layer</text>
</g>
<!-- MvcAnalyzer&#45;&gt;Layer -->
<g id="edge34" class="edge"><title>MvcAnalyzer&#45;&gt;Layer</title>
<path style="fill:none;stroke:black;" d="M319,-246C316,-243 313,-240 311,-236 302,-214 300,-204 311,-184 318,-171 331,-163 343,-157"/>
<polygon style="fill:black;stroke:black;" points="344.283,-160.26 352,-153 341.44,-153.863 344.283,-160.26"/>
</g>
<!-- DependenciesUtil -->
<g id="node18" class="node"><title>DependenciesUtil</title>
<polygon style="fill:none;stroke:black;" points="795,-156 705,-156 705,-138 795,-138 795,-156"/>
<text text-anchor="middle" x="750" y="-144.8" style="font-family:Times New Roman;font-size:8.00;">DependenciesUtil</text>
</g>
<!-- MvcAnalyzer&#45;&gt;DependenciesUtil -->
<g id="edge30" class="edge"><title>MvcAnalyzer&#45;&gt;DependenciesUtil</title>
<path style="fill:none;stroke:black;" d="M365,-253C411,-249 491,-242 502,-236 527,-221 516,-199 540,-184 565,-168 642,-157 695,-152"/>
<polygon style="fill:black;stroke:black;" points="695.398,-155.478 705,-151 694.701,-148.512 695.398,-155.478"/>
</g>
<!-- ExportCommand -->
<g id="node20" class="node"><title>ExportCommand</title>
<polygon style="fill:none;stroke:black;" points="731,-102 645,-102 645,-84 731,-84 731,-102"/>
<text text-anchor="middle" x="688" y="-90.8" style="font-family:Times New Roman;font-size:8.00;">ExportCommand</text>
</g>
<!-- MvcAnalyzer&#45;&gt;ExportCommand -->
<g id="edge36" class="edge"><title>MvcAnalyzer&#45;&gt;ExportCommand</title>
<path style="fill:none;stroke:black;" d="M365,-253C399,-251 448,-246 464,-236 489,-221 481,-202 502,-184 547,-146 609,-119 649,-105"/>
<polygon style="fill:black;stroke:black;" points="650.427,-108.226 659,-102 648.416,-101.521 650.427,-108.226"/>
</g>
<!-- DependencyAnalyzer -->
<g id="node26" class="node"><title>DependencyAnalyzer</title>
<polygon style="fill:none;stroke:black;" points="873,-210 771,-210 771,-192 873,-192 873,-210"/>
<text text-anchor="middle" x="822" y="-198.8" style="font-family:Times New Roman;font-size:8.00;">DependencyAnalyzer</text>
</g>
<!-- MvcAnalyzer&#45;&gt;DependencyAnalyzer -->
<g id="edge28" class="edge"><title>MvcAnalyzer&#45;&gt;DependencyAnalyzer</title>
<path style="fill:none;stroke:black;" d="M365,-254C421,-252 536,-248 633,-236 680,-230 733,-220 771,-212"/>
<polygon style="fill:black;stroke:black;" points="771.881,-215.393 781,-210 770.508,-208.529 771.881,-215.393"/>
</g>
<!-- Classifier -->
<g id="node32" class="node"><title>Classifier</title>
<polygon style="fill:none;stroke:black;" points="610,-210 554,-210 554,-192 610,-192 610,-210"/>
<text text-anchor="middle" x="582" y="-198.8" style="font-family:Times New Roman;font-size:8.00;">Classifier</text>
</g>
<!-- MvcAnalyzer&#45;&gt;Classifier -->
<g id="edge38" class="edge"><title>MvcAnalyzer&#45;&gt;Classifier</title>
<path style="fill:none;stroke:black;" d="M365,-254C416,-253 510,-248 540,-236 550,-232 560,-224 567,-217"/>
<polygon style="fill:black;stroke:black;" points="569.404,-219.546 574,-210 564.454,-214.596 569.404,-219.546"/>
</g>
<!-- Instance -->
<g id="node36" class="node"><title>Instance</title>
<polygon style="fill:none;stroke:black;" points="256,-42 204,-42 204,-24 256,-24 256,-42"/>
<text text-anchor="middle" x="230" y="-30.8" style="font-family:Times New Roman;font-size:8.00;">Instance</text>
</g>
<!-- MvcAnalyzer&#45;&gt;Instance -->
<g id="edge44" class="edge"><title>MvcAnalyzer&#45;&gt;Instance</title>
<path style="fill:none;stroke:black;" d="M299,-252C264,-249 213,-242 207,-236 159,-183 187,-144 207,-76 210,-67 214,-58 219,-51"/>
<polygon style="fill:black;stroke:black;" points="222.203,-52.4414 224,-42 216.084,-49.0418 222.203,-52.4414"/>
</g>
<!-- Instances -->
<g id="node38" class="node"><title>Instances</title>
<polygon style="fill:none;stroke:black;" points="72,-42 16,-42 16,-24 72,-24 72,-42"/>
<text text-anchor="middle" x="44" y="-30.8" style="font-family:Times New Roman;font-size:8.00;">Instances</text>
</g>
<!-- MvcAnalyzer&#45;&gt;Instances -->
<g id="edge46" class="edge"><title>MvcAnalyzer&#45;&gt;Instances</title>
<path style="fill:none;stroke:black;" d="M299,-253C248,-251 156,-245 143,-236 79,-191 55,-93 47,-52"/>
<polygon style="fill:black;stroke:black;" points="50.3933,-51.1194 45,-42 43.5292,-52.4922 50.3933,-51.1194"/>
</g>
<!-- SerializationHelper -->
<g id="node40" class="node"><title>SerializationHelper</title>
<polygon style="fill:none;stroke:black;" points="186,-42 90,-42 90,-24 186,-24 186,-42"/>
<text text-anchor="middle" x="138" y="-30.8" style="font-family:Times New Roman;font-size:8.00;">SerializationHelper</text>
</g>
<!-- MvcAnalyzer&#45;&gt;SerializationHelper -->
<g id="edge48" class="edge"><title>MvcAnalyzer&#45;&gt;SerializationHelper</title>
<path style="fill:none;stroke:black;" d="M299,-253C256,-250 187,-244 178,-236 126,-188 131,-93 135,-52"/>
<polygon style="fill:black;stroke:black;" points="138.488,-52.2987 136,-42 131.522,-51.6021 138.488,-52.2987"/>
</g>
<!-- MvcAnalyzer$Variable -->
<g id="node6" class="node"><title>MvcAnalyzer$Variable</title>
<polygon style="fill:none;stroke:black;" points="386,-102 280,-102 280,-84 386,-84 386,-102"/>
<text text-anchor="middle" x="333" y="-90.8" style="font-family:Times New Roman;font-size:8.00;">MvcAnalyzer$Variable</text>
</g>
<!-- MvcAnalyzer$Variable&#45;&gt;MvcAnalyzer -->
<g id="edge6" class="edge"><title>MvcAnalyzer$Variable&#45;&gt;MvcAnalyzer</title>
<path style="fill:none;stroke:black;" d="M328,-102C321,-118 306,-152 300,-184 297,-206 289,-215 300,-236 301,-237 302,-238 303,-239"/>
<polygon style="fill:black;stroke:black;" points="300.454,-241.404 310,-246 305.404,-236.454 300.454,-241.404"/>
</g>
<!-- MvcAnalyzer$Variable&#45;&gt;FastVector -->
<g id="edge8" class="edge"><title>MvcAnalyzer$Variable&#45;&gt;FastVector</title>
<path style="fill:none;stroke:black;" d="M329,-84C324,-76 318,-62 313,-51"/>
<polygon style="fill:black;stroke:black;" points="315.916,-49.0418 308,-42 309.797,-52.4414 315.916,-49.0418"/>
</g>
<!-- MvcAnalyzer$Variable&#45;&gt;Attribute -->
<g id="edge10" class="edge"><title>MvcAnalyzer$Variable&#45;&gt;Attribute</title>
<path style="fill:none;stroke:black;" d="M340,-84C346,-75 356,-61 365,-50"/>
<polygon style="fill:black;stroke:black;" points="367.8,-52.1 371,-42 362.2,-47.9 367.8,-52.1"/>
</g>
<!-- MvcExportCommand&#45;&gt;ClassDependencies -->
<g id="edge12" class="edge"><title>MvcExportCommand&#45;&gt;ClassDependencies</title>
<path style="fill:none;stroke:black;" d="M380,-192C407,-165 484,-91 514,-76 560,-52 619,-42 662,-37"/>
<polygon style="fill:black;stroke:black;" points="662.398,-40.4778 672,-36 661.701,-33.5125 662.398,-40.4778"/>
</g>
<!-- MvcExportCommand&#45;&gt;Layer -->
<g id="edge14" class="edge"><title>MvcExportCommand&#45;&gt;Layer</title>
<path style="fill:none;stroke:black;" d="M371,-192C371,-185 371,-175 371,-166"/>
<polygon style="fill:black;stroke:black;" points="374.5,-166 371,-156 367.5,-166 374.5,-166"/>
</g>
<!-- MvcExportCommand&#45;&gt;DependenciesUtil -->
<g id="edge16" class="edge"><title>MvcExportCommand&#45;&gt;DependenciesUtil</title>
<path style="fill:none;stroke:black;" d="M422,-194C494,-183 622,-166 695,-155"/>
<polygon style="fill:black;stroke:black;" points="695.881,-158.393 705,-153 694.508,-151.529 695.881,-158.393"/>
</g>
<!-- MvcExportCommand&#45;&gt;ExportCommand -->
<g id="edge18" class="edge"><title>MvcExportCommand&#45;&gt;ExportCommand</title>
<path style="fill:none;stroke:black;" d="M393,-192C424,-179 484,-155 535,-138 572,-125 614,-114 644,-105"/>
<polygon style="fill:black;stroke:black;" points="645.427,-108.226 654,-102 643.416,-101.521 645.427,-108.226"/>
</g>
<!-- Layer&#45;&gt;MvcAnalyzer$Variable -->
<g id="edge20" class="edge"><title>Layer&#45;&gt;MvcAnalyzer$Variable</title>
<path style="fill:none;stroke:black;" d="M364,-138C359,-131 351,-120 345,-110"/>
<polygon style="fill:black;stroke:black;" points="347.8,-107.9 339,-102 342.2,-112.1 347.8,-107.9"/>
</g>
<!-- Layer&#45;&gt;FastVector -->
<g id="edge22" class="edge"><title>Layer&#45;&gt;FastVector</title>
<path style="fill:none;stroke:black;" d="M387,-138C390,-135 393,-132 395,-128 406,-107 411,-93 395,-76 380,-58 365,-78 343,-68 334,-64 325,-56 318,-49"/>
<polygon style="fill:black;stroke:black;" points="320.546,-46.5962 311,-42 315.596,-51.546 320.546,-46.5962"/>
</g>
<!-- Layer&#45;&gt;Attribute -->
<g id="edge24" class="edge"><title>Layer&#45;&gt;Attribute</title>
<path style="fill:none;stroke:black;" d="M390,-143C405,-139 424,-134 428,-128 442,-109 438,-97 428,-76 423,-64 413,-55 403,-48"/>
<polygon style="fill:black;stroke:black;" points="405.1,-45.2 395,-42 400.9,-50.8 405.1,-45.2"/>
</g>
<!-- DependenciesUtil&#45;&gt;ClassDependencies -->
<g id="edge72" class="edge"><title>DependenciesUtil&#45;&gt;ClassDependencies</title>
<path style="fill:none;stroke:black;" d="M750,-138C749,-124 746,-97 740,-76 738,-68 734,-59 731,-51"/>
<polygon style="fill:black;stroke:black;" points="734.26,-49.7166 727,-42 727.863,-52.5596 734.26,-49.7166"/>
</g>
<!-- DependenciesUtil&#45;&gt;ExportCommand -->
<g id="edge74" class="edge"><title>DependenciesUtil&#45;&gt;ExportCommand</title>
<path style="fill:none;stroke:black;" d="M739,-138C730,-130 717,-118 706,-109"/>
<polygon style="fill:black;stroke:black;" points="708.546,-106.596 699,-102 703.596,-111.546 708.546,-106.596"/>
</g>
<!-- ExportCommand&#45;&gt;ClassDependencies -->
<g id="edge90" class="edge"><title>ExportCommand&#45;&gt;ClassDependencies</title>
<path style="fill:none;stroke:black;" d="M693,-84C698,-76 706,-62 712,-51"/>
<polygon style="fill:black;stroke:black;" points="715.203,-52.4414 717,-42 709.084,-49.0418 715.203,-52.4414"/>
</g>
<!-- DependencyAnalyzer&#45;&gt;ClassDependencies -->
<g id="edge50" class="edge"><title>DependencyAnalyzer&#45;&gt;ClassDependencies</title>
<path style="fill:none;stroke:black;" d="M821,-192C819,-179 814,-155 804,-138 787,-103 757,-68 738,-49"/>
<polygon style="fill:black;stroke:black;" points="740.546,-46.5962 731,-42 735.596,-51.546 740.546,-46.5962"/>
</g>
<!-- DependencyAnalyzer&#45;&gt;DependenciesUtil -->
<g id="edge54" class="edge"><title>DependencyAnalyzer&#45;&gt;DependenciesUtil</title>
<path style="fill:none;stroke:black;" d="M810,-192C799,-184 783,-172 770,-162"/>
<polygon style="fill:black;stroke:black;" points="772.1,-159.2 762,-156 767.9,-164.8 772.1,-159.2"/>
</g>
<!-- DependencyVisitor -->
<g id="node43" class="node"><title>DependencyVisitor</title>
<polygon style="fill:none;stroke:black;" points="1007,-156 913,-156 913,-138 1007,-138 1007,-156"/>
<text text-anchor="middle" x="960" y="-144.8" style="font-family:Times New Roman;font-size:8.00;">DependencyVisitor</text>
</g>
<!-- DependencyAnalyzer&#45;&gt;DependencyVisitor -->
<g id="edge52" class="edge"><title>DependencyAnalyzer&#45;&gt;DependencyVisitor</title>
<path style="fill:none;stroke:black;" d="M845,-192C867,-183 902,-170 928,-160"/>
<polygon style="fill:black;stroke:black;" points="929.283,-163.26 937,-156 926.44,-156.863 929.283,-163.26"/>
</g>
<!-- ClassReader -->
<g id="node46" class="node"><title>ClassReader</title>
<polygon style="fill:none;stroke:black;" points="1638,-102 1568,-102 1568,-84 1638,-84 1638,-102"/>
<text text-anchor="middle" x="1603" y="-90.8" style="font-family:Times New Roman;font-size:8.00;">ClassReader</text>
</g>
<!-- DependencyAnalyzer&#45;&gt;ClassReader -->
<g id="edge56" class="edge"><title>DependencyAnalyzer&#45;&gt;ClassReader</title>
<path style="fill:none;stroke:black;" d="M873,-196C1037,-181 1542,-134 1559,-128 1569,-124 1579,-116 1587,-109"/>
<polygon style="fill:black;stroke:black;" points="1589.78,-111.219 1595,-102 1585.17,-105.951 1589.78,-111.219"/>
</g>
<!-- ClassVisitor -->
<g id="node48" class="node"><title>ClassVisitor</title>
<polygon style="fill:none;stroke:black;" points="1722,-102 1656,-102 1656,-84 1722,-84 1722,-102"/>
<text text-anchor="middle" x="1689" y="-90.8" style="font-family:Times New Roman;font-size:8.00;">ClassVisitor</text>
</g>
<!-- DependencyAnalyzer&#45;&gt;ClassVisitor -->
<g id="edge58" class="edge"><title>DependencyAnalyzer&#45;&gt;ClassVisitor</title>
<path style="fill:none;stroke:black;" d="M873,-196C913,-193 970,-188 1019,-184 1158,-172 1518,-182 1647,-128 1657,-124 1666,-116 1674,-109"/>
<polygon style="fill:black;stroke:black;" points="1676.4,-111.546 1681,-102 1671.45,-106.596 1676.4,-111.546"/>
</g>
<!-- Type -->
<g id="node50" class="node"><title>Type</title>
<polygon style="fill:none;stroke:black;" points="1402,-102 1368,-102 1368,-84 1402,-84 1402,-102"/>
<text text-anchor="middle" x="1385" y="-90.8" style="font-family:Times New Roman;font-size:8.00;">Type</text>
</g>
<!-- DependencyVisitor&#45;&gt;Type -->
<g id="edge60" class="edge"><title>DependencyVisitor&#45;&gt;Type</title>
<path style="fill:none;stroke:black;" d="M1007,-146C1109,-143 1343,-136 1359,-128 1366,-124 1372,-117 1376,-111"/>
<polygon style="fill:black;stroke:black;" points="1379.2,-112.441 1381,-102 1373.08,-109.042 1379.2,-112.441"/>
</g>
<!-- AnnotationVisitor -->
<g id="node52" class="node"><title>AnnotationVisitor</title>
<polygon style="fill:none;stroke:black;" points="1350,-102 1262,-102 1262,-84 1350,-84 1350,-102"/>
<text text-anchor="middle" x="1306" y="-90.8" style="font-family:Times New Roman;font-size:8.00;">AnnotationVisitor</text>
</g>
<!-- DependencyVisitor&#45;&gt;AnnotationVisitor -->
<g id="edge62" class="edge"><title>DependencyVisitor&#45;&gt;AnnotationVisitor</title>
<path style="fill:none;stroke:black;" d="M1007,-145C1084,-142 1230,-135 1253,-128 1265,-123 1278,-115 1288,-108"/>
<polygon style="fill:black;stroke:black;" points="1290.1,-110.8 1296,-102 1285.9,-105.2 1290.1,-110.8"/>
</g>
<!-- FieldVisitor -->
<g id="node54" class="node"><title>FieldVisitor</title>
<polygon style="fill:none;stroke:black;" points="1244,-102 1182,-102 1182,-84 1244,-84 1244,-102"/>
<text text-anchor="middle" x="1213" y="-90.8" style="font-family:Times New Roman;font-size:8.00;">FieldVisitor</text>
</g>
<!-- DependencyVisitor&#45;&gt;FieldVisitor -->
<g id="edge64" class="edge"><title>DependencyVisitor&#45;&gt;FieldVisitor</title>
<path style="fill:none;stroke:black;" d="M1007,-146C1060,-144 1141,-139 1170,-128 1180,-124 1189,-116 1197,-109"/>
<polygon style="fill:black;stroke:black;" points="1199.78,-111.219 1205,-102 1195.17,-105.951 1199.78,-111.219"/>
</g>
<!-- MethodVisitor -->
<g id="node56" class="node"><title>MethodVisitor</title>
<polygon style="fill:none;stroke:black;" points="1550,-102 1476,-102 1476,-84 1550,-84 1550,-102"/>
<text text-anchor="middle" x="1513" y="-90.8" style="font-family:Times New Roman;font-size:8.00;">MethodVisitor</text>
</g>
<!-- DependencyVisitor&#45;&gt;MethodVisitor -->
<g id="edge66" class="edge"><title>DependencyVisitor&#45;&gt;MethodVisitor</title>
<path style="fill:none;stroke:black;" d="M1007,-146C1129,-143 1445,-135 1467,-128 1478,-124 1488,-116 1496,-109"/>
<polygon style="fill:black;stroke:black;" points="1498.78,-111.219 1504,-102 1494.17,-105.951 1498.78,-111.219"/>
</g>
<!-- EmptyVisitor -->
<g id="node58" class="node"><title>EmptyVisitor</title>
<polygon style="fill:none;stroke:black;" points="1099,-102 1031,-102 1031,-84 1099,-84 1099,-102"/>
<text text-anchor="middle" x="1065" y="-90.8" style="font-family:Times New Roman;font-size:8.00;">EmptyVisitor</text>
</g>
<!-- DependencyVisitor&#45;&gt;EmptyVisitor -->
<g id="edge68" class="edge"><title>DependencyVisitor&#45;&gt;EmptyVisitor</title>
<path style="fill:none;stroke:black;" d="M994,-138C1002,-135 1011,-132 1019,-128 1029,-123 1039,-115 1047,-109"/>
<polygon style="fill:black;stroke:black;" points="1049.78,-111.219 1055,-102 1045.17,-105.951 1049.78,-111.219"/>
</g>
<!-- Label -->
<g id="node60" class="node"><title>Label</title>
<polygon style="fill:none;stroke:black;" points="1458,-102 1420,-102 1420,-84 1458,-84 1458,-102"/>
<text text-anchor="middle" x="1439" y="-90.8" style="font-family:Times New Roman;font-size:8.00;">Label</text>
</g>
<!-- DependencyVisitor&#45;&gt;Label -->
<g id="edge70" class="edge"><title>DependencyVisitor&#45;&gt;Label</title>
<path style="fill:none;stroke:black;" d="M1007,-146C1119,-144 1393,-137 1411,-128 1418,-124 1424,-117 1428,-110"/>
<polygon style="fill:black;stroke:black;" points="1430.8,-112.1 1434,-102 1425.2,-107.9 1430.8,-112.1"/>
</g>
<!-- DependenciesUtilTest -->
<g id="node63" class="node"><title>DependenciesUtilTest</title>
<polygon style="fill:none;stroke:black;" points="869,-264 763,-264 763,-246 869,-246 869,-264"/>
<text text-anchor="middle" x="816" y="-252.8" style="font-family:Times New Roman;font-size:8.00;">DependenciesUtilTest</text>
</g>
<!-- DependenciesUtilTest&#45;&gt;TestCase -->
<g id="edge82" class="edge"><title>DependenciesUtilTest&#45;&gt;TestCase</title>
<path style="fill:none;stroke:black;" d="M869,-247C872,-246 875,-246 878,-246 910,-242 991,-248 1019,-236 1028,-232 1037,-224 1044,-217"/>
<polygon style="fill:black;stroke:black;" points="1046.4,-219.546 1051,-210 1041.45,-214.596 1046.4,-219.546"/>
</g>
<!-- DependenciesUtilTest&#45;&gt;DependenciesUtil -->
<g id="edge76" class="edge"><title>DependenciesUtilTest&#45;&gt;DependenciesUtil</title>
<path style="fill:none;stroke:black;" d="M783,-246C774,-243 765,-239 762,-236 746,-217 746,-186 747,-166"/>
<polygon style="fill:black;stroke:black;" points="750.488,-166.299 748,-156 743.522,-165.602 750.488,-166.299"/>
</g>
<!-- DependenciesUtilTest&#45;&gt;ExportCommand -->
<g id="edge78" class="edge"><title>DependenciesUtilTest&#45;&gt;ExportCommand</title>
<path style="fill:none;stroke:black;" d="M773,-246C761,-243 749,-239 744,-236 711,-211 710,-195 696,-156 691,-141 689,-125 688,-112"/>
<polygon style="fill:black;stroke:black;" points="691.5,-112 688,-102 684.5,-112 691.5,-112"/>
</g>
<!-- DependenciesUtilTest&#45;&gt;DependencyAnalyzer -->
<g id="edge80" class="edge"><title>DependenciesUtilTest&#45;&gt;DependencyAnalyzer</title>
<path style="fill:none;stroke:black;" d="M817,-246C818,-239 819,-229 820,-220"/>
<polygon style="fill:black;stroke:black;" points="823.488,-220.299 821,-210 816.522,-219.602 823.488,-220.299"/>
</g>
<!-- DependencyAnalyzerTest -->
<g id="node68" class="node"><title>DependencyAnalyzerTest</title>
<polygon style="fill:none;stroke:black;" points="1007,-264 887,-264 887,-246 1007,-246 1007,-264"/>
<text text-anchor="middle" x="947" y="-252.8" style="font-family:Times New Roman;font-size:8.00;">DependencyAnalyzerTest</text>
</g>
<!-- DependencyAnalyzerTest&#45;&gt;TestCase -->
<g id="edge88" class="edge"><title>DependencyAnalyzerTest&#45;&gt;TestCase</title>
<path style="fill:none;stroke:black;" d="M993,-246C1002,-243 1011,-240 1019,-236 1028,-231 1036,-224 1043,-217"/>
<polygon style="fill:black;stroke:black;" points="1045.4,-219.546 1050,-210 1040.45,-214.596 1045.4,-219.546"/>
</g>
<!-- DependencyAnalyzerTest&#45;&gt;ClassDependencies -->
<g id="edge84" class="edge"><title>DependencyAnalyzerTest&#45;&gt;ClassDependencies</title>
<path style="fill:none;stroke:black;" d="M940,-246C919,-218 855,-133 788,-76 776,-66 761,-55 748,-47"/>
<polygon style="fill:black;stroke:black;" points="749.441,-43.7969 739,-42 746.042,-49.916 749.441,-43.7969"/>
</g>
<!-- DependencyAnalyzerTest&#45;&gt;DependencyAnalyzer -->
<g id="edge86" class="edge"><title>DependencyAnalyzerTest&#45;&gt;DependencyAnalyzer</title>
<path style="fill:none;stroke:black;" d="M917,-246C908,-243 898,-240 889,-236 875,-230 860,-221 847,-215"/>
<polygon style="fill:black;stroke:black;" points="848.441,-211.797 838,-210 845.042,-217.916 848.441,-211.797"/>
</g>
<!-- DependenciesUtil$1 -->
<g id="node75" class="node"><title>DependenciesUtil$1</title>
<polygon style="fill:none;stroke:black;" points="745,-264 645,-264 645,-246 745,-246 745,-264"/>
<text text-anchor="middle" x="695" y="-252.8" style="font-family:Times New Roman;font-size:8.00;">DependenciesUtil$1</text>
</g>
</g>
</svg>
