<?xml version="1.0" encoding="UTF-8" standalone="no"?>
<!DOCTYPE svg PUBLIC "-//W3C//DTD SVG 1.0//EN"
 "http://www.w3.org/TR/2001/REC-SVG-20010904/DTD/svg10.dtd" [
 <!ATTLIST svg xmlns:xlink CDATA #FIXED "http://www.w3.org/1999/xlink">
]>
<!-- Generated by Graphviz version 2.20.2 (Mon Mar 30 10:09:11 UTC 2009)
     For user: (jccastrejon) jccastrejon,,, -->
<!-- Title: MvcAnalyzer Pages: 1 -->
<svg width="655pt" height="188pt"
 viewBox="0.00 0.00 655.00 188.00" xmlns="http://www.w3.org/2000/svg" xmlns:xlink="http://www.w3.org/1999/xlink">
<g id="graph0" class="graph" transform="scale(1 1) rotate(0) translate(4 184)">
<title>MvcAnalyzer</title>
<polygon style="fill:white;stroke:white;" points="-4,4 -4,-184 651,-184 651,4 -4,4"/>
<!-- mx.itesm.arch.dependencies.DependencyAnalyzer -->
<g id="node1" class="node"><title>mx.itesm.arch.dependencies.DependencyAnalyzer</title>
<polygon style="fill:none;stroke:black;" points="387,-108 129,-108 129,-72 387,-72 387,-108"/>
<text text-anchor="middle" x="258" y="-87.5" style="font-family:Times New Roman;font-size:10.00;">mx.itesm.arch.dependencies.DependencyAnalyzer</text>
</g>
<!-- mx.itesm.arch.dependencies.ClassDependencies -->
<g id="node3" class="node"><title>mx.itesm.arch.dependencies.ClassDependencies</title>
<polygon style="fill:none;stroke:black;" points="518,-36 266,-36 266,-1.06581e-14 518,-0 518,-36"/>
<text text-anchor="middle" x="392" y="-15.5" style="font-family:Times New Roman;font-size:10.00;">mx.itesm.arch.dependencies.ClassDependencies</text>
</g>
<!-- mx.itesm.arch.dependencies.DependencyAnalyzer&#45;&gt;mx.itesm.arch.dependencies.ClassDependencies -->
<g id="edge2" class="edge"><title>mx.itesm.arch.dependencies.DependencyAnalyzer&#45;&gt;mx.itesm.arch.dependencies.ClassDependencies</title>
<path style="fill:none;stroke:black;" d="M292,-72C310,-63 332,-51 350,-41"/>
<polygon style="fill:black;stroke:black;" points="351.958,-43.916 359,-36 348.559,-37.7969 351.958,-43.916"/>
</g>
<!-- mx.itesm.arch.dependencies.DependencyVisitor -->
<g id="node5" class="node"><title>mx.itesm.arch.dependencies.DependencyVisitor</title>
<polygon style="fill:none;stroke:black;" points="248,-36 8.52651e-14,-36 4.26326e-14,-1.06581e-14 248,-0 248,-36"/>
<text text-anchor="middle" x="124" y="-15.5" style="font-family:Times New Roman;font-size:10.00;">mx.itesm.arch.dependencies.DependencyVisitor</text>
</g>
<!-- mx.itesm.arch.dependencies.DependencyAnalyzer&#45;&gt;mx.itesm.arch.dependencies.DependencyVisitor -->
<g id="edge4" class="edge"><title>mx.itesm.arch.dependencies.DependencyAnalyzer&#45;&gt;mx.itesm.arch.dependencies.DependencyVisitor</title>
<path style="fill:none;stroke:black;" d="M224,-72C206,-63 184,-51 166,-41"/>
<polygon style="fill:black;stroke:black;" points="167.441,-37.7969 157,-36 164.042,-43.916 167.441,-37.7969"/>
</g>
<!-- mx.itesm.arch.dependencies.DependenciesUtil -->
<g id="node6" class="node"><title>mx.itesm.arch.dependencies.DependenciesUtil</title>
<polygon style="fill:none;stroke:black;" points="647,-108 405,-108 405,-72 647,-72 647,-108"/>
<text text-anchor="middle" x="526" y="-87.5" style="font-family:Times New Roman;font-size:10.00;">mx.itesm.arch.dependencies.DependenciesUtil</text>
</g>
<!-- mx.itesm.arch.dependencies.DependenciesUtil&#45;&gt;mx.itesm.arch.dependencies.ClassDependencies -->
<g id="edge6" class="edge"><title>mx.itesm.arch.dependencies.DependenciesUtil&#45;&gt;mx.itesm.arch.dependencies.ClassDependencies</title>
<path style="fill:none;stroke:black;" d="M492,-72C474,-63 452,-51 434,-41"/>
<polygon style="fill:black;stroke:black;" points="435.441,-37.7969 425,-36 432.042,-43.916 435.441,-37.7969"/>
</g>
<!-- mx.itesm.arch.dependencies.DependenciesUtilTest -->
<g id="node8" class="node"><title>mx.itesm.arch.dependencies.DependenciesUtilTest</title>
<polygon style="fill:none;stroke:black;" points="621,-180 361,-180 361,-144 621,-144 621,-180"/>
<text text-anchor="middle" x="491" y="-159.5" style="font-family:Times New Roman;font-size:10.00;">mx.itesm.arch.dependencies.DependenciesUtilTest</text>
</g>
<!-- mx.itesm.arch.dependencies.DependenciesUtilTest&#45;&gt;mx.itesm.arch.dependencies.DependencyAnalyzer -->
<g id="edge10" class="edge"><title>mx.itesm.arch.dependencies.DependenciesUtilTest&#45;&gt;mx.itesm.arch.dependencies.DependencyAnalyzer</title>
<path style="fill:none;stroke:black;" d="M433,-144C400,-134 360,-121 326,-111"/>
<polygon style="fill:black;stroke:black;" points="326.584,-107.521 316,-108 324.573,-114.226 326.584,-107.521"/>
</g>
<!-- mx.itesm.arch.dependencies.DependenciesUtilTest&#45;&gt;mx.itesm.arch.dependencies.DependenciesUtil -->
<g id="edge8" class="edge"><title>mx.itesm.arch.dependencies.DependenciesUtilTest&#45;&gt;mx.itesm.arch.dependencies.DependenciesUtil</title>
<path style="fill:none;stroke:black;" d="M500,-144C504,-136 508,-126 513,-117"/>
<polygon style="fill:black;stroke:black;" points="516.137,-118.56 517,-108 509.74,-115.717 516.137,-118.56"/>
</g>
<!-- mx.itesm.arch.dependencies.DependencyAnalyzerTest -->
<g id="node11" class="node"><title>mx.itesm.arch.dependencies.DependencyAnalyzerTest</title>
<polygon style="fill:none;stroke:black;" points="309,-180 31,-180 31,-144 309,-144 309,-180"/>
<text text-anchor="middle" x="170" y="-159.5" style="font-family:Times New Roman;font-size:10.00;">mx.itesm.arch.dependencies.DependencyAnalyzerTest</text>
</g>
<!-- mx.itesm.arch.dependencies.DependencyAnalyzerTest&#45;&gt;mx.itesm.arch.dependencies.DependencyAnalyzer -->
<g id="edge14" class="edge"><title>mx.itesm.arch.dependencies.DependencyAnalyzerTest&#45;&gt;mx.itesm.arch.dependencies.DependencyAnalyzer</title>
<path style="fill:none;stroke:black;" d="M192,-144C203,-135 216,-124 228,-114"/>
<polygon style="fill:black;stroke:black;" points="230.1,-116.8 236,-108 225.9,-111.2 230.1,-116.8"/>
</g>
<!-- mx.itesm.arch.dependencies.DependencyAnalyzerTest&#45;&gt;mx.itesm.arch.dependencies.ClassDependencies -->
<g id="edge12" class="edge"><title>mx.itesm.arch.dependencies.DependencyAnalyzerTest&#45;&gt;mx.itesm.arch.dependencies.ClassDependencies</title>
<path style="fill:none;stroke:black;" d="M147,-144C126,-125 101,-94 120,-72 129,-61 192,-47 256,-38"/>
<polygon style="fill:black;stroke:black;" points="256.881,-41.3933 266,-36 255.508,-34.5292 256.881,-41.3933"/>
</g>
</g>
</svg>
