<?xml version="1.0" encoding="UTF-8" standalone="no"?>
<!DOCTYPE svg PUBLIC "-//W3C//DTD SVG 1.0//EN"
 "http://www.w3.org/TR/2001/REC-SVG-20010904/DTD/svg10.dtd" [
 <!ATTLIST svg xmlns:xlink CDATA #FIXED "http://www.w3.org/1999/xlink">
]>
<!-- Generated by Graphviz version 2.20.2 (Mon Mar 30 10:09:11 UTC 2009)
     For user: (jccastrejon) jccastrejon,,, -->
<!-- Title: MvcAnalyzerClassification Pages: 1 -->
<svg width="1627pt" height="324pt"
 viewBox="0.00 0.00 1627.00 324.00" xmlns="http://www.w3.org/2000/svg" xmlns:xlink="http://www.w3.org/1999/xlink">
<g id="graph0" class="graph" transform="scale(1 1) rotate(0) translate(4 320)">
<title>MvcAnalyzerClassification</title>
<polygon style="fill:white;stroke:white;" points="-4,4 -4,-320 1623,-320 1623,4 -4,4"/>
<g id="cluster2" class="cluster"><title>cluster_mx.itesm.arch.mvc</title>
<polygon style="fill:none;stroke:black;" points="297,-76 297,-308 419,-308 419,-76 297,-76"/>
<text text-anchor="middle" x="358" y="-296.8" style="font-family:Times New Roman;font-size:8.00;">mx.itesm.arch.mvc</text>
</g>
<g id="cluster3" class="cluster"><title>cluster_mx.itesm.arch.dependencies</title>
<polygon style="fill:none;stroke:black;" points="518,-76 518,-308 896,-308 896,-76 518,-76"/>
<text text-anchor="middle" x="707" y="-296.8" style="font-family:Times New Roman;font-size:8.00;">mx.itesm.arch.dependencies</text>
</g>
<g id="cluster4" class="cluster"><title>cluster_junit.framework</title>
<polygon style="fill:none;stroke:black;" points="427,-196 427,-248 510,-248 510,-196 427,-196"/>
<text text-anchor="middle" x="469" y="-236.8" style="font-family:Times New Roman;font-size:8.00;">junit.framework</text>
</g>
<g id="cluster5" class="cluster"><title>cluster_org.objectweb.asm</title>
<polygon style="fill:none;stroke:black;" points="1055,-76 1055,-128 1611,-128 1611,-76 1055,-76"/>
<text text-anchor="middle" x="1333" y="-116.8" style="font-family:Times New Roman;font-size:8.00;">org.objectweb.asm</text>
</g>
<g id="cluster6" class="cluster"><title>cluster_org.objectweb.asm.commons</title>
<polygon style="fill:none;stroke:black;" points="904,-76 904,-128 1047,-128 1047,-76 904,-76"/>
<text text-anchor="middle" x="975" y="-116.8" style="font-family:Times New Roman;font-size:8.00;">org.objectweb.asm.commons</text>
</g>
<g id="cluster7" class="cluster"><title>cluster_weka.core</title>
<polygon style="fill:none;stroke:black;" points="8,-16 8,-68 412,-68 412,-16 8,-16"/>
<text text-anchor="middle" x="210" y="-56.8" style="font-family:Times New Roman;font-size:8.00;">weka.core</text>
</g>
<g id="cluster8" class="cluster"><title>cluster_weka.classifiers</title>
<polygon style="fill:none;stroke:black;" points="60,-136 60,-188 145,-188 145,-136 60,-136"/>
<text text-anchor="middle" x="103" y="-176.8" style="font-family:Times New Roman;font-size:8.00;">weka.classifiers</text>
</g>
<g id="cluster9" class="cluster"><title>clusterMVCLayers</title>
<polygon style="fill:#ccffff;stroke:#ccffff;" points="1164,-256 1164,-308 1350,-308 1350,-256 1164,-256"/>
<text text-anchor="middle" x="1257" y="-296.8" style="font-family:Times New Roman;font-size:8.00;">MVC Layers</text>
</g>
<!-- MvcAnalyzerTest -->
<g id="node1" class="node"><title>MvcAnalyzerTest</title>
<polygon style="fill:#ffff5c;stroke:#ffff5c;" points="400,-282 316,-282 316,-264 400,-264 400,-282"/>
<text text-anchor="middle" x="358" y="-270.8" style="font-family:Times New Roman;font-size:8.00;">MvcAnalyzerTest</text>
</g>
<!-- MvcAnalyzer -->
<g id="node3" class="node"><title>MvcAnalyzer</title>
<polygon style="fill:#ffff5c;stroke:#ffff5c;" points="379,-222 313,-222 313,-204 379,-204 379,-222"/>
<text text-anchor="middle" x="346" y="-210.8" style="font-family:Times New Roman;font-size:8.00;">MvcAnalyzer</text>
</g>
<!-- MvcAnalyzerTest&#45;&gt;MvcAnalyzer -->
<g id="edge2" class="edge"><title>MvcAnalyzerTest&#45;&gt;MvcAnalyzer</title>
<path style="fill:none;stroke:black;" d="M356,-264C355,-256 352,-243 350,-232"/>
<polygon style="fill:black;stroke:black;" points="353.393,-231.119 348,-222 346.529,-232.492 353.393,-231.119"/>
</g>
<!-- TestCase -->
<g id="node5" class="node"><title>TestCase</title>
<polygon style="fill:none;stroke:black;" points="502,-222 448,-222 448,-204 502,-204 502,-222"/>
<text text-anchor="middle" x="475" y="-210.8" style="font-family:Times New Roman;font-size:8.00;">TestCase</text>
</g>
<!-- MvcAnalyzerTest&#45;&gt;TestCase -->
<g id="edge4" class="edge"><title>MvcAnalyzerTest&#45;&gt;TestCase</title>
<path style="fill:none;stroke:black;" d="M385,-264C397,-260 411,-254 423,-248 434,-242 446,-235 455,-228"/>
<polygon style="fill:black;stroke:black;" points="457.1,-230.8 463,-222 452.9,-225.2 457.1,-230.8"/>
</g>
<!-- FastVector -->
<g id="node9" class="node"><title>FastVector</title>
<polygon style="fill:none;stroke:black;" points="334,-42 274,-42 274,-24 334,-24 334,-42"/>
<text text-anchor="middle" x="304" y="-30.8" style="font-family:Times New Roman;font-size:8.00;">FastVector</text>
</g>
<!-- MvcAnalyzer&#45;&gt;FastVector -->
<g id="edge30" class="edge"><title>MvcAnalyzer&#45;&gt;FastVector</title>
<path style="fill:none;stroke:black;" d="M313,-204C304,-200 296,-195 290,-188 261,-148 271,-124 282,-76 285,-67 289,-58 293,-51"/>
<polygon style="fill:black;stroke:black;" points="296.203,-52.4414 298,-42 290.084,-49.0418 296.203,-52.4414"/>
</g>
<!-- Attribute -->
<g id="node11" class="node"><title>Attribute</title>
<polygon style="fill:none;stroke:black;" points="404,-42 352,-42 352,-24 404,-24 404,-42"/>
<text text-anchor="middle" x="378" y="-30.8" style="font-family:Times New Roman;font-size:8.00;">Attribute</text>
</g>
<!-- MvcAnalyzer&#45;&gt;Attribute -->
<g id="edge28" class="edge"><title>MvcAnalyzer&#45;&gt;Attribute</title>
<path style="fill:none;stroke:black;" d="M337,-204C315,-180 263,-115 296,-76 310,-59 325,-77 343,-68 351,-63 359,-56 365,-50"/>
<polygon style="fill:black;stroke:black;" points="367.8,-52.1 371,-42 362.2,-47.9 367.8,-52.1"/>
</g>
<!-- Layer -->
<g id="node12" class="node"><title>Layer</title>
<polygon style="fill:#ffff5c;stroke:#ffff5c;" points="411,-162 373,-162 373,-144 411,-144 411,-162"/>
<text text-anchor="middle" x="392" y="-150.8" style="font-family:Times New Roman;font-size:8.00;">Layer</text>
</g>
<!-- MvcAnalyzer&#45;&gt;Layer -->
<g id="edge24" class="edge"><title>MvcAnalyzer&#45;&gt;Layer</title>
<path style="fill:none;stroke:black;" d="M353,-204C360,-195 370,-181 379,-170"/>
<polygon style="fill:black;stroke:black;" points="381.8,-172.1 385,-162 376.2,-167.9 381.8,-172.1"/>
</g>
<!-- ClassDependencies -->
<g id="node17" class="node"><title>ClassDependencies</title>
<polygon style="fill:#ffff5c;stroke:#ffff5c;" points="627,-102 527,-102 527,-84 627,-84 627,-102"/>
<text text-anchor="middle" x="577" y="-90.8" style="font-family:Times New Roman;font-size:8.00;">ClassDependencies</text>
</g>
<!-- MvcAnalyzer&#45;&gt;ClassDependencies -->
<g id="edge18" class="edge"><title>MvcAnalyzer&#45;&gt;ClassDependencies</title>
<path style="fill:none;stroke:black;" d="M377,-204C391,-200 406,-194 420,-188 471,-164 526,-128 555,-108"/>
<polygon style="fill:black;stroke:black;" points="557.621,-110.459 564,-102 553.738,-104.635 557.621,-110.459"/>
</g>
<!-- DependencyAnalyzer -->
<g id="node19" class="node"><title>DependencyAnalyzer</title>
<polygon style="fill:#ffff5c;stroke:#ffff5c;" points="767,-222 665,-222 665,-204 767,-204 767,-222"/>
<text text-anchor="middle" x="716" y="-210.8" style="font-family:Times New Roman;font-size:8.00;">DependencyAnalyzer</text>
</g>
<!-- MvcAnalyzer&#45;&gt;DependencyAnalyzer -->
<g id="edge20" class="edge"><title>MvcAnalyzer&#45;&gt;DependencyAnalyzer</title>
<path style="fill:none;stroke:black;" d="M361,-222C377,-232 406,-246 432,-252 464,-258 473,-254 505,-252 561,-246 626,-234 668,-224"/>
<polygon style="fill:black;stroke:black;" points="668.881,-227.393 678,-222 667.508,-220.529 668.881,-227.393"/>
</g>
<!-- DependenciesUtil -->
<g id="node21" class="node"><title>DependenciesUtil</title>
<polygon style="fill:#ffff5c;stroke:#ffff5c;" points="686,-162 596,-162 596,-144 686,-144 686,-162"/>
<text text-anchor="middle" x="641" y="-150.8" style="font-family:Times New Roman;font-size:8.00;">DependenciesUtil</text>
</g>
<!-- MvcAnalyzer&#45;&gt;DependenciesUtil -->
<g id="edge22" class="edge"><title>MvcAnalyzer&#45;&gt;DependenciesUtil</title>
<path style="fill:none;stroke:black;" d="M379,-205C393,-201 409,-198 423,-196 461,-190 471,-194 507,-188 540,-182 576,-172 602,-165"/>
<polygon style="fill:black;stroke:black;" points="603.427,-168.226 612,-162 601.416,-161.521 603.427,-168.226"/>
</g>
<!-- Classifier -->
<g id="node24" class="node"><title>Classifier</title>
<polygon style="fill:none;stroke:black;" points="135,-162 79,-162 79,-144 135,-144 135,-162"/>
<text text-anchor="middle" x="107" y="-150.8" style="font-family:Times New Roman;font-size:8.00;">Classifier</text>
</g>
<!-- MvcAnalyzer&#45;&gt;Classifier -->
<g id="edge26" class="edge"><title>MvcAnalyzer&#45;&gt;Classifier</title>
<path style="fill:none;stroke:black;" d="M313,-211C264,-208 178,-200 149,-188 139,-184 130,-176 122,-169"/>
<polygon style="fill:black;stroke:black;" points="124.546,-166.596 115,-162 119.596,-171.546 124.546,-166.596"/>
</g>
<!-- Instance -->
<g id="node28" class="node"><title>Instance</title>
<polygon style="fill:none;stroke:black;" points="68,-42 16,-42 16,-24 68,-24 68,-42"/>
<text text-anchor="middle" x="42" y="-30.8" style="font-family:Times New Roman;font-size:8.00;">Instance</text>
</g>
<!-- MvcAnalyzer&#45;&gt;Instance -->
<g id="edge32" class="edge"><title>MvcAnalyzer&#45;&gt;Instance</title>
<path style="fill:none;stroke:black;" d="M313,-212C240,-211 74,-205 56,-188 20,-152 29,-85 37,-52"/>
<polygon style="fill:black;stroke:black;" points="40.4708,-52.4922 39,-42 33.6067,-51.1194 40.4708,-52.4922"/>
</g>
<!-- Instances -->
<g id="node30" class="node"><title>Instances</title>
<polygon style="fill:none;stroke:black;" points="142,-42 86,-42 86,-24 142,-24 142,-42"/>
<text text-anchor="middle" x="114" y="-30.8" style="font-family:Times New Roman;font-size:8.00;">Instances</text>
</g>
<!-- MvcAnalyzer&#45;&gt;Instances -->
<g id="edge34" class="edge"><title>MvcAnalyzer&#45;&gt;Instances</title>
<path style="fill:none;stroke:black;" d="M313,-208C284,-203 245,-196 232,-188 179,-153 139,-84 123,-51"/>
<polygon style="fill:black;stroke:black;" points="125.916,-49.0418 118,-42 119.797,-52.4414 125.916,-49.0418"/>
</g>
<!-- SerializationHelper -->
<g id="node32" class="node"><title>SerializationHelper</title>
<polygon style="fill:none;stroke:black;" points="256,-42 160,-42 160,-24 256,-24 256,-42"/>
<text text-anchor="middle" x="208" y="-30.8" style="font-family:Times New Roman;font-size:8.00;">SerializationHelper</text>
</g>
<!-- MvcAnalyzer&#45;&gt;SerializationHelper -->
<g id="edge36" class="edge"><title>MvcAnalyzer&#45;&gt;SerializationHelper</title>
<path style="fill:none;stroke:black;" d="M313,-209C298,-205 280,-199 268,-188 230,-150 215,-85 210,-52"/>
<polygon style="fill:black;stroke:black;" points="213.478,-51.6021 209,-42 206.512,-52.2987 213.478,-51.6021"/>
</g>
<!-- MvcAnalyzer$Variable -->
<g id="node6" class="node"><title>MvcAnalyzer$Variable</title>
<polygon style="fill:#ffff5c;stroke:#ffff5c;" points="411,-102 305,-102 305,-84 411,-84 411,-102"/>
<text text-anchor="middle" x="358" y="-90.8" style="font-family:Times New Roman;font-size:8.00;">MvcAnalyzer$Variable</text>
</g>
<!-- MvcAnalyzer$Variable&#45;&gt;MvcAnalyzer -->
<g id="edge6" class="edge"><title>MvcAnalyzer$Variable&#45;&gt;MvcAnalyzer</title>
<path style="fill:none;stroke:black;" d="M357,-102C355,-121 350,-168 348,-194"/>
<polygon style="fill:black;stroke:black;" points="344.512,-193.701 347,-204 351.478,-194.398 344.512,-193.701"/>
</g>
<!-- MvcAnalyzer$Variable&#45;&gt;FastVector -->
<g id="edge8" class="edge"><title>MvcAnalyzer$Variable&#45;&gt;FastVector</title>
<path style="fill:none;stroke:black;" d="M350,-84C342,-75 329,-60 319,-49"/>
<polygon style="fill:black;stroke:black;" points="321.546,-46.5962 312,-42 316.596,-51.546 321.546,-46.5962"/>
</g>
<!-- MvcAnalyzer$Variable&#45;&gt;Attribute -->
<g id="edge10" class="edge"><title>MvcAnalyzer$Variable&#45;&gt;Attribute</title>
<path style="fill:none;stroke:black;" d="M361,-84C364,-76 368,-62 372,-52"/>
<polygon style="fill:black;stroke:black;" points="375.479,-52.584 375,-42 368.774,-50.5725 375.479,-52.584"/>
</g>
<!-- Layer&#45;&gt;MvcAnalyzer$Variable -->
<g id="edge12" class="edge"><title>Layer&#45;&gt;MvcAnalyzer$Variable</title>
<path style="fill:none;stroke:black;" d="M387,-144C382,-136 374,-122 368,-111"/>
<polygon style="fill:black;stroke:black;" points="370.916,-109.042 363,-102 364.797,-112.441 370.916,-109.042"/>
</g>
<!-- Layer&#45;&gt;FastVector -->
<g id="edge14" class="edge"><title>Layer&#45;&gt;FastVector</title>
<path style="fill:none;stroke:black;" d="M407,-144C412,-140 417,-134 420,-128 430,-106 436,-93 420,-76 409,-63 359,-74 343,-68 334,-64 325,-56 318,-49"/>
<polygon style="fill:black;stroke:black;" points="320.546,-46.5962 311,-42 315.596,-51.546 320.546,-46.5962"/>
</g>
<!-- Layer&#45;&gt;Attribute -->
<g id="edge16" class="edge"><title>Layer&#45;&gt;Attribute</title>
<path style="fill:none;stroke:black;" d="M411,-151C425,-148 444,-142 453,-128 466,-108 465,-95 453,-76 445,-61 429,-51 414,-44"/>
<polygon style="fill:black;stroke:black;" points="414.585,-40.4643 404,-40 411.985,-46.9636 414.585,-40.4643"/>
</g>
<!-- ClassDependencies&#45;&gt;Layer -->
<g id="edge70" class="edge"><title>ClassDependencies&#45;&gt;Layer</title>
<path style="fill:none;stroke:black;" d="M557,-102C540,-110 514,-120 491,-128 468,-136 441,-143 421,-147"/>
<polygon style="fill:black;stroke:black;" points="420.119,-143.607 411,-149 421.492,-150.471 420.119,-143.607"/>
</g>
<!-- DependencyAnalyzer&#45;&gt;ClassDependencies -->
<g id="edge38" class="edge"><title>DependencyAnalyzer&#45;&gt;ClassDependencies</title>
<path style="fill:none;stroke:black;" d="M716,-204C716,-188 713,-155 695,-136 680,-119 658,-109 637,-103"/>
<polygon style="fill:black;stroke:black;" points="637.584,-99.5212 627,-100 635.573,-106.226 637.584,-99.5212"/>
</g>
<!-- DependencyAnalyzer&#45;&gt;DependenciesUtil -->
<g id="edge42" class="edge"><title>DependencyAnalyzer&#45;&gt;DependenciesUtil</title>
<path style="fill:none;stroke:black;" d="M705,-204C693,-195 675,-180 661,-168"/>
<polygon style="fill:black;stroke:black;" points="663.1,-165.2 653,-162 658.9,-170.8 663.1,-165.2"/>
</g>
<!-- DependencyVisitor -->
<g id="node35" class="node"><title>DependencyVisitor</title>
<polygon style="fill:#ffff5c;stroke:#ffff5c;" points="888,-162 794,-162 794,-144 888,-144 888,-162"/>
<text text-anchor="middle" x="841" y="-150.8" style="font-family:Times New Roman;font-size:8.00;">DependencyVisitor</text>
</g>
<!-- DependencyAnalyzer&#45;&gt;DependencyVisitor -->
<g id="edge40" class="edge"><title>DependencyAnalyzer&#45;&gt;DependencyVisitor</title>
<path style="fill:none;stroke:black;" d="M735,-204C756,-194 789,-178 813,-166"/>
<polygon style="fill:black;stroke:black;" points="814.283,-169.26 822,-162 811.44,-162.863 814.283,-169.26"/>
</g>
<!-- ClassReader -->
<g id="node38" class="node"><title>ClassReader</title>
<polygon style="fill:none;stroke:black;" points="1519,-102 1449,-102 1449,-84 1519,-84 1519,-102"/>
<text text-anchor="middle" x="1484" y="-90.8" style="font-family:Times New Roman;font-size:8.00;">ClassReader</text>
</g>
<!-- DependencyAnalyzer&#45;&gt;ClassReader -->
<g id="edge44" class="edge"><title>DependencyAnalyzer&#45;&gt;ClassReader</title>
<path style="fill:none;stroke:black;" d="M767,-207C929,-189 1424,-134 1440,-128 1450,-124 1460,-116 1468,-109"/>
<polygon style="fill:black;stroke:black;" points="1470.78,-111.219 1476,-102 1466.17,-105.951 1470.78,-111.219"/>
</g>
<!-- ClassVisitor -->
<g id="node40" class="node"><title>ClassVisitor</title>
<polygon style="fill:none;stroke:black;" points="1603,-102 1537,-102 1537,-84 1603,-84 1603,-102"/>
<text text-anchor="middle" x="1570" y="-90.8" style="font-family:Times New Roman;font-size:8.00;">ClassVisitor</text>
</g>
<!-- DependencyAnalyzer&#45;&gt;ClassVisitor -->
<g id="edge46" class="edge"><title>DependencyAnalyzer&#45;&gt;ClassVisitor</title>
<path style="fill:none;stroke:black;" d="M767,-212C923,-208 1390,-190 1528,-128 1538,-123 1547,-116 1555,-109"/>
<polygon style="fill:black;stroke:black;" points="1557.4,-111.546 1562,-102 1552.45,-106.596 1557.4,-111.546"/>
</g>
<!-- DependenciesUtil&#45;&gt;Layer -->
<g id="edge62" class="edge"><title>DependenciesUtil&#45;&gt;Layer</title>
<path style="fill:none;stroke:black;" d="M596,-153C537,-153 480,-153 421,-153"/>
<polygon style="fill:black;stroke:black;" points="421,-149.5 411,-153 421,-156.5 421,-149.5"/>
</g>
<!-- DependenciesUtil&#45;&gt;ClassDependencies -->
<g id="edge60" class="edge"><title>DependenciesUtil&#45;&gt;ClassDependencies</title>
<path style="fill:none;stroke:black;" d="M631,-144C621,-135 606,-120 594,-109"/>
<polygon style="fill:black;stroke:black;" points="596.546,-106.596 587,-102 591.596,-111.546 596.546,-106.596"/>
</g>
<!-- Type -->
<g id="node43" class="node"><title>Type</title>
<polygon style="fill:none;stroke:black;" points="1431,-102 1397,-102 1397,-84 1431,-84 1431,-102"/>
<text text-anchor="middle" x="1414" y="-90.8" style="font-family:Times New Roman;font-size:8.00;">Type</text>
</g>
<!-- DependencyVisitor&#45;&gt;Type -->
<g id="edge48" class="edge"><title>DependencyVisitor&#45;&gt;Type</title>
<path style="fill:none;stroke:black;" d="M888,-150C954,-147 1079,-140 1186,-136 1208,-135 1368,-138 1388,-128 1395,-124 1401,-117 1405,-111"/>
<polygon style="fill:black;stroke:black;" points="1408.2,-112.441 1410,-102 1402.08,-109.042 1408.2,-112.441"/>
</g>
<!-- AnnotationVisitor -->
<g id="node45" class="node"><title>AnnotationVisitor</title>
<polygon style="fill:none;stroke:black;" points="1379,-102 1291,-102 1291,-84 1379,-84 1379,-102"/>
<text text-anchor="middle" x="1335" y="-90.8" style="font-family:Times New Roman;font-size:8.00;">AnnotationVisitor</text>
</g>
<!-- DependencyVisitor&#45;&gt;AnnotationVisitor -->
<g id="edge50" class="edge"><title>DependencyVisitor&#45;&gt;AnnotationVisitor</title>
<path style="fill:none;stroke:black;" d="M888,-151C1000,-145 1272,-130 1282,-128 1294,-123 1307,-115 1317,-108"/>
<polygon style="fill:black;stroke:black;" points="1319.1,-110.8 1325,-102 1314.9,-105.2 1319.1,-110.8"/>
</g>
<!-- FieldVisitor -->
<g id="node47" class="node"><title>FieldVisitor</title>
<polygon style="fill:none;stroke:black;" points="1273,-102 1211,-102 1211,-84 1273,-84 1273,-102"/>
<text text-anchor="middle" x="1242" y="-90.8" style="font-family:Times New Roman;font-size:8.00;">FieldVisitor</text>
</g>
<!-- DependencyVisitor&#45;&gt;FieldVisitor -->
<g id="edge52" class="edge"><title>DependencyVisitor&#45;&gt;FieldVisitor</title>
<path style="fill:none;stroke:black;" d="M888,-151C979,-148 1173,-139 1202,-128 1211,-124 1220,-116 1227,-109"/>
<polygon style="fill:black;stroke:black;" points="1229.4,-111.546 1234,-102 1224.45,-106.596 1229.4,-111.546"/>
</g>
<!-- MethodVisitor -->
<g id="node49" class="node"><title>MethodVisitor</title>
<polygon style="fill:none;stroke:black;" points="1193,-102 1119,-102 1119,-84 1193,-84 1193,-102"/>
<text text-anchor="middle" x="1156" y="-90.8" style="font-family:Times New Roman;font-size:8.00;">MethodVisitor</text>
</g>
<!-- DependencyVisitor&#45;&gt;MethodVisitor -->
<g id="edge54" class="edge"><title>DependencyVisitor&#45;&gt;MethodVisitor</title>
<path style="fill:none;stroke:black;" d="M888,-152C954,-149 1071,-143 1110,-128 1121,-124 1131,-116 1139,-109"/>
<polygon style="fill:black;stroke:black;" points="1141.78,-111.219 1147,-102 1137.17,-105.951 1141.78,-111.219"/>
</g>
<!-- EmptyVisitor -->
<g id="node51" class="node"><title>EmptyVisitor</title>
<polygon style="fill:none;stroke:black;" points="980,-102 912,-102 912,-84 980,-84 980,-102"/>
<text text-anchor="middle" x="946" y="-90.8" style="font-family:Times New Roman;font-size:8.00;">EmptyVisitor</text>
</g>
<!-- DependencyVisitor&#45;&gt;EmptyVisitor -->
<g id="edge56" class="edge"><title>DependencyVisitor&#45;&gt;EmptyVisitor</title>
<path style="fill:none;stroke:black;" d="M866,-144C876,-140 889,-134 900,-128 910,-122 920,-115 928,-108"/>
<polygon style="fill:black;stroke:black;" points="930.1,-110.8 936,-102 925.9,-105.2 930.1,-110.8"/>
</g>
<!-- Label -->
<g id="node53" class="node"><title>Label</title>
<polygon style="fill:none;stroke:black;" points="1101,-102 1063,-102 1063,-84 1101,-84 1101,-102"/>
<text text-anchor="middle" x="1082" y="-90.8" style="font-family:Times New Roman;font-size:8.00;">Label</text>
</g>
<!-- DependencyVisitor&#45;&gt;Label -->
<g id="edge58" class="edge"><title>DependencyVisitor&#45;&gt;Label</title>
<path style="fill:none;stroke:black;" d="M888,-151C941,-148 1023,-142 1051,-128 1059,-124 1065,-117 1071,-110"/>
<polygon style="fill:black;stroke:black;" points="1073.8,-112.1 1077,-102 1068.2,-107.9 1073.8,-112.1"/>
</g>
<!-- DependenciesUtil$1 -->
<g id="node41" class="node"><title>DependenciesUtil$1</title>
<polygon style="fill:#ffff5c;stroke:#ffff5c;" points="888,-282 788,-282 788,-264 888,-264 888,-282"/>
<text text-anchor="middle" x="838" y="-270.8" style="font-family:Times New Roman;font-size:8.00;">DependenciesUtil$1</text>
</g>
<!-- DependenciesUtilTest -->
<g id="node56" class="node"><title>DependenciesUtilTest</title>
<polygon style="fill:#ffff5c;stroke:#ffff5c;" points="770,-282 664,-282 664,-264 770,-264 770,-282"/>
<text text-anchor="middle" x="717" y="-270.8" style="font-family:Times New Roman;font-size:8.00;">DependenciesUtilTest</text>
</g>
<!-- DependenciesUtilTest&#45;&gt;TestCase -->
<g id="edge68" class="edge"><title>DependenciesUtilTest&#45;&gt;TestCase</title>
<path style="fill:none;stroke:black;" d="M690,-264C679,-261 667,-258 655,-256 625,-250 543,-260 514,-248 505,-244 496,-236 489,-229"/>
<polygon style="fill:black;stroke:black;" points="491.546,-226.596 482,-222 486.596,-231.546 491.546,-226.596"/>
</g>
<!-- DependenciesUtilTest&#45;&gt;DependencyAnalyzer -->
<g id="edge66" class="edge"><title>DependenciesUtilTest&#45;&gt;DependencyAnalyzer</title>
<path style="fill:none;stroke:black;" d="M717,-264C717,-256 717,-243 717,-232"/>
<polygon style="fill:black;stroke:black;" points="720.478,-231.602 716,-222 713.512,-232.299 720.478,-231.602"/>
</g>
<!-- DependenciesUtilTest&#45;&gt;DependenciesUtil -->
<g id="edge64" class="edge"><title>DependenciesUtilTest&#45;&gt;DependenciesUtil</title>
<path style="fill:none;stroke:black;" d="M680,-264C671,-260 662,-255 656,-248 639,-226 638,-193 639,-172"/>
<polygon style="fill:black;stroke:black;" points="642.488,-172.299 640,-162 635.522,-171.602 642.488,-172.299"/>
</g>
<!-- DependencyAnalyzerTest -->
<g id="node61" class="node"><title>DependencyAnalyzerTest</title>
<polygon style="fill:#ffff5c;stroke:#ffff5c;" points="646,-282 526,-282 526,-264 646,-264 646,-282"/>
<text text-anchor="middle" x="586" y="-270.8" style="font-family:Times New Roman;font-size:8.00;">DependencyAnalyzerTest</text>
</g>
<!-- DependencyAnalyzerTest&#45;&gt;TestCase -->
<g id="edge76" class="edge"><title>DependencyAnalyzerTest&#45;&gt;TestCase</title>
<path style="fill:none;stroke:black;" d="M552,-264C540,-260 526,-255 514,-248 505,-243 497,-236 490,-229"/>
<polygon style="fill:black;stroke:black;" points="492.546,-226.596 483,-222 487.596,-231.546 492.546,-226.596"/>
</g>
<!-- DependencyAnalyzerTest&#45;&gt;ClassDependencies -->
<g id="edge72" class="edge"><title>DependencyAnalyzerTest&#45;&gt;ClassDependencies</title>
<path style="fill:none;stroke:black;" d="M586,-264C584,-236 580,-151 578,-112"/>
<polygon style="fill:black;stroke:black;" points="581.478,-111.602 577,-102 574.512,-112.299 581.478,-111.602"/>
</g>
<!-- DependencyAnalyzerTest&#45;&gt;DependencyAnalyzer -->
<g id="edge74" class="edge"><title>DependencyAnalyzerTest&#45;&gt;DependencyAnalyzer</title>
<path style="fill:none;stroke:black;" d="M606,-264C627,-254 662,-238 687,-226"/>
<polygon style="fill:black;stroke:black;" points="688.283,-229.26 696,-222 685.44,-222.863 688.283,-229.26"/>
</g>
<!-- ModelLayer -->
<g id="node72" class="node"><title>ModelLayer</title>
<polygon style="fill:#ffff5c;stroke:#ffff5c;" points="1342,-282 1302,-282 1302,-264 1342,-264 1342,-282"/>
<text text-anchor="middle" x="1322" y="-270.8" style="font-family:Times New Roman;font-size:8.00;">Model</text>
</g>
<!-- ViewLayer -->
<g id="node73" class="node"><title>ViewLayer</title>
<polygon style="fill:#99ccff;stroke:#99ccff;" points="1284,-282 1248,-282 1248,-264 1284,-264 1284,-282"/>
<text text-anchor="middle" x="1266" y="-270.8" style="font-family:Times New Roman;font-size:8.00;">View</text>
</g>
<!-- ControllerLayer -->
<g id="node74" class="node"><title>ControllerLayer</title>
<polygon style="fill:#ff9999;stroke:#ff9999;" points="1230,-282 1172,-282 1172,-264 1230,-264 1230,-282"/>
<text text-anchor="middle" x="1201" y="-270.8" style="font-family:Times New Roman;font-size:8.00;">Controller</text>
</g>
</g>
</svg>
