<?xml version="1.0" encoding="UTF-8" standalone="no"?>
<!DOCTYPE svg PUBLIC "-//W3C//DTD SVG 1.0//EN"
 "http://www.w3.org/TR/2001/REC-SVG-20010904/DTD/svg10.dtd" [
 <!ATTLIST svg xmlns:xlink CDATA #FIXED "http://www.w3.org/1999/xlink">
]>
<!-- Generated by Graphviz version 2.20.2 (Mon Mar 30 10:09:11 UTC 2009)
     For user: (jccastrejon) jccastrejon,,, -->
<!-- Title: MvcAnalyzer&#45;internal Pages: 1 -->
<svg width="1036pt" height="408pt"
 viewBox="0.00 0.00 1036.00 408.00" xmlns="http://www.w3.org/2000/svg" xmlns:xlink="http://www.w3.org/1999/xlink">
<g id="graph0" class="graph" transform="scale(1 1) rotate(0) translate(4 404)">
<title>MvcAnalyzer&#45;internal</title>
<polygon style="fill:white;stroke:white;" points="-4,4 -4,-404 1032,-404 1032,4 -4,4"/>
<g id="cluster2" class="cluster"><title>cluster_mx.itesm.arch.mvc</title>
<polygon style="fill:none;stroke:black;" points="96,-124 96,-392 602,-392 602,-124 96,-124"/>
<text text-anchor="middle" x="349" y="-380.8" style="font-family:Times New Roman;font-size:8.00;">mx.itesm.arch.mvc</text>
</g>
<g id="cluster3" class="cluster"><title>cluster_mx.itesm.arch.dependencies</title>
<polygon style="fill:none;stroke:black;" points="610,-16 610,-284 1020,-284 1020,-16 610,-16"/>
<text text-anchor="middle" x="815" y="-272.8" style="font-family:Times New Roman;font-size:8.00;">mx.itesm.arch.dependencies</text>
</g>
<!-- MvcAnalyzerTest -->
<g id="node1" class="node"><title>MvcAnalyzerTest</title>
<polygon style="fill:none;stroke:black;" points="250,-366 166,-366 166,-348 250,-348 250,-366"/>
<text text-anchor="middle" x="208" y="-354.8" style="font-family:Times New Roman;font-size:8.00;">MvcAnalyzerTest</text>
</g>
<!-- MvcAnalyzer -->
<g id="node3" class="node"><title>MvcAnalyzer</title>
<polygon style="fill:none;stroke:black;" points="241,-312 175,-312 175,-294 241,-294 241,-312"/>
<text text-anchor="middle" x="208" y="-300.8" style="font-family:Times New Roman;font-size:8.00;">MvcAnalyzer</text>
</g>
<!-- MvcAnalyzerTest&#45;&gt;MvcAnalyzer -->
<g id="edge2" class="edge"><title>MvcAnalyzerTest&#45;&gt;MvcAnalyzer</title>
<path style="fill:none;stroke:black;" d="M208,-348C208,-341 208,-331 208,-322"/>
<polygon style="fill:black;stroke:black;" points="211.5,-322 208,-312 204.5,-322 211.5,-322"/>
</g>
<!-- Layer -->
<g id="node8" class="node"><title>Layer</title>
<polygon style="fill:none;stroke:black;" points="378,-204 340,-204 340,-186 378,-186 378,-204"/>
<text text-anchor="middle" x="359" y="-192.8" style="font-family:Times New Roman;font-size:8.00;">Layer</text>
</g>
<!-- MvcAnalyzer&#45;&gt;Layer -->
<g id="edge36" class="edge"><title>MvcAnalyzer&#45;&gt;Layer</title>
<path style="fill:none;stroke:black;" d="M241,-301C272,-299 315,-295 327,-284 333,-279 346,-239 353,-214"/>
<polygon style="fill:black;stroke:black;" points="356.479,-214.584 356,-204 349.774,-212.573 356.479,-214.584"/>
</g>
<!-- MvcExportCommand -->
<g id="node9" class="node"><title>MvcExportCommand</title>
<polygon style="fill:none;stroke:black;" points="526,-258 424,-258 424,-240 526,-240 526,-258"/>
<text text-anchor="middle" x="475" y="-246.8" style="font-family:Times New Roman;font-size:8.00;">MvcExportCommand</text>
</g>
<!-- MvcAnalyzer&#45;&gt;MvcExportCommand -->
<g id="edge34" class="edge"><title>MvcAnalyzer&#45;&gt;MvcExportCommand</title>
<path style="fill:none;stroke:black;" d="M241,-302C292,-299 384,-294 415,-284 429,-279 444,-271 455,-264"/>
<polygon style="fill:black;stroke:black;" points="457.1,-266.8 463,-258 452.9,-261.2 457.1,-266.8"/>
</g>
<!-- ClassDependencies -->
<g id="node11" class="node"><title>ClassDependencies</title>
<polygon style="fill:none;stroke:black;" points="745,-42 645,-42 645,-24 745,-24 745,-42"/>
<text text-anchor="middle" x="695" y="-30.8" style="font-family:Times New Roman;font-size:8.00;">ClassDependencies</text>
</g>
<!-- MvcAnalyzer&#45;&gt;ClassDependencies -->
<g id="edge24" class="edge"><title>MvcAnalyzer&#45;&gt;ClassDependencies</title>
<path style="fill:none;stroke:black;" d="M175,-301C127,-298 44,-292 33,-284 0,-258 0,-237 0,-195 0,-195 0,-195 0,-141 0,-76 466,-45 635,-36"/>
<polygon style="fill:black;stroke:black;" points="635.398,-39.4778 645,-35 634.701,-32.5125 635.398,-39.4778"/>
</g>
<!-- DependenciesUtil -->
<g id="node14" class="node"><title>DependenciesUtil</title>
<polygon style="fill:none;stroke:black;" points="911,-150 821,-150 821,-132 911,-132 911,-150"/>
<text text-anchor="middle" x="866" y="-138.8" style="font-family:Times New Roman;font-size:8.00;">DependenciesUtil</text>
</g>
<!-- MvcAnalyzer&#45;&gt;DependenciesUtil -->
<g id="edge32" class="edge"><title>MvcAnalyzer&#45;&gt;DependenciesUtil</title>
<path style="fill:none;stroke:black;" d="M241,-303C392,-302 1007,-298 1021,-284 1069,-233 959,-178 899,-154"/>
<polygon style="fill:black;stroke:black;" points="900.56,-150.863 890,-150 897.717,-157.26 900.56,-150.863"/>
</g>
<!-- ExportCommand -->
<g id="node16" class="node"><title>ExportCommand</title>
<polygon style="fill:none;stroke:black;" points="704,-96 618,-96 618,-78 704,-78 704,-96"/>
<text text-anchor="middle" x="661" y="-84.8" style="font-family:Times New Roman;font-size:8.00;">ExportCommand</text>
</g>
<!-- MvcAnalyzer&#45;&gt;ExportCommand -->
<g id="edge38" class="edge"><title>MvcAnalyzer&#45;&gt;ExportCommand</title>
<path style="fill:none;stroke:black;" d="M175,-301C134,-298 69,-292 62,-284 16,-230 14,-175 62,-124 81,-104 464,-92 608,-88"/>
<polygon style="fill:black;stroke:black;" points="608,-91.5001 618,-88 608,-84.5001 608,-91.5001"/>
</g>
<!-- MvcDependencyCommand -->
<g id="node18" class="node"><title>MvcDependencyCommand</title>
<polygon style="fill:none;stroke:black;" points="230,-258 104,-258 104,-240 230,-240 230,-258"/>
<text text-anchor="middle" x="167" y="-246.8" style="font-family:Times New Roman;font-size:8.00;">MvcDependencyCommand</text>
</g>
<!-- MvcAnalyzer&#45;&gt;MvcDependencyCommand -->
<g id="edge30" class="edge"><title>MvcAnalyzer&#45;&gt;MvcDependencyCommand</title>
<path style="fill:none;stroke:black;" d="M196,-294C189,-287 180,-276 174,-267"/>
<polygon style="fill:black;stroke:black;" points="176.916,-265.042 169,-258 170.797,-268.441 176.916,-265.042"/>
</g>
<!-- DependencyCommand -->
<g id="node20" class="node"><title>DependencyCommand</title>
<polygon style="fill:none;stroke:black;" points="852,-96 742,-96 742,-78 852,-78 852,-96"/>
<text text-anchor="middle" x="797" y="-84.8" style="font-family:Times New Roman;font-size:8.00;">DependencyCommand</text>
</g>
<!-- MvcAnalyzer&#45;&gt;DependencyCommand -->
<g id="edge26" class="edge"><title>MvcAnalyzer&#45;&gt;DependencyCommand</title>
<path style="fill:none;stroke:black;" d="M175,-299C144,-296 101,-290 95,-284 38,-215 136,-152 192,-124 244,-98 656,-100 713,-96 719,-95 725,-95 732,-94"/>
<polygon style="fill:black;stroke:black;" points="732.398,-97.4778 742,-93 731.701,-90.5125 732.398,-97.4778"/>
</g>
<!-- DependencyAnalyzer -->
<g id="node26" class="node"><title>DependencyAnalyzer</title>
<polygon style="fill:none;stroke:black;" points="783,-204 681,-204 681,-186 783,-186 783,-204"/>
<text text-anchor="middle" x="732" y="-192.8" style="font-family:Times New Roman;font-size:8.00;">DependencyAnalyzer</text>
</g>
<!-- MvcAnalyzer&#45;&gt;DependencyAnalyzer -->
<g id="edge28" class="edge"><title>MvcAnalyzer&#45;&gt;DependencyAnalyzer</title>
<path style="fill:none;stroke:black;" d="M241,-302C333,-299 587,-291 603,-284 627,-272 621,-255 641,-240 658,-227 680,-216 698,-208"/>
<polygon style="fill:black;stroke:black;" points="699.283,-211.26 707,-204 696.44,-204.863 699.283,-211.26"/>
</g>
<!-- MvcAnalyzer$Variable -->
<g id="node4" class="node"><title>MvcAnalyzer$Variable</title>
<polygon style="fill:none;stroke:black;" points="334,-150 228,-150 228,-132 334,-132 334,-150"/>
<text text-anchor="middle" x="281" y="-138.8" style="font-family:Times New Roman;font-size:8.00;">MvcAnalyzer$Variable</text>
</g>
<!-- MvcAnalyzer$Variable&#45;&gt;MvcAnalyzer -->
<g id="edge4" class="edge"><title>MvcAnalyzer$Variable&#45;&gt;MvcAnalyzer</title>
<path style="fill:none;stroke:black;" d="M279,-150C274,-178 256,-262 239,-284 238,-285 237,-286 236,-287"/>
<polygon style="fill:black;stroke:black;" points="233.221,-284.781 228,-294 237.831,-290.049 233.221,-284.781"/>
</g>
<!-- Layer$1 -->
<g id="node6" class="node"><title>Layer$1</title>
<polygon style="fill:none;stroke:black;" points="406,-258 356,-258 356,-240 406,-240 406,-258"/>
<text text-anchor="middle" x="381" y="-246.8" style="font-family:Times New Roman;font-size:8.00;">Layer$1</text>
</g>
<!-- Layer$1&#45;&gt;Layer -->
<g id="edge6" class="edge"><title>Layer$1&#45;&gt;Layer</title>
<path style="fill:none;stroke:black;" d="M377,-240C374,-233 370,-223 367,-214"/>
<polygon style="fill:black;stroke:black;" points="369.964,-211.985 363,-204 363.464,-214.585 369.964,-211.985"/>
</g>
<!-- Layer&#45;&gt;MvcAnalyzer$Variable -->
<g id="edge16" class="edge"><title>Layer&#45;&gt;MvcAnalyzer$Variable</title>
<path style="fill:none;stroke:black;" d="M346,-186C334,-178 317,-165 302,-156"/>
<polygon style="fill:black;stroke:black;" points="304.1,-153.2 294,-150 299.9,-158.8 304.1,-153.2"/>
</g>
<!-- MvcExportCommand&#45;&gt;Layer -->
<g id="edge10" class="edge"><title>MvcExportCommand&#45;&gt;Layer</title>
<path style="fill:none;stroke:black;" d="M456,-240C437,-231 409,-218 387,-208"/>
<polygon style="fill:black;stroke:black;" points="388.56,-204.863 378,-204 385.717,-211.26 388.56,-204.863"/>
</g>
<!-- MvcExportCommand&#45;&gt;ClassDependencies -->
<g id="edge8" class="edge"><title>MvcExportCommand&#45;&gt;ClassDependencies</title>
<path style="fill:none;stroke:black;" d="M437,-240C371,-224 243,-188 219,-150 213,-140 212,-132 219,-124 271,-61 519,-41 635,-35"/>
<polygon style="fill:black;stroke:black;" points="635,-38.5001 645,-35 635,-31.5001 635,-38.5001"/>
</g>
<!-- MvcExportCommand&#45;&gt;DependenciesUtil -->
<g id="edge12" class="edge"><title>MvcExportCommand&#45;&gt;DependenciesUtil</title>
<path style="fill:none;stroke:black;" d="M501,-240C538,-227 610,-203 672,-186 719,-173 773,-160 812,-152"/>
<polygon style="fill:black;stroke:black;" points="812.881,-155.393 822,-150 811.508,-148.529 812.881,-155.393"/>
</g>
<!-- MvcExportCommand&#45;&gt;ExportCommand -->
<g id="edge14" class="edge"><title>MvcExportCommand&#45;&gt;ExportCommand</title>
<path style="fill:none;stroke:black;" d="M486,-240C516,-214 604,-137 643,-103"/>
<polygon style="fill:black;stroke:black;" points="645.779,-105.219 651,-96 641.169,-99.9511 645.779,-105.219"/>
</g>
<!-- DependenciesUtil&#45;&gt;ClassDependencies -->
<g id="edge52" class="edge"><title>DependenciesUtil&#45;&gt;ClassDependencies</title>
<path style="fill:none;stroke:black;" d="M868,-132C871,-118 874,-93 861,-78 847,-61 797,-49 755,-42"/>
<polygon style="fill:black;stroke:black;" points="755.492,-38.5292 745,-40 754.119,-45.3933 755.492,-38.5292"/>
</g>
<!-- DependenciesUtil&#45;&gt;ExportCommand -->
<g id="edge58" class="edge"><title>DependenciesUtil&#45;&gt;ExportCommand</title>
<path style="fill:none;stroke:black;" d="M832,-132C797,-123 743,-109 705,-99"/>
<polygon style="fill:black;stroke:black;" points="705.584,-95.5212 695,-96 703.573,-102.226 705.584,-95.5212"/>
</g>
<!-- DependenciesUtil&#45;&gt;DependencyCommand -->
<g id="edge54" class="edge"><title>DependenciesUtil&#45;&gt;DependencyCommand</title>
<path style="fill:none;stroke:black;" d="M854,-132C844,-124 829,-112 817,-102"/>
<polygon style="fill:black;stroke:black;" points="819.1,-99.2 809,-96 814.9,-104.8 819.1,-99.2"/>
</g>
<!-- DependencyFileFilter -->
<g id="node44" class="node"><title>DependencyFileFilter</title>
<polygon style="fill:none;stroke:black;" points="992,-96 890,-96 890,-78 992,-78 992,-96"/>
<text text-anchor="middle" x="941" y="-84.8" style="font-family:Times New Roman;font-size:8.00;">DependencyFileFilter</text>
</g>
<!-- DependenciesUtil&#45;&gt;DependencyFileFilter -->
<g id="edge56" class="edge"><title>DependenciesUtil&#45;&gt;DependencyFileFilter</title>
<path style="fill:none;stroke:black;" d="M879,-132C890,-124 907,-112 920,-102"/>
<polygon style="fill:black;stroke:black;" points="922.1,-104.8 928,-96 917.9,-99.2 922.1,-104.8"/>
</g>
<!-- ExportCommand&#45;&gt;ClassDependencies -->
<g id="edge74" class="edge"><title>ExportCommand&#45;&gt;ClassDependencies</title>
<path style="fill:none;stroke:black;" d="M667,-78C671,-71 678,-60 684,-51"/>
<polygon style="fill:black;stroke:black;" points="687.203,-52.4414 689,-42 681.084,-49.0418 687.203,-52.4414"/>
</g>
<!-- MvcDependencyCommand&#45;&gt;MvcAnalyzer -->
<g id="edge20" class="edge"><title>MvcDependencyCommand&#45;&gt;MvcAnalyzer</title>
<path style="fill:none;stroke:black;" d="M179,-258C186,-265 194,-276 200,-285"/>
<polygon style="fill:black;stroke:black;" points="197.541,-287.621 206,-294 203.365,-283.738 197.541,-287.621"/>
</g>
<!-- MvcDependencyCommand&#45;&gt;MvcAnalyzer$Variable -->
<g id="edge22" class="edge"><title>MvcDependencyCommand&#45;&gt;MvcAnalyzer$Variable</title>
<path style="fill:none;stroke:black;" d="M177,-240C196,-222 240,-181 264,-157"/>
<polygon style="fill:black;stroke:black;" points="266.404,-159.546 271,-150 261.454,-154.596 266.404,-159.546"/>
</g>
<!-- MvcDependencyCommand&#45;&gt;DependencyCommand -->
<g id="edge18" class="edge"><title>MvcDependencyCommand&#45;&gt;DependencyCommand</title>
<path style="fill:none;stroke:black;" d="M168,-240C170,-216 180,-151 219,-124 264,-92 659,-100 713,-96 719,-95 725,-95 732,-94"/>
<polygon style="fill:black;stroke:black;" points="732.398,-97.4778 742,-93 731.701,-90.5125 732.398,-97.4778"/>
</g>
<!-- DependencyAnalyzer&#45;&gt;ClassDependencies -->
<g id="edge44" class="edge"><title>DependencyAnalyzer&#45;&gt;ClassDependencies</title>
<path style="fill:none;stroke:black;" d="M735,-186C740,-172 747,-145 741,-124 735,-96 719,-68 708,-51"/>
<polygon style="fill:black;stroke:black;" points="710.459,-48.3791 702,-42 704.635,-52.262 710.459,-48.3791"/>
</g>
<!-- DependencyAnalyzer&#45;&gt;DependenciesUtil -->
<g id="edge50" class="edge"><title>DependencyAnalyzer&#45;&gt;DependenciesUtil</title>
<path style="fill:none;stroke:black;" d="M754,-186C776,-177 810,-164 835,-154"/>
<polygon style="fill:black;stroke:black;" points="836.283,-157.26 844,-150 833.44,-150.863 836.283,-157.26"/>
</g>
<!-- DependencyAnalyzer&#45;&gt;DependencyCommand -->
<g id="edge46" class="edge"><title>DependencyAnalyzer&#45;&gt;DependencyCommand</title>
<path style="fill:none;stroke:black;" d="M738,-186C749,-168 772,-128 786,-105"/>
<polygon style="fill:black;stroke:black;" points="789.203,-106.441 791,-96 783.084,-103.042 789.203,-106.441"/>
</g>
<!-- DependencyVisitor -->
<g id="node39" class="node"><title>DependencyVisitor</title>
<polygon style="fill:none;stroke:black;" points="732,-150 638,-150 638,-132 732,-132 732,-150"/>
<text text-anchor="middle" x="685" y="-138.8" style="font-family:Times New Roman;font-size:8.00;">DependencyVisitor</text>
</g>
<!-- DependencyAnalyzer&#45;&gt;DependencyVisitor -->
<g id="edge48" class="edge"><title>DependencyAnalyzer&#45;&gt;DependencyVisitor</title>
<path style="fill:none;stroke:black;" d="M724,-186C717,-178 708,-167 700,-158"/>
<polygon style="fill:black;stroke:black;" points="702.219,-155.221 693,-150 696.951,-159.831 702.219,-155.221"/>
</g>
<!-- Layer$3 -->
<g id="node32" class="node"><title>Layer$3</title>
<polygon style="fill:none;stroke:black;" points="594,-258 544,-258 544,-240 594,-240 594,-258"/>
<text text-anchor="middle" x="569" y="-246.8" style="font-family:Times New Roman;font-size:8.00;">Layer$3</text>
</g>
<!-- Layer$3&#45;&gt;Layer -->
<g id="edge40" class="edge"><title>Layer$3&#45;&gt;Layer</title>
<path style="fill:none;stroke:black;" d="M544,-242C541,-241 538,-241 535,-240 483,-226 423,-211 388,-202"/>
<polygon style="fill:black;stroke:black;" points="388.492,-198.529 378,-200 387.119,-205.393 388.492,-198.529"/>
</g>
<!-- Layer$3&#45;&gt;DependencyAnalyzer -->
<!-- Layer$2 -->
<g id="node34" class="node"><title>Layer$2</title>
<polygon style="fill:none;stroke:black;" points="318,-258 268,-258 268,-240 318,-240 318,-258"/>
<text text-anchor="middle" x="293" y="-246.8" style="font-family:Times New Roman;font-size:8.00;">Layer$2</text>
</g>
<!-- Layer$2&#45;&gt;Layer -->
<g id="edge42" class="edge"><title>Layer$2&#45;&gt;Layer</title>
<path style="fill:none;stroke:black;" d="M304,-240C314,-232 328,-220 340,-210"/>
<polygon style="fill:black;stroke:black;" points="342.1,-212.8 348,-204 337.9,-207.2 342.1,-212.8"/>
</g>
<!-- DependenciesUtilTest -->
<g id="node46" class="node"><title>DependenciesUtilTest</title>
<polygon style="fill:none;stroke:black;" points="874,-258 768,-258 768,-240 874,-240 874,-258"/>
<text text-anchor="middle" x="821" y="-246.8" style="font-family:Times New Roman;font-size:8.00;">DependenciesUtilTest</text>
</g>
<!-- DependenciesUtilTest&#45;&gt;DependenciesUtil -->
<g id="edge62" class="edge"><title>DependenciesUtilTest&#45;&gt;DependenciesUtil</title>
<path style="fill:none;stroke:black;" d="M825,-240C833,-223 849,-183 858,-159"/>
<polygon style="fill:black;stroke:black;" points="861.137,-160.56 862,-150 854.74,-157.717 861.137,-160.56"/>
</g>
<!-- DependenciesUtilTest&#45;&gt;ExportCommand -->
<g id="edge64" class="edge"><title>DependenciesUtilTest&#45;&gt;ExportCommand</title>
<path style="fill:none;stroke:black;" d="M768,-241C738,-234 701,-223 672,-204 647,-186 640,-178 629,-150 626,-139 625,-134 629,-124 632,-116 637,-109 643,-103"/>
<polygon style="fill:black;stroke:black;" points="645.404,-105.546 650,-96 640.454,-100.596 645.404,-105.546"/>
</g>
<!-- DependenciesUtilTest&#45;&gt;DependencyCommand -->
<g id="edge60" class="edge"><title>DependenciesUtilTest&#45;&gt;DependencyCommand</title>
<path style="fill:none;stroke:black;" d="M820,-240C816,-215 805,-141 800,-106"/>
<polygon style="fill:black;stroke:black;" points="803.393,-105.119 798,-96 796.529,-106.492 803.393,-105.119"/>
</g>
<!-- DependenciesUtilTest&#45;&gt;DependencyAnalyzer -->
<g id="edge66" class="edge"><title>DependenciesUtilTest&#45;&gt;DependencyAnalyzer</title>
<path style="fill:none;stroke:black;" d="M806,-240C793,-232 772,-219 756,-209"/>
<polygon style="fill:black;stroke:black;" points="757.441,-205.797 747,-204 754.042,-211.916 757.441,-205.797"/>
</g>
<!-- DependencyAnalyzerTest -->
<g id="node51" class="node"><title>DependencyAnalyzerTest</title>
<polygon style="fill:none;stroke:black;" points="1012,-258 892,-258 892,-240 1012,-240 1012,-258"/>
<text text-anchor="middle" x="952" y="-246.8" style="font-family:Times New Roman;font-size:8.00;">DependencyAnalyzerTest</text>
</g>
<!-- DependencyAnalyzerTest&#45;&gt;ClassDependencies -->
<g id="edge68" class="edge"><title>DependencyAnalyzerTest&#45;&gt;ClassDependencies</title>
<path style="fill:none;stroke:black;" d="M960,-240C982,-212 1043,-127 1001,-78 985,-59 839,-44 755,-38"/>
<polygon style="fill:black;stroke:black;" points="755.299,-34.5125 745,-37 754.602,-41.4778 755.299,-34.5125"/>
</g>
<!-- DependencyAnalyzerTest&#45;&gt;DependencyCommand -->
<g id="edge70" class="edge"><title>DependencyAnalyzerTest&#45;&gt;DependencyCommand</title>
<path style="fill:none;stroke:black;" d="M952,-240C953,-217 951,-157 920,-124 911,-114 882,-105 854,-98"/>
<polygon style="fill:black;stroke:black;" points="854.492,-94.5292 844,-96 853.119,-101.393 854.492,-94.5292"/>
</g>
<!-- DependencyAnalyzerTest&#45;&gt;DependencyAnalyzer -->
<g id="edge72" class="edge"><title>DependencyAnalyzerTest&#45;&gt;DependencyAnalyzer</title>
<path style="fill:none;stroke:black;" d="M915,-240C878,-231 819,-216 779,-206"/>
<polygon style="fill:black;stroke:black;" points="779.492,-202.529 769,-204 778.119,-209.393 779.492,-202.529"/>
</g>
<!-- DependenciesUtil$1 -->
<g id="node59" class="node"><title>DependenciesUtil$1</title>
<polygon style="fill:none;stroke:black;" points="750,-258 650,-258 650,-240 750,-240 750,-258"/>
<text text-anchor="middle" x="700" y="-246.8" style="font-family:Times New Roman;font-size:8.00;">DependenciesUtil$1</text>
</g>
</g>
</svg>
