<?xml version="1.0" encoding="UTF-8" standalone="no"?>
<!DOCTYPE svg PUBLIC "-//W3C//DTD SVG 1.0//EN"
 "http://www.w3.org/TR/2001/REC-SVG-20010904/DTD/svg10.dtd" [
 <!ATTLIST svg xmlns:xlink CDATA #FIXED "http://www.w3.org/1999/xlink">
]>
<!-- Generated by Graphviz version 2.20.2 (Mon Mar 30 10:09:11 UTC 2009)
     For user: (jccastrejon) jccastrejon,,, -->
<!-- Title: petclinicClassification&#45;directory&#45;internal Pages: 1 -->
<svg width="2313pt" height="1224pt"
 viewBox="0.00 0.00 2313.00 1224.00" xmlns="http://www.w3.org/2000/svg" xmlns:xlink="http://www.w3.org/1999/xlink">
<g id="graph0" class="graph" transform="scale(1 1) rotate(0) translate(4 1220)">
<title>petclinicClassification&#45;directory&#45;internal</title>
<polygon style="fill:white;stroke:white;" points="-4,4 -4,-1220 2309,-1220 2309,4 -4,4"/>
<g id="cluster2" class="cluster"><title>clusterMVCLayers</title>
<polygon style="fill:none;stroke:#ccffff;stroke-width:2;" points="652,-1036 652,-1208 828,-1208 828,-1036 652,-1036"/>
<text text-anchor="middle" x="740" y="-1196.8" style="font-family:Times New Roman;font-size:8.00;">MVC Layers</text>
</g>
<g id="cluster3" class="cluster"><title>cluster_test/org/springframework/samples/petclinic/jdbc</title>
<polygon style="fill:none;stroke:black;" points="1438,-1156 1438,-1208 1661,-1208 1661,-1156 1438,-1156"/>
<text text-anchor="middle" x="1549" y="-1196.8" style="font-family:Times New Roman;font-size:8.00;">test/org/springframework/samples/petclinic/jdbc</text>
</g>
<g id="cluster4" class="cluster"><title>cluster_test/org/springframework/samples/petclinic/hibernate</title>
<polygon style="fill:none;stroke:black;" points="1426,-1096 1426,-1148 1672,-1148 1672,-1096 1426,-1096"/>
<text text-anchor="middle" x="1549" y="-1136.8" style="font-family:Times New Roman;font-size:8.00;">test/org/springframework/samples/petclinic/hibernate</text>
</g>
<g id="cluster5" class="cluster"><title>cluster_classes.org.springframework.samples.petclinic.util</title>
<polygon style="fill:none;stroke:black;" points="1432,-1036 1432,-1088 1667,-1088 1667,-1036 1432,-1036"/>
<text text-anchor="middle" x="1549" y="-1076.8" style="font-family:Times New Roman;font-size:8.00;">classes.org.springframework.samples.petclinic.util</text>
</g>
<g id="cluster6" class="cluster"><title>cluster_db/mysql</title>
<polygon style="fill:none;stroke:black;" points="1475,-976 1475,-1028 1623,-1028 1623,-976 1475,-976"/>
<text text-anchor="middle" x="1549" y="-1016.8" style="font-family:Times New Roman;font-size:8.00;">db/mysql</text>
</g>
<g id="cluster7" class="cluster"><title>cluster_classes.org.springframework.samples.petclinic.hibernate</title>
<polygon style="fill:none;stroke:black;" points="1418,-916 1418,-968 1681,-968 1681,-916 1418,-916"/>
<text text-anchor="middle" x="1549" y="-956.8" style="font-family:Times New Roman;font-size:8.00;">classes.org.springframework.samples.petclinic.hibernate</text>
</g>
<g id="cluster8" class="cluster"><title>cluster_build</title>
<polygon style="fill:none;stroke:black;" points="1526,-856 1526,-908 1572,-908 1572,-856 1526,-856"/>
<text text-anchor="middle" x="1549" y="-896.8" style="font-family:Times New Roman;font-size:8.00;">build</text>
</g>
<g id="cluster9" class="cluster"><title>cluster_war</title>
<polygon style="fill:none;stroke:black;" points="1514,-796 1514,-848 1584,-848 1584,-796 1514,-796"/>
<text text-anchor="middle" x="1549" y="-836.8" style="font-family:Times New Roman;font-size:8.00;">war</text>
</g>
<g id="cluster10" class="cluster"><title>cluster_classes.org.springframework.samples.petclinic.toplink</title>
<polygon style="fill:none;stroke:black;" points="1424,-736 1424,-788 1674,-788 1674,-736 1424,-736"/>
<text text-anchor="middle" x="1549" y="-776.8" style="font-family:Times New Roman;font-size:8.00;">classes.org.springframework.samples.petclinic.toplink</text>
</g>
<g id="cluster11" class="cluster"><title>cluster_db/hsqldb</title>
<polygon style="fill:none;stroke:black;" points="1479,-676 1479,-728 1619,-728 1619,-676 1479,-676"/>
<text text-anchor="middle" x="1549" y="-716.8" style="font-family:Times New Roman;font-size:8.00;">db/hsqldb</text>
</g>
<g id="cluster12" class="cluster"><title>cluster_war/META&#45;INF</title>
<polygon style="fill:none;stroke:black;" points="1509,-616 1509,-668 1589,-668 1589,-616 1509,-616"/>
<text text-anchor="middle" x="1549" y="-656.8" style="font-family:Times New Roman;font-size:8.00;">war/META&#45;INF</text>
</g>
<g id="cluster13" class="cluster"><title>cluster_test/org/springframework/samples/petclinic</title>
<polygon style="fill:none;stroke:black;" points="1448,-556 1448,-608 1651,-608 1651,-556 1448,-556"/>
<text text-anchor="middle" x="1549" y="-596.8" style="font-family:Times New Roman;font-size:8.00;">test/org/springframework/samples/petclinic</text>
</g>
<g id="cluster14" class="cluster"><title>cluster_src</title>
<polygon style="fill:none;stroke:black;" points="1496,-496 1496,-548 1602,-548 1602,-496 1496,-496"/>
<text text-anchor="middle" x="1549" y="-536.8" style="font-family:Times New Roman;font-size:8.00;">src</text>
</g>
<g id="cluster15" class="cluster"><title>cluster_classes.org.springframework.samples.petclinic.jpa</title>
<polygon style="fill:none;stroke:black;" points="1558,-436 1558,-488 1793,-488 1793,-436 1558,-436"/>
<text text-anchor="middle" x="1675" y="-476.8" style="font-family:Times New Roman;font-size:8.00;">classes.org.springframework.samples.petclinic.jpa</text>
</g>
<g id="cluster17" class="cluster"><title>cluster_db</title>
<polygon style="fill:none;stroke:black;" points="1346,-436 1346,-488 1550,-488 1550,-436 1346,-436"/>
<text text-anchor="middle" x="1448" y="-476.8" style="font-family:Times New Roman;font-size:8.00;">db</text>
</g>
<g id="cluster18" class="cluster"><title>cluster_classes.org.springframework.samples.petclinic.validation</title>
<polygon style="fill:none;stroke:black;" points="1264,-376 1264,-428 1532,-428 1532,-376 1264,-376"/>
<text text-anchor="middle" x="1398" y="-416.8" style="font-family:Times New Roman;font-size:8.00;">classes.org.springframework.samples.petclinic.validation</text>
</g>
<g id="cluster19" class="cluster"><title>cluster_classes.org.springframework.samples.petclinic.aspects</title>
<polygon style="fill:none;stroke:black;" points="1321,-316 1321,-368 1665,-368 1665,-316 1321,-316"/>
<text text-anchor="middle" x="1493" y="-356.8" style="font-family:Times New Roman;font-size:8.00;">classes.org.springframework.samples.petclinic.aspects</text>
</g>
<g id="cluster20" class="cluster"><title>cluster_src/META&#45;INF</title>
<polygon style="fill:none;stroke:black;" points="1298,-256 1298,-308 1534,-308 1534,-256 1298,-256"/>
<text text-anchor="middle" x="1416" y="-296.8" style="font-family:Times New Roman;font-size:8.00;">src/META&#45;INF</text>
</g>
<g id="cluster21" class="cluster"><title>cluster_test/org/springframework/samples/petclinic/jpa</title>
<polygon style="fill:none;stroke:black;" points="988,-196 988,-248 1958,-248 1958,-196 988,-196"/>
<text text-anchor="middle" x="1473" y="-236.8" style="font-family:Times New Roman;font-size:8.00;">test/org/springframework/samples/petclinic/jpa</text>
</g>
<g id="cluster22" class="cluster"><title>cluster_classes.org.springframework.samples.petclinic.jdbc</title>
<polygon style="fill:none;stroke:black;" points="960,-136 960,-188 1672,-188 1672,-136 960,-136"/>
<text text-anchor="middle" x="1316" y="-176.8" style="font-family:Times New Roman;font-size:8.00;">classes.org.springframework.samples.petclinic.jdbc</text>
</g>
<g id="cluster23" class="cluster"><title>cluster_war/WEB&#45;INF</title>
<polygon style="fill:none;stroke:black;" points="1180,-76 1180,-128 1946,-128 1946,-76 1180,-76"/>
<text text-anchor="middle" x="1563" y="-116.8" style="font-family:Times New Roman;font-size:8.00;">war/WEB&#45;INF</text>
</g>
<g id="cluster24" class="cluster"><title>cluster_classes.org.springframework.samples.petclinic.web</title>
<polygon style="fill:none;stroke:black;" points="438,-16 438,-68 1308,-68 1308,-16 438,-16"/>
<text text-anchor="middle" x="873" y="-56.8" style="font-family:Times New Roman;font-size:8.00;">classes.org.springframework.samples.petclinic.web</text>
</g>
<g id="cluster25" class="cluster"><title>cluster_war/WEB&#45;INF/jsp</title>
<polygon style="fill:none;stroke:black;" points="8,-76 8,-128 1172,-128 1172,-76 8,-76"/>
<text text-anchor="middle" x="590" y="-116.8" style="font-family:Times New Roman;font-size:8.00;">war/WEB&#45;INF/jsp</text>
</g>
<g id="cluster26" class="cluster"><title>cluster_classes.org.springframework.samples.petclinic</title>
<polygon style="fill:none;stroke:black;" points="1669,-1156 1669,-1208 2297,-1208 2297,-1156 1669,-1156"/>
<text text-anchor="middle" x="1983" y="-1196.8" style="font-family:Times New Roman;font-size:8.00;">classes.org.springframework.samples.petclinic</text>
</g>
<!-- ModelLayer -->
<g id="node1" class="node"><title>ModelLayer</title>
<polygon style="fill:#b1ff3d;stroke:#b1ff3d;" points="811,-1182 771,-1182 771,-1164 811,-1164 811,-1182"/>
<text text-anchor="middle" x="791" y="-1170.8" style="font-family:Times New Roman;font-size:8.00;">Model</text>
</g>
<!-- ViewLayer -->
<g id="node2" class="node"><title>ViewLayer</title>
<polygon style="fill:#3399ff;stroke:#3399ff;" points="809,-1122 773,-1122 773,-1104 809,-1104 809,-1122"/>
<text text-anchor="middle" x="791" y="-1110.8" style="font-family:Times New Roman;font-size:8.00;">View</text>
</g>
<!-- ModelLayer&#45;&gt;ViewLayer -->
<!-- ControllerLayer -->
<g id="node3" class="node"><title>ControllerLayer</title>
<polygon style="fill:#a3a3a3;stroke:#a3a3a3;" points="820,-1062 762,-1062 762,-1044 820,-1044 820,-1062"/>
<text text-anchor="middle" x="791" y="-1050.8" style="font-family:Times New Roman;font-size:8.00;">Controller</text>
</g>
<!-- ViewLayer&#45;&gt;ControllerLayer -->
<!-- InvalidModelLayer -->
<g id="node4" class="node"><title>InvalidModelLayer</title>
<polyline style="fill:none;stroke:#b1ff3d;" points="724,-1182 680,-1182 "/>
<path style="fill:none;stroke:#b1ff3d;" d="M680,-1182C674,-1182 668,-1176 668,-1170"/>
<polyline style="fill:none;stroke:#b1ff3d;" points="668,-1170 668,-1176 "/>
<path style="fill:none;stroke:#b1ff3d;" d="M668,-1176C668,-1170 674,-1164 680,-1164"/>
<polyline style="fill:none;stroke:#b1ff3d;" points="680,-1164 724,-1164 "/>
<path style="fill:none;stroke:#b1ff3d;" d="M724,-1164C730,-1164 736,-1170 736,-1176"/>
<polyline style="fill:none;stroke:#b1ff3d;" points="736,-1176 736,-1170 "/>
<path style="fill:none;stroke:#b1ff3d;" d="M736,-1170C736,-1176 730,-1182 724,-1182"/>
<text text-anchor="middle" x="702" y="-1170.8" style="font-family:Times New Roman;font-size:8.00;">InvalidModel</text>
</g>
<!-- InvalidViewLayer -->
<g id="node5" class="node"><title>InvalidViewLayer</title>
<polyline style="fill:none;stroke:#3399ff;" points="721,-1122 683,-1122 "/>
<path style="fill:none;stroke:#3399ff;" d="M683,-1122C677,-1122 671,-1116 671,-1110"/>
<polyline style="fill:none;stroke:#3399ff;" points="671,-1110 671,-1116 "/>
<path style="fill:none;stroke:#3399ff;" d="M671,-1116C671,-1110 677,-1104 683,-1104"/>
<polyline style="fill:none;stroke:#3399ff;" points="683,-1104 721,-1104 "/>
<path style="fill:none;stroke:#3399ff;" d="M721,-1104C727,-1104 733,-1110 733,-1116"/>
<polyline style="fill:none;stroke:#3399ff;" points="733,-1116 733,-1110 "/>
<path style="fill:none;stroke:#3399ff;" d="M733,-1110C733,-1116 727,-1122 721,-1122"/>
<text text-anchor="middle" x="702" y="-1110.8" style="font-family:Times New Roman;font-size:8.00;">InvalidView</text>
</g>
<!-- InvalidModelLayer&#45;&gt;InvalidViewLayer -->
<!-- InvalidControllerLayer -->
<g id="node6" class="node"><title>InvalidControllerLayer</title>
<polyline style="fill:none;stroke:#a3a3a3;" points="732,-1062 672,-1062 "/>
<path style="fill:none;stroke:#a3a3a3;" d="M672,-1062C666,-1062 660,-1056 660,-1050"/>
<polyline style="fill:none;stroke:#a3a3a3;" points="660,-1050 660,-1056 "/>
<path style="fill:none;stroke:#a3a3a3;" d="M660,-1056C660,-1050 666,-1044 672,-1044"/>
<polyline style="fill:none;stroke:#a3a3a3;" points="672,-1044 732,-1044 "/>
<path style="fill:none;stroke:#a3a3a3;" d="M732,-1044C738,-1044 744,-1050 744,-1056"/>
<polyline style="fill:none;stroke:#a3a3a3;" points="744,-1056 744,-1050 "/>
<path style="fill:none;stroke:#a3a3a3;" d="M744,-1050C744,-1056 738,-1062 732,-1062"/>
<text text-anchor="middle" x="702" y="-1050.8" style="font-family:Times New Roman;font-size:8.00;">InvalidController</text>
</g>
<!-- InvalidViewLayer&#45;&gt;InvalidControllerLayer -->
<!-- index.jsp -->
<g id="node10" class="node"><title>index.jsp</title>
<polygon style="fill:#3399ff;stroke:#3399ff;" points="1576,-822 1522,-822 1522,-804 1576,-804 1576,-822"/>
<text text-anchor="middle" x="1549" y="-810.8" style="font-family:Times New Roman;font-size:8.00;">index.jsp</text>
</g>
<!-- EssentialsHSQLPlatformWithNativeSequence -->
<g id="node82" class="node"><title>EssentialsHSQLPlatformWithNativeSequence</title>
<polygon style="fill:#b1ff3d;stroke:#b1ff3d;" points="1651,-762 1447,-762 1447,-744 1651,-744 1651,-762"/>
<text text-anchor="middle" x="1549" y="-750.8" style="font-family:Times New Roman;font-size:8.00;">EssentialsHSQLPlatformWithNativeSequence</text>
</g>
<!-- index.jsp&#45;&gt;EssentialsHSQLPlatformWithNativeSequence -->
<!-- applicationContext&#45;jpa.xml -->
<g id="node11" class="node"><title>applicationContext&#45;jpa.xml</title>
<polygon style="fill:#a3a3a3;stroke:#a3a3a3;" points="1938,-102 1810,-102 1810,-84 1938,-84 1938,-102"/>
<text text-anchor="middle" x="1874" y="-90.8" style="font-family:Times New Roman;font-size:8.00;">applicationContext&#45;jpa.xml</text>
</g>
<!-- petclinic&#45;servlet.xml -->
<g id="node12" class="node"><title>petclinic&#45;servlet.xml</title>
<polygon style="fill:#a3a3a3;stroke:#a3a3a3;" points="1792,-102 1692,-102 1692,-84 1792,-84 1792,-102"/>
<text text-anchor="middle" x="1742" y="-90.8" style="font-family:Times New Roman;font-size:8.00;">petclinic&#45;servlet.xml</text>
</g>
<!-- geronimo&#45;web.xml -->
<g id="node13" class="node"><title>geronimo&#45;web.xml</title>
<polygon style="fill:#a3a3a3;stroke:#a3a3a3;" points="1674,-102 1580,-102 1580,-84 1674,-84 1674,-102"/>
<text text-anchor="middle" x="1627" y="-90.8" style="font-family:Times New Roman;font-size:8.00;">geronimo&#45;web.xml</text>
</g>
<!-- applicationContext&#45;hibernate.xml -->
<g id="node14" class="node"><title>applicationContext&#45;hibernate.xml</title>
<polygon style="fill:#a3a3a3;stroke:#a3a3a3;" points="1562,-102 1406,-102 1406,-84 1562,-84 1562,-102"/>
<text text-anchor="middle" x="1484" y="-90.8" style="font-family:Times New Roman;font-size:8.00;">applicationContext&#45;hibernate.xml</text>
</g>
<!-- EditOwnerForm -->
<g id="node73" class="node"><title>EditOwnerForm</title>
<polygon style="fill:#3399ff;stroke:#3399ff;" points="1216,-42 1136,-42 1136,-24 1216,-24 1216,-42"/>
<text text-anchor="middle" x="1176" y="-30.8" style="font-family:Times New Roman;font-size:8.00;">EditOwnerForm</text>
</g>
<!-- applicationContext&#45;hibernate.xml&#45;&gt;EditOwnerForm -->
<!-- petclinic.hbm.xml -->
<g id="node15" class="node"><title>petclinic.hbm.xml</title>
<polygon style="fill:#a3a3a3;stroke:#a3a3a3;" points="1594,-522 1504,-522 1504,-504 1594,-504 1594,-522"/>
<text text-anchor="middle" x="1549" y="-510.8" style="font-family:Times New Roman;font-size:8.00;">petclinic.hbm.xml</text>
</g>
<!-- petclinic_tomcat_all.xml -->
<g id="node32" class="node"><title>petclinic_tomcat_all.xml</title>
<polygon style="fill:#a3a3a3;stroke:#a3a3a3;" points="1542,-462 1426,-462 1426,-444 1542,-444 1542,-462"/>
<text text-anchor="middle" x="1484" y="-450.8" style="font-family:Times New Roman;font-size:8.00;">petclinic_tomcat_all.xml</text>
</g>
<!-- petclinic.hbm.xml&#45;&gt;petclinic_tomcat_all.xml -->
<!-- EntityManagerClinic -->
<g id="node80" class="node"><title>EntityManagerClinic</title>
<polygon style="fill:#b1ff3d;stroke:#b1ff3d;" points="1664,-462 1566,-462 1566,-444 1664,-444 1664,-462"/>
<text text-anchor="middle" x="1615" y="-450.8" style="font-family:Times New Roman;font-size:8.00;">EntityManagerClinic</text>
</g>
<!-- petclinic.hbm.xml&#45;&gt;EntityManagerClinic -->
<!-- web.xml -->
<g id="node16" class="node"><title>web.xml</title>
<polygon style="fill:#a3a3a3;stroke:#a3a3a3;" points="1388,-102 1338,-102 1338,-84 1388,-84 1388,-102"/>
<text text-anchor="middle" x="1363" y="-90.8" style="font-family:Times New Roman;font-size:8.00;">web.xml</text>
</g>
<!-- applicationContext&#45;jdbc.xml -->
<g id="node17" class="node"><title>applicationContext&#45;jdbc.xml</title>
<polygon style="fill:#a3a3a3;stroke:#a3a3a3;" points="1320,-102 1188,-102 1188,-84 1320,-84 1320,-102"/>
<text text-anchor="middle" x="1254" y="-90.8" style="font-family:Times New Roman;font-size:8.00;">applicationContext&#45;jdbc.xml</text>
</g>
<!-- petForm.jsp -->
<g id="node18" class="node"><title>petForm.jsp</title>
<polygon style="fill:#3399ff;stroke:#3399ff;" points="1164,-102 1098,-102 1098,-84 1164,-84 1164,-102"/>
<text text-anchor="middle" x="1131" y="-90.8" style="font-family:Times New Roman;font-size:8.00;">petForm.jsp</text>
</g>
<!-- owner.jsp -->
<g id="node19" class="node"><title>owner.jsp</title>
<polygon style="fill:#3399ff;stroke:#3399ff;" points="1080,-102 1024,-102 1024,-84 1080,-84 1080,-102"/>
<text text-anchor="middle" x="1052" y="-90.8" style="font-family:Times New Roman;font-size:8.00;">owner.jsp</text>
</g>
<!-- findOwners.jsp -->
<g id="node20" class="node"><title>findOwners.jsp</title>
<polygon style="fill:#3399ff;stroke:#3399ff;" points="1006,-102 926,-102 926,-84 1006,-84 1006,-102"/>
<text text-anchor="middle" x="966" y="-90.8" style="font-family:Times New Roman;font-size:8.00;">findOwners.jsp</text>
</g>
<!-- footer.jsp -->
<g id="node21" class="node"><title>footer.jsp</title>
<polygon style="fill:#3399ff;stroke:#3399ff;" points="908,-102 852,-102 852,-84 908,-84 908,-102"/>
<text text-anchor="middle" x="880" y="-90.8" style="font-family:Times New Roman;font-size:8.00;">footer.jsp</text>
</g>
<!-- welcome.jsp -->
<g id="node22" class="node"><title>welcome.jsp</title>
<polygon style="fill:#3399ff;stroke:#3399ff;" points="834,-102 766,-102 766,-84 834,-84 834,-102"/>
<text text-anchor="middle" x="800" y="-90.8" style="font-family:Times New Roman;font-size:8.00;">welcome.jsp</text>
</g>
<!-- AddOwnerForm -->
<g id="node69" class="node"><title>AddOwnerForm</title>
<polygon style="fill:#3399ff;stroke:#3399ff;" points="840,-42 760,-42 760,-24 840,-24 840,-42"/>
<text text-anchor="middle" x="800" y="-30.8" style="font-family:Times New Roman;font-size:8.00;">AddOwnerForm</text>
</g>
<!-- welcome.jsp&#45;&gt;AddOwnerForm -->
<!-- uncaughtException.jsp -->
<g id="node23" class="node"><title>uncaughtException.jsp</title>
<polygon style="fill:#3399ff;stroke:#3399ff;" points="748,-102 638,-102 638,-84 748,-84 748,-102"/>
<text text-anchor="middle" x="693" y="-90.8" style="font-family:Times New Roman;font-size:8.00;">uncaughtException.jsp</text>
</g>
<!-- visitForm.jsp -->
<g id="node24" class="node"><title>visitForm.jsp</title>
<polygon style="fill:#3399ff;stroke:#3399ff;" points="620,-102 550,-102 550,-84 620,-84 620,-102"/>
<text text-anchor="middle" x="585" y="-90.8" style="font-family:Times New Roman;font-size:8.00;">visitForm.jsp</text>
</g>
<!-- ownerForm.jsp -->
<g id="node25" class="node"><title>ownerForm.jsp</title>
<polygon style="fill:#3399ff;stroke:#3399ff;" points="532,-102 452,-102 452,-84 532,-84 532,-102"/>
<text text-anchor="middle" x="492" y="-90.8" style="font-family:Times New Roman;font-size:8.00;">ownerForm.jsp</text>
</g>
<!-- owners.jsp -->
<g id="node26" class="node"><title>owners.jsp</title>
<polygon style="fill:#3399ff;stroke:#3399ff;" points="434,-102 372,-102 372,-84 434,-84 434,-102"/>
<text text-anchor="middle" x="403" y="-90.8" style="font-family:Times New Roman;font-size:8.00;">owners.jsp</text>
</g>
<!-- dataAccessFailure.jsp -->
<g id="node27" class="node"><title>dataAccessFailure.jsp</title>
<polygon style="fill:#3399ff;stroke:#3399ff;" points="354,-102 246,-102 246,-84 354,-84 354,-102"/>
<text text-anchor="middle" x="300" y="-90.8" style="font-family:Times New Roman;font-size:8.00;">dataAccessFailure.jsp</text>
</g>
<!-- includes.jsp -->
<g id="node28" class="node"><title>includes.jsp</title>
<polygon style="fill:#3399ff;stroke:#3399ff;" points="228,-102 162,-102 162,-84 228,-84 228,-102"/>
<text text-anchor="middle" x="195" y="-90.8" style="font-family:Times New Roman;font-size:8.00;">includes.jsp</text>
</g>
<!-- vets.jsp -->
<g id="node29" class="node"><title>vets.jsp</title>
<polygon style="fill:#3399ff;stroke:#3399ff;" points="144,-102 94,-102 94,-84 144,-84 144,-102"/>
<text text-anchor="middle" x="119" y="-90.8" style="font-family:Times New Roman;font-size:8.00;">vets.jsp</text>
</g>
<!-- header.jsp -->
<g id="node30" class="node"><title>header.jsp</title>
<polygon style="fill:#3399ff;stroke:#3399ff;" points="76,-102 16,-102 16,-84 76,-84 76,-102"/>
<text text-anchor="middle" x="46" y="-90.8" style="font-family:Times New Roman;font-size:8.00;">header.jsp</text>
</g>
<!-- context.xml -->
<g id="node31" class="node"><title>context.xml</title>
<polygon style="fill:#a3a3a3;stroke:#a3a3a3;" points="1581,-642 1517,-642 1517,-624 1581,-624 1581,-642"/>
<text text-anchor="middle" x="1549" y="-630.8" style="font-family:Times New Roman;font-size:8.00;">context.xml</text>
</g>
<!-- AbstractClinicTests&#45;context.xml -->
<g id="node47" class="node"><title>AbstractClinicTests&#45;context.xml</title>
<polygon style="fill:#a3a3a3;stroke:#a3a3a3;" points="1623,-582 1475,-582 1475,-564 1623,-564 1623,-582"/>
<text text-anchor="middle" x="1549" y="-570.8" style="font-family:Times New Roman;font-size:8.00;">AbstractClinicTests&#45;context.xml</text>
</g>
<!-- context.xml&#45;&gt;AbstractClinicTests&#45;context.xml -->
<!-- OwnerValidator -->
<g id="node65" class="node"><title>OwnerValidator</title>
<polygon style="fill:#a3a3a3;stroke:#a3a3a3;" points="1524,-402 1444,-402 1444,-384 1524,-384 1524,-402"/>
<text text-anchor="middle" x="1484" y="-390.8" style="font-family:Times New Roman;font-size:8.00;">OwnerValidator</text>
</g>
<!-- petclinic_tomcat_all.xml&#45;&gt;OwnerValidator -->
<!-- build.xml -->
<g id="node33" class="node"><title>build.xml</title>
<polygon style="fill:#a3a3a3;stroke:#a3a3a3;" points="1408,-462 1354,-462 1354,-444 1408,-444 1408,-462"/>
<text text-anchor="middle" x="1381" y="-450.8" style="font-family:Times New Roman;font-size:8.00;">build.xml</text>
</g>
<!-- petclinic_tomcat_mysql.xml -->
<g id="node34" class="node"><title>petclinic_tomcat_mysql.xml</title>
<polygon style="fill:#a3a3a3;stroke:#a3a3a3;" points="1615,-1002 1483,-1002 1483,-984 1615,-984 1615,-1002"/>
<text text-anchor="middle" x="1549" y="-990.8" style="font-family:Times New Roman;font-size:8.00;">petclinic_tomcat_mysql.xml</text>
</g>
<!-- HibernateClinic -->
<g id="node56" class="node"><title>HibernateClinic</title>
<polygon style="fill:#b1ff3d;stroke:#b1ff3d;" points="1589,-942 1509,-942 1509,-924 1589,-924 1589,-942"/>
<text text-anchor="middle" x="1549" y="-930.8" style="font-family:Times New Roman;font-size:8.00;">HibernateClinic</text>
</g>
<!-- petclinic_tomcat_mysql.xml&#45;&gt;HibernateClinic -->
<!-- petclinic_tomcat_hsql.xml -->
<g id="node35" class="node"><title>petclinic_tomcat_hsql.xml</title>
<polygon style="fill:#a3a3a3;stroke:#a3a3a3;" points="1611,-702 1487,-702 1487,-684 1611,-684 1611,-702"/>
<text text-anchor="middle" x="1549" y="-690.8" style="font-family:Times New Roman;font-size:8.00;">petclinic_tomcat_hsql.xml</text>
</g>
<!-- petclinic_tomcat_hsql.xml&#45;&gt;context.xml -->
<!-- xml -->
<g id="node36" class="node"><title>xml</title>
<polygon style="fill:#a3a3a3;stroke:#a3a3a3;" points="1564,-882 1534,-882 1534,-864 1564,-864 1564,-882"/>
<text text-anchor="middle" x="1549" y="-870.8" style="font-family:Times New Roman;font-size:8.00;">xml</text>
</g>
<!-- xml&#45;&gt;index.jsp -->
<!-- persistence.xml -->
<g id="node37" class="node"><title>persistence.xml</title>
<polygon style="fill:#a3a3a3;stroke:#a3a3a3;" points="1526,-282 1442,-282 1442,-264 1526,-264 1526,-282"/>
<text text-anchor="middle" x="1484" y="-270.8" style="font-family:Times New Roman;font-size:8.00;">persistence.xml</text>
</g>
<!-- applicationContext&#45;openJpaAdapter.xml -->
<g id="node44" class="node"><title>applicationContext&#45;openJpaAdapter.xml</title>
<polygon style="fill:#a3a3a3;stroke:#a3a3a3;" points="1574,-222 1394,-222 1394,-204 1574,-204 1574,-222"/>
<text text-anchor="middle" x="1484" y="-210.8" style="font-family:Times New Roman;font-size:8.00;">applicationContext&#45;openJpaAdapter.xml</text>
</g>
<!-- persistence.xml&#45;&gt;applicationContext&#45;openJpaAdapter.xml -->
<!-- aop.xml -->
<g id="node38" class="node"><title>aop.xml</title>
<polygon style="fill:#a3a3a3;stroke:#a3a3a3;" points="1424,-282 1374,-282 1374,-264 1424,-264 1424,-282"/>
<text text-anchor="middle" x="1399" y="-270.8" style="font-family:Times New Roman;font-size:8.00;">aop.xml</text>
</g>
<!-- orm.xml -->
<g id="node39" class="node"><title>orm.xml</title>
<polygon style="fill:#a3a3a3;stroke:#a3a3a3;" points="1356,-282 1306,-282 1306,-264 1356,-264 1356,-282"/>
<text text-anchor="middle" x="1331" y="-270.8" style="font-family:Times New Roman;font-size:8.00;">orm.xml</text>
</g>
<!-- HibernateClinicTests&#45;context.xml -->
<g id="node40" class="node"><title>HibernateClinicTests&#45;context.xml</title>
<polygon style="fill:#a3a3a3;stroke:#a3a3a3;" points="1626,-1122 1472,-1122 1472,-1104 1626,-1104 1626,-1122"/>
<text text-anchor="middle" x="1549" y="-1110.8" style="font-family:Times New Roman;font-size:8.00;">HibernateClinicTests&#45;context.xml</text>
</g>
<!-- EntityUtils -->
<g id="node50" class="node"><title>EntityUtils</title>
<polygon style="fill:#b1ff3d;stroke:#b1ff3d;" points="1578,-1062 1520,-1062 1520,-1044 1578,-1044 1578,-1062"/>
<text text-anchor="middle" x="1549" y="-1050.8" style="font-family:Times New Roman;font-size:8.00;">EntityUtils</text>
</g>
<!-- HibernateClinicTests&#45;context.xml&#45;&gt;EntityUtils -->
<!-- SimpleJdbcClinicTests&#45;context.xml -->
<g id="node41" class="node"><title>SimpleJdbcClinicTests&#45;context.xml</title>
<polygon style="fill:#a3a3a3;stroke:#a3a3a3;" points="1628,-1182 1470,-1182 1470,-1164 1628,-1164 1628,-1182"/>
<text text-anchor="middle" x="1549" y="-1170.8" style="font-family:Times New Roman;font-size:8.00;">SimpleJdbcClinicTests&#45;context.xml</text>
</g>
<!-- SimpleJdbcClinicTests&#45;context.xml&#45;&gt;HibernateClinicTests&#45;context.xml -->
<!-- applicationContext&#45;entityManager.xml -->
<g id="node42" class="node"><title>applicationContext&#45;entityManager.xml</title>
<polygon style="fill:#a3a3a3;stroke:#a3a3a3;" points="1950,-222 1776,-222 1776,-204 1950,-204 1950,-222"/>
<text text-anchor="middle" x="1863" y="-210.8" style="font-family:Times New Roman;font-size:8.00;">applicationContext&#45;entityManager.xml</text>
</g>
<!-- applicationContext&#45;jpaCommon.xml -->
<g id="node43" class="node"><title>applicationContext&#45;jpaCommon.xml</title>
<polygon style="fill:#a3a3a3;stroke:#a3a3a3;" points="1758,-222 1592,-222 1592,-204 1758,-204 1758,-222"/>
<text text-anchor="middle" x="1675" y="-210.8" style="font-family:Times New Roman;font-size:8.00;">applicationContext&#45;jpaCommon.xml</text>
</g>
<!-- SimpleJdbcClinic$1 -->
<g id="node60" class="node"><title>SimpleJdbcClinic$1</title>
<polygon style="fill:#b1ff3d;stroke:#b1ff3d;" points="1532,-162 1436,-162 1436,-144 1532,-144 1532,-162"/>
<text text-anchor="middle" x="1484" y="-150.8" style="font-family:Times New Roman;font-size:8.00;">SimpleJdbcClinic$1</text>
</g>
<!-- applicationContext&#45;openJpaAdapter.xml&#45;&gt;SimpleJdbcClinic$1 -->
<!-- applicationContext&#45;hibernateAdapter.xml -->
<g id="node45" class="node"><title>applicationContext&#45;hibernateAdapter.xml</title>
<polygon style="fill:#a3a3a3;stroke:#a3a3a3;" points="1376,-222 1188,-222 1188,-204 1376,-204 1376,-222"/>
<text text-anchor="middle" x="1282" y="-210.8" style="font-family:Times New Roman;font-size:8.00;">applicationContext&#45;hibernateAdapter.xml</text>
</g>
<!-- applicationContext&#45;toplinkAdapter.xml -->
<g id="node46" class="node"><title>applicationContext&#45;toplinkAdapter.xml</title>
<polygon style="fill:#a3a3a3;stroke:#a3a3a3;" points="1170,-222 996,-222 996,-204 1170,-204 1170,-222"/>
<text text-anchor="middle" x="1083" y="-210.8" style="font-family:Times New Roman;font-size:8.00;">applicationContext&#45;toplinkAdapter.xml</text>
</g>
<!-- AbstractClinicTests&#45;context.xml&#45;&gt;petclinic.hbm.xml -->
<!-- NamedEntity -->
<g id="node48" class="node"><title>NamedEntity</title>
<polygon style="fill:#b1ff3d;stroke:#b1ff3d;" points="2289,-1182 2221,-1182 2221,-1164 2289,-1164 2289,-1182"/>
<text text-anchor="middle" x="2255" y="-1170.8" style="font-family:Times New Roman;font-size:8.00;">NamedEntity</text>
</g>
<!-- Visit -->
<g id="node49" class="node"><title>Visit</title>
<polygon style="fill:#b1ff3d;stroke:#b1ff3d;" points="2203,-1182 2169,-1182 2169,-1164 2203,-1164 2203,-1182"/>
<text text-anchor="middle" x="2186" y="-1170.8" style="font-family:Times New Roman;font-size:8.00;">Visit</text>
</g>
<!-- EntityUtils&#45;&gt;petclinic_tomcat_mysql.xml -->
<!-- Vet -->
<g id="node51" class="node"><title>Vet</title>
<polygon style="fill:#b1ff3d;stroke:#b1ff3d;" points="2151,-1182 2123,-1182 2123,-1164 2151,-1164 2151,-1182"/>
<text text-anchor="middle" x="2137" y="-1170.8" style="font-family:Times New Roman;font-size:8.00;">Vet</text>
</g>
<!-- CallMonitoringAspect -->
<g id="node52" class="node"><title>CallMonitoringAspect</title>
<polygon style="fill:#a3a3a3;stroke:#a3a3a3;" points="1657,-342 1553,-342 1553,-324 1657,-324 1657,-342"/>
<text text-anchor="middle" x="1605" y="-330.8" style="font-family:Times New Roman;font-size:8.00;">CallMonitoringAspect</text>
</g>
<!-- AbstractTraceAspect -->
<g id="node53" class="node"><title>AbstractTraceAspect</title>
<polygon style="fill:#a3a3a3;stroke:#a3a3a3;" points="1535,-342 1433,-342 1433,-324 1535,-324 1535,-342"/>
<text text-anchor="middle" x="1484" y="-330.8" style="font-family:Times New Roman;font-size:8.00;">AbstractTraceAspect</text>
</g>
<!-- AbstractTraceAspect&#45;&gt;persistence.xml -->
<!-- UsageLogAspect -->
<g id="node54" class="node"><title>UsageLogAspect</title>
<polygon style="fill:#a3a3a3;stroke:#a3a3a3;" points="1415,-342 1329,-342 1329,-324 1415,-324 1415,-342"/>
<text text-anchor="middle" x="1372" y="-330.8" style="font-family:Times New Roman;font-size:8.00;">UsageLogAspect</text>
</g>
<!-- Specialty -->
<g id="node55" class="node"><title>Specialty</title>
<polygon style="fill:#b1ff3d;stroke:#b1ff3d;" points="2105,-1182 2051,-1182 2051,-1164 2105,-1164 2105,-1182"/>
<text text-anchor="middle" x="2078" y="-1170.8" style="font-family:Times New Roman;font-size:8.00;">Specialty</text>
</g>
<!-- HibernateClinic&#45;&gt;xml -->
<!-- Person -->
<g id="node57" class="node"><title>Person</title>
<polygon style="fill:#b1ff3d;stroke:#b1ff3d;" points="2033,-1182 1987,-1182 1987,-1164 2033,-1164 2033,-1182"/>
<text text-anchor="middle" x="2010" y="-1170.8" style="font-family:Times New Roman;font-size:8.00;">Person</text>
</g>
<!-- PetType -->
<g id="node58" class="node"><title>PetType</title>
<polygon style="fill:#b1ff3d;stroke:#b1ff3d;" points="1969,-1182 1921,-1182 1921,-1164 1969,-1164 1969,-1182"/>
<text text-anchor="middle" x="1945" y="-1170.8" style="font-family:Times New Roman;font-size:8.00;">PetType</text>
</g>
<!-- SimpleJdbcClinicMBean -->
<g id="node59" class="node"><title>SimpleJdbcClinicMBean</title>
<polygon style="fill:#b1ff3d;stroke:#b1ff3d;" points="1664,-162 1550,-162 1550,-144 1664,-144 1664,-162"/>
<text text-anchor="middle" x="1607" y="-150.8" style="font-family:Times New Roman;font-size:8.00;">SimpleJdbcClinicMBean</text>
</g>
<!-- SimpleJdbcClinic$1&#45;&gt;applicationContext&#45;hibernate.xml -->
<!-- SimpleJdbcClinic -->
<g id="node61" class="node"><title>SimpleJdbcClinic</title>
<polygon style="fill:#b1ff3d;stroke:#b1ff3d;" points="1418,-162 1334,-162 1334,-144 1418,-144 1418,-162"/>
<text text-anchor="middle" x="1376" y="-150.8" style="font-family:Times New Roman;font-size:8.00;">SimpleJdbcClinic</text>
</g>
<!-- SimpleJdbcClinic$JdbcPetRowMapper -->
<g id="node62" class="node"><title>SimpleJdbcClinic$JdbcPetRowMapper</title>
<polygon style="fill:#b1ff3d;stroke:#b1ff3d;" points="1316,-162 1146,-162 1146,-144 1316,-144 1316,-162"/>
<text text-anchor="middle" x="1231" y="-150.8" style="font-family:Times New Roman;font-size:8.00;">SimpleJdbcClinic$JdbcPetRowMapper</text>
</g>
<!-- JdbcPet -->
<g id="node63" class="node"><title>JdbcPet</title>
<polygon style="fill:#b1ff3d;stroke:#b1ff3d;" points="1128,-162 1082,-162 1082,-144 1128,-144 1128,-162"/>
<text text-anchor="middle" x="1105" y="-150.8" style="font-family:Times New Roman;font-size:8.00;">JdbcPet</text>
</g>
<!-- SimpleJdbcClinic$2 -->
<g id="node64" class="node"><title>SimpleJdbcClinic$2</title>
<polygon style="fill:#b1ff3d;stroke:#b1ff3d;" points="1064,-162 968,-162 968,-144 1064,-144 1064,-162"/>
<text text-anchor="middle" x="1016" y="-150.8" style="font-family:Times New Roman;font-size:8.00;">SimpleJdbcClinic$2</text>
</g>
<!-- OwnerValidator&#45;&gt;AbstractTraceAspect -->
<!-- PetValidator -->
<g id="node66" class="node"><title>PetValidator</title>
<polygon style="fill:#a3a3a3;stroke:#a3a3a3;" points="1426,-402 1360,-402 1360,-384 1426,-384 1426,-402"/>
<text text-anchor="middle" x="1393" y="-390.8" style="font-family:Times New Roman;font-size:8.00;">PetValidator</text>
</g>
<!-- VisitValidator -->
<g id="node67" class="node"><title>VisitValidator</title>
<polygon style="fill:#a3a3a3;stroke:#a3a3a3;" points="1342,-402 1272,-402 1272,-384 1342,-384 1342,-402"/>
<text text-anchor="middle" x="1307" y="-390.8" style="font-family:Times New Roman;font-size:8.00;">VisitValidator</text>
</g>
<!-- EditPetForm -->
<g id="node68" class="node"><title>EditPetForm</title>
<polygon style="fill:#3399ff;stroke:#3399ff;" points="1300,-42 1234,-42 1234,-24 1300,-24 1300,-42"/>
<text text-anchor="middle" x="1267" y="-30.8" style="font-family:Times New Roman;font-size:8.00;">EditPetForm</text>
</g>
<!-- AddPetForm -->
<g id="node70" class="node"><title>AddPetForm</title>
<polygon style="fill:#3399ff;stroke:#3399ff;" points="1118,-42 1052,-42 1052,-24 1118,-24 1118,-42"/>
<text text-anchor="middle" x="1085" y="-30.8" style="font-family:Times New Roman;font-size:8.00;">AddPetForm</text>
</g>
<!-- FindOwnersForm -->
<g id="node71" class="node"><title>FindOwnersForm</title>
<polygon style="fill:#3399ff;stroke:#3399ff;" points="1034,-42 948,-42 948,-24 1034,-24 1034,-42"/>
<text text-anchor="middle" x="991" y="-30.8" style="font-family:Times New Roman;font-size:8.00;">FindOwnersForm</text>
</g>
<!-- PetTypeEditor -->
<g id="node72" class="node"><title>PetTypeEditor</title>
<polyline style="fill:none;stroke:#b1ff3d;" points="918,-42 870,-42 "/>
<path style="fill:none;stroke:#b1ff3d;" d="M870,-42C864,-42 858,-36 858,-30"/>
<polyline style="fill:none;stroke:#b1ff3d;" points="858,-30 858,-36 "/>
<path style="fill:none;stroke:#b1ff3d;" d="M858,-36C858,-30 864,-24 870,-24"/>
<polyline style="fill:none;stroke:#b1ff3d;" points="870,-24 918,-24 "/>
<path style="fill:none;stroke:#b1ff3d;" d="M918,-24C924,-24 930,-30 930,-36"/>
<polyline style="fill:none;stroke:#b1ff3d;" points="930,-36 930,-30 "/>
<path style="fill:none;stroke:#b1ff3d;" d="M930,-30C930,-36 924,-42 918,-42"/>
<text text-anchor="middle" x="894" y="-30.8" style="font-family:Times New Roman;font-size:8.00;">PetTypeEditor</text>
</g>
<!-- EditOwnerForm&#45;&gt;welcome.jsp -->
<!-- AddVisitForm -->
<g id="node74" class="node"><title>AddVisitForm</title>
<polygon style="fill:#3399ff;stroke:#3399ff;" points="742,-42 670,-42 670,-24 742,-24 742,-42"/>
<text text-anchor="middle" x="706" y="-30.8" style="font-family:Times New Roman;font-size:8.00;">AddVisitForm</text>
</g>
<!-- ClinicController -->
<g id="node75" class="node"><title>ClinicController</title>
<polyline style="fill:none;stroke:#a3a3a3;" points="640,-42 584,-42 "/>
<path style="fill:none;stroke:#a3a3a3;" d="M584,-42C578,-42 572,-36 572,-30"/>
<polyline style="fill:none;stroke:#a3a3a3;" points="572,-30 572,-36 "/>
<path style="fill:none;stroke:#a3a3a3;" d="M572,-36C572,-30 578,-24 584,-24"/>
<polyline style="fill:none;stroke:#a3a3a3;" points="584,-24 640,-24 "/>
<path style="fill:none;stroke:#a3a3a3;" d="M640,-24C646,-24 652,-30 652,-36"/>
<polyline style="fill:none;stroke:#a3a3a3;" points="652,-36 652,-30 "/>
<path style="fill:none;stroke:#a3a3a3;" d="M652,-30C652,-36 646,-42 640,-42"/>
<text text-anchor="middle" x="612" y="-30.8" style="font-family:Times New Roman;font-size:8.00;">ClinicController</text>
</g>
<!-- ClinicBindingInitializer -->
<g id="node76" class="node"><title>ClinicBindingInitializer</title>
<polygon style="fill:#3399ff;stroke:#3399ff;" points="554,-42 446,-42 446,-24 554,-24 554,-42"/>
<text text-anchor="middle" x="500" y="-30.8" style="font-family:Times New Roman;font-size:8.00;">ClinicBindingInitializer</text>
</g>
<!-- Clinic -->
<g id="node77" class="node"><title>Clinic</title>
<polygon style="fill:#b1ff3d;stroke:#b1ff3d;" points="1903,-1182 1865,-1182 1865,-1164 1903,-1164 1903,-1182"/>
<text text-anchor="middle" x="1884" y="-1170.8" style="font-family:Times New Roman;font-size:8.00;">Clinic</text>
</g>
<!-- Pet -->
<g id="node78" class="node"><title>Pet</title>
<polygon style="fill:#b1ff3d;stroke:#b1ff3d;" points="1847,-1182 1817,-1182 1817,-1164 1847,-1164 1847,-1182"/>
<text text-anchor="middle" x="1832" y="-1170.8" style="font-family:Times New Roman;font-size:8.00;">Pet</text>
</g>
<!-- BaseEntity -->
<g id="node79" class="node"><title>BaseEntity</title>
<polygon style="fill:#b1ff3d;stroke:#b1ff3d;" points="1799,-1182 1739,-1182 1739,-1164 1799,-1164 1799,-1182"/>
<text text-anchor="middle" x="1769" y="-1170.8" style="font-family:Times New Roman;font-size:8.00;">BaseEntity</text>
</g>
<!-- EntityManagerClinic&#45;&gt;petclinic.hbm.xml -->
<!-- Owner -->
<g id="node81" class="node"><title>Owner</title>
<polygon style="fill:#b1ff3d;stroke:#b1ff3d;" points="1721,-1182 1677,-1182 1677,-1164 1721,-1164 1721,-1182"/>
<text text-anchor="middle" x="1699" y="-1170.8" style="font-family:Times New Roman;font-size:8.00;">Owner</text>
</g>
<!-- EssentialsHSQLPlatformWithNativeSequence&#45;&gt;petclinic_tomcat_hsql.xml -->
</g>
</svg>
