<?xml version="1.0" encoding="UTF-8" standalone="no"?>
<!DOCTYPE svg PUBLIC "-//W3C//DTD SVG 1.0//EN"
 "http://www.w3.org/TR/2001/REC-SVG-20010904/DTD/svg10.dtd" [
 <!ATTLIST svg xmlns:xlink CDATA #FIXED "http://www.w3.org/1999/xlink">
]>
<!-- Generated by Graphviz version 2.20.2 (Mon Mar 30 10:09:11 UTC 2009)
     For user: (jccastrejon) jccastrejon,,, -->
<!-- Title: petclinicClassification&#45;internal Pages: 1 -->
<svg width="2589pt" height="504pt"
 viewBox="0.00 0.00 2589.00 504.00" xmlns="http://www.w3.org/2000/svg" xmlns:xlink="http://www.w3.org/1999/xlink">
<g id="graph0" class="graph" transform="scale(1 1) rotate(0) translate(4 500)">
<title>petclinicClassification&#45;internal</title>
<polygon style="fill:white;stroke:white;" points="-4,4 -4,-500 2585,-500 2585,4 -4,4"/>
<g id="cluster2" class="cluster"><title>clusterMVCLayers</title>
<polygon style="fill:none;stroke:#ccffff;stroke-width:2;" points="957,-316 957,-488 1133,-488 1133,-316 957,-316"/>
<text text-anchor="middle" x="1045" y="-476.8" style="font-family:Times New Roman;font-size:8.00;">MVC Layers</text>
</g>
<g id="cluster3" class="cluster"><title>cluster_org.springframework.samples.petclinic.hibernate</title>
<polygon style="fill:none;stroke:black;" points="2086,-436 2086,-488 2313,-488 2313,-436 2086,-436"/>
<text text-anchor="middle" x="2200" y="-476.8" style="font-family:Times New Roman;font-size:8.00;">org.springframework.samples.petclinic.hibernate</text>
</g>
<g id="cluster4" class="cluster"><title>cluster_/</title>
<polygon style="fill:none;stroke:black;" points="2167,-376 2167,-428 2211,-428 2211,-376 2167,-376"/>
<text text-anchor="middle" x="2189" y="-416.8" style="font-family:Times New Roman;font-size:8.00;">/</text>
</g>
<g id="cluster5" class="cluster"><title>cluster_org.springframework.samples.petclinic.toplink</title>
<polygon style="fill:none;stroke:black;" points="2079,-316 2079,-368 2299,-368 2299,-316 2079,-316"/>
<text text-anchor="middle" x="2189" y="-356.8" style="font-family:Times New Roman;font-size:8.00;">org.springframework.samples.petclinic.toplink</text>
</g>
<g id="cluster6" class="cluster"><title>cluster_org.springframework.samples.petclinic.util</title>
<polygon style="fill:none;stroke:black;" points="2117,-256 2117,-308 2316,-308 2316,-256 2117,-256"/>
<text text-anchor="middle" x="2217" y="-296.8" style="font-family:Times New Roman;font-size:8.00;">org.springframework.samples.petclinic.util</text>
</g>
<g id="cluster7" class="cluster"><title>cluster_org.springframework.samples.petclinic.jpa</title>
<polygon style="fill:none;stroke:black;" points="2090,-196 2090,-248 2289,-248 2289,-196 2090,-196"/>
<text text-anchor="middle" x="2190" y="-236.8" style="font-family:Times New Roman;font-size:8.00;">org.springframework.samples.petclinic.jpa</text>
</g>
<g id="cluster8" class="cluster"><title>cluster_WEB&#45;INF/classes</title>
<polygon style="fill:none;stroke:black;" points="2136,-136 2136,-188 2242,-188 2242,-136 2136,-136"/>
<text text-anchor="middle" x="2189" y="-176.8" style="font-family:Times New Roman;font-size:8.00;">WEB&#45;INF/classes</text>
</g>
<g id="cluster9" class="cluster"><title>cluster_org.springframework.samples.petclinic.aspects</title>
<polygon style="fill:none;stroke:black;" points="1845,-76 1845,-128 2189,-128 2189,-76 1845,-76"/>
<text text-anchor="middle" x="2017" y="-116.8" style="font-family:Times New Roman;font-size:8.00;">org.springframework.samples.petclinic.aspects</text>
</g>
<g id="cluster10" class="cluster"><title>cluster_org.springframework.samples.petclinic.validation</title>
<polygon style="fill:none;stroke:black;" points="1192,-16 1192,-68 1460,-68 1460,-16 1192,-16"/>
<text text-anchor="middle" x="1326" y="-56.8" style="font-family:Times New Roman;font-size:8.00;">org.springframework.samples.petclinic.validation</text>
</g>
<g id="cluster11" class="cluster"><title>cluster_META&#45;INF</title>
<polygon style="fill:none;stroke:black;" points="249,-256 249,-308 567,-308 567,-256 249,-256"/>
<text text-anchor="middle" x="408" y="-296.8" style="font-family:Times New Roman;font-size:8.00;">META&#45;INF</text>
</g>
<g id="cluster12" class="cluster"><title>cluster_WEB&#45;INF</title>
<polygon style="fill:none;stroke:black;" points="30,-196 30,-248 684,-248 684,-196 30,-196"/>
<text text-anchor="middle" x="357" y="-236.8" style="font-family:Times New Roman;font-size:8.00;">WEB&#45;INF</text>
</g>
<g id="cluster13" class="cluster"><title>cluster_org.springframework.samples.petclinic.jdbc</title>
<polygon style="fill:none;stroke:black;" points="18,-76 18,-188 666,-188 666,-76 18,-76"/>
<text text-anchor="middle" x="342" y="-176.8" style="font-family:Times New Roman;font-size:8.00;">org.springframework.samples.petclinic.jdbc</text>
</g>
<g id="cluster14" class="cluster"><title>cluster_org.springframework.samples.petclinic.web</title>
<polygon style="fill:none;stroke:black;" points="674,-76 674,-128 1544,-128 1544,-76 674,-76"/>
<text text-anchor="middle" x="1109" y="-116.8" style="font-family:Times New Roman;font-size:8.00;">org.springframework.samples.petclinic.web</text>
</g>
<g id="cluster15" class="cluster"><title>cluster_WEB&#45;INF/jsp</title>
<polygon style="fill:none;stroke:black;" points="964,-136 964,-188 2128,-188 2128,-136 964,-136"/>
<text text-anchor="middle" x="1546" y="-176.8" style="font-family:Times New Roman;font-size:8.00;">WEB&#45;INF/jsp</text>
</g>
<g id="cluster16" class="cluster"><title>cluster_org.springframework.samples.petclinic</title>
<polygon style="fill:none;stroke:black;" points="2343,-256 2343,-488 2573,-488 2573,-256 2343,-256"/>
<text text-anchor="middle" x="2458" y="-476.8" style="font-family:Times New Roman;font-size:8.00;">org.springframework.samples.petclinic</text>
</g>
<!-- ModelLayer -->
<g id="node1" class="node"><title>ModelLayer</title>
<polygon style="fill:#b1ff3d;stroke:#b1ff3d;" points="1116,-462 1076,-462 1076,-444 1116,-444 1116,-462"/>
<text text-anchor="middle" x="1096" y="-450.8" style="font-family:Times New Roman;font-size:8.00;">Model</text>
</g>
<!-- ViewLayer -->
<g id="node2" class="node"><title>ViewLayer</title>
<polygon style="fill:#3399ff;stroke:#3399ff;" points="1114,-402 1078,-402 1078,-384 1114,-384 1114,-402"/>
<text text-anchor="middle" x="1096" y="-390.8" style="font-family:Times New Roman;font-size:8.00;">View</text>
</g>
<!-- ModelLayer&#45;&gt;ViewLayer -->
<!-- ControllerLayer -->
<g id="node3" class="node"><title>ControllerLayer</title>
<polygon style="fill:#a3a3a3;stroke:#a3a3a3;" points="1125,-342 1067,-342 1067,-324 1125,-324 1125,-342"/>
<text text-anchor="middle" x="1096" y="-330.8" style="font-family:Times New Roman;font-size:8.00;">Controller</text>
</g>
<!-- ViewLayer&#45;&gt;ControllerLayer -->
<!-- InvalidModelLayer -->
<g id="node4" class="node"><title>InvalidModelLayer</title>
<polyline style="fill:none;stroke:#b1ff3d;" points="1029,-462 985,-462 "/>
<path style="fill:none;stroke:#b1ff3d;" d="M985,-462C979,-462 973,-456 973,-450"/>
<polyline style="fill:none;stroke:#b1ff3d;" points="973,-450 973,-456 "/>
<path style="fill:none;stroke:#b1ff3d;" d="M973,-456C973,-450 979,-444 985,-444"/>
<polyline style="fill:none;stroke:#b1ff3d;" points="985,-444 1029,-444 "/>
<path style="fill:none;stroke:#b1ff3d;" d="M1029,-444C1035,-444 1041,-450 1041,-456"/>
<polyline style="fill:none;stroke:#b1ff3d;" points="1041,-456 1041,-450 "/>
<path style="fill:none;stroke:#b1ff3d;" d="M1041,-450C1041,-456 1035,-462 1029,-462"/>
<text text-anchor="middle" x="1007" y="-450.8" style="font-family:Times New Roman;font-size:8.00;">InvalidModel</text>
</g>
<!-- InvalidViewLayer -->
<g id="node5" class="node"><title>InvalidViewLayer</title>
<polyline style="fill:none;stroke:#3399ff;" points="1026,-402 988,-402 "/>
<path style="fill:none;stroke:#3399ff;" d="M988,-402C982,-402 976,-396 976,-390"/>
<polyline style="fill:none;stroke:#3399ff;" points="976,-390 976,-396 "/>
<path style="fill:none;stroke:#3399ff;" d="M976,-396C976,-390 982,-384 988,-384"/>
<polyline style="fill:none;stroke:#3399ff;" points="988,-384 1026,-384 "/>
<path style="fill:none;stroke:#3399ff;" d="M1026,-384C1032,-384 1038,-390 1038,-396"/>
<polyline style="fill:none;stroke:#3399ff;" points="1038,-396 1038,-390 "/>
<path style="fill:none;stroke:#3399ff;" d="M1038,-390C1038,-396 1032,-402 1026,-402"/>
<text text-anchor="middle" x="1007" y="-390.8" style="font-family:Times New Roman;font-size:8.00;">InvalidView</text>
</g>
<!-- InvalidModelLayer&#45;&gt;InvalidViewLayer -->
<!-- InvalidControllerLayer -->
<g id="node6" class="node"><title>InvalidControllerLayer</title>
<polyline style="fill:none;stroke:#a3a3a3;" points="1037,-342 977,-342 "/>
<path style="fill:none;stroke:#a3a3a3;" d="M977,-342C971,-342 965,-336 965,-330"/>
<polyline style="fill:none;stroke:#a3a3a3;" points="965,-330 965,-336 "/>
<path style="fill:none;stroke:#a3a3a3;" d="M965,-336C965,-330 971,-324 977,-324"/>
<polyline style="fill:none;stroke:#a3a3a3;" points="977,-324 1037,-324 "/>
<path style="fill:none;stroke:#a3a3a3;" d="M1037,-324C1043,-324 1049,-330 1049,-336"/>
<polyline style="fill:none;stroke:#a3a3a3;" points="1049,-336 1049,-330 "/>
<path style="fill:none;stroke:#a3a3a3;" d="M1049,-330C1049,-336 1043,-342 1037,-342"/>
<text text-anchor="middle" x="1007" y="-330.8" style="font-family:Times New Roman;font-size:8.00;">InvalidController</text>
</g>
<!-- InvalidViewLayer&#45;&gt;InvalidControllerLayer -->
<!-- context.xml -->
<g id="node10" class="node"><title>context.xml</title>
<polygon style="fill:#a3a3a3;stroke:#a3a3a3;" points="559,-282 495,-282 495,-264 559,-264 559,-282"/>
<text text-anchor="middle" x="527" y="-270.8" style="font-family:Times New Roman;font-size:8.00;">context.xml</text>
</g>
<!-- applicationContext&#45;hibernate.xml -->
<g id="node11" class="node"><title>applicationContext&#45;hibernate.xml</title>
<polygon style="fill:#a3a3a3;stroke:#a3a3a3;" points="676,-222 520,-222 520,-204 676,-204 676,-222"/>
<text text-anchor="middle" x="598" y="-210.8" style="font-family:Times New Roman;font-size:8.00;">applicationContext&#45;hibernate.xml</text>
</g>
<!-- SimpleJdbcClinic$1 -->
<g id="node59" class="node"><title>SimpleJdbcClinic$1</title>
<polygon style="fill:#b1ff3d;stroke:#b1ff3d;" points="658,-162 562,-162 562,-144 658,-144 658,-162"/>
<text text-anchor="middle" x="610" y="-150.8" style="font-family:Times New Roman;font-size:8.00;">SimpleJdbcClinic$1</text>
</g>
<!-- applicationContext&#45;hibernate.xml&#45;&gt;SimpleJdbcClinic$1 -->
<!-- applicationContext&#45;jdbc.xml -->
<g id="node12" class="node"><title>applicationContext&#45;jdbc.xml</title>
<polygon style="fill:#a3a3a3;stroke:#a3a3a3;" points="502,-222 370,-222 370,-204 502,-204 502,-222"/>
<text text-anchor="middle" x="436" y="-210.8" style="font-family:Times New Roman;font-size:8.00;">applicationContext&#45;jdbc.xml</text>
</g>
<!-- applicationContext&#45;jpa.xml -->
<g id="node13" class="node"><title>applicationContext&#45;jpa.xml</title>
<polygon style="fill:#a3a3a3;stroke:#a3a3a3;" points="352,-222 224,-222 224,-204 352,-204 352,-222"/>
<text text-anchor="middle" x="288" y="-210.8" style="font-family:Times New Roman;font-size:8.00;">applicationContext&#45;jpa.xml</text>
</g>
<!-- petclinic.hbm.xml -->
<g id="node14" class="node"><title>petclinic.hbm.xml</title>
<polygon style="fill:#a3a3a3;stroke:#a3a3a3;" points="2234,-162 2144,-162 2144,-144 2234,-144 2234,-162"/>
<text text-anchor="middle" x="2189" y="-150.8" style="font-family:Times New Roman;font-size:8.00;">petclinic.hbm.xml</text>
</g>
<!-- UsageLogAspect -->
<g id="node56" class="node"><title>UsageLogAspect</title>
<polygon style="fill:#a3a3a3;stroke:#a3a3a3;" points="1939,-102 1853,-102 1853,-84 1939,-84 1939,-102"/>
<text text-anchor="middle" x="1896" y="-90.8" style="font-family:Times New Roman;font-size:8.00;">UsageLogAspect</text>
</g>
<!-- petclinic.hbm.xml&#45;&gt;UsageLogAspect -->
<!-- dataAccessFailure.jsp -->
<g id="node15" class="node"><title>dataAccessFailure.jsp</title>
<polygon style="fill:#3399ff;stroke:#3399ff;" points="2120,-162 2012,-162 2012,-144 2120,-144 2120,-162"/>
<text text-anchor="middle" x="2066" y="-150.8" style="font-family:Times New Roman;font-size:8.00;">dataAccessFailure.jsp</text>
</g>
<!-- findOwners.jsp -->
<g id="node16" class="node"><title>findOwners.jsp</title>
<polygon style="fill:#3399ff;stroke:#3399ff;" points="1994,-162 1914,-162 1914,-144 1994,-144 1994,-162"/>
<text text-anchor="middle" x="1954" y="-150.8" style="font-family:Times New Roman;font-size:8.00;">findOwners.jsp</text>
</g>
<!-- footer.jsp -->
<g id="node17" class="node"><title>footer.jsp</title>
<polygon style="fill:#3399ff;stroke:#3399ff;" points="1896,-162 1840,-162 1840,-144 1896,-144 1896,-162"/>
<text text-anchor="middle" x="1868" y="-150.8" style="font-family:Times New Roman;font-size:8.00;">footer.jsp</text>
</g>
<!-- header.jsp -->
<g id="node18" class="node"><title>header.jsp</title>
<polygon style="fill:#3399ff;stroke:#3399ff;" points="1822,-162 1762,-162 1762,-144 1822,-144 1822,-162"/>
<text text-anchor="middle" x="1792" y="-150.8" style="font-family:Times New Roman;font-size:8.00;">header.jsp</text>
</g>
<!-- includes.jsp -->
<g id="node19" class="node"><title>includes.jsp</title>
<polygon style="fill:#3399ff;stroke:#3399ff;" points="1744,-162 1678,-162 1678,-144 1744,-144 1744,-162"/>
<text text-anchor="middle" x="1711" y="-150.8" style="font-family:Times New Roman;font-size:8.00;">includes.jsp</text>
</g>
<!-- owner.jsp -->
<g id="node20" class="node"><title>owner.jsp</title>
<polygon style="fill:#3399ff;stroke:#3399ff;" points="1660,-162 1604,-162 1604,-144 1660,-144 1660,-162"/>
<text text-anchor="middle" x="1632" y="-150.8" style="font-family:Times New Roman;font-size:8.00;">owner.jsp</text>
</g>
<!-- ownerForm.jsp -->
<g id="node21" class="node"><title>ownerForm.jsp</title>
<polygon style="fill:#3399ff;stroke:#3399ff;" points="1586,-162 1506,-162 1506,-144 1586,-144 1586,-162"/>
<text text-anchor="middle" x="1546" y="-150.8" style="font-family:Times New Roman;font-size:8.00;">ownerForm.jsp</text>
</g>
<!-- owners.jsp -->
<g id="node22" class="node"><title>owners.jsp</title>
<polygon style="fill:#3399ff;stroke:#3399ff;" points="1488,-162 1426,-162 1426,-144 1488,-144 1488,-162"/>
<text text-anchor="middle" x="1457" y="-150.8" style="font-family:Times New Roman;font-size:8.00;">owners.jsp</text>
</g>
<!-- petForm.jsp -->
<g id="node23" class="node"><title>petForm.jsp</title>
<polygon style="fill:#3399ff;stroke:#3399ff;" points="1408,-162 1342,-162 1342,-144 1408,-144 1408,-162"/>
<text text-anchor="middle" x="1375" y="-150.8" style="font-family:Times New Roman;font-size:8.00;">petForm.jsp</text>
</g>
<!-- uncaughtException.jsp -->
<g id="node24" class="node"><title>uncaughtException.jsp</title>
<polygon style="fill:#3399ff;stroke:#3399ff;" points="1324,-162 1214,-162 1214,-144 1324,-144 1324,-162"/>
<text text-anchor="middle" x="1269" y="-150.8" style="font-family:Times New Roman;font-size:8.00;">uncaughtException.jsp</text>
</g>
<!-- vets.jsp -->
<g id="node25" class="node"><title>vets.jsp</title>
<polygon style="fill:#3399ff;stroke:#3399ff;" points="1196,-162 1146,-162 1146,-144 1196,-144 1196,-162"/>
<text text-anchor="middle" x="1171" y="-150.8" style="font-family:Times New Roman;font-size:8.00;">vets.jsp</text>
</g>
<!-- visitForm.jsp -->
<g id="node26" class="node"><title>visitForm.jsp</title>
<polygon style="fill:#3399ff;stroke:#3399ff;" points="1128,-162 1058,-162 1058,-144 1128,-144 1128,-162"/>
<text text-anchor="middle" x="1093" y="-150.8" style="font-family:Times New Roman;font-size:8.00;">visitForm.jsp</text>
</g>
<!-- welcome.jsp -->
<g id="node27" class="node"><title>welcome.jsp</title>
<polygon style="fill:#3399ff;stroke:#3399ff;" points="1040,-162 972,-162 972,-144 1040,-144 1040,-162"/>
<text text-anchor="middle" x="1006" y="-150.8" style="font-family:Times New Roman;font-size:8.00;">welcome.jsp</text>
</g>
<!-- AddOwnerForm -->
<g id="node72" class="node"><title>AddOwnerForm</title>
<polygon style="fill:#3399ff;stroke:#3399ff;" points="1368,-102 1288,-102 1288,-84 1368,-84 1368,-102"/>
<text text-anchor="middle" x="1328" y="-90.8" style="font-family:Times New Roman;font-size:8.00;">AddOwnerForm</text>
</g>
<!-- welcome.jsp&#45;&gt;AddOwnerForm -->
<!-- petclinic&#45;servlet.xml -->
<g id="node28" class="node"><title>petclinic&#45;servlet.xml</title>
<polygon style="fill:#a3a3a3;stroke:#a3a3a3;" points="206,-222 106,-222 106,-204 206,-204 206,-222"/>
<text text-anchor="middle" x="156" y="-210.8" style="font-family:Times New Roman;font-size:8.00;">petclinic&#45;servlet.xml</text>
</g>
<!-- jsp -->
<g id="node29" class="node"><title>jsp</title>
<polygon style="fill:#3399ff;stroke:#3399ff;" points="2203,-402 2175,-402 2175,-384 2203,-384 2203,-402"/>
<text text-anchor="middle" x="2189" y="-390.8" style="font-family:Times New Roman;font-size:8.00;">jsp</text>
</g>
<!-- EssentialsHSQLPlatformWithNativeSequence -->
<g id="node67" class="node"><title>EssentialsHSQLPlatformWithNativeSequence</title>
<polygon style="fill:#b1ff3d;stroke:#b1ff3d;" points="2291,-342 2087,-342 2087,-324 2291,-324 2291,-342"/>
<text text-anchor="middle" x="2189" y="-330.8" style="font-family:Times New Roman;font-size:8.00;">EssentialsHSQLPlatformWithNativeSequence</text>
</g>
<!-- jsp&#45;&gt;EssentialsHSQLPlatformWithNativeSequence -->
<!-- web.xml -->
<g id="node30" class="node"><title>web.xml</title>
<polygon style="fill:#a3a3a3;stroke:#a3a3a3;" points="88,-222 38,-222 38,-204 88,-204 88,-222"/>
<text text-anchor="middle" x="63" y="-210.8" style="font-family:Times New Roman;font-size:8.00;">web.xml</text>
</g>
<!-- orm.xml -->
<g id="node31" class="node"><title>orm.xml</title>
<polygon style="fill:#a3a3a3;stroke:#a3a3a3;" points="477,-282 427,-282 427,-264 477,-264 477,-282"/>
<text text-anchor="middle" x="452" y="-270.8" style="font-family:Times New Roman;font-size:8.00;">orm.xml</text>
</g>
<!-- persistence.xml -->
<g id="node32" class="node"><title>persistence.xml</title>
<polygon style="fill:#a3a3a3;stroke:#a3a3a3;" points="409,-282 325,-282 325,-264 409,-264 409,-282"/>
<text text-anchor="middle" x="367" y="-270.8" style="font-family:Times New Roman;font-size:8.00;">persistence.xml</text>
</g>
<!-- persistence.xml&#45;&gt;applicationContext&#45;hibernate.xml -->
<!-- BaseEntity -->
<g id="node33" class="node"><title>BaseEntity</title>
<polygon style="fill:#b1ff3d;stroke:#b1ff3d;" points="2497,-282 2437,-282 2437,-264 2497,-264 2497,-282"/>
<text text-anchor="middle" x="2467" y="-270.8" style="font-family:Times New Roman;font-size:8.00;">BaseEntity</text>
</g>
<!-- Clinic -->
<g id="node34" class="node"><title>Clinic</title>
<polygon style="fill:#b1ff3d;stroke:#b1ff3d;" points="2565,-462 2527,-462 2527,-444 2565,-444 2565,-462"/>
<text text-anchor="middle" x="2546" y="-450.8" style="font-family:Times New Roman;font-size:8.00;">Clinic</text>
</g>
<!-- NamedEntity -->
<g id="node35" class="node"><title>NamedEntity</title>
<polygon style="fill:#b1ff3d;stroke:#b1ff3d;" points="2501,-342 2433,-342 2433,-324 2501,-324 2501,-342"/>
<text text-anchor="middle" x="2467" y="-330.8" style="font-family:Times New Roman;font-size:8.00;">NamedEntity</text>
</g>
<!-- NamedEntity&#45;&gt;BaseEntity -->
<g id="edge9" class="edge"><title>NamedEntity&#45;&gt;BaseEntity</title>
<path style="fill:none;stroke:black;" d="M2467,-324C2467,-316 2467,-303 2467,-292"/>
<polygon style="fill:black;stroke:black;" points="2470.5,-292 2467,-282 2463.5,-292 2470.5,-292"/>
</g>
<!-- Owner -->
<g id="node37" class="node"><title>Owner</title>
<polygon style="fill:#b1ff3d;stroke:#b1ff3d;" points="2415,-342 2371,-342 2371,-324 2415,-324 2415,-342"/>
<text text-anchor="middle" x="2393" y="-330.8" style="font-family:Times New Roman;font-size:8.00;">Owner</text>
</g>
<!-- Person -->
<g id="node38" class="node"><title>Person</title>
<polygon style="fill:#b1ff3d;stroke:#b1ff3d;" points="2565,-342 2519,-342 2519,-324 2565,-324 2565,-342"/>
<text text-anchor="middle" x="2542" y="-330.8" style="font-family:Times New Roman;font-size:8.00;">Person</text>
</g>
<!-- Person&#45;&gt;BaseEntity -->
<g id="edge11" class="edge"><title>Person&#45;&gt;BaseEntity</title>
<path style="fill:none;stroke:black;" d="M2531,-324C2519,-315 2501,-300 2487,-288"/>
<polygon style="fill:black;stroke:black;" points="2489.1,-285.2 2479,-282 2484.9,-290.8 2489.1,-285.2"/>
</g>
<!-- Pet -->
<g id="node40" class="node"><title>Pet</title>
<polygon style="fill:#b1ff3d;stroke:#b1ff3d;" points="2401,-402 2371,-402 2371,-384 2401,-384 2401,-402"/>
<text text-anchor="middle" x="2386" y="-390.8" style="font-family:Times New Roman;font-size:8.00;">Pet</text>
</g>
<!-- Pet&#45;&gt;NamedEntity -->
<g id="edge13" class="edge"><title>Pet&#45;&gt;NamedEntity</title>
<path style="fill:none;stroke:black;" d="M2398,-384C2402,-381 2406,-378 2410,-376 2416,-372 2418,-372 2424,-368 2433,-362 2441,-355 2449,-349"/>
<polygon style="fill:black;stroke:black;" points="2451.78,-351.219 2457,-342 2447.17,-345.951 2451.78,-351.219"/>
</g>
<!-- Pet&#45;&gt;Owner -->
<g id="edge15" class="edge"><title>Pet&#45;&gt;Owner</title>
<path style="fill:none;stroke:black;" d="M2387,-384C2388,-376 2390,-363 2391,-352"/>
<polygon style="fill:black;stroke:black;" points="2394.49,-352.299 2392,-342 2387.52,-351.602 2394.49,-352.299"/>
</g>
<!-- PetType -->
<g id="node43" class="node"><title>PetType</title>
<polygon style="fill:#b1ff3d;stroke:#b1ff3d;" points="2467,-402 2419,-402 2419,-384 2467,-384 2467,-402"/>
<text text-anchor="middle" x="2443" y="-390.8" style="font-family:Times New Roman;font-size:8.00;">PetType</text>
</g>
<!-- PetType&#45;&gt;NamedEntity -->
<g id="edge17" class="edge"><title>PetType&#45;&gt;NamedEntity</title>
<path style="fill:none;stroke:black;" d="M2447,-384C2450,-376 2455,-362 2459,-352"/>
<polygon style="fill:black;stroke:black;" points="2462.54,-352.585 2463,-342 2456.04,-349.985 2462.54,-352.585"/>
</g>
<!-- Specialty -->
<g id="node45" class="node"><title>Specialty</title>
<polygon style="fill:#b1ff3d;stroke:#b1ff3d;" points="2539,-402 2485,-402 2485,-384 2539,-384 2539,-402"/>
<text text-anchor="middle" x="2512" y="-390.8" style="font-family:Times New Roman;font-size:8.00;">Specialty</text>
</g>
<!-- Specialty&#45;&gt;NamedEntity -->
<g id="edge19" class="edge"><title>Specialty&#45;&gt;NamedEntity</title>
<path style="fill:none;stroke:black;" d="M2505,-384C2499,-375 2489,-361 2480,-350"/>
<polygon style="fill:black;stroke:black;" points="2482.8,-347.9 2474,-342 2477.2,-352.1 2482.8,-347.9"/>
</g>
<!-- Vet -->
<g id="node47" class="node"><title>Vet</title>
<polygon style="fill:#b1ff3d;stroke:#b1ff3d;" points="2509,-462 2481,-462 2481,-444 2509,-444 2509,-462"/>
<text text-anchor="middle" x="2495" y="-450.8" style="font-family:Times New Roman;font-size:8.00;">Vet</text>
</g>
<!-- Vet&#45;&gt;Person -->
<g id="edge21" class="edge"><title>Vet&#45;&gt;Person</title>
<path style="fill:none;stroke:black;" d="M2505,-444C2509,-441 2513,-438 2518,-436 2530,-430 2539,-438 2548,-428 2564,-406 2557,-373 2550,-352"/>
<polygon style="fill:black;stroke:black;" points="2552.96,-349.985 2546,-342 2546.46,-352.585 2552.96,-349.985"/>
</g>
<!-- Vet&#45;&gt;Specialty -->
<g id="edge23" class="edge"><title>Vet&#45;&gt;Specialty</title>
<path style="fill:none;stroke:black;" d="M2498,-444C2500,-436 2504,-423 2506,-412"/>
<polygon style="fill:black;stroke:black;" points="2509.48,-412.584 2509,-402 2502.77,-410.573 2509.48,-412.584"/>
</g>
<!-- Visit -->
<g id="node50" class="node"><title>Visit</title>
<polygon style="fill:#b1ff3d;stroke:#b1ff3d;" points="2394,-462 2360,-462 2360,-444 2394,-444 2394,-462"/>
<text text-anchor="middle" x="2377" y="-450.8" style="font-family:Times New Roman;font-size:8.00;">Visit</text>
</g>
<!-- Visit&#45;&gt;BaseEntity -->
<g id="edge27" class="edge"><title>Visit&#45;&gt;BaseEntity</title>
<path style="fill:none;stroke:black;" d="M2370,-444C2367,-439 2363,-433 2362,-428 2348,-380 2334,-357 2362,-316 2377,-294 2404,-284 2427,-278"/>
<polygon style="fill:black;stroke:black;" points="2427.88,-281.393 2437,-276 2426.51,-274.529 2427.88,-281.393"/>
</g>
<!-- Visit&#45;&gt;Pet -->
<g id="edge25" class="edge"><title>Visit&#45;&gt;Pet</title>
<path style="fill:none;stroke:black;" d="M2378,-444C2379,-436 2382,-423 2383,-412"/>
<polygon style="fill:black;stroke:black;" points="2386.47,-412.492 2385,-402 2379.61,-411.119 2386.47,-412.492"/>
</g>
<!-- aop.xml -->
<g id="node53" class="node"><title>aop.xml</title>
<polygon style="fill:#a3a3a3;stroke:#a3a3a3;" points="307,-282 257,-282 257,-264 307,-264 307,-282"/>
<text text-anchor="middle" x="282" y="-270.8" style="font-family:Times New Roman;font-size:8.00;">aop.xml</text>
</g>
<!-- AbstractTraceAspect -->
<g id="node54" class="node"><title>AbstractTraceAspect</title>
<polygon style="fill:#a3a3a3;stroke:#a3a3a3;" points="2181,-102 2079,-102 2079,-84 2181,-84 2181,-102"/>
<text text-anchor="middle" x="2130" y="-90.8" style="font-family:Times New Roman;font-size:8.00;">AbstractTraceAspect</text>
</g>
<!-- CallMonitoringAspect -->
<g id="node55" class="node"><title>CallMonitoringAspect</title>
<polygon style="fill:#a3a3a3;stroke:#a3a3a3;" points="2061,-102 1957,-102 1957,-84 2061,-84 2061,-102"/>
<text text-anchor="middle" x="2009" y="-90.8" style="font-family:Times New Roman;font-size:8.00;">CallMonitoringAspect</text>
</g>
<!-- OwnerValidator -->
<g id="node69" class="node"><title>OwnerValidator</title>
<polygon style="fill:#a3a3a3;stroke:#a3a3a3;" points="1368,-42 1288,-42 1288,-24 1368,-24 1368,-42"/>
<text text-anchor="middle" x="1328" y="-30.8" style="font-family:Times New Roman;font-size:8.00;">OwnerValidator</text>
</g>
<!-- UsageLogAspect&#45;&gt;OwnerValidator -->
<!-- HibernateClinic -->
<g id="node57" class="node"><title>HibernateClinic</title>
<polygon style="fill:#b1ff3d;stroke:#b1ff3d;" points="2229,-462 2149,-462 2149,-444 2229,-444 2229,-462"/>
<text text-anchor="middle" x="2189" y="-450.8" style="font-family:Times New Roman;font-size:8.00;">HibernateClinic</text>
</g>
<!-- HibernateClinic&#45;&gt;jsp -->
<!-- JdbcPet -->
<g id="node58" class="node"><title>JdbcPet</title>
<polygon style="fill:#b1ff3d;stroke:#b1ff3d;" points="295,-102 249,-102 249,-84 295,-84 295,-102"/>
<text text-anchor="middle" x="272" y="-90.8" style="font-family:Times New Roman;font-size:8.00;">JdbcPet</text>
</g>
<!-- EditOwnerForm -->
<g id="node80" class="node"><title>EditOwnerForm</title>
<polygon style="fill:#3399ff;stroke:#3399ff;" points="1046,-102 966,-102 966,-84 1046,-84 1046,-102"/>
<text text-anchor="middle" x="1006" y="-90.8" style="font-family:Times New Roman;font-size:8.00;">EditOwnerForm</text>
</g>
<!-- SimpleJdbcClinic$1&#45;&gt;EditOwnerForm -->
<!-- SimpleJdbcClinic$2 -->
<g id="node60" class="node"><title>SimpleJdbcClinic$2</title>
<polygon style="fill:#b1ff3d;stroke:#b1ff3d;" points="544,-162 448,-162 448,-144 544,-144 544,-162"/>
<text text-anchor="middle" x="496" y="-150.8" style="font-family:Times New Roman;font-size:8.00;">SimpleJdbcClinic$2</text>
</g>
<!-- SimpleJdbcClinic$JdbcPetRowMapper -->
<g id="node61" class="node"><title>SimpleJdbcClinic$JdbcPetRowMapper</title>
<polygon style="fill:#b1ff3d;stroke:#b1ff3d;" points="430,-162 260,-162 260,-144 430,-144 430,-162"/>
<text text-anchor="middle" x="345" y="-150.8" style="font-family:Times New Roman;font-size:8.00;">SimpleJdbcClinic$JdbcPetRowMapper</text>
</g>
<!-- SimpleJdbcClinic$JdbcPetRowMapper&#45;&gt;JdbcPet -->
<g id="edge29" class="edge"><title>SimpleJdbcClinic$JdbcPetRowMapper&#45;&gt;JdbcPet</title>
<path style="fill:none;stroke:black;" d="M334,-144C322,-135 305,-120 291,-108"/>
<polygon style="fill:black;stroke:black;" points="293.1,-105.2 283,-102 288.9,-110.8 293.1,-105.2"/>
</g>
<!-- SimpleJdbcClinic -->
<g id="node63" class="node"><title>SimpleJdbcClinic</title>
<polygon style="fill:#b1ff3d;stroke:#b1ff3d;" points="242,-162 158,-162 158,-144 242,-144 242,-162"/>
<text text-anchor="middle" x="200" y="-150.8" style="font-family:Times New Roman;font-size:8.00;">SimpleJdbcClinic</text>
</g>
<!-- SimpleJdbcClinic&#45;&gt;JdbcPet -->
<g id="edge31" class="edge"><title>SimpleJdbcClinic&#45;&gt;JdbcPet</title>
<path style="fill:none;stroke:black;" d="M211,-144C222,-135 239,-120 253,-108"/>
<polygon style="fill:black;stroke:black;" points="255.1,-110.8 261,-102 250.9,-105.2 255.1,-110.8"/>
</g>
<!-- SimpleJdbcClinicMBean -->
<g id="node65" class="node"><title>SimpleJdbcClinicMBean</title>
<polygon style="fill:#b1ff3d;stroke:#b1ff3d;" points="140,-162 26,-162 26,-144 140,-144 140,-162"/>
<text text-anchor="middle" x="83" y="-150.8" style="font-family:Times New Roman;font-size:8.00;">SimpleJdbcClinicMBean</text>
</g>
<!-- EntityManagerClinic -->
<g id="node66" class="node"><title>EntityManagerClinic</title>
<polygon style="fill:#b1ff3d;stroke:#b1ff3d;" points="2238,-222 2140,-222 2140,-204 2238,-204 2238,-222"/>
<text text-anchor="middle" x="2189" y="-210.8" style="font-family:Times New Roman;font-size:8.00;">EntityManagerClinic</text>
</g>
<!-- EntityManagerClinic&#45;&gt;petclinic.hbm.xml -->
<!-- EntityUtils -->
<g id="node68" class="node"><title>EntityUtils</title>
<polygon style="fill:#b1ff3d;stroke:#b1ff3d;" points="2218,-282 2160,-282 2160,-264 2218,-264 2218,-282"/>
<text text-anchor="middle" x="2189" y="-270.8" style="font-family:Times New Roman;font-size:8.00;">EntityUtils</text>
</g>
<!-- EssentialsHSQLPlatformWithNativeSequence&#45;&gt;EntityUtils -->
<!-- EntityUtils&#45;&gt;EntityManagerClinic -->
<!-- OwnerValidator&#45;&gt;persistence.xml -->
<!-- PetValidator -->
<g id="node70" class="node"><title>PetValidator</title>
<polygon style="fill:#a3a3a3;stroke:#a3a3a3;" points="1452,-42 1386,-42 1386,-24 1452,-24 1452,-42"/>
<text text-anchor="middle" x="1419" y="-30.8" style="font-family:Times New Roman;font-size:8.00;">PetValidator</text>
</g>
<!-- VisitValidator -->
<g id="node71" class="node"><title>VisitValidator</title>
<polygon style="fill:#a3a3a3;stroke:#a3a3a3;" points="1270,-42 1200,-42 1200,-24 1270,-24 1270,-42"/>
<text text-anchor="middle" x="1235" y="-30.8" style="font-family:Times New Roman;font-size:8.00;">VisitValidator</text>
</g>
<!-- AddOwnerForm&#45;&gt;OwnerValidator -->
<g id="edge33" class="edge"><title>AddOwnerForm&#45;&gt;OwnerValidator</title>
<path style="fill:none;stroke:black;" d="M1328,-84C1328,-76 1328,-63 1328,-52"/>
<polygon style="fill:black;stroke:black;" points="1331.5,-52 1328,-42 1324.5,-52 1331.5,-52"/>
</g>
<!-- AddPetForm -->
<g id="node74" class="node"><title>AddPetForm</title>
<polygon style="fill:#3399ff;stroke:#3399ff;" points="1452,-102 1386,-102 1386,-84 1452,-84 1452,-102"/>
<text text-anchor="middle" x="1419" y="-90.8" style="font-family:Times New Roman;font-size:8.00;">AddPetForm</text>
</g>
<!-- AddPetForm&#45;&gt;PetValidator -->
<g id="edge35" class="edge"><title>AddPetForm&#45;&gt;PetValidator</title>
<path style="fill:none;stroke:black;" d="M1419,-84C1419,-76 1419,-63 1419,-52"/>
<polygon style="fill:black;stroke:black;" points="1422.5,-52 1419,-42 1415.5,-52 1422.5,-52"/>
</g>
<!-- AddVisitForm -->
<g id="node76" class="node"><title>AddVisitForm</title>
<polygon style="fill:#3399ff;stroke:#3399ff;" points="948,-102 876,-102 876,-84 948,-84 948,-102"/>
<text text-anchor="middle" x="912" y="-90.8" style="font-family:Times New Roman;font-size:8.00;">AddVisitForm</text>
</g>
<!-- AddVisitForm&#45;&gt;VisitValidator -->
<g id="edge37" class="edge"><title>AddVisitForm&#45;&gt;VisitValidator</title>
<path style="fill:none;stroke:black;" d="M933,-84C941,-81 949,-78 957,-76 1038,-54 1134,-42 1190,-37"/>
<polygon style="fill:black;stroke:black;" points="1190.4,-40.4778 1200,-36 1189.7,-33.5125 1190.4,-40.4778"/>
</g>
<!-- ClinicBindingInitializer -->
<g id="node78" class="node"><title>ClinicBindingInitializer</title>
<polygon style="fill:#3399ff;stroke:#3399ff;" points="1270,-102 1162,-102 1162,-84 1270,-84 1270,-102"/>
<text text-anchor="middle" x="1216" y="-90.8" style="font-family:Times New Roman;font-size:8.00;">ClinicBindingInitializer</text>
</g>
<!-- ClinicController -->
<g id="node79" class="node"><title>ClinicController</title>
<polyline style="fill:none;stroke:#a3a3a3;" points="1132,-102 1076,-102 "/>
<path style="fill:none;stroke:#a3a3a3;" d="M1076,-102C1070,-102 1064,-96 1064,-90"/>
<polyline style="fill:none;stroke:#a3a3a3;" points="1064,-90 1064,-96 "/>
<path style="fill:none;stroke:#a3a3a3;" d="M1064,-96C1064,-90 1070,-84 1076,-84"/>
<polyline style="fill:none;stroke:#a3a3a3;" points="1076,-84 1132,-84 "/>
<path style="fill:none;stroke:#a3a3a3;" d="M1132,-84C1138,-84 1144,-90 1144,-96"/>
<polyline style="fill:none;stroke:#a3a3a3;" points="1144,-96 1144,-90 "/>
<path style="fill:none;stroke:#a3a3a3;" d="M1144,-90C1144,-96 1138,-102 1132,-102"/>
<text text-anchor="middle" x="1104" y="-90.8" style="font-family:Times New Roman;font-size:8.00;">ClinicController</text>
</g>
<!-- EditOwnerForm&#45;&gt;welcome.jsp -->
<!-- EditOwnerForm&#45;&gt;OwnerValidator -->
<g id="edge39" class="edge"><title>EditOwnerForm&#45;&gt;OwnerValidator</title>
<path style="fill:none;stroke:black;" d="M1028,-84C1036,-81 1046,-78 1055,-76 1104,-66 1232,-84 1279,-68 1291,-64 1302,-56 1311,-49"/>
<polygon style="fill:black;stroke:black;" points="1313.78,-51.2191 1319,-42 1309.17,-45.9511 1313.78,-51.2191"/>
</g>
<!-- EditPetForm -->
<g id="node82" class="node"><title>EditPetForm</title>
<polygon style="fill:#3399ff;stroke:#3399ff;" points="1536,-102 1470,-102 1470,-84 1536,-84 1536,-102"/>
<text text-anchor="middle" x="1503" y="-90.8" style="font-family:Times New Roman;font-size:8.00;">EditPetForm</text>
</g>
<!-- EditPetForm&#45;&gt;PetValidator -->
<g id="edge41" class="edge"><title>EditPetForm&#45;&gt;PetValidator</title>
<path style="fill:none;stroke:black;" d="M1490,-84C1477,-75 1456,-59 1440,-48"/>
<polygon style="fill:black;stroke:black;" points="1442.1,-45.2 1432,-42 1437.9,-50.8 1442.1,-45.2"/>
</g>
<!-- FindOwnersForm -->
<g id="node84" class="node"><title>FindOwnersForm</title>
<polygon style="fill:#3399ff;stroke:#3399ff;" points="858,-102 772,-102 772,-84 858,-84 858,-102"/>
<text text-anchor="middle" x="815" y="-90.8" style="font-family:Times New Roman;font-size:8.00;">FindOwnersForm</text>
</g>
<!-- PetTypeEditor -->
<g id="node85" class="node"><title>PetTypeEditor</title>
<polyline style="fill:none;stroke:#b1ff3d;" points="742,-102 694,-102 "/>
<path style="fill:none;stroke:#b1ff3d;" d="M694,-102C688,-102 682,-96 682,-90"/>
<polyline style="fill:none;stroke:#b1ff3d;" points="682,-90 682,-96 "/>
<path style="fill:none;stroke:#b1ff3d;" d="M682,-96C682,-90 688,-84 694,-84"/>
<polyline style="fill:none;stroke:#b1ff3d;" points="694,-84 742,-84 "/>
<path style="fill:none;stroke:#b1ff3d;" d="M742,-84C748,-84 754,-90 754,-96"/>
<polyline style="fill:none;stroke:#b1ff3d;" points="754,-96 754,-90 "/>
<path style="fill:none;stroke:#b1ff3d;" d="M754,-90C754,-96 748,-102 742,-102"/>
<text text-anchor="middle" x="718" y="-90.8" style="font-family:Times New Roman;font-size:8.00;">PetTypeEditor</text>
</g>
</g>
</svg>
